<svg id="Layer_1" data-name="Layer 1" xmlns="http://www.w3.org/2000/svg" viewBox="0 0 80.94 87"><defs><style>.cls-1{fill:#231f20;}.cls-2{fill:none;stroke:#1d1d1b;stroke-miterlimit:10;stroke-width:0.08px;}.cls-3{fill:#fff;}.cls-4{fill:#606161;}</style></defs><path class="cls-1" d="M44.61,82.39a7.7,7.7,0,0,1,0,.83,3,3,0,0,0,0,.79,1.45,1.45,0,0,1,0,.36c0,.34-.43.35-.61.14a1.75,1.75,0,0,1-.34-.59,3,3,0,0,1,0-1.08c0-.22,0-.45,0-.67a.35.35,0,0,0-.38-.43,2.49,2.49,0,0,0-1.47.75c-.4.38-.72,1-1.32,1h0a.44.44,0,0,1-.32-.09A.65.65,0,0,1,40,83a2.6,2.6,0,0,1-.06-.56c0-.42,0-.84.06-1.26s0-.83.07-1.25.06-.73.08-1.1-.05-.62.14-.84a.24.24,0,0,1,.18-.1c.23,0,.42.25.52.42A2.91,2.91,0,0,1,41,79.84c0,.31,0,.62,0,.93s0,.31,0,.46v.24s0,.2,0,.22l0,0a5.51,5.51,0,0,0,.66-.47,2.48,2.48,0,0,1,1.53-.67,1.45,1.45,0,0,1,1.21.83l.06.09a2.44,2.44,0,0,1,.18.89"/><path class="cls-2" d="M44.61,82.39a7.7,7.7,0,0,1,0,.83,3,3,0,0,0,0,.79,1.45,1.45,0,0,1,0,.36c0,.34-.43.35-.61.14a1.75,1.75,0,0,1-.34-.59,3,3,0,0,1,0-1.08c0-.22,0-.45,0-.67a.35.35,0,0,0-.38-.43,2.49,2.49,0,0,0-1.47.75c-.4.38-.72,1-1.32,1h0a.44.44,0,0,1-.32-.09A.65.65,0,0,1,40,83a2.6,2.6,0,0,1-.06-.56c0-.42,0-.84.06-1.26s0-.83.07-1.25.06-.73.08-1.1-.05-.62.14-.84a.24.24,0,0,1,.18-.1c.23,0,.42.25.52.42A2.91,2.91,0,0,1,41,79.84c0,.31,0,.62,0,.93s0,.31,0,.46v.24s0,.2,0,.22l0,0a5.51,5.51,0,0,0,.66-.47,2.48,2.48,0,0,1,1.53-.67,1.45,1.45,0,0,1,1.21.83l.06.09A2.44,2.44,0,0,1,44.61,82.39Z"/><path class="cls-1" d="M49.4,82.38s0,.06,0,.08a1.33,1.33,0,0,1-.26.61,2.24,2.24,0,0,1-.42.45,3.77,3.77,0,0,1-.9.5,3.13,3.13,0,0,1-1.09.19,3,3,0,0,1-.73-.14,1.11,1.11,0,0,1-.3-.17l-.27-.22-.07-.06a3.3,3.3,0,0,1-.18-.32,2.55,2.55,0,0,1-.11-.55c0-.2,0-.4,0-.6a2.41,2.41,0,0,1,0-.38.29.29,0,0,0,0-.09c0-.16.08-.33.14-.48s.31-.3.47-.41a1.81,1.81,0,0,1,.46-.17,4.27,4.27,0,0,1,.48-.13,7.3,7.3,0,0,1,.81,0,1.55,1.55,0,0,1,.66.18,2.34,2.34,0,0,1,1.2,1.16,1.32,1.32,0,0,1,.08.56m-.83-.24v-.09a.78.78,0,0,0-.15-.22.73.73,0,0,0-.2-.19.61.61,0,0,0-.27-.08,2.44,2.44,0,0,0-.39-.07,3.87,3.87,0,0,0-.48,0l-.49.09-.22,0s-.11,0-.12.08a.38.38,0,0,0,0,.1s-.06.37-.11.37a.39.39,0,0,0-.06.11,2.53,2.53,0,0,0-.12.23.14.14,0,0,0,0,.06.18.18,0,0,0,.06.15,1.34,1.34,0,0,0,.31.17,1,1,0,0,0,.53.1l.3,0a3.66,3.66,0,0,0,.7-.25c.25-.1.7-.26.74-.58"/><path class="cls-2" d="M49.4,82.38s0,.06,0,.08a1.33,1.33,0,0,1-.26.61,2.24,2.24,0,0,1-.42.45,3.77,3.77,0,0,1-.9.5,3.13,3.13,0,0,1-1.09.19,3,3,0,0,1-.73-.14,1.11,1.11,0,0,1-.3-.17l-.27-.22-.07-.06a3.3,3.3,0,0,1-.18-.32,2.55,2.55,0,0,1-.11-.55c0-.2,0-.4,0-.6a2.41,2.41,0,0,1,0-.38.29.29,0,0,0,0-.09c0-.16.08-.33.14-.48s.31-.3.47-.41a1.81,1.81,0,0,1,.46-.17,4.27,4.27,0,0,1,.48-.13,7.3,7.3,0,0,1,.81,0,1.55,1.55,0,0,1,.66.18,2.34,2.34,0,0,1,1.2,1.16A1.32,1.32,0,0,1,49.4,82.38Zm-.83-.24v-.09a.78.78,0,0,0-.15-.22.73.73,0,0,0-.2-.19.61.61,0,0,0-.27-.08,2.44,2.44,0,0,0-.39-.07,3.87,3.87,0,0,0-.48,0l-.49.09-.22,0s-.11,0-.12.08a.38.38,0,0,0,0,.1s-.06.37-.11.37a.39.39,0,0,0-.06.11,2.53,2.53,0,0,0-.12.23.14.14,0,0,0,0,.06.18.18,0,0,0,.06.15,1.34,1.34,0,0,0,.31.17,1,1,0,0,0,.53.1l.3,0a3.66,3.66,0,0,0,.7-.25C48.08,82.62,48.53,82.46,48.57,82.14Z"/><path class="cls-1" d="M53.45,81.79a5.4,5.4,0,0,1-.16.78,2.87,2.87,0,0,1-.3.66,2.31,2.31,0,0,1-.73.73,1.46,1.46,0,0,1-1.47.1A2.29,2.29,0,0,1,49.94,83a1.12,1.12,0,0,1,0-.45,2.12,2.12,0,0,1,0-.44.25.25,0,0,1,.14-.16s.13-.1.18-.08a.77.77,0,0,1,.43.47c0,.12,0,.23.07.35A.69.69,0,0,0,51,83c.37.3.81,0,1.1-.28a1.09,1.09,0,0,0,.38-.54c0-.1.11-.34.22-.71a1.28,1.28,0,0,1,.29-.5.7.7,0,0,1,.19.06l.06,0,0,.06c.07.13.19.25.2.4s0,.2,0,.3"/><path class="cls-2" d="M53.45,81.79a5.4,5.4,0,0,1-.16.78,2.87,2.87,0,0,1-.3.66,2.31,2.31,0,0,1-.73.73,1.46,1.46,0,0,1-1.47.1A2.29,2.29,0,0,1,49.94,83a1.12,1.12,0,0,1,0-.45,2.12,2.12,0,0,1,0-.44.25.25,0,0,1,.14-.16s.13-.1.18-.08a.77.77,0,0,1,.43.47c0,.12,0,.23.07.35A.69.69,0,0,0,51,83c.37.3.81,0,1.1-.28a1.09,1.09,0,0,0,.38-.54c0-.1.11-.34.22-.71a1.28,1.28,0,0,1,.29-.5.7.7,0,0,1,.19.06l.06,0,0,.06c.07.13.19.25.2.4S53.45,81.69,53.45,81.79Z"/><path class="cls-1" d="M57.2,83.31a.6.6,0,0,1-.1.35,1.24,1.24,0,0,1-.46.26,2.27,2.27,0,0,1-1.09.19A5.14,5.14,0,0,1,54.38,84c-.17,0-.35-.14-.39-.31a1,1,0,0,1,0-.24.43.43,0,0,1,.15-.21,2.23,2.23,0,0,1,.36,0c.41,0,.81-.05,1.22-.1a.09.09,0,0,0,.06,0,.08.08,0,0,0,0-.08s-.13-.07-.19-.1l-.24-.1a4.09,4.09,0,0,1-.47-.23,1.72,1.72,0,0,1-.67-.61,1,1,0,0,1-.1-.88.39.39,0,0,1,.08-.14.53.53,0,0,1,.23-.13,2.17,2.17,0,0,1,.62-.1,3.69,3.69,0,0,1,1.05,0,1.83,1.83,0,0,1,.94.47c.08.08.16.2.11.3s-.1.1-.07.16a.25.25,0,0,1-.22.11,1,1,0,0,1-.25,0,2.39,2.39,0,0,0-1.27,0,.73.73,0,0,0,.35.21,4.1,4.1,0,0,1,1,.54,1.92,1.92,0,0,1,.45.45,1.17,1.17,0,0,1,.14.47"/><path class="cls-2" d="M57.2,83.31a.6.6,0,0,1-.1.35,1.24,1.24,0,0,1-.46.26,2.27,2.27,0,0,1-1.09.19A5.14,5.14,0,0,1,54.38,84c-.17,0-.35-.14-.39-.31a1,1,0,0,1,0-.24.43.43,0,0,1,.15-.21,2.23,2.23,0,0,1,.36,0c.41,0,.81-.05,1.22-.1a.09.09,0,0,0,.06,0,.08.08,0,0,0,0-.08s-.13-.07-.19-.1l-.24-.1a4.09,4.09,0,0,1-.47-.23,1.72,1.72,0,0,1-.67-.61,1,1,0,0,1-.1-.88.39.39,0,0,1,.08-.14.53.53,0,0,1,.23-.13,2.17,2.17,0,0,1,.62-.1,3.69,3.69,0,0,1,1.05,0,1.83,1.83,0,0,1,.94.47c.08.08.16.2.11.3s-.1.1-.07.16a.25.25,0,0,1-.22.11,1,1,0,0,1-.25,0,2.39,2.39,0,0,0-1.27,0,.73.73,0,0,0,.35.21,4.1,4.1,0,0,1,1,.54,1.92,1.92,0,0,1,.45.45A1.17,1.17,0,0,1,57.2,83.31Z"/><path class="cls-1" d="M61.53,83.31v0a1,1,0,0,1-.6.63,2.71,2.71,0,0,1-1,.23,3.11,3.11,0,0,1-.61,0,3.26,3.26,0,0,1-.6-.14,1.37,1.37,0,0,1-.8-.61,1.61,1.61,0,0,1-.29-.86,1.86,1.86,0,0,1,.64-1.2,2.62,2.62,0,0,1,1.15-.55,2,2,0,0,1,.73-.08.84.84,0,0,1,.69.49,1.17,1.17,0,0,1-.07.88,2.52,2.52,0,0,1-1,.87A.77.77,0,0,1,60,83l.36,0,.93,0h.06a.1.1,0,0,1,.06,0l.11.12a.05.05,0,0,1,0,0h0M59.84,81.7c0-.06,0,0-.1,0l-.13.06-.16.07a1,1,0,0,0-.36.3l0,0a2.1,2.1,0,0,0,.7-.43"/><path class="cls-2" d="M61.53,83.31v0a1,1,0,0,1-.6.63,2.71,2.71,0,0,1-1,.23,3.11,3.11,0,0,1-.61,0,3.26,3.26,0,0,1-.6-.14,1.37,1.37,0,0,1-.8-.61,1.61,1.61,0,0,1-.29-.86,1.86,1.86,0,0,1,.64-1.2,2.62,2.62,0,0,1,1.15-.55,2,2,0,0,1,.73-.08.84.84,0,0,1,.69.49,1.17,1.17,0,0,1-.07.88,2.52,2.52,0,0,1-1,.87A.77.77,0,0,1,60,83l.36,0,.93,0h.06a.1.1,0,0,1,.06,0l.11.12a.05.05,0,0,1,0,0ZM59.84,81.7c0-.06,0,0-.1,0l-.13.06-.16.07a1,1,0,0,0-.36.3l0,0A2.1,2.1,0,0,0,59.84,81.7Z"/><path class="cls-1" d="M13.24,84.22c-3.46,0-6.18-1.08-8.08-3.2a10.44,10.44,0,0,1-2.54-7.25A14,14,0,0,1,3.41,70a9.11,9.11,0,0,1,1.64-2.65l.07-.1,0,0,.1-.08a30.39,30.39,0,0,1,5-3.46,11.5,11.5,0,0,1,5.25-1.24,2.15,2.15,0,0,1,1.55,1,2.73,2.73,0,0,1,.71,1.3,2.46,2.46,0,0,1,.19,1.79l-.16.41a.22.22,0,0,1-.11.1l-.38.14-.32.2c-.29.18-.62.39-.91.53l-.59.4-.08.06h0l-.09,0a5.87,5.87,0,0,0-1.58.92c.57-.2,1.21-.38,1.91-.55a8.4,8.4,0,0,1,2.26-.16h.56a6.06,6.06,0,0,0,1-.06,30.26,30.26,0,0,1,3.88-1l.57-.12a.19.19,0,0,1,.17.06l.37.44a1.85,1.85,0,0,0,.18.19l.27.18a.18.18,0,0,1,.08.11l.07.31a3.49,3.49,0,0,0,.42.47,2.62,2.62,0,0,1,.67,1.9,2.55,2.55,0,0,1-1.23,2.16l-.69.48a4,4,0,0,1,.14,1.05c0,1.64-1.27,3.49-4,5.82a21.48,21.48,0,0,1-4.5,3.21,6,6,0,0,1-2.6.43"/><path class="cls-2" d="M13.24,84.22c-3.46,0-6.18-1.08-8.08-3.2a10.44,10.44,0,0,1-2.54-7.25A14,14,0,0,1,3.41,70a9.11,9.11,0,0,1,1.64-2.65l.07-.1,0,0,.1-.08a30.39,30.39,0,0,1,5-3.46,11.5,11.5,0,0,1,5.25-1.24,2.15,2.15,0,0,1,1.55,1,2.73,2.73,0,0,1,.71,1.3,2.46,2.46,0,0,1,.19,1.79l-.16.41a.22.22,0,0,1-.11.1l-.38.14-.32.2c-.29.18-.62.39-.91.53l-.59.4-.08.06h0l-.09,0a5.87,5.87,0,0,0-1.58.92c.57-.2,1.21-.38,1.91-.55a8.4,8.4,0,0,1,2.26-.16h.56a6.06,6.06,0,0,0,1-.06,30.26,30.26,0,0,1,3.88-1l.57-.12a.19.19,0,0,1,.17.06l.37.44a1.85,1.85,0,0,0,.18.19l.27.18a.18.18,0,0,1,.08.11l.07.31a3.49,3.49,0,0,0,.42.47,2.62,2.62,0,0,1,.67,1.9,2.55,2.55,0,0,1-1.23,2.16l-.69.48a4,4,0,0,1,.14,1.05c0,1.64-1.27,3.49-4,5.82a21.48,21.48,0,0,1-4.5,3.21A6,6,0,0,1,13.24,84.22Z"/><path class="cls-3" d="M5.39,67.43l-.06.08a9.25,9.25,0,0,0-1.59,2.54A13.71,13.71,0,0,0,3,73.77a10.13,10.13,0,0,0,2.44,7,10,10,0,0,0,7.83,3.09,5.72,5.72,0,0,0,2.45-.4,21.3,21.3,0,0,0,4.43-3.15c2.62-2.26,3.85-4,3.85-5.56a3.47,3.47,0,0,0-.16-1.07.18.18,0,0,1,.07-.19l.79-.56a2.19,2.19,0,0,0,1.08-1.87,2.23,2.23,0,0,0-.57-1.65,3.15,3.15,0,0,1-.48-.57s0,0,0,0l-.06-.27-.25-.17a1.67,1.67,0,0,1-.22-.23l-.31-.37-.47.1a29.39,29.39,0,0,0-3.86,1,9.08,9.08,0,0,1-1.68.06,8.2,8.2,0,0,0-2.17.15,17.18,17.18,0,0,0-3.11,1,.18.18,0,0,1-.23-.07.18.18,0,0,1,.06-.23l.8-.55A6.16,6.16,0,0,1,15.12,68l.15-.08.6-.41c.31-.15.62-.35.9-.52l.37-.23.33-.12.13-.34a2.2,2.2,0,0,0-.19-1.56s0,0,0,0a2.36,2.36,0,0,0-.64-1.13,1.83,1.83,0,0,0-1.28-.83A11.09,11.09,0,0,0,10.39,64a29.68,29.68,0,0,0-4.92,3.42Z"/><path class="cls-1" d="M24.94,71.19a1.42,1.42,0,0,1-.73,1.2l-1.47,1a2.52,2.52,0,0,1,.41,1.45c0,1.24-1.19,2.89-3.56,4.93a20.67,20.67,0,0,1-4.23,3,4.89,4.89,0,0,1-2.12.34c-3.13,0-5.53-.94-7.22-2.83a9.29,9.29,0,0,1-2.24-6.47,13,13,0,0,1,.75-3.48A9.46,9.46,0,0,1,6,68.12a29,29,0,0,1,4.77-3.32,10.24,10.24,0,0,1,4.73-1.12q.21,0,.66.54a1.56,1.56,0,0,1,.46.78c0,.06.36.85.25,1.12-.22.09-1,.63-1.37.79-.11.08-.33.24-.66.46a6.76,6.76,0,0,0-2.2,1.37l-1.5,1a10.47,10.47,0,0,0-2.07,1.79,3.68,3.68,0,0,0-.42,2.11,4.62,4.62,0,0,0,1.29,3.49,4,4,0,0,0,2.86,1.08.84.84,0,0,0,.4-.13.84.84,0,0,1,.35-.12q2.33-.17,5.19-3c0-.22,0-.33-.13-.33a20.6,20.6,0,0,0-2.3.68c-1.4.46-2.15.69-2.26.69a3.78,3.78,0,0,1-.87-.29A10.11,10.11,0,0,0,12,75.25,10,10,0,0,1,10.71,73a1.35,1.35,0,0,1,.41-1,11.21,11.21,0,0,1,4.73-2.08,7.53,7.53,0,0,1,2-.12,9,9,0,0,0,1.91-.09,29.91,29.91,0,0,1,3.82-1,2.05,2.05,0,0,0,.37.37,2.67,2.67,0,0,0,.71,1,1.48,1.48,0,0,1,.33,1.08"/><path class="cls-1" d="M50.52,79a10.35,10.35,0,0,1-8.09-3.21,10.49,10.49,0,0,1-2.54-7.25,13.67,13.67,0,0,1,.8-3.81,9.21,9.21,0,0,1,1.63-2.65l.08-.1,0,0,.1-.08a30.39,30.39,0,0,1,5-3.46,11.47,11.47,0,0,1,5.25-1.24,2.15,2.15,0,0,1,1.55,1,2.73,2.73,0,0,1,.71,1.3,2.46,2.46,0,0,1,.18,1.79l-.16.41a.17.17,0,0,1-.1.1l-.38.14-.33.2a7.67,7.67,0,0,1-.91.53c-.1.08-.31.22-.58.4l-.09.06,0,0-.09,0a6.21,6.21,0,0,0-1.59.92c.58-.2,1.22-.38,1.92-.55a8.36,8.36,0,0,1,2.26-.16h.56a6.06,6.06,0,0,0,1-.06,29.82,29.82,0,0,1,3.88-1l.56-.12a.18.18,0,0,1,.17.06l.38.44a1.33,1.33,0,0,0,.17.19l.28.18a.16.16,0,0,1,.07.11l.08.31a3.87,3.87,0,0,0,.41.47A2.7,2.7,0,0,1,62.15,68l-.69.48a4.11,4.11,0,0,1,.13,1.06c0,1.63-1.26,3.48-4,5.81a21.35,21.35,0,0,1-4.5,3.21,6,6,0,0,1-2.6.44"/><path class="cls-2" d="M50.52,79a10.35,10.35,0,0,1-8.09-3.21,10.49,10.49,0,0,1-2.54-7.25,13.67,13.67,0,0,1,.8-3.81,9.21,9.21,0,0,1,1.63-2.65l.08-.1,0,0,.1-.08a30.39,30.39,0,0,1,5-3.46,11.47,11.47,0,0,1,5.25-1.24,2.15,2.15,0,0,1,1.55,1,2.73,2.73,0,0,1,.71,1.3,2.46,2.46,0,0,1,.18,1.79l-.16.41a.17.17,0,0,1-.1.1l-.38.14-.33.2a7.67,7.67,0,0,1-.91.53c-.1.08-.31.22-.58.4l-.09.06,0,0-.09,0a6.21,6.21,0,0,0-1.59.92c.58-.2,1.22-.38,1.92-.55a8.36,8.36,0,0,1,2.26-.16h.56a6.06,6.06,0,0,0,1-.06,29.82,29.82,0,0,1,3.88-1l.56-.12a.18.18,0,0,1,.17.06l.38.44a1.33,1.33,0,0,0,.17.19l.28.18a.16.16,0,0,1,.07.11l.08.31a3.87,3.87,0,0,0,.41.47A2.7,2.7,0,0,1,62.15,68l-.69.48a4.11,4.11,0,0,1,.13,1.06c0,1.63-1.26,3.48-4,5.81a21.35,21.35,0,0,1-4.5,3.21A6,6,0,0,1,50.52,79Z"/><path class="cls-3" d="M42.66,62.2l-.06.08A9.19,9.19,0,0,0,41,64.82a13.7,13.7,0,0,0-.78,3.71,10.17,10.17,0,0,0,2.45,7,10,10,0,0,0,7.83,3.09A5.7,5.7,0,0,0,53,78.23a21.3,21.3,0,0,0,4.42-3.15c2.63-2.26,3.86-4,3.86-5.55a3.81,3.81,0,0,0-.16-1.08.17.17,0,0,1,.06-.19l.8-.55a2.37,2.37,0,0,0,.51-3.53,2.7,2.7,0,0,1-.48-.57l0,0-.07-.27-.24-.16a1.83,1.83,0,0,1-.23-.24l-.31-.37-.47.1a29.14,29.14,0,0,0-3.85,1,9.2,9.2,0,0,1-1.69.06,8.15,8.15,0,0,0-2.16.15,17.31,17.31,0,0,0-3.12,1,.16.16,0,0,1-.22-.07.18.18,0,0,1,.06-.23l.79-.55a6.21,6.21,0,0,1,1.95-1.2l.14-.08.61-.41a7.14,7.14,0,0,0,.89-.52l.37-.23.34-.12.13-.34a2.2,2.2,0,0,0-.19-1.56s0,0,0,0A2.37,2.37,0,0,0,54,58.34a1.83,1.83,0,0,0-1.28-.83,11.14,11.14,0,0,0-5.1,1.21,30.34,30.34,0,0,0-4.92,3.41Z"/><path class="cls-1" d="M62.22,66a1.45,1.45,0,0,1-.73,1.2c-.48.33-1,.68-1.47,1a2.59,2.59,0,0,1,.41,1.45c0,1.25-1.19,2.89-3.57,4.94a20.67,20.67,0,0,1-4.23,3,5,5,0,0,1-2.11.33q-4.69,0-7.22-2.82a9.29,9.29,0,0,1-2.24-6.48,13,13,0,0,1,.74-3.48,10.49,10.49,0,0,1,1.46-2.28A28.74,28.74,0,0,1,48,59.56a10.21,10.21,0,0,1,4.73-1.12q.2,0,.66.54a1.62,1.62,0,0,1,.46.79s.36.84.24,1.12c-.22.08-.95.62-1.36.78l-.67.46a7,7,0,0,0-2.2,1.37l-1.49,1a10.17,10.17,0,0,0-2.07,1.78,3.68,3.68,0,0,0-.42,2.11,4.62,4.62,0,0,0,1.29,3.49A3.94,3.94,0,0,0,50.06,73a.78.78,0,0,0,.39-.13.87.87,0,0,1,.36-.12q2.31-.17,5.18-3,0-.33-.12-.33a20.6,20.6,0,0,0-2.3.68,23.5,23.5,0,0,1-2.27.69,3.78,3.78,0,0,1-.87-.29c-.55-.22-.94-.36-1.16-.42A9.57,9.57,0,0,1,48,67.77a1.34,1.34,0,0,1,.42-1,11.15,11.15,0,0,1,4.73-2.08,7.53,7.53,0,0,1,1.95-.12A9.24,9.24,0,0,0,57,64.5a27.66,27.66,0,0,1,3.81-1,2,2,0,0,0,.38.37,2.53,2.53,0,0,0,.7,1A1.49,1.49,0,0,1,62.22,66"/><path class="cls-1" d="M32.36,84.22H31.11c-1.11,0-2.67-.5-3.82-2.88a9.38,9.38,0,0,1-1-4.09,18,18,0,0,1,.84-5.47,4.19,4.19,0,0,1,1.68-2.4,6.26,6.26,0,0,1,3.41-.92,4.84,4.84,0,0,1,.93.14,3.67,3.67,0,0,0,.69.1h.2l.06,0,.18.07a17,17,0,0,0,2.43.55l.15,0,.05,0,.13.07a10.76,10.76,0,0,1,1.72,1.2l.1.07s0,0,0,0l.08.1A5,5,0,0,1,39.7,74a3.53,3.53,0,0,1-.08.66,2,2,0,0,0,0,.29,3.28,3.28,0,0,1-.38,1.35l-.17.39h0v.08a3.47,3.47,0,0,0-.05.56l.17.37a.19.19,0,0,1,0,.15l-.24.43c-.26.46-.67,1.11-1.25,2a14.91,14.91,0,0,1-1.38,1.56,12.92,12.92,0,0,1-1.88,1.5c-1.21.82-1.61,1-2,1"/><path class="cls-2" d="M32.36,84.22H31.11c-1.11,0-2.67-.5-3.82-2.88a9.38,9.38,0,0,1-1-4.09,18,18,0,0,1,.84-5.47,4.19,4.19,0,0,1,1.68-2.4,6.26,6.26,0,0,1,3.41-.92,4.84,4.84,0,0,1,.93.14,3.67,3.67,0,0,0,.69.1h.2l.06,0,.18.07a17,17,0,0,0,2.43.55l.15,0,.05,0,.13.07a10.76,10.76,0,0,1,1.72,1.2l.1.07s0,0,0,0l.08.1A5,5,0,0,1,39.7,74a3.53,3.53,0,0,1-.08.66,2,2,0,0,0,0,.29,3.28,3.28,0,0,1-.38,1.35l-.17.39h0v.08a3.47,3.47,0,0,0-.05.56l.17.37a.19.19,0,0,1,0,.15l-.24.43c-.26.46-.67,1.11-1.25,2a14.91,14.91,0,0,1-1.38,1.56,12.92,12.92,0,0,1-1.88,1.5C33.17,84.08,32.77,84.22,32.36,84.22Z"/><path class="cls-3" d="M32.23,68.81a5.85,5.85,0,0,0-3.22.87,3.83,3.83,0,0,0-1.54,2.2,18,18,0,0,0-.82,5.37,9.15,9.15,0,0,0,1,3.94c1.07,2.22,2.5,2.68,3.51,2.68h1.25c.33,0,.7-.13,1.82-.9A13,13,0,0,0,36,81.52,16.66,16.66,0,0,0,37.35,80c.57-.86,1-1.5,1.23-2l.2-.35-.14-.32s0,0,0-.06a2.76,2.76,0,0,1,0-.66v-.08a2.42,2.42,0,0,1,.19-.48,3,3,0,0,0,.35-1.21,1.85,1.85,0,0,1,.05-.35,3.87,3.87,0,0,0,.07-.6,4.74,4.74,0,0,0-.66-2.88L38.63,71l-.08-.06a10,10,0,0,0-1.66-1.16l-.11-.06-.12,0a16.73,16.73,0,0,1-2.5-.58L34,69.05h-.16a4.3,4.3,0,0,1-.76-.11,4.88,4.88,0,0,0-.86-.13"/><path class="cls-1" d="M38.54,74.06a3,3,0,0,1-.06.46,3.3,3.3,0,0,0-.07.49,2.38,2.38,0,0,1-.27.87,2.33,2.33,0,0,0-.27.78,2.45,2.45,0,0,0,0,1.11c-.24.44-.65,1.08-1.2,1.9a14.27,14.27,0,0,1-1.24,1.4,12.59,12.59,0,0,1-1.7,1.34,4.63,4.63,0,0,1-1.37.77H31.11c-1.13,0-2.06-.75-2.78-2.23a8.27,8.27,0,0,1-.87-3.59,16.59,16.59,0,0,1,.79-5.11,3.08,3.08,0,0,1,1.2-1.78,5.1,5.1,0,0,1,2.78-.74,6.25,6.25,0,0,1,.71.13,5.37,5.37,0,0,0,.91.12,19.52,19.52,0,0,0,2.66.62A10.74,10.74,0,0,1,38,71.67a4.18,4.18,0,0,1,.5,2.39m-2.95-.63h-.46l-1.8.24a2.38,2.38,0,0,0-1.53.8,3.89,3.89,0,0,0-.36,2.29,2.88,2.88,0,0,0,.15.78,2.93,2.93,0,0,1,.15.66,5.08,5.08,0,0,0,2.55-2.14,6.51,6.51,0,0,0,1.3-2.63"/><path class="cls-1" d="M67.44,84.22c-2.55,0-5.6-1.2-5.6-6.93a9.17,9.17,0,0,1,1.31-4.46l.09-.15c.27-.34.67-.91,1.21-1.69l.19-.27a.15.15,0,0,1,.09-.06l1-.33a3.79,3.79,0,0,1-1-1c-.69-1-.82-1.46-.82-1.85a4.17,4.17,0,0,1,1.67-3.15l.09-.07,2.26-1.6.24-.17a.19.19,0,0,1,.1,0h.3A22.1,22.1,0,0,0,72,62.09l.75-.16A.18.18,0,0,1,73,62l.29.6c.05.05.17.17.43.39a2.5,2.5,0,0,1,1,1.66v0a.13.13,0,0,1,0,.06s0,.16-.07.31a.06.06,0,0,1,0,0h0s-.08.27-.36,1.54l-.08.38a.19.19,0,0,1-.07.11l-.32.22s-.26.17-2.11,1.7c-1.37,1.21-1.94,1.45-2.46,1.45a5.48,5.48,0,0,0-.9.11l-.43.07a4.92,4.92,0,0,0,.61.25l.35.11a.15.15,0,0,1,.09.07l.19.3a5,5,0,0,1,1,2.62,7,7,0,0,1-.17,1.47l.28-.15a4,4,0,0,1,1.8-.7,1.38,1.38,0,0,1,1,.45h1.67a.16.16,0,0,1,.13.06.18.18,0,0,1,0,.14l-.22,1.17a3.15,3.15,0,0,1-.84,1.55,6.33,6.33,0,0,0-.44.58c-.17.44-.43,1-.8,1.84l-.08.15A11.2,11.2,0,0,1,70.17,83l-.11.09L68.75,84l-.14.07a2.38,2.38,0,0,1-1.17.16"/><path class="cls-2" d="M67.44,84.22c-2.55,0-5.6-1.2-5.6-6.93a9.17,9.17,0,0,1,1.31-4.46l.09-.15c.27-.34.67-.91,1.21-1.69l.19-.27a.15.15,0,0,1,.09-.06l1-.33a3.79,3.79,0,0,1-1-1c-.69-1-.82-1.46-.82-1.85a4.17,4.17,0,0,1,1.67-3.15l.09-.07,2.26-1.6.24-.17a.19.19,0,0,1,.1,0h.3A22.1,22.1,0,0,0,72,62.09l.75-.16A.18.18,0,0,1,73,62l.29.6c.05.05.17.17.43.39a2.5,2.5,0,0,1,1,1.66v0a.13.13,0,0,1,0,.06s0,.16-.07.31a.06.06,0,0,1,0,0h0s-.08.27-.36,1.54l-.08.38a.19.19,0,0,1-.07.11l-.32.22s-.26.17-2.11,1.7c-1.37,1.21-1.94,1.45-2.46,1.45a5.48,5.48,0,0,0-.9.11l-.43.07a4.92,4.92,0,0,0,.61.25l.35.11a.15.15,0,0,1,.09.07l.19.3a5,5,0,0,1,1,2.62,7,7,0,0,1-.17,1.47l.28-.15a4,4,0,0,1,1.8-.7,1.38,1.38,0,0,1,1,.45h1.67a.16.16,0,0,1,.13.06.18.18,0,0,1,0,.14l-.22,1.17a3.15,3.15,0,0,1-.84,1.55,6.33,6.33,0,0,0-.44.58c-.17.44-.43,1-.8,1.84l-.08.15A11.2,11.2,0,0,1,70.17,83l-.11.09L68.75,84l-.14.07A2.38,2.38,0,0,1,67.44,84.22Z"/><path class="cls-3" d="M64.89,71l-.15.22c-.54.79-.95,1.36-1.22,1.71l-.07.1a8.94,8.94,0,0,0-1.26,4.29c0,5.44,2.86,6.58,5.25,6.58a2.25,2.25,0,0,0,1-.12l.1,0,1.31-.87.08-.06a10.74,10.74,0,0,0,2.24-2.33l.06-.11c.36-.78.62-1.39.79-1.84a6.55,6.55,0,0,1,.49-.66,2.81,2.81,0,0,0,.77-1.38l.18-1-1.56,0a.14.14,0,0,1-.12-.06A1,1,0,0,0,72,75c-.28,0-.61.1-1.64.66l-.61.32a.18.18,0,0,1-.19,0,.16.16,0,0,1-.06-.18,6.94,6.94,0,0,0,.24-1.75,4.81,4.81,0,0,0-1-2.43l-.16-.25-.28-.09a4.62,4.62,0,0,1-1.15-.55.16.16,0,0,1-.08-.19.18.18,0,0,1,.16-.13,9.22,9.22,0,0,0,.93-.13,7,7,0,0,1,1-.11c.42,0,.94-.23,2.23-1.36,1.84-1.52,2.11-1.71,2.14-1.73l.26-.18.07-.32c.22-1,.31-1.35.35-1.5a.08.08,0,0,1,0,0c0-.17.07-.3.08-.34h0a2.13,2.13,0,0,0-.87-1.42,4.82,4.82,0,0,1-.47-.44.05.05,0,0,1,0,0l-.25-.5-.62.13a22.78,22.78,0,0,1-3.48.32h-.25l-.2.15c-.78.56-1.53,1.09-2.26,1.59l-.07.06a3.86,3.86,0,0,0-1.54,2.88c0,.32.12.68.76,1.66a3.1,3.1,0,0,0,1.16,1.13.18.18,0,0,1,.09.17.17.17,0,0,1-.12.15Z"/><path class="cls-1" d="M73.5,76.41a2.15,2.15,0,0,1-.58,1,4.44,4.44,0,0,0-.62.87c-.17.44-.43,1-.79,1.83a10.65,10.65,0,0,1-2.08,2.15l-1.32.87a2.41,2.41,0,0,1-.67.05c-3,0-4.44-1.93-4.44-5.77a8.06,8.06,0,0,1,1.16-3.9c.28-.36.7-.94,1.25-1.74l1.12-.38a5.7,5.7,0,0,0,1.58.79,4.24,4.24,0,0,1,.83,2,7.48,7.48,0,0,1-.71,3c-.17,0,.28,0,1.33,0a5.55,5.55,0,0,0,1.2-.56A4.49,4.49,0,0,1,72,76c.11,0,.18.07.22.2s.12.21.23.21l.54,0Z"/><path class="cls-1" d="M73.5,64.85a7.47,7.47,0,0,0-.42,1.69c-.17.11-.9.7-2.19,1.76-.9.79-1.47,1.18-1.72,1.18a6.29,6.29,0,0,0-1.1.13,7.05,7.05,0,0,1-1,.12c-.45,0-.88-.32-1.3-1a3.9,3.9,0,0,1-.64-1.22,3.09,3.09,0,0,1,1.27-2.28c.73-.5,1.48-1,2.27-1.6a21.88,21.88,0,0,0,3.62-.33,3.47,3.47,0,0,0,.67.67c.39.34.59.62.59.84"/><path class="cls-3" d="M62,21.35A.47.47,0,0,0,62,21.2.6.6,0,0,0,61.8,21a3.41,3.41,0,0,0-2.25-1.07V9.26a2.2,2.2,0,0,0-2.2-2.2H51.26a4.45,4.45,0,0,0,.27-1,2.8,2.8,0,0,0-1.48-3h0a.79.79,0,0,0-.37-.1.77.77,0,0,0-.74.57v0a5.13,5.13,0,0,1-4.08,2.83,7.33,7.33,0,0,0-4.28-1.23,15,15,0,0,0-5.24,1.08,8.15,8.15,0,0,1-4.5-2.58,5.16,5.16,0,0,0-1.43-1.1,2.68,2.68,0,0,0-1.16-.29,1.56,1.56,0,0,0-1.2.52,3.44,3.44,0,0,0-.52,2.7v.18a7.44,7.44,0,0,0,.26,1.34H20.62a2.2,2.2,0,0,0-2.2,2.2v42a2.19,2.19,0,0,0,2.2,2.2H57.35a2.19,2.19,0,0,0,2.2-2.2V32.7a10,10,0,0,0,1.61-2C62.69,28.15,63,25,62,21.35"/><path class="cls-1" d="M62,21.35A.47.47,0,0,0,62,21.2.6.6,0,0,0,61.8,21a3.41,3.41,0,0,0-2.25-1.07V9.26a2.2,2.2,0,0,0-2.2-2.2H51.26a4.45,4.45,0,0,0,.27-1,2.8,2.8,0,0,0-1.48-3h0a.79.79,0,0,0-.37-.1.77.77,0,0,0-.74.57v0a5.13,5.13,0,0,1-4.08,2.83,7.33,7.33,0,0,0-4.28-1.23,15,15,0,0,0-5.24,1.08,8.15,8.15,0,0,1-4.5-2.58,5.16,5.16,0,0,0-1.43-1.1,2.68,2.68,0,0,0-1.16-.29,1.56,1.56,0,0,0-1.2.52,3.44,3.44,0,0,0-.52,2.7v.18a7.44,7.44,0,0,0,.26,1.34H20.62a2.2,2.2,0,0,0-2.2,2.2v42a2.19,2.19,0,0,0,2.2,2.2H57.35a2.19,2.19,0,0,0,2.2-2.2V32.7a10,10,0,0,0,1.61-2C62.69,28.15,63,25,62,21.35"/><path class="cls-3" d="M37.48,39.26c-9.13,0-11.89-6.9-12.18-7.68l0-.08c-1.26-3.79.06-8.4,1.39-11.6a37.07,37.07,0,0,1,3.39-6.36l1.18-1.38a0,0,0,0,0,0-.05l0,0h0l-1.74.61a15.48,15.48,0,0,1-5.09.91,10,10,0,0,1-2.86-.37A6.77,6.77,0,0,1,27.4,10a7.15,7.15,0,0,1,1.39.13.58.58,0,0,0,.39.14.61.61,0,0,0,.62-.59.58.58,0,0,0-.4-.55,6.25,6.25,0,0,1-1.56-3.38V5.51c-.15-1.28.07-1.69.17-1.8a.28.28,0,0,1,.24-.09,1.57,1.57,0,0,1,.62.17,4.2,4.2,0,0,1,1,.74,9.4,9.4,0,0,0,5.59,3.08h.34a.05.05,0,0,0,0,0l.05-.11a13.76,13.76,0,0,1,4.73-1,6,6,0,0,1,3.63,1.06.62.62,0,0,0,.41.17h.07a.82.82,0,0,1,.25.07l.23.08a2.57,2.57,0,0,1,1,.93,4,4,0,0,1-1.9.47,5,5,0,0,1-2.17-.53l-.09,0-.12,0a.23.23,0,0,0-.1.19c0,.12.07.17.17.24a3,3,0,0,1,1.45,2.21h-.11a4.7,4.7,0,0,1-3.62-2l0,0h0l-.27.22,0,0a.06.06,0,0,0,0,0,5.11,5.11,0,0,0,4,2.2,1.28,1.28,0,0,0,.47-.06.23.23,0,0,0,.1-.19,2.88,2.88,0,0,0-.8-2,5.17,5.17,0,0,0,1.22.16,4.26,4.26,0,0,0,2.29-.64A.18.18,0,0,0,46.7,9a.22.22,0,0,0,0-.22,3.09,3.09,0,0,0-1-1.12A6.44,6.44,0,0,0,49.88,4.6a1.35,1.35,0,0,1,.36.76c.19,1.34-1.19,3.06-1.35,3.25a1.31,1.31,0,0,0-.14.16l0,0a.67.67,0,0,0-.16.56.48.48,0,0,0,.34.32H49l.72,0,.67,0a8,8,0,0,1,6,2.84,6.22,6.22,0,0,1-2.29.43,9.13,9.13,0,0,1-4.13-1.1.73.73,0,0,0-.37-.12h-.62l0,0s0,0,0,0l.13.61c1,4.66,5.21,8,7.06,9.24a3.63,3.63,0,0,1-1,.16,1.43,1.43,0,0,1-.68-.13.28.28,0,0,0-.18-.06.31.31,0,0,0-.25.13.31.31,0,0,0,.08.43,1.75,1.75,0,0,0,1,.25,3.58,3.58,0,0,0,.89-.12,5.62,5.62,0,0,0,.65-.24,11.43,11.43,0,0,1,2.42-.8,2.17,2.17,0,0,1,1.61.62c.83,3.24.57,6-.76,8.21-1,1.72-3.3,4-8.21,5.15a.51.51,0,0,0-.17,0H51.6a22.67,22.67,0,0,1-4.24.43,15.2,15.2,0,0,1-9.21-2.83,12.86,12.86,0,0,1-3.76-4.26.28.28,0,0,0-.11-.13,1.37,1.37,0,0,1,.56-.1,2.85,2.85,0,0,1,1,.19.39.39,0,0,0,.18,0,.43.43,0,0,0,.4-.27.42.42,0,0,0,0-.33.43.43,0,0,0-.24-.24,3.52,3.52,0,0,0-1.31-.27,2.17,2.17,0,0,0-1.21.33,2.84,2.84,0,0,0-1,2.59.44.44,0,0,0,.44.43.44.44,0,0,0,.44-.44,2.71,2.71,0,0,1,.33-1.55h0a13.21,13.21,0,0,0,3.93,4.48,14.79,14.79,0,0,0,5.52,2.52,17.62,17.62,0,0,0,4,.44,22.7,22.7,0,0,0,3.78-.32l0,.06a1.61,1.61,0,0,1-.43,1.19,3.47,3.47,0,0,1-2.41.71,10.41,10.41,0,0,1-1.83-.18l-.08-.14,0,0h0l-.35.12a25.78,25.78,0,0,1-8.5,1.65"/><path class="cls-4" d="M48.77,8.81h0"/><path class="cls-4" d="M48.78,8.8l.14-.16-.14.16"/><path class="cls-4" d="M48.92,8.64Zm0,0-.14.16.14-.16"/><path class="cls-1" d="M49.89,28.93a4.53,4.53,0,0,0-4.62-3,.27.27,0,0,0-.22.3.26.26,0,0,0,.3.23,1.32,1.32,0,0,1,.33,0l3.54,2.34c.06.13.13.25.19.39a.25.25,0,0,0,.24.16l.1,0a.27.27,0,0,0,.14-.35"/><path class="cls-1" d="M59.53,24.64a.26.26,0,0,0-.34-.16,3.77,3.77,0,0,0-2.65,3.75.26.26,0,0,0,.26.23h0a.27.27,0,0,0,.23-.29,3.31,3.31,0,0,1,0-.34L59,25.15a3.52,3.52,0,0,1,.39-.17.26.26,0,0,0,.15-.34"/><path class="cls-1" d="M41.94,15.65c.32.51.4,1,.17,1.18s-.67-.15-1-.67-.4-1-.18-1.18.68.15,1,.67"/><path class="cls-1" d="M44.87,16c-.26.54-.67.89-.91.77s-.22-.65,0-1.2.68-.89.92-.77.22.65-.05,1.2"/><path class="cls-3" d="M23.59,44.93a1.23,1.23,0,0,1-.49,1,1.74,1.74,0,0,1-1.09.35,1.78,1.78,0,0,1-1.09-.35,1.12,1.12,0,0,1-.5-.94,1.19,1.19,0,0,1,.2-.68,1.6,1.6,0,0,1,.58-.46h-.7v-.94h.93v-.37H22.7v.37h.83v.94h-.74a.86.86,0,0,1,.46.28,1.06,1.06,0,0,1,.34.79m-2.82,1.52H22v.84H25v1H21.54a1,1,0,0,1-.54-.12.53.53,0,0,1-.23-.46Zm.71-1.51a.53.53,0,0,0,.14.37.5.5,0,0,0,.37.15.49.49,0,0,0,.37-.14A.45.45,0,0,0,22.5,45a.6.6,0,0,0-.13-.4.44.44,0,0,0-.37-.16.48.48,0,0,0-.38.14.56.56,0,0,0-.14.39m2.21-2.4h1.18V44h.53v.82h-.53v2.07H23.69Z"/><path class="cls-3" d="M30.94,44.76v.93H29.3V46H28v-.29H26.39v-.93Zm-4.38-2.22h4.25v.4c0,.35,0,.64,0,.85s-.05.48-.09.81H29.46c0-.18.06-.3.07-.38s0-.19,0-.35v-.34h-3Zm0,3.53h4.26v2.18H29.54V47.06h-3Z"/><path class="cls-3" d="M36.59,42.73v5.05h-2.1q-.6,0-.72-.15a1.47,1.47,0,0,1-.13-.81V42.73h1.2v1.54h.61V42.73Zm-1.75,4.13h.61v-1.6h-.61Zm2.06-4.32h1.18V44.1h.48V45h-.48v3.23H36.9Z"/><path class="cls-3" d="M41.75,47.58H40.32c-.39,0-.62,0-.7-.11s-.14-.34-.14-.77v-4h1v1.25h.24V42.67h1v1.72H42V42.54h1v5.71H42v-2.9h-.22Zm-1.27-.91h.24V44.83h-.24Zm2.64-4.13h1v5.71h-1Z"/><path class="cls-3" d="M45.34,45.3h3a1.67,1.67,0,0,0,.1-.33.56.56,0,0,0,0-.1H45.73v-.94h2.69v-.3H45.6v-1h4v.5c0,.48,0,.92,0,1.31a2.8,2.8,0,0,1-.13.82H50v1h-.75v2H48v-2h-.8v2H46.06v-2h-.72Z"/><path class="cls-3" d="M53.07,44h1.14v1h1.56v1H52.6V45h.47Zm1.35.81c0-.22.06-.41.07-.56s0-.33,0-.53v-.12H52.67v-1h2.94v.25q0,.57,0,1c0,.31,0,.61-.09.91ZM53,46.25h1.15v1h3v1H53.84a1,1,0,0,1-.71-.16.88.88,0,0,1-.16-.64Zm2.9-3.71H57v1.18h.52v.92H57v2H55.87Z"/></svg>