<svg id="Layer_1" data-name="Layer 1" xmlns="http://www.w3.org/2000/svg" viewBox="0 0 78.4 87"><defs><style>.cls-1,.cls-4{fill:#fff;}.cls-2{fill:none;stroke:#010101;stroke-miterlimit:10;stroke-width:0.79px;}.cls-3,.cls-6{fill:#010101;}.cls-4,.cls-6{fill-rule:evenodd;}.cls-5{fill:#221f1f;}</style></defs><path class="cls-1" d="M17.63,80c-2.82,0-4.83-.65-6.16-2-1.74-1.75-1.73-4.17-1.73-5.77V56.18A5.08,5.08,0,0,1,8,54.46a5.4,5.4,0,0,1,.13-5.88A6.36,6.36,0,0,1,9.77,47v-.22l-.15,0-.34-.09a2.53,2.53,0,0,1-.36-.12l-.32-.13-.2-.09-.07,0L8,46.07a2.46,2.46,0,0,1-.32-.19l-.33-.25a1.47,1.47,0,0,1-.29-.24l-.29-.26-.19-.2-.3-.35-.12-.15,0-.07-.31-.44-.12-.19-.24-.42c-.05-.08-.09-.17-.13-.25l-.06-.13a2,2,0,0,1-.1-.21l-.1-.24L5,42.31l-.35-1.06,0-.12-.13-.52,0-.18,0-.19,0-.24,0-.2s0-.12,0-.14v-.51l0-.23a.91.91,0,0,1,0-.17l0-.81s0-.06,0-.08l0-.29a.59.59,0,0,1,0-.14s.16-1.08.16-1.08a.36.36,0,0,1,0-.1l.19-.83a.75.75,0,0,1,0-.16l.28-.89,0-.06.17-.46c0-.05,0-.11.07-.17l.22-.49.23-.45a.8.8,0,0,1,.08-.16l.22-.38A1.22,1.22,0,0,1,6.24,32l.29-.44a1.3,1.3,0,0,1,.1-.15l.27-.39L7,30.94l0-.05.33-.4.1-.13.44-.47L8,29.81l.41-.39a1.37,1.37,0,0,1,.18-.16L9,28.9l.14-.11.47-.36.13-.09.06,0,.55-.35.18-.11.65-.35.66-.32L12,27.1l.06,0,.67-.25.17-.07.67-.22.16-.05.88-.24a2,2,0,0,1,.34-.07l.1,0,.09,0,5-.63h.08l1.36-.1a13.05,13.05,0,0,1,1.3-3.74,6.62,6.62,0,0,1-.46-1.47,5,5,0,0,1,1-4.65,3.65,3.65,0,0,1,2-1.08,9.76,9.76,0,0,1,4.52-4.12,5.89,5.89,0,0,1-.64-2.17,2.85,2.85,0,0,1,.73-2.11c1-1.06,2.9-1.57,6.21-1.65H37c3.79,0,6,.67,6.84,2.06a2.24,2.24,0,0,1,0,2.29.64.64,0,0,1-.08.14c-.17.27-.34.53-.51.77a11.94,11.94,0,0,1,5,3.2,14.89,14.89,0,0,1,1.08,1.36,3.44,3.44,0,0,1,.46,0,3.67,3.67,0,0,1,3.38,2.41,5.77,5.77,0,0,1,.23,3.22,7.49,7.49,0,0,1-.54,1.76,16.93,16.93,0,0,1,1.05,3A14.52,14.52,0,0,1,54.23,26c2.1.41,6.51,1.36,9,2.68l.17.1a19.15,19.15,0,0,1,4.69,3l.09.08.56.44.1.08a19.66,19.66,0,0,1,2.74,2.46l0,0a6.44,6.44,0,0,1,.53.67l0,.06c1,1.46,2.14,5.46-.35,8.42a3.66,3.66,0,0,1-1.57,1.09l-.49.22-.08,0-.06,0a3.45,3.45,0,0,1-.41.25,10.55,10.55,0,0,1-2.47,1.23,4.75,4.75,0,0,1,1.13.94A5.38,5.38,0,0,1,68.77,54a6.14,6.14,0,0,1-2.25,2.25V72.16a9.08,9.08,0,0,1-1,4.94c-1.22,2-3.53,3-6.87,3Z"/><path class="cls-2" d="M17.63,80c-2.82,0-4.83-.65-6.16-2-1.74-1.75-1.73-4.17-1.73-5.77V56.18A5.08,5.08,0,0,1,8,54.46a5.4,5.4,0,0,1,.13-5.88A6.36,6.36,0,0,1,9.77,47v-.22l-.15,0-.34-.09a2.53,2.53,0,0,1-.36-.12l-.32-.13-.2-.09-.07,0L8,46.07a2.46,2.46,0,0,1-.32-.19l-.33-.25a1.47,1.47,0,0,1-.29-.24l-.29-.26-.19-.2-.3-.35-.12-.15,0-.07-.31-.44-.12-.19-.24-.42c-.05-.08-.09-.17-.13-.25l-.06-.13a2,2,0,0,1-.1-.21l-.1-.24L5,42.31l-.35-1.06,0-.12-.13-.52,0-.18,0-.19,0-.24,0-.2s0-.12,0-.14v-.51l0-.23a.91.91,0,0,1,0-.17l0-.81s0-.06,0-.08l0-.29a.59.59,0,0,1,0-.14s.16-1.08.16-1.08a.36.36,0,0,1,0-.1l.19-.83a.75.75,0,0,1,0-.16l.28-.89,0-.06.17-.46c0-.05,0-.11.07-.17l.22-.49.23-.45a.8.8,0,0,1,.08-.16l.22-.38A1.22,1.22,0,0,1,6.24,32l.29-.44a1.3,1.3,0,0,1,.1-.15l.27-.39L7,30.94l0-.05.33-.4.1-.13.44-.47L8,29.81l.41-.39a1.37,1.37,0,0,1,.18-.16L9,28.9l.14-.11.47-.36.13-.09.06,0,.55-.35.18-.11.65-.35.66-.32L12,27.1l.06,0,.67-.25.17-.07.67-.22.16-.05.88-.24a2,2,0,0,1,.34-.07l.1,0,.09,0,5-.63h.08l1.36-.1a13.05,13.05,0,0,1,1.3-3.74,6.62,6.62,0,0,1-.46-1.47,5,5,0,0,1,1-4.65,3.65,3.65,0,0,1,2-1.08,9.76,9.76,0,0,1,4.52-4.12,5.89,5.89,0,0,1-.64-2.17,2.85,2.85,0,0,1,.73-2.11c1-1.06,2.9-1.57,6.21-1.65H37c3.79,0,6,.67,6.84,2.06a2.24,2.24,0,0,1,0,2.29.64.64,0,0,1-.08.14c-.17.27-.34.53-.51.77a11.94,11.94,0,0,1,5,3.2,14.89,14.89,0,0,1,1.08,1.36,3.44,3.44,0,0,1,.46,0,3.67,3.67,0,0,1,3.38,2.41,5.77,5.77,0,0,1,.23,3.22,7.49,7.49,0,0,1-.54,1.76,16.93,16.93,0,0,1,1.05,3A14.52,14.52,0,0,1,54.23,26c2.1.41,6.51,1.36,9,2.68l.17.1a19.15,19.15,0,0,1,4.69,3l.09.08.56.44.1.08a19.66,19.66,0,0,1,2.74,2.46l0,0a6.44,6.44,0,0,1,.53.67l0,.06c1,1.46,2.14,5.46-.35,8.42a3.66,3.66,0,0,1-1.57,1.09l-.49.22-.08,0-.06,0a3.45,3.45,0,0,1-.41.25,10.55,10.55,0,0,1-2.47,1.23,4.75,4.75,0,0,1,1.13.94A5.38,5.38,0,0,1,68.77,54a6.14,6.14,0,0,1-2.25,2.25V72.16a9.08,9.08,0,0,1-1,4.94c-1.22,2-3.53,3-6.87,3Z"/><path class="cls-1" d="M71,36.3v0a4.64,4.64,0,0,0-.42-.52l0,0A18.74,18.74,0,0,0,68,33.43l-.06,0-.68-.54a16.83,16.83,0,0,0-4.68-2.93l0,0c-3-1.58-9.2-2.64-9.73-2.73a7.68,7.68,0,0,0-.28-2.27,15.65,15.65,0,0,0-1.27-3.33,5.62,5.62,0,0,0,.73-2,4.38,4.38,0,0,0-.15-2.46A2.21,2.21,0,0,0,49,15.73a1.08,1.08,0,0,0-.29.13,10.07,10.07,0,0,0-1.49-2.07,11.63,11.63,0,0,0-6-3.28l-.15,0a16,16,0,0,1,1.47-2.35l0-.07C43.21,7,42,5.66,36.17,5.79c-4.62.12-5.64,1.08-5.57,2.29a5,5,0,0,0,.69,2c.11.21.25.43.4.66l.12.18.05.08c-2.82,1-4.77,2.63-5.63,4.8a2.13,2.13,0,0,0-1.85.67,3.63,3.63,0,0,0-.65,3.42,6.09,6.09,0,0,0,.69,1.81,11.85,11.85,0,0,0-1.69,5l-2.46.18-5,.64h-.07l-.08,0-.22,0h0l-.08,0-.72.2-.07,0-.72.24-.07,0-.68.27-.1,0-.63.31-.06,0-.59.32-.08.05-.55.35-.09.06-.5.38-.05,0-.46.38-.08.07-.42.4,0,.06-.39.42,0,.06-.35.43-.06.07-.31.44,0,.05-.28.43a.25.25,0,0,0,0,.07l-.25.44,0,.06-.22.43s0,0,0,0l-.19.43,0,.08-.17.47-.27.84s0,0,0,.07L6,36.56l-.16,1v0l0,.33,0,.88s0,.09,0,.13v.25a.29.29,0,0,0,0,.13v.29l0,.23a.5.5,0,0,0,0,.12l0,.22a.13.13,0,0,1,0,.06l.13.53.34,1,0,.08.11.26a.37.37,0,0,0,0,.11l.08.17.06.11.26.46.07.11.28.4.08.1.3.34.1.11.31.28.13.12.33.23.16.1L9,45l.13.06.33.14.18.05.32.09.16,0,.3,0h.84c-.05.58-.09,1.19-.09,1.82,0,.17,0,.34,0,.5a4.82,4.82,0,0,0-1.86,1.61,4,4,0,0,0-.09,4.38,4,4,0,0,0,1.93,1.58V72.06c0,2.54-.22,6.58,6.49,6.58l41,0c6.55,0,6.49-4,6.49-6.58V55.42a4.85,4.85,0,0,0,2.43-2.06,4,4,0,0,0-.71-4.66,3.81,3.81,0,0,0-1.72-1.07v-.34c0-.47-.05-.93-.08-1.37a10.44,10.44,0,0,0,3.47-1.49h0a1.68,1.68,0,0,0,.34-.2l.07,0,.25-.14.61-.28a2.27,2.27,0,0,0,1-.68c2-2.34,1-5.64.23-6.78"/><path class="cls-3" d="M58.62,78.67l-41,0c-6.71,0-6.49-4-6.49-6.58V49.59c0-2.54,2,.92,4.51.92a59.89,59.89,0,0,0,22.48,4.33,59.84,59.84,0,0,0,22.48-4.3c2.49,0,4.51-3.46,4.51-.92V72.09c0,2.54,0,6.58-6.5,6.58"/><path class="cls-3" d="M71,36.3v0a4.64,4.64,0,0,0-.42-.52l0,0A18.74,18.74,0,0,0,68,33.43l-.06,0-.68-.54a16.83,16.83,0,0,0-4.68-2.93l0,0c-3-1.58-9.2-2.64-9.73-2.73a7.68,7.68,0,0,0-.28-2.27,15.65,15.65,0,0,0-1.27-3.33,5.62,5.62,0,0,0,.73-2,4.38,4.38,0,0,0-.15-2.46A2.21,2.21,0,0,0,49,15.73a1.08,1.08,0,0,0-.29.13,10.07,10.07,0,0,0-1.49-2.07,11.63,11.63,0,0,0-6-3.28l-.15,0a16,16,0,0,1,1.47-2.35l0-.07C43.21,7,42,5.66,36.17,5.79c-4.62.12-5.64,1.08-5.57,2.29a5,5,0,0,0,.69,2c.11.21.25.43.4.66l.12.18.05.08c-2.82,1-4.77,2.63-5.63,4.8a2.13,2.13,0,0,0-1.85.67,3.63,3.63,0,0,0-.65,3.42,5.84,5.84,0,0,0,.7,1.81,11.73,11.73,0,0,0-1.7,5l-2.46.18-5,.64h-.07l-.08,0-.22,0h0l-.08,0-.72.2-.07,0-.72.24-.07,0-.68.27-.1,0-.63.31-.06,0-.59.32-.08.05-.55.35-.09.06-.5.38-.05,0-.46.38-.08.07-.42.4,0,.06-.39.42,0,.06-.35.43-.06.07-.31.44,0,.05-.28.43a.25.25,0,0,0,0,.07l-.25.44,0,.06-.22.43s0,0,0,0l-.19.43,0,.08-.17.47-.27.84s0,0,0,.07L6,36.56l-.16,1v0l0,.33,0,.88s0,.09,0,.13v.25a.29.29,0,0,0,0,.13v.29l0,.23a.5.5,0,0,0,0,.12l0,.22a.13.13,0,0,1,0,.06l.13.53.34,1,0,.08.11.26a.37.37,0,0,0,0,.11l.08.17.06.11.26.46.07.11.28.4.08.1.3.34.1.11.31.28.13.12.33.23.16.1L9,45l.13.06.33.14.18.05.32.09.16,0,.3,0h.92l1.32.26,1.64.16h.07l.61,0h.74l1.59-.06,3.36-.4h.06l1.08-.19,3.2-.75.07,0,8.61-3.25,2-.34a2.31,2.31,0,0,0,.46,0s3.61,0,9.15,2.55a37.9,37.9,0,0,0,14.87,3c3.31,0,6.34-.63,8.36-2h0a1.68,1.68,0,0,0,.34-.2l.07,0,.25-.14.61-.28a2.27,2.27,0,0,0,1-.68c2-2.34,1-5.64.23-6.78"/><path class="cls-1" d="M69.13,37.53a4.19,4.19,0,0,0-.28-.34,18,18,0,0,0-2.32-2c-1.61-1.27-3-3-5-3.75-3.35-1.19-7.5-.65-10.91,0a28,28,0,0,0-8,3,79.54,79.54,0,0,0-7.09,4.35,27.13,27.13,0,0,1,10.69,2.75c6.2,2.85,16.87,4.08,21,1.21a3.46,3.46,0,0,1,.46-.29l-.07.05a4,4,0,0,1,.67-.39c.34-.15.79-.36.83-.36,1.14-1.35.45-3.52.07-4.1"/><polyline class="cls-1" points="26.62 56.88 26.61 56.88 26.62 56.88"/><polyline class="cls-4" points="47.97 32 47.98 32 47.97 32"/><path class="cls-4" d="M47.87,19a4.38,4.38,0,0,1,1-1.18c.37-.27.76-.41,1.12-.06s.49.79.29,1.89a3.92,3.92,0,0,1-.92,1.74,5,5,0,0,1-.37.5,9,9,0,0,0-1.07-1.21A9.66,9.66,0,0,0,47.87,19"/><path class="cls-4" d="M27.35,19a6.73,6.73,0,0,0,0,1.74c-.42.4-.76.61-1.17,1a7.37,7.37,0,0,1-1.17-2c-.31-1.06-.12-1.53.13-1.78a.89.89,0,0,1,1.14-.06,5.11,5.11,0,0,1,1,1"/><path class="cls-5" d="M13.47,47.75a3.65,3.65,0,0,1,2.21,1.47A4,4,0,0,1,18,49.14a4,4,0,0,1,1.86,1.21,4,4,0,0,1,4.45.86,4,4,0,0,1,4.53.6,4.14,4.14,0,0,1,4.62.34,4.08,4.08,0,0,1,4.62.14,4.07,4.07,0,0,1,4.62-.1,4.11,4.11,0,0,1,4.61-.32,4,4,0,0,1,4.53-.58l.12-.08a3.88,3.88,0,0,1,4.13-.83.5.5,0,0,0,.41-.13,3.39,3.39,0,0,1,2.14-1.09,18.62,18.62,0,0,1,2,.05,9.93,9.93,0,0,1,1.45-1.11c1-.62,4.08-.58,5.28.82,3,3.62-1,7-4.23,6.27a.61.61,0,0,0-.46.16,4.29,4.29,0,0,1-4.39,1.12.45.45,0,0,0-.52.12,4.21,4.21,0,0,1-4.46.82.51.51,0,0,0-.49.07,7.12,7.12,0,0,1-1.6.82A4.11,4.11,0,0,1,48.06,58a4.35,4.35,0,0,1-4.83.45.59.59,0,0,0-.44.08,4.19,4.19,0,0,1-2.2.64,4.32,4.32,0,0,1-2.53-.71,4.35,4.35,0,0,1-4.82,0,.56.56,0,0,0-.44,0,4.3,4.3,0,0,1-4.47-.34.48.48,0,0,0-.57,0,4.26,4.26,0,0,1-2.15.33,4.09,4.09,0,0,1-2.5-1.11H23a4.26,4.26,0,0,1-4.69-.81.52.52,0,0,0-.43-.07,4.13,4.13,0,0,1-4.27-1.12.48.48,0,0,0-.54-.17,4.18,4.18,0,0,1-4.33-1.62c-1.87-3.18,1.37-6.47,4.73-5.71M34.3,57.57l-.16-.09a3.68,3.68,0,0,0,.44.23,2.73,2.73,0,0,0,2.88-.48c1.08-1,2.13-2,3.19-3,.4-.37.77-.75,1.16-1.14a2.55,2.55,0,0,0-3.1.27c-.82.74-1.64,1.47-2.44,2.22s-1.31,1.3-2,2m2.85-4.38a2.63,2.63,0,0,0-3.18.14c-1.1.9-2.21,1.8-3.32,2.68-.47.38-1,.73-1.45,1.1a2.64,2.64,0,0,0,3.14.1c.38-.26.73-.55,1.08-.84l3.73-3.18m21.59,2.13a2.64,2.64,0,0,0,3.15-1.15c.77-1.46,1.46-3,2.17-4.43.12-.25.2-.51.3-.76a2.41,2.41,0,0,0-2.74,1.24c-.46.9-.92,1.81-1.42,2.69s-1,1.59-1.46,2.41M24.27,56.54a2.7,2.7,0,0,0,3.23.2c1.69-1.19,3.32-2.45,5-3.69A2.54,2.54,0,0,0,29.34,53c-.83.61-1.65,1.22-2.5,1.82S25.15,56,24.27,56.54m22.26-3.66a2.61,2.61,0,0,0-3.16.41c-.87.87-1.72,1.75-2.6,2.61-.55.55-1.12,1.08-1.68,1.62a2.63,2.63,0,0,0,3.15-.22c1.45-1.44,2.84-2.93,4.29-4.42m-18.72-.3a2.66,2.66,0,0,0-3.17-.14c-1.35.86-2.72,1.7-4.09,2.55-.38.23-.77.44-1.16.66a2.74,2.74,0,0,0,3.3.37c1.08-.67,2.14-1.37,3.2-2.07.65-.43,1.26-.9,1.92-1.37m16.24,4.81a2.64,2.64,0,0,0,3.24-.53c.8-.87,1.56-1.77,2.32-2.67.51-.61,1-1.24,1.49-1.86a2.43,2.43,0,0,0-2.68.26,11.5,11.5,0,0,0-.9.95l-3.47,3.85m11.62-5.83a2.46,2.46,0,0,0-2.91.64c-.27.32-.49.67-.75,1L49,57a2.67,2.67,0,0,0,3.08-.54,11.08,11.08,0,0,0,.8-1c.94-1.28,1.87-2.58,2.8-3.87m4.44-1.13a2.5,2.5,0,0,0-2.94,1c-.65,1-1.31,2-2,3-.42.62-.87,1.22-1.31,1.82a2.66,2.66,0,0,0,3.19-.88c.69-1,1.36-2.1,2-3.17.36-.58.68-1.19,1-1.81m-45.41,4a2.52,2.52,0,0,0,3.1.6c1.2-.65,2.39-1.31,3.58-2,.62-.36,1.21-.75,1.82-1.12a2.52,2.52,0,0,0-3.13-.35c-.85.47-1.7.95-2.56,1.4s-1.87,1-2.81,1.46m4-3.44a2.44,2.44,0,0,0-3-.54c-1.52.67-3.05,1.32-4.58,2-.39.16-.8.28-1.2.43a2.73,2.73,0,0,0,3.18.9A16.59,16.59,0,0,0,14.78,53c1.32-.65,2.62-1.33,3.93-2m46.91-1.58L63.6,54a2.87,2.87,0,0,0,3.09-1.45,2.36,2.36,0,0,0-1.07-3.09m-51.12.37a2.76,2.76,0,0,0-3.43-.67c-1.11.52-1.89,1.8-1.53,2.62l5-1.95"/><path class="cls-1" d="M34.3,57.57c.66-.66,1.3-1.32,2-2s1.63-1.48,2.44-2.22a2.55,2.55,0,0,1,3.1-.27c-.39.39-.76.77-1.16,1.14-1.06,1-2.11,2-3.19,3a2.73,2.73,0,0,1-2.88.48,4.64,4.64,0,0,1-.44-.23Z"/><path class="cls-1" d="M37.15,53.19l-3.73,3.18c-.35.29-.7.58-1.08.84a2.64,2.64,0,0,1-3.14-.1c.49-.37,1-.72,1.45-1.1q1.67-1.34,3.32-2.68a2.61,2.61,0,0,1,3.18-.14"/><path class="cls-1" d="M58.74,55.32c.5-.82,1-1.6,1.46-2.41s1-1.79,1.43-2.69A2.39,2.39,0,0,1,64.36,49c-.1.25-.18.51-.29.76-.72,1.48-1.41,3-2.18,4.43a2.64,2.64,0,0,1-3.15,1.15"/><path class="cls-1" d="M24.27,56.54c.88-.6,1.74-1.16,2.58-1.76s1.66-1.2,2.49-1.81a2.54,2.54,0,0,1,3.14.08c-1.66,1.24-3.29,2.5-5,3.69a2.7,2.7,0,0,1-3.23-.2"/><path class="cls-1" d="M46.53,52.87c-1.45,1.5-2.84,3-4.29,4.43a2.62,2.62,0,0,1-3.15.21c.56-.53,1.13-1.06,1.68-1.61.88-.86,1.73-1.74,2.6-2.61a2.62,2.62,0,0,1,3.16-.42"/><path class="cls-1" d="M27.81,52.58c-.66.47-1.27.94-1.92,1.37-1.05.7-2.12,1.4-3.2,2.07a2.74,2.74,0,0,1-3.3-.37c.39-.22.78-.43,1.16-.66,1.37-.85,2.74-1.69,4.09-2.55a2.64,2.64,0,0,1,3.17.14"/><path class="cls-1" d="M44.05,57.39l3.47-3.85a11.5,11.5,0,0,1,.9-.95,2.43,2.43,0,0,1,2.68-.26c-.5.62-1,1.25-1.49,1.86-.76.9-1.52,1.8-2.32,2.67a2.64,2.64,0,0,1-3.24.53"/><path class="cls-1" d="M55.67,51.56c-.93,1.29-1.86,2.59-2.8,3.87a11.08,11.08,0,0,1-.8,1A2.67,2.67,0,0,1,49,57l3-3.78c.26-.33.48-.68.75-1a2.46,2.46,0,0,1,2.91-.64"/><path class="cls-1" d="M60.11,50.42c-.35.63-.67,1.24-1,1.82-.65,1.07-1.32,2.13-2,3.17a2.66,2.66,0,0,1-3.19.88c.44-.61.89-1.2,1.31-1.82.67-1,1.33-2,2-3a2.52,2.52,0,0,1,2.94-1"/><path class="cls-1" d="M14.7,54.46c.94-.48,1.88-1,2.81-1.46s1.71-.93,2.56-1.4A2.52,2.52,0,0,1,23.2,52c-.61.37-1.2.76-1.82,1.12-1.18.68-2.37,1.34-3.58,2a2.52,2.52,0,0,1-3.1-.6"/><path class="cls-1" d="M18.71,51c-1.31.67-2.61,1.34-3.93,2a16.59,16.59,0,0,1-1.66.76,2.73,2.73,0,0,1-3.18-.9c.4-.15.81-.27,1.2-.43,1.53-.65,3.06-1.3,4.58-2a2.44,2.44,0,0,1,3,.54"/><path class="cls-1" d="M65.62,49.44a2.36,2.36,0,0,1,1.07,3.09A2.87,2.87,0,0,1,63.6,54l2-4.54"/><path class="cls-1" d="M14.5,49.81l-5,1.95c-.36-.82.42-2.1,1.53-2.62a2.76,2.76,0,0,1,3.43.67"/><path class="cls-1" d="M50.47,27.72a14.42,14.42,0,0,0-2.31-7.43c-.4-3.52-1.64-5.21-2.8-6A4.53,4.53,0,0,0,40.13,14c-1,.81-1.28,1.9-2.84,1.8s-1.95-1.26-3.2-1.89a3.36,3.36,0,0,0-3.39-.19c-3.58,1.76-3.6,6.74-3.6,6.74-2.6,2.53-2.29,5.89-2.23,7.08,0,.1,0,1,.28,1l8-.4,1.4-.06,7.15-.35,1.79-.16c4.8-.3,6.09,1,6.81.74.2-.08.13-.44.13-.62"/><path class="cls-6" d="M36.43,23.73a6,6,0,0,0-6.52-4.18.53.53,0,0,0-.47.52v.05a.51.51,0,0,0,.64.51c1.15-.27,3.67-.32,6.35,3.1"/><path class="cls-6" d="M39.11,23.7a6,6,0,0,1,6.44-4.31.5.5,0,0,1,.47.49V20a.51.51,0,0,1-.61.51c-1.15-.25-3.69-.27-6.31,3.22"/><path class="cls-3" d="M37.61,29.31a11.19,11.19,0,0,1-4.86-1.1,12.64,12.64,0,0,1-3.95-2.93.11.11,0,0,1,0-.1.14.14,0,0,1,.05-.1l.27-.23a.19.19,0,0,1,.1,0,.15.15,0,0,1,.1,0,11.61,11.61,0,0,0,1.79,1.47,12.59,12.59,0,0,0,2,1.14c.25.12.52.22.78.32l.3.11.29.09a7.62,7.62,0,0,0,.82.22,10.22,10.22,0,0,0,2.3.24l.3,0a8.09,8.09,0,0,0,.85-.06l.21,0,.36-.06.58-.12a11.72,11.72,0,0,0,2.19-.76,14.09,14.09,0,0,0,2-1.12A12.72,12.72,0,0,0,46,24.86a.18.18,0,0,1,.1,0,.21.21,0,0,1,.1,0l.27.24a.18.18,0,0,1,0,.1.12.12,0,0,1,0,.1,14,14,0,0,1-4,2.84,11.88,11.88,0,0,1-4.84,1.17Z"/><path class="cls-3" d="M47,26h0a2.28,2.28,0,0,1-1-.62,2.33,2.33,0,0,1-.57-1,.14.14,0,0,1,.07-.16l.22-.12.07,0a.15.15,0,0,1,.1,0,6.23,6.23,0,0,1,.44.46l.26.28c.08.09.18.18.27.27a4.57,4.57,0,0,1,.44.44.12.12,0,0,1,0,.16l-.13.21A.14.14,0,0,1,47,26"/><path class="cls-3" d="M28.33,25.9a.15.15,0,0,1-.13-.07l-.12-.22a.14.14,0,0,1,0-.17c.15-.15.32-.29.47-.42l.29-.24a3.45,3.45,0,0,0,.28-.26,6.2,6.2,0,0,1,.46-.42.18.18,0,0,1,.09,0,.11.11,0,0,1,.08,0l.22.13a.13.13,0,0,1,.06.16,2.29,2.29,0,0,1-.64,1,2.51,2.51,0,0,1-1.05.54h0"/><path class="cls-4" d="M7.82,40.85a3,3,0,0,0,.46.55s2.18,2.3,4,.61C21,47.9,30.16,34.15,51.87,31.24c1.57-.21,3-.31,3-.32a15.64,15.64,0,0,0-5.63-2.35,21.7,21.7,0,0,0-5.84-.51c-4.66.56-10.15.55-15.48,1-1.11.1-2.2.22-3.32.23a59.65,59.65,0,0,0-9.38.94A9.45,9.45,0,0,0,7.82,40.85"/><path class="cls-1" d="M20.55,73.66A5.44,5.44,0,0,1,17.79,73a3.74,3.74,0,0,1-1.27-1.23A2.84,2.84,0,0,1,16,70.27a1.13,1.13,0,0,1,.32-.81,1.11,1.11,0,0,1,.84-.34,1,1,0,0,1,.71.27,1.83,1.83,0,0,1,.45.73,4.67,4.67,0,0,0,.44.84,1.61,1.61,0,0,0,.62.52,2.36,2.36,0,0,0,1.08.21,2.47,2.47,0,0,0,1.5-.42,1.22,1.22,0,0,0,.55-1,1,1,0,0,0-.28-.77,2,2,0,0,0-.8-.48c-.34-.12-.81-.24-1.39-.38a10.29,10.29,0,0,1-2-.66,3.24,3.24,0,0,1-1.32-1.06,2.73,2.73,0,0,1-.5-1.69,2.9,2.9,0,0,1,.52-1.7,3.38,3.38,0,0,1,1.5-1.14,6.57,6.57,0,0,1,4.06-.13,4,4,0,0,1,1.28.7,2.9,2.9,0,0,1,.75.93,2.16,2.16,0,0,1,.24,1,1.23,1.23,0,0,1-.32.82,1.07,1.07,0,0,1-.83.38,1,1,0,0,1-.69-.24,2.47,2.47,0,0,1-.46-.67,2.64,2.64,0,0,0-.68-.91,1.93,1.93,0,0,0-1.24-.31,2.16,2.16,0,0,0-1.28.34.93.93,0,0,0-.46.77.79.79,0,0,0,.14.47,1.44,1.44,0,0,0,.44.36,3.11,3.11,0,0,0,.6.26l1.06.28a16.56,16.56,0,0,1,1.69.49,5.24,5.24,0,0,1,1.32.65,2.81,2.81,0,0,1,.87,1A3.17,3.17,0,0,1,25.07,70a3.44,3.44,0,0,1-.54,1.87A3.56,3.56,0,0,1,23,73.19a5.79,5.79,0,0,1-2.41.47"/><path class="cls-1" d="M31.27,73.66a7.69,7.69,0,0,1-2.22-.28,3.68,3.68,0,0,1-1.56-.89A3.63,3.63,0,0,1,26.6,71a7.77,7.77,0,0,1-.27-2.18V63.51a1.62,1.62,0,0,1,.35-1.12A1.17,1.17,0,0,1,27.6,62a1.2,1.2,0,0,1,.94.39,1.63,1.63,0,0,1,.35,1.12V68.9a4.8,4.8,0,0,0,.19,1.48,1.61,1.61,0,0,0,.66.87,2.5,2.5,0,0,0,1.37.31,2.07,2.07,0,0,0,1.71-.62,3.29,3.29,0,0,0,.5-2V63.51a1.61,1.61,0,0,1,.34-1.12,1.17,1.17,0,0,1,.92-.39,1.23,1.23,0,0,1,.94.39,1.63,1.63,0,0,1,.35,1.13v5.26A8,8,0,0,1,35.62,71a3.48,3.48,0,0,1-1,1.59,3.88,3.88,0,0,1-1.46.84,6.06,6.06,0,0,1-1.9.26"/><path class="cls-1" d="M56,73.68a6.28,6.28,0,0,1-2.36-.43A4.72,4.72,0,0,1,51.89,72a5.13,5.13,0,0,1-1.06-1.87,7.42,7.42,0,0,1-.36-2.35,7.5,7.5,0,0,1,.38-2.37,5.22,5.22,0,0,1,1.08-1.85,4.77,4.77,0,0,1,1.74-1.17A6.16,6.16,0,0,1,56,62a6,6,0,0,1,3,.72,4.68,4.68,0,0,1,1.92,2,7,7,0,0,1,.64,3.06,7.55,7.55,0,0,1-.35,2.36,5.19,5.19,0,0,1-1.07,1.86,4.62,4.62,0,0,1-1.75,1.21,6.25,6.25,0,0,1-2.36.42m0-9.57a2.83,2.83,0,0,0-1.16.24,2.42,2.42,0,0,0-.91.68,3.27,3.27,0,0,0-.61,1.16,5.89,5.89,0,0,0,0,3.26,3.28,3.28,0,0,0,.63,1.19,2.65,2.65,0,0,0,.92.7,2.77,2.77,0,0,0,1.16.24,2.84,2.84,0,0,0,1.48-.41,2.81,2.81,0,0,0,1.07-1.24,4.9,4.9,0,0,0,.4-2.11,4.8,4.8,0,0,0-.37-2,2.72,2.72,0,0,0-1-1.26A2.93,2.93,0,0,0,56,64.11"/><path class="cls-1" d="M47.69,73.67a1.25,1.25,0,0,1-.93-.34,1.37,1.37,0,0,1-.35-1c0-1.1.05-4.31.05-4.31V66.45l-2.06,3.41,0,.06a.54.54,0,0,1-.07.13,1.27,1.27,0,0,1-1,.69,1.23,1.23,0,0,1-1-.71l-1.58-2.62-.57-.94c0,1.61,0,5.87,0,5.87a1.18,1.18,0,0,1-1.25,1.33,1.21,1.21,0,0,1-1.3-1.34c0-2.89,0-5.65,0-8.54a1.51,1.51,0,0,1,1-1.65,2.15,2.15,0,0,1,.61-.09,1.77,1.77,0,0,1,1.56.9c.55.91,1.09,1.83,1.63,2.74,0,0,.86,1.44.9,1.52l.61-1c.59-1,1.25-2.09,1.87-3.15a1.76,1.76,0,0,1,1.57-1,2.73,2.73,0,0,1,.65.09,1.4,1.4,0,0,1,1,1.5v8.69a1.19,1.19,0,0,1-1.27,1.32Z"/></svg>