<svg id="Layer_1" data-name="Layer 1" xmlns="http://www.w3.org/2000/svg" viewBox="0 0 151.07 87"><defs><style>.cls-1{fill:#323031;}.cls-2{fill:#d83f20;}.cls-3{fill:#f05a2b;}</style></defs><path class="cls-1" d="M141.89,46.13a8.45,8.45,0,0,0,6-8.39c0-5.72-5-9.27-13-9.27-3.54,0-9,.09-16.36.35V63.53c7.45.26,13.08.43,16.88.43,8.4,0,13.68-3.72,13.68-9.86C149.07,50.37,146.3,47.17,141.89,46.13Zm-12.73-9.69h2.25c1-.09,1.65-.09,2.17-.09q4.41,0,4.41,3.12c0,2.16-1.64,3.55-4.07,3.55h-4.67V36.44Zm4.94,19.47c-1.91,0-3.55-.08-4.94-.08V49.34h5.37c2.51,0,4.15,1.21,4.15,3C138.68,54.62,137,55.91,134.1,55.91Z"/><polygon class="cls-1" points="23.9 46.22 23.9 46.22 35.5 28.56 23.64 28.56 12.56 45.87 12.56 28.56 1.91 28.56 1.91 63.97 12.56 63.97 12.56 46.56 23.64 63.97 35.5 63.97 23.9 46.22"/><path class="cls-1" d="M55.23,28.56c-2.77,0-7.7.17-14.71.43V64H51.17V55.65h4.06c10.05,0,16.11-5,16.11-13.41C71.42,33.49,65.36,28.56,55.23,28.56Zm1,17.05c-1.91,0-3.55-.08-4.94-.08V39h5.37c2.51,0,4.15,1.21,4.15,3.11C60.77,44.4,59,45.61,56.19,45.61Z"/><polygon class="cls-1" points="30.48 46.22 35.5 54.01 35.5 38.43 30.48 46.22"/><path class="cls-1" d="M112.28,37.3a20.73,20.73,0,0,1,.61,5.28,23.71,23.71,0,0,1-.7,4.33V47c0,.08-.08.17-.08.26a.27.27,0,0,1-.09.17c-.17.43-.26.87-.43,1.21l-.09.09c-.08.17-.08.26-.17.43-2.6,5.63-8.92,9.61-16.28,10H93.41c-6.75,0-13.07-2.94-16.45-7.7-.26-.35-.43-.78-.69-1.13a19.27,19.27,0,0,0,37.66-5.45A18.82,18.82,0,0,0,112.28,37.3Z"/><path class="cls-2" d="M110.38,36.61a15.28,15.28,0,0,0-2.86-5.19v.08c-.87-1.21-1.82-2.33-2.94-3.63-2.51-3-.7-7.45,1.56-8.23H106a10.71,10.71,0,0,0-6.66,2.08,6.17,6.17,0,0,0-3,4.93,6.78,6.78,0,0,0,1.13,3.73,11.33,11.33,0,0,0,1.3,1.73,7.84,7.84,0,0,1-5.63,13.5h-.09a9.28,9.28,0,0,1-1.64-.17,1.32,1.32,0,0,1-.52-.17,4.36,4.36,0,0,1-1.13-.44h0a7.68,7.68,0,0,1-3.72-10.56,10.23,10.23,0,0,1,2.86-3.89,25.4,25.4,0,0,1,2.16-1.73c-6.58,0-15.23,3.89-15.23,14.45a1.87,1.87,0,0,0,.08.7,1.65,1.65,0,0,0,.09.69,13.82,13.82,0,0,0,2.25,6.06c3,4.24,8.66,7,15.15,7h1.47c6.93-.43,12.64-4.16,14.89-9.09.09-.17.09-.26.17-.43a4.9,4.9,0,0,0,.35-1c0-.09.09-.18.09-.26s.08-.17.08-.35a15.1,15.1,0,0,0,.61-4A13.47,13.47,0,0,0,110.38,36.61Z"/><path class="cls-3" d="M109.25,48.38a.31.31,0,0,1,.09-.17c-.09.17-.09.35-.18.43C109.16,48.56,109.25,48.47,109.25,48.38Z"/></svg>