<?xml version="1.0" encoding="utf-8"?>
<!-- Generator: Adobe Illustrator 26.3.1, SVG Export Plug-In . SVG Version: 6.00 Build 0)  -->
<svg version="1.1" id="Layer_1" xmlns="http://www.w3.org/2000/svg" xmlns:xlink="http://www.w3.org/1999/xlink" x="0px" y="0px"
	 viewBox="0 0 500 195" style="enable-background:new 0 0 500 195;" xml:space="preserve">
<style type="text/css">
	.st0{fill:#8A262A;}
	.st1{fill:#221F1F;}
	.st2{fill:#FFFFFF;}
	.st3{fill:none;stroke:#FFFFFF;stroke-width:0.2;stroke-miterlimit:10;}
	.st4{fill:#231F20;}
</style>
<g>
	<path class="st0" d="M326.9,100.4c1,19.6-27.7,23.7-36.9,8.7c-2.8-4,5.5-6.6,7.7-9.5c4.4-3.3,0.5,2.2,3.4,4.2
		c5.2,7.3,19.9,0.1,10-6.5c-6.4-4.4-15.1-5.3-19.9-12.2c-12-19.1,20.7-31.9,31.5-16.5c0.6,1.6,3.5,3.7,1.9,5.4
		c-3,2.2-6.1,4.2-9.3,5.9c-1,0.1-0.7-1.6-0.6-2.3c-0.6-4.1-6.4-5.4-10.2-4.7C287.9,80.8,329.2,83.3,326.9,100.4z"/>
	<path class="st0" d="M369.4,68.9c-0.6-3.1,1.3-7.5-3.5-6.3c-4-0.3-8.9-0.1-13-0.1c-4.7,0.1-9.7-0.1-14.1,0.1
		c-3.6-0.2-6.8-1.1-5.4,3.7c0.6,8.8-3.3,8.8,4.6,6.4c5.2-0.3,8-0.4,7.9,1.5c-0.1,1.6-0.2,6.2-0.2,12.8c0,5.5-0.3,11.4,0.1,17.3
		c0.2,2-0.3,4.6,0,6.7c-0.4,1.2,0.7,3.5-0.5,4.1c-4.2,3.9,8.4,1.7,10.1,2.2c2.2,0.7,3.6-0.7,1.4-2.2c-0.1-1.3,0.2-2.7-0.2-4.1
		c0.6-8.8-0.1-13.8-0.1-26.2c0-3.5,0-7.7,0-11.2c0-1.6,2.6,0,3.5-0.7c1.5,0.1,3.4,0.3,4.8-0.1C371.2,74.8,368.5,75.6,369.4,68.9z"/>
	<path class="st0" d="M407.2,70.9c-0.7-2.5,1.5-9-2.3-8.3c-5.2-0.1-10.4-0.2-15.5-0.1c-4.3,0.6-9.6-0.9-13.5,0.6
		c1.1,1.6,2.1,2.7,1.6,5.1c-0.1,15.5-0.1,30.5,0,45.9c0.1,1.7-4,3.6,0.3,3c4.5,0.4,10.4-0.1,14.8,0c2.5,0.5,5.4,0,7.9,0
		c1.8-0.5,6.3,1.6,6.6-0.7c-0.4-2.8,0.5-5.5-0.2-8.1c0.5-4.1-0.6-2.4-3-1.3c-3.9-0.1-7.8,0-11.6-0.2c-1.8-0.1-3.9,0.3-4-0.4
		c-0.1-2.8,0.3-6,0.2-8.8c-0.1-3-0.1-3,3.9-3c2.7,0,5.5-0.2,8.1,0c2.9,4,2.7-1.5,2.6-3.6c-0.4-2.8,0.6-5.5-0.2-8.1
		c-1-0.5-2,1.3-2.8,1.4c-2.1,0.1-3.4,0.2-5.1,0.2c-0.6,0.1-4.6,0-5.2,0.1c-1.9,0.1-1.6-0.9-1.6-2c-0.1-3.3-0.1-5,0-9.1
		c0-0.5,2.4-0.5,3-0.5c2.7-0.1,5.9,0.3,9,0C408,71.7,406.1,78.3,407.2,70.9z"/>
	<path class="st0" d="M454.7,116.9c-1.1-4.1-3.9-13.4-5.4-18c-2.3-7.1-3.1-11.7-5-19c-1.3-4.6-2.6-9.7-3.8-14.2c0.6-1.7,1.4-4-1.7-3
		c-2.1,0.7-14.9-1.9-11.3,2.1c-3.7,17-10.3,36.8-14,52.7c1-0.4,12.1,0.8,12.4-2c0.2-1.7,0.1-2.1,0.3-3.9c0.4-2.2,1-4.4,1.8-6.4
		c5.9,1.3,11.9-2.8,13.4,5.4c1.1,5.9-0.2,6.8,1,6.9C446.5,117.9,450.6,117.7,454.7,116.9z M434.6,95c-4.2-0.4-4.6,1.2-3.1-3.8
		c0.8-1.5,2.1-10.5,2.7-7.7c0.9,3.7,2.2,8,3.1,11.5C437.2,95.5,434.9,94.9,434.6,95z"/>
	<path class="st0" d="M499.1,116.4c-5.6-9.7-9-21.5-13.4-31.6c-2.7-2.9,0.5-5.2,2.3-7.8c2.4-2.6,3.8-5.9,6-8.7
		c1.8-3.1,6.6-6.4-0.1-5.8c-2.9,0.3-8-0.5-10.7,0.4c-1.2,1.3,1.8,1.5,1,2.6c-4,5.4-7.2,10-11.5,15c0.2-4.8,0.2-10.3,0.1-15
		c5.6-5.1-8.7-1.9-11.4-2.9c-2.7,0.5,1.6,2,0.5,7.3c-0.1,8.6-0.2,18-0.1,26.4c0.2,6.1-0.1,12.3,0.1,18.4c-0.3,1-3,2.8-0.5,2.9
		c4-0.8,10.2,1.4,12.9-0.9c-0.9-1.2-1.9-1.8-1.7-3.5c0.8-4.8-0.8-11.4,0.6-16c5.8-8.5,3.2-4,6.4,3c2.2,4.7,3,10.4,5.3,14.9
		c-0.7,0.3-2.4,2.4-0.8,2.5C486.7,116.6,500.2,119.2,499.1,116.4z"/>
	<path class="st0" d="M159.1,98.2c-0.1-3.4-0.1-3.4-0.2-9.2c0-0.4,0.6-1.8-0.7-1.9c-2.7,0-4.7,0-9.2,0.2c-4.1,0.2-4.3-0.2-7.7-0.2
		c-4.4,0-2.9,6.1-3.1,8.1c-0.1,1,0,2,0.1,3c0.2,1.2,2.2-0.4,2.8-0.7c1.9,0.2,5,0,6.8,0c0.3,5.6-2.5,9.8-8,9.7
		c-3.3-0.2-6.7-0.9-7.4-4.6c-1.2-4-0.5-7.7-0.7-11.6c0-4.2-0.8-13.5,2.4-16.5c2.3-1.8,6.9-2.3,9.6-1.2c1,0.3,1.9,0.9,2.6,1.6
		c1.1,1.2,1.2,2.6,1.6,4.1c-3.7,3.4,0.7,2.6,2.5,2.5c0.8,0,1.9-0.1,2.7-0.1c2.8-0.1,1.7,0.1,5.1-0.1c1-0.1,0.6-1.7,0.6-2.4
		c0-0.7-0.2-2.8-0.2-3.2c-0.1-1.9-0.2-2.6-1.1-5c-0.4-1.2-1-2.4-1.7-3.5c-0.4-0.5-0.8-1-1.3-1.4c-2.6-2.1-5.6-3.4-8.9-3.9
		c-3-0.3-1.8-0.3-4.6-0.3c-0.7,0-1.6-0.1-2.3,0c-1,0-2,0.1-3,0.3c-4.8,0.9-9.9,1.9-12.4,6.5c-2.8,3.5-2.6,9.7-2.5,14
		c-0.1,1.3,0.1,5.4,0.1,6.2c0,2.1-0.1,3.5,0,4.9c0,1.1,0,2.7,0,4.1c0,1.4-0.2,3.6,0.2,5c0,3.7,1,7.3,3,10.4c1.2,1.3,2.6,2.4,4.2,3.2
		c1.3,0.8,2.7,1.3,4.1,1.5c2.4,0.6,5,0.8,7.5,0.6c1.6,0,3.2-0.1,4.8-0.4c2.3-0.3,4.5-0.8,6.6-1.6c2.1-0.9,5.6-4.5,6.3-6.2
		c0.6-1.8,0.9-3.6,1.1-5.4C159,101.9,159.2,100.1,159.1,98.2z"/>
	<path class="st0" d="M253.1,98.2c-0.1-3.4-0.1-3.4-0.2-9.2c0-0.4,0.6-1.8-0.7-1.9c-2.7,0-4.7,0-9.2,0.2c-4.1,0.2-4.3-0.2-7.7-0.2
		c-4.4,0-2.9,6.1-3.1,8.1c-0.1,1,0,2,0.1,3c0.2,1.2,2.2-0.4,2.8-0.7c1.9,0.2,5,0,6.8,0c0.3,5.6-2.5,9.8-8,9.7
		c-3.3-0.2-6.7-0.9-7.4-4.6c-1.2-4-0.5-7.7-0.7-11.6c0-4.2-0.8-13.5,2.4-16.5c2.3-1.8,6.9-2.3,9.6-1.2c1,0.3,1.9,0.9,2.6,1.6
		c1.1,1.2,1.2,2.6,1.6,4.1c-3.7,3.4,0.7,2.6,2.5,2.5c0.8,0,1.9-0.1,2.7-0.1c2.8-0.1,1.7,0.1,5.1-0.1c1-0.1,0.6-1.7,0.6-2.4
		c0-0.7-0.2-2.8-0.2-3.2c-0.1-1.9-0.2-2.6-1.1-5c-0.4-1.2-1-2.4-1.7-3.5c-0.4-0.5-0.8-1-1.3-1.4c-2.6-2.1-5.6-3.4-8.9-3.9
		c-3-0.3-1.8-0.3-4.6-0.3c-0.7,0-1.6-0.1-2.3,0c-1,0-2,0.1-3,0.3c-4.8,0.9-9.9,1.9-12.4,6.5c-2.8,3.5-2.6,9.7-2.5,14
		c-0.1,1.3,0.1,5.4,0.1,6.2c0,2.1-0.1,3.5,0,4.9c0,1.1,0,2.7,0,4.1c0,1.4-0.2,3.6,0.2,5c0,3.7,1,7.3,3,10.4c1.2,1.3,2.6,2.4,4.2,3.2
		c1.3,0.8,2.7,1.3,4.1,1.5c2.4,0.6,5,0.8,7.5,0.6c1.6,0,3.2-0.1,4.8-0.4c2.3-0.3,4.5-0.8,6.6-1.6c2.1-0.9,5.6-4.5,6.3-6.2
		c0.6-1.8,0.9-3.6,1.1-5.4C253,101.9,253.3,100.1,253.1,98.2z"/>
	<path class="st0" d="M206,97c-1.4-9.1,2.4-21.8-3.4-29.4c-6.9-9.3-30.5-8.3-34.1,4.3c-1.6,6.9-0.7,14-0.8,20.9
		c0.1,5.5-0.8,11.7,1.5,17.1c5.2,11.3,25.2,11,33,3.1C206.7,108.5,205.5,102.4,206,97z M179.8,103.6c-2.5-6.3-0.3-13.5-1.3-20
		c-0.1-4.6,1.3-10.5,6.6-11.1c5-0.4,10.3,1.6,10.1,7.4c0,6.7,0.1,13.2-0.1,19.9C195.9,107.4,183,110.2,179.8,103.6z"/>
	<path class="st0" d="M273.6,115.5c-1.4-0.8-0.3-2.9-0.7-4.2c-0.1-3.6-0.3-8.1,0.1-11.6c0.1-8-0.6-16.5,0.1-24.7
		c-0.1-3.1-0.4-6.4-0.2-9.4c4.2-4.6-4.1-3.1-7-3.1c-3,0.3-7.3-1.3-3.9,3.2c-0.3,4,0.1,7.8-0.1,12.2c-0.4,8.8,0.3,17.5-0.2,26.5
		c0.3,2.8,0.3,5.7,0,8.5c0.5,1.5,0.4,2.8-1.3,3.4c-1.3,2.1,5.6,1.1,6.9,1.1C269.2,117.1,276,119,273.6,115.5z"/>
	<path class="st1" d="M21.9,60.3c16.4-1.1,25.4,1,42.7,1.4c3.3,0.1,6.7-0.4,9.7,0.5c7.6,2.3,8.9,10,9,16.4c0.3,15.7-5.2,29.9-5,45.6
		c0.1,5.8,0,9.2-5.5,13c-4.6,3.2-26.5,5.8-33.6,6.1c-7.3,0.2-15.9,0.6-19.4-4.3c-1.4-2-1.6-4.3-1.8-6.6c-1.4-18.3-6.3-37-7.7-55.3
		c-0.2-3.2-0.5-6.6,0.9-9.6c1.4-3.1,5.1-6.2,9.5-6.8C21,60.5,21.9,60.3,21.9,60.3"/>
	<path class="st2" d="M65.9,61c2.1,0,4.4-0.1,6.6,0.6c2.5,0.9,4.9,1.9,7.3,3c2.4,1.1,4.9,2.2,7.2,3.5s4.6,2.7,6,5
		c1.6,2.6,2.6,5.6,2.7,8.7c0,1.9-0.2,3.8-0.7,5.6c-0.7,2.9-1,5.9-0.7,8.9c0.1,1,0.2,1.9,0.4,2.9c0.4,3.6,0.1,7-2,10.3
		c-1.9,3-4.6,5.4-7.2,7.8c-1.7,1.6-3.3,3.3-4.8,5c-2.5,2.8-5.6,5.2-9,6.9c-2.5,1.3-5.1,2.5-7.7,3.6c-2.5,1-5.1,1.4-7.8,1.3
		c-3.3-0.2-6.6-0.2-9.9-0.4c-5.7-0.4-11.4-0.9-16.8-2.6c-4-1.3-7.9-2.6-11.8-4c-2.5-0.9-4.9-2.2-6.9-4c-2.2-1.9-3.9-4.1-4.6-6.8
		c-0.6-2.2-1-4.5-1.4-6.8c-0.3-1.9-0.5-3.8-0.8-5.7c-0.2-1.2-0.5-2.3-0.6-3.5c-0.1-1.3-0.2-2.6-0.1-4c0.1-1.3,1-2.4,1.9-3.3
		c1.6-1.6,3.3-3.1,5.2-4.4c2-1.4,4.2-2.3,6.5-2.7c4.3-0.7,8.5-1.8,12.6-3.3c2.1-0.8,4.2-1.7,6.3-2.6c2.7-1.3,5.2-3,7.5-5
		c2.4-1.9,4.2-4.3,6.2-6.5c1.6-1.7,3.4-3.1,5.5-4.2c1.3-0.7,2.7-1.4,4-1.9C61.1,61.4,63.5,61,65.9,61 M89.6,84.3h0.1
		c-0.1-1-0.2-1.9-0.3-2.9c-0.5-3.8-2-7.2-5.2-9.8c-1.3-1-2.7-1.9-4.2-2.6c-2.4-1.3-4.9-2.3-7.4-3.2c-0.9-0.4-1.8-0.6-2.8-0.7
		C66,65,62.3,66,59.2,68c-1.4,0.9-2.7,1.8-3.9,2.9c-1.7,1.2-3.3,2.7-4.7,4.3c-2.3,2.9-5.2,5.2-8.5,6.9c-3.4,1.9-6.8,3.5-10.5,4.9
		c-3.2,1.2-6.6,2-10,2.4c-2.3,0.2-4.6,0.8-6.7,1.7c-2.7,1.2-5,3.1-6.8,5.4c-0.7,0.8-1.1,1.9-0.9,3c0.2,1.3,0.6,2.6,0.9,3.9
		c0.4,1.6,1,3.2,1.9,4.6c1.9,2.5,4.3,4.6,7,6.2c2.4,1.5,5.1,2.5,7.9,3c0.5,0.2,1.1,0.2,1.7,0.1c0.6-0.2,1.2-0.2,1.8,0
		c1.6,0.3,3.2,0.8,4.8,1.1l5.9,1.3c0.9,0.2,1.8,0.4,2.7,0.5c1.4,0.2,2.8,0.2,4.3,0.3c2,0.2,4,0.1,5.9-0.1c1.4-0.2,2.8-0.4,4.2-0.6
		c1.7-0.2,3.3-0.5,5-1c1.7-0.6,3.4-1.4,4.9-2.3c1.4-0.8,2.7-1.7,4-2.7c2.7-1.8,5.3-3.6,7.9-5.5c1.3-0.9,2.4-2,3.2-3.3
		c0.7-1.2,1.6-2.3,2.5-3.3c1.4-1.6,3-3.1,4.4-4.7c0.7-0.7,1.2-1.6,1.2-2.6c0-1.3,0.3-2.5,0.4-3.8c0.2-0.8,0.3-1.7,0.3-2.6
		c-0.1-1.3-0.4-2.5-0.6-3.8 M89.7,100.7c-0.5,0.6-1.1,1.1-1.6,1.7c-1,1.3-2.1,2.5-3.1,3.8c-0.6,0.9-1.2,1.8-1.9,2.7
		c-1.1,1.1-2.3,2.1-3.5,3c-2.4,1.8-4.8,3.4-7.2,5.2c-2.1,1.5-4.3,2.9-6.7,4c-2,1-4.2,1.7-6.4,2.1c-2.2,0.3-4.4,0.7-6.7,1
		c-1.8,0.2-3.5,0.3-5.3,0.3c-1.9,0-3.8-0.2-5.8-0.4c-1.7-0.2-3.5-0.4-5.2-0.8c-2-0.5-3.9-1.2-5.6-2.2c-0.3-0.2-0.6-0.3-1-0.3
		c-0.9-0.1-1.8-0.2-2.8-0.3c-3-0.3-5.9-1.1-8.7-2.3c-3-1.3-5.7-3.2-8.1-5.4c-0.2-0.2-0.5-0.4-0.7-0.5c0,0.2-0.1,0.4,0,0.4
		c0.4,1.1,0.8,2.1,1.4,3c0.9,1.2,1.8,2.3,2.8,3.4c1,1.3,2.2,2.3,3.6,3c1,0.5,1.9,1,3,1.4c2.1,0.9,4.4,1.5,6.6,1.8
		c1.5,0.1,3,0.4,4.5,0.8c3.3,0.8,6.6,1.3,9.9,1.4c2,0,4.1,0.2,6.1,0.6c2.2,0.6,4.5,0.9,6.8,1c2.4,0.1,4.8-0.5,6.8-1.8
		c0.9-0.5,1.6-1.3,2.4-1.9c0.4-0.3,0.8-0.5,1.1-0.7l0.2,0.2l-0.9,1.3c0.1,0,0.2,0,0.3,0c2.1-0.6,4.2-1.5,6.1-2.6
		c1.9-1.2,3.3-2.9,4.8-4.5c1.5-1.6,3.2-3.2,4.8-4.7c1.3-1.2,2.6-2.3,3.9-3.5c0.6-0.6,1.1-1.3,1.8-1.9c1.7-1.5,3.1-3.3,4-5.4
		C90,102.6,90,101.6,89.7,100.7"/>
	<path class="st2" d="M89.7,100.7c0.3,0.9,0.3,1.9-0.1,2.8c-0.9,2.1-2.3,3.9-4,5.4c-0.6,0.6-1.1,1.3-1.8,1.9
		c-1.3,1.2-2.6,2.3-3.9,3.5c-1.6,1.6-3.3,3.1-4.8,4.7c-1.6,1.6-2.9,3.3-4.8,4.5c-1.9,1.1-4,2-6.1,2.6c-0.1,0-0.2,0-0.3,0l0.9-1.3
		l-0.2-0.2c-0.4,0.2-0.8,0.5-1.1,0.7c-0.8,0.6-1.6,1.3-2.4,1.9c-2.1,1.2-4.4,1.8-6.8,1.8c-2.3,0-4.6-0.4-6.8-1c-2-0.4-4-0.6-6.1-0.6
		c-3.4-0.1-6.7-0.6-9.9-1.4c-1.5-0.4-3-0.6-4.5-0.8c-2.3-0.3-4.5-0.9-6.6-1.8c-1-0.4-2-0.9-3-1.4c-1.4-0.7-2.6-1.8-3.6-3
		c-1-1.1-1.9-2.2-2.8-3.4c-0.6-1-1-2-1.4-3.1c0-0.1,0-0.2,0-0.4c0.3,0.2,0.5,0.3,0.7,0.5c2.4,2.3,5.1,4.1,8.1,5.4
		c2.8,1.2,5.7,1.9,8.7,2.3c0.9,0.1,1.8,0.2,2.8,0.3c0.3,0,0.7,0.1,1,0.3c1.8,1,3.7,1.7,5.6,2.2c1.7,0.4,3.4,0.7,5.2,0.8
		c1.9,0.2,3.8,0.4,5.8,0.4c1.8,0,3.5-0.1,5.3-0.3c2.2-0.3,4.4-0.6,6.7-1c2.2-0.4,4.4-1.1,6.4-2.1c2.3-1.1,4.6-2.5,6.7-4
		c2.4-1.7,4.9-3.4,7.2-5.2c1.2-0.9,2.4-1.9,3.5-3c0.7-0.8,1.3-1.7,1.9-2.7c1-1.3,2-2.6,3.1-3.8C88.6,101.8,89.1,101.2,89.7,100.7"/>
	<path class="st2" d="M89.5,84.4h0.1c-0.1-1-0.2-1.9-0.3-2.9c-0.5-3.8-2-7.2-5.2-9.8c-1.3-1-2.7-1.9-4.2-2.6
		c-2.4-1.3-4.9-2.3-7.4-3.2c-0.9-0.4-1.8-0.6-2.8-0.7C66,65,62.3,66,59.1,68c-1.4,0.9-2.7,1.8-3.9,2.9c-1.7,1.2-3.3,2.7-4.7,4.3
		c-2.3,2.9-5.2,5.2-8.5,6.9c-3.4,1.9-6.9,3.5-10.5,4.9c-3.2,1.2-6.5,2-9.9,2.4c-2.3,0.2-4.6,0.8-6.7,1.7c-2.7,1.2-5,3.1-6.8,5.4
		c-0.7,0.8-1.1,1.9-0.9,3c0.2,1.3,0.6,2.6,0.9,3.9c0.4,1.6,1,3.2,1.9,4.6c1.9,2.5,4.3,4.6,7,6.2c2.4,1.5,5.1,2.5,7.9,3
		c0.5,0.2,1.1,0.2,1.7,0.1c0.6-0.2,1.2-0.2,1.8,0c1.6,0.3,3.2,0.8,4.8,1.1c1.9,0.5,3.9,0.9,5.9,1.3c0.9,0.2,1.8,0.4,2.7,0.5
		c1.4,0.2,2.8,0.2,4.3,0.3c2,0.2,4,0.1,5.9-0.1c1.4-0.2,2.8-0.4,4.2-0.6c1.7-0.2,3.3-0.5,5-1c1.7-0.6,3.4-1.4,4.9-2.3
		c1.4-0.8,2.7-1.7,4-2.7c2.7-1.8,5.3-3.6,7.9-5.5c1.3-0.9,2.4-2,3.2-3.3c0.7-1.2,1.6-2.3,2.5-3.3c1.4-1.6,3-3.1,4.4-4.7
		c0.7-0.7,1.2-1.6,1.2-2.6c0-1.3,0.3-2.6,0.4-3.8c0.2-0.8,0.3-1.7,0.3-2.6C90,86.8,89.7,85.6,89.5,84.4"/>
	<path class="st2" d="M85,84.3c0.1,0.1,0.1,0.2,0.2,0.3c0.4,1.2,0.8,2.4,1.3,3.5c0.7,1.4,1.1,2.9,1.1,4.5c0,0.4-0.1,0.7-0.2,1.1
		c-0.4,0.9-0.8,1.7-1.2,2.5c-0.1,0.2-0.4,0.3-0.6,0.4c-0.4-0.1-0.3-0.5-0.2-0.8c0.2-0.5,0.5-1,0.8-1.5c0.9-1.5,0.7-3,0.3-4.5
		c-0.2-0.8-0.7-1.6-1-2.4s-0.5-1.6-0.7-2.4c0-0.3,0-0.5,0-0.8L85,84.3"/>
	<path class="st2" d="M9.8,98.6c0-0.3-0.1-0.5-0.1-0.7c0.3-0.7,0.6-1.4,1-2c0.4-0.5,1-1,1.5-1.5c0.2-0.2,0.4-0.3,0.6-0.3
		c0.2,0,0.4,0.1,0.6,0.2c-0.1,0.2-0.2,0.3-0.3,0.5c-1.3,0.8-2.3,2-2.9,3.4c-0.1,0.2-0.2,0.4-0.3,0.6L9.8,98.6"/>
	<path class="st1" d="M65.3,58.6c2.1,0,4.5-0.1,6.7,0.6c2.5,0.9,5,1.9,7.4,3c2.5,1.1,4.9,2.2,7.3,3.5c2.4,1.2,4.7,2.7,6.1,5
		c1.7,2.6,2.6,5.5,2.7,8.6c0,1.9-0.2,3.7-0.7,5.5c-0.7,2.9-1,5.8-0.7,8.8c0.1,1,0.2,1.9,0.4,2.9c0.4,3.6,0.1,7-2,10.2
		c-1.9,3-4.7,5.4-7.3,7.8c-1.7,1.6-3.3,3.3-4.9,5c-2.6,2.8-5.7,5.1-9.1,6.8c-2.6,1.3-5.2,2.5-7.9,3.6c-2.5,1-5.2,1.4-7.9,1.2
		c-3.3-0.2-6.7-0.2-10.1-0.4c-5.8-0.3-11.6-0.9-17.1-2.6c-4-1.3-8.1-2.6-12-4c-2.6-0.9-4.9-2.2-7-3.9c-2.2-1.9-4-4.1-4.7-6.8
		c-0.6-2.2-1-4.5-1.5-6.8c-0.3-1.9-0.5-3.8-0.8-5.6c-0.2-1.2-0.5-2.3-0.6-3.4c-0.1-1.3-0.2-2.6-0.1-3.9c0.1-1.3,1-2.4,2-3.3
		c1.6-1.6,3.4-3.1,5.2-4.4c2-1.4,4.3-2.3,6.7-2.7c4.3-0.8,8.7-1.7,12.8-3.3c2.2-0.8,4.3-1.7,6.4-2.6c2.7-1.3,5.3-3,7.6-5
		c2.4-1.9,4.3-4.3,6.3-6.5c1.6-1.7,3.5-3.1,5.6-4.1c1.3-0.7,2.7-1.4,4.1-1.9C60.4,58.9,62.8,58.5,65.3,58.6 M89.4,81.7h0.1
		c-0.1-1-0.2-1.9-0.4-2.9c-0.5-3.8-2-7.1-5.3-9.7c-1.3-1-2.8-1.9-4.2-2.6c-2.4-1.2-5-2.3-7.6-3.1c-0.9-0.4-1.9-0.6-2.8-0.7
		c-3.8-0.2-7.6,0.8-10.8,2.8c-1.4,0.9-2.7,1.8-4,2.9c-1.8,1.2-3.4,2.7-4.8,4.3c-2.4,2.9-5.3,5.2-8.7,6.9c-3.4,1.9-7,3.5-10.6,4.8
		c-3.3,1.2-6.7,2-10.1,2.4c-2.4,0.3-4.7,0.8-6.9,1.7c-2.7,1.2-5.1,3-6.9,5.4c-0.8,0.8-1.1,1.9-1,3c0.3,1.3,0.6,2.6,0.9,3.9
		c0.4,1.6,1.1,3.2,2,4.6c1.9,2.5,4.3,4.6,7.1,6.2c2.5,1.4,5.2,2.5,8.1,3c0.5,0.2,1.1,0.2,1.7,0.1c0.6-0.2,1.2-0.2,1.8,0
		c1.7,0.3,3.3,0.7,4.9,1.1c2,0.4,4,0.9,6,1.3c0.9,0.2,1.8,0.4,2.7,0.6c1.4,0.2,2.9,0.2,4.3,0.3c2,0.2,4,0.1,6.1-0.1
		c1.4-0.2,2.9-0.4,4.3-0.6c1.7-0.2,3.4-0.5,5-1c1.7-0.6,3.4-1.4,5-2.3c1.4-0.8,2.7-1.7,4.1-2.6c2.7-1.8,5.4-3.6,8.1-5.5
		c1.3-0.9,2.4-2,3.3-3.3c0.8-1.2,1.6-2.3,2.5-3.3c1.4-1.6,3-3.1,4.5-4.7c0.7-0.7,1.2-1.6,1.3-2.6c0-1.3,0.3-2.5,0.5-3.8
		c0.2-0.8,0.3-1.7,0.3-2.6C89.9,84.1,89.6,82.9,89.4,81.7 M89.5,97.9c-0.5,0.6-1.1,1.1-1.6,1.7c-1.1,1.2-2.1,2.5-3.1,3.8
		c-0.6,0.9-1.3,1.8-2,2.7c-1.1,1.1-2.3,2.1-3.6,2.9c-2.4,1.7-4.9,3.4-7.4,5.1c-2.1,1.5-4.4,2.9-6.8,4c-2.1,1-4.3,1.7-6.6,2.2
		c-2.3,0.3-4.5,0.7-6.8,1c-1.8,0.2-3.6,0.3-5.4,0.3c-1.9,0-3.9-0.2-5.9-0.4c-1.8-0.2-3.5-0.4-5.3-0.8c-2-0.5-3.9-1.2-5.7-2.2
		c-0.3-0.2-0.6-0.3-1-0.3c-0.9-0.1-1.9-0.2-2.8-0.3c-3-0.3-6-1.1-8.8-2.2c-3-1.3-5.8-3.1-8.2-5.4c-0.2-0.2-0.5-0.4-0.8-0.5
		c0,0.3-0.1,0.4,0,0.4c0.4,1.1,0.8,2.1,1.4,3c0.9,1.2,1.9,2.3,2.9,3.4c1,1.2,2.2,2.3,3.7,3c1,0.5,2,0.9,3,1.3
		c2.2,0.9,4.4,1.5,6.7,1.8c1.6,0.1,3.1,0.4,4.6,0.7c3.3,0.8,6.7,1.2,10.1,1.3c2.1,0,4.2,0.2,6.2,0.6c2.3,0.6,4.6,0.9,6.9,1
		c2.4,0.1,4.9-0.5,7-1.8c0.9-0.5,1.6-1.3,2.5-1.9c0.4-0.3,0.8-0.5,1.2-0.7l0.2,0.2c-0.3,0.4-0.6,0.9-0.9,1.3c0.1,0,0.2,0,0.3,0
		c2.2-0.6,4.3-1.5,6.2-2.6c2-1.2,3.4-2.9,4.9-4.5c1.6-1.6,3.2-3.2,4.9-4.7c1.3-1.2,2.6-2.3,3.9-3.5c0.6-0.6,1.2-1.3,1.8-1.9
		c1.7-1.5,3.1-3.3,4.1-5.4C89.8,99.8,89.8,98.9,89.5,97.9"/>
	<path class="st2" d="M89.5,97.9c0.3,0.9,0.3,1.9-0.1,2.7c-1,2.1-2.3,3.9-4.1,5.4c-0.6,0.6-1.2,1.3-1.8,1.9
		c-1.3,1.2-2.7,2.3-3.9,3.5c-1.7,1.5-3.3,3.1-4.9,4.7c-1.6,1.6-2.9,3.3-4.9,4.5c-2,1.2-8.3,3.3-9.1,3.8c-2.1,1.3-4.8,1.6-7.2,1.6
		c-2.3-0.1-4.7-0.4-7-1c-2-0.4-4.1-0.6-6.2-0.6c-3.4-0.1-6.8-0.5-10.1-1.3c-1.5-0.4-3.1-0.6-4.6-0.7c-2.3-0.3-4.6-0.9-6.7-1.8
		c-1-0.4-2-0.9-3-1.3c-1.4-0.7-2.7-1.8-3.7-3c-1-1.1-2-2.2-2.9-3.4c-0.6-1-1-2-1.4-3c0-0.1,0-0.2,0-0.4c0.3,0.2,0.5,0.3,0.8,0.5
		c2.4,2.3,5.2,4.1,8.2,5.4c2.8,1.1,5.8,1.9,8.8,2.2c0.9,0.1,1.9,0.2,2.8,0.3c0.3,0,0.7,0.1,1,0.3c1.8,1,3.7,1.7,5.7,2.2
		c1.7,0.4,3.5,0.7,5.3,0.8c1.9,0.2,3.9,0.4,5.9,0.4c1.8,0,3.6-0.1,5.4-0.3c2.3-0.3,4.5-0.6,6.8-1c2.3-0.4,4.5-1.1,6.5-2.1
		c2.4-1.1,4.7-2.5,6.8-4c2.5-1.7,5-3.4,7.4-5.1c1.3-0.9,2.4-1.9,3.6-2.9c0.7-0.8,1.4-1.7,2-2.7c1-1.3,2.1-2.5,3.1-3.8
		C88.4,99.1,88.9,98.5,89.5,97.9"/>
	<path class="st2" d="M17.2,63.2c0.6,0.7,1.6,0.9,2.4,0.5c1.1-0.5,1.8-0.6,1.3-1.8c-0.4-0.9-1.3-1.6-2.3-1.7c-1-0.2-2,0-2.9,0.6
		c-1.2,0.7-2.2,2.1-1.9,3.4c0.1,0.5,0.3,0.9,0.6,1.4c0.8,1.4,1.7,2.9,3.2,3.5c1,0.3,2.1,0.3,3.2,0.1l5.6-0.6c0.2,0,1-0.1,1.2,0.1
		c2.1,2.4,1.3,6.6,0.8,10.1c-1.1-2-1.1-3.7-2.5-4.5c-0.3-0.2-0.7-0.2-1-0.2c-0.4,0-0.8,0.1-1.3,0.3c-1.6,0.5-4.4,0.8-6.2,1.6
		c-0.3,0.1-0.7,0.2-1,0.2c-0.2,0-0.5-0.2-0.6-0.3c-3.1-2.5-5.7-5.5-7.7-8.8c-0.2-0.3-0.3-0.6-0.3-0.9c0.1-0.6,0.2-1.2,0.5-1.7
		c1.4-2.9,3.9-7,3.9-7c1.6-0.7,3.2-1.2,4.9-1.6c1.9-0.3,3.7-0.5,5.6-0.8c0.3-0.1,0.6,0,0.8,0.1c0.2,0.2,0.2,0.4,0.3,0.6
		c1.1,3.1,1.8,4.9,2,7.4c0,0.6-0.9,1.6-1.3,2.3c-2.3,0.1-3.8,0.4-6-0.1L17.2,63.2z"/>
	<path class="st1" d="M14.9,65.4c2.8,2.5,9.3,1.9,9.2-2.9c-0.1-5.3-6.8-6.6-10.5-4.2c-4.6,3-3.4,8.5,0,11.9c1.6,1.6,3.9,2.5,6.2,2.3
		c1.2-0.1,2.4-0.3,3.6-0.4c0.7-0.1,2.5-0.5,3.1-0.3l-1.9-1.5c1.6,2.2,0.8,5.2,0.5,7.7l5.8-0.8c-1.4-2.8-2.4-6.3-6.3-6.2
		c-1.6,0-3.2,0.7-4.7,1c-1,0.1-2,0.3-2.9,0.7l-0.7,0.3c0.9,0.2,0.9,0.1,0-0.5c-0.9-1.1-2.2-2-3.1-3.1c-0.5-0.6-1-1.3-1.5-2
		c-0.7-1-1.1-0.7-1-1.5c0.2-1.3,1.5-2.9,2.2-4c0.5-0.9,1.1-1.9,1.6-2.8l-1.9,1.4c1.2-0.5,2.5-0.9,3.7-1.3c1-0.2,2-0.4,3-0.5
		c0.6-0.1,2.3-0.6,2.9-0.4l-1.9-1.5c0.5,1.2,1,2.5,1.3,3.8c0.5,1.6,0.6,2-0.3,3.3l2.7-1.6c-1.7,0.1-3.5,0.3-5.2,0l2.2,2.2l-0.9-2.1
		c-1.6-3.7-7.7-2.1-6.1,1.7c0.3,1,0.7,2,1.2,2.9c1.3,1.9,4,1.9,6.1,1.8c2.5-0.1,4.2-0.1,5.8-2.2c1.4-1.9,1.5-3.5,1.1-5.8
		c-0.6-3.1-1.6-8.8-5.5-8.9c-3.7-0.2-8,1-11.4,2.4c-2.8,1.1-4.1,4.7-5.4,7.2c-0.7,1.4-1.7,3.1-1.6,4.7c0.1,2.2,1.9,4.2,3.1,5.9
		c2,2.7,5.6,7.5,9.3,7.3c2-0.1,4.2-1,6.2-1.5c0.5-0.1,0.9-0.2,1.4-0.4c0.9-0.2,0.8-0.3-0.1-0.2c0.4,1.1,0.8,2.1,1.4,3.1
		c1.1,2.3,5.4,1.9,5.8-0.8c0.6-4,2.1-12.4-3.2-14.1c-2.2-0.7-5.2,0.3-7.4,0.5c-1.5,0.1-2.6,0.2-3.2-1.3c-0.3-0.6-0.3-0.6-0.2-1.2
		c0.7-0.1,1.1-0.6,1-1.5c0-1.3,0.4-1.6,1.2-1C16.4,58.2,11.9,62.7,14.9,65.4"/>
	<path class="st2" d="M35.6,69.9c-0.3-1.1-0.1-2.3,0.6-3.2c0.6-0.7,2.7,0.1,2.7,0.1L38.1,69l3.7-1l-1.8-4.8l-5.6,0.2l-2.7,5.1
		c0,0,1.6,3,2,3.2c0.4,0.2,2.9,1.2,2.9,1.2l1.1,2.9l0.8-4L35.6,69.9z"/>
	<path class="st2" d="M17.2,63.2c0.6,0.7,1.6,0.9,2.4,0.5c1.1-0.5,1.8-0.6,1.3-1.8c-0.4-0.9-1.3-1.6-2.3-1.7c-1-0.2-2,0-2.9,0.6
		c-1.2,0.7-2.2,2.1-1.9,3.4c0.1,0.5,0.3,0.9,0.6,1.4c0.8,1.4,1.7,2.9,3.2,3.5c1,0.3,2.1,0.3,3.2,0.1l5.6-0.6c0.2,0,1-0.1,1.2,0.1
		c2.1,2.4,1.3,6.6,0.8,10.1c-1.1-2-1.1-3.7-2.5-4.5c-0.3-0.2-0.7-0.2-1-0.2c-0.4,0-0.8,0.1-1.3,0.3c-1.6,0.5-4.4,0.8-6.2,1.6
		c-0.3,0.1-0.7,0.2-1,0.2c-0.2,0-0.5-0.2-0.6-0.3c-3.1-2.5-5.7-5.5-7.7-8.8c-0.2-0.3-0.3-0.6-0.3-0.9c0.1-0.6,0.2-1.2,0.5-1.7
		c1.4-2.9,3.9-7,3.9-7c1.6-0.7,3.2-1.2,4.9-1.6c1.9-0.3,3.7-0.5,5.6-0.8c0.3-0.1,0.6,0,0.8,0.1c0.2,0.2,0.2,0.4,0.3,0.6
		c1.1,3.1,1.8,4.9,2,7.4c0,0.6-0.9,1.6-1.3,2.3c-2.3,0.1-3.8,0.4-6-0.1L17.2,63.2z"/>
	<path class="st0" d="M94.9,105.9c0.1,1.4,0.1,2.9,0.2,4.3c0.2,2.6,0.4,5.3,0.6,7.9c0.1,1.8,0.2,3.7,0.1,5.5c-0.1,1.7-0.4,3.4-0.7,5
		c-0.2,1.3-0.5,2.5-0.7,3.8c-0.1,0.6-0.4,1.2-0.5,1.8c-0.3,1.3-0.6,2.6-1,4c-0.2,1-0.9,1.9-1.9,2.3c-0.9,0.5-1.9,1-2.8,1.4
		c-1,0.3-2.1,0.5-3.2,0.5c-1.5,0-3-0.2-4.5-0.6c-0.9-0.3-1.8-0.7-2.6-1.2c-1.1-0.6-1.9-1.5-2.5-2.6c-0.4-0.9-0.7-1.8-0.9-2.7
		c-0.2-1.2-0.4-2.4-0.5-3.6c-0.2-2.3-0.3-4.6-0.3-6.9c-0.1-2.2-0.1-4.4-0.1-6.6c0.1-2.6,0.3-5.2,0.5-7.7c0.1-1.9,0.3-3.9,0.5-5.8
		c0.3-2.8,0.9-5.5,2.5-7.9c0.6-0.8,1.5-1.3,2.4-1.5c0.3-0.1,0.5-0.2,0.8-0.4c0.8-0.9,2.1-1.2,3.3-0.9c1.6,0.4,3.2,0.6,4.7,1.1
		c1.5,0.5,2.9,1.1,4.3,1.8c0.3,0.2,0.6,0.5,0.8,0.8c1,1.6,1.5,3.5,1.6,5.4C95,104.1,95,105,94.9,105.9L94.9,105.9"/>
	<path class="st2" d="M80.6,103.1c-0.1-0.1-0.3-0.1-0.5-0.2l0,0c-0.1-0.1-0.2-0.1-0.2-0.1c0-0.1,0.1-0.1,0.4-0.2
		c0.2,0,0.4,0,0.6,0.1c0.2,0,0.4,0.1,0.6,0.1h1.1l1.4-0.1h0.1c0,0,0.1,0,0.1,0l0.2,0h0.4c0.3,0,0.4,0.1,0.5,0.1s0,0.1-0.1,0.2
		c0,0-0.1,0.1-0.1,0.1c0,0,0,0.1,0,0.1c-0.1,0.2-0.1,0.6-0.2,1.1c0,0.3-0.1,0.6-0.2,1.1l-0.1,0.4c0.3,0.1,0.5,0.2,0.5,0.3
		c0,0.1-0.1,0.2-0.5,0.2c-0.3,0-0.8,0-1.5,0c-0.7,0-1.2,0-1.6,0c0,0.1,0,0.3-0.1,0.4c-0.1,0.1-0.1,0.2-0.2,0.2
		c-0.1,0-0.1-0.1-0.2-0.2c0-0.2-0.1-0.5-0.1-0.7l-0.2-2.5C80.8,103.3,80.8,103.2,80.6,103.1 M84.9,107.8c-0.1-0.1-0.3-0.3-0.4-0.3
		c-0.1-0.1-0.2-0.1-0.2-0.2c0,0,0.1-0.1,0.3-0.1c0.2,0,0.4,0.1,0.6,0.2c0.2,0.1,0.4,0.2,0.5,0.3c0.1,0.1,0.2,0.1,0.2,0.2
		c0,0.2-0.1,0.3-0.2,0.4l-0.2,0.4c0.2,0.2,0.5,0.4,0.7,0.6c0.2,0.1,0.4,0.3,0.6,0.4c0.1,0,0.1,0.1,0.2,0.1l0.2,0.1
		c0.2,0.1,0.3,0.1,0.4,0.2c0.3,0.3,0.5,0.5,0.7,0.8c0.1,0.2,0.2,0.4,0.1,0.5s-0.2,0.1-0.4-0.1l-0.3-0.3c-0.5-0.5-0.9-0.8-1.2-1.1
		l-1.2-1c-0.5,0.6-1,1.2-1.7,1.7c-0.6,0.4-1.3,0.8-2,1c-0.2,0.1-0.3,0.1-0.3,0c0-0.1,0.1-0.1,0.2-0.2c0.7-0.3,1.3-0.8,1.8-1.3
		c0.6-0.6,1.2-1.2,1.6-2C85,108.1,85,108,84.9,107.8 M81.7,106l1.9-0.1h0.3l0.3,0h0.1c0-0.2,0-0.6,0-1.2c0-0.5,0-1,0-1.5l-2.5,0.1
		h-0.1c0,0-0.1,0-0.1,0.1c0,0,0,0.1,0,0.1L81.7,106z M86.7,102c-0.2-0.1-0.5-0.3-0.7-0.4c-0.2-0.1-0.3-0.1-0.3-0.2
		c0-0.1,0.2-0.1,0.4-0.1c0.2,0,0.4,0,0.6,0.1c0.1,0,0.3,0.1,0.6,0.2l0.1,0c0.1,0,0.2,0.1,0.3,0.2c0,0.1,0,0.2,0,0.2v0.2v3.1h0.4
		c0.1,0,0.1,0,0.2-0.1l0.2-0.1c0.1-0.1,0.2-0.1,0.3-0.1c0.2,0,0.5-0.1,0.7,0c0.1,0,0.2,0,0.3,0.1c0.1,0,0.1,0.1,0.1,0.2
		c0,0.1,0,0.1-0.1,0.2c-0.1,0.1-0.1,0.1-0.2,0.1l-1.9,0c0,0.5,0,0.8-0.1,1.1c0,0.2-0.1,0.4-0.1,0.6c-0.1,0.2-0.2,0.4-0.3,0.4
		s-0.2-0.2-0.2-0.5v-5C87,102.2,86.9,102.1,86.7,102"/>
	<path class="st3" d="M80.6,103.1c-0.1-0.1-0.3-0.1-0.5-0.2l0,0c-0.1-0.1-0.2-0.1-0.2-0.1c0-0.1,0.1-0.1,0.4-0.2
		c0.2,0,0.4,0,0.6,0.1c0.2,0,0.4,0.1,0.6,0.1h1.1l1.4-0.1h0.1c0,0,0.1,0,0.1,0l0.2,0h0.4c0.3,0,0.4,0.1,0.5,0.1s0,0.1-0.1,0.2
		c0,0-0.1,0.1-0.1,0.1c0,0,0,0.1,0,0.1c-0.1,0.2-0.1,0.6-0.2,1.1c0,0.3-0.1,0.6-0.2,1.1l-0.1,0.4c0.3,0.1,0.5,0.2,0.5,0.3
		c0,0.1-0.1,0.2-0.5,0.2c-0.3,0-0.8,0-1.5,0c-0.7,0-1.2,0-1.6,0c0,0.1,0,0.3-0.1,0.4c-0.1,0.1-0.1,0.2-0.2,0.2
		c-0.1,0-0.1-0.1-0.2-0.2c0-0.2-0.1-0.5-0.1-0.7l-0.2-2.5C80.9,103.3,80.8,103.1,80.6,103.1z M84.8,107.7c-0.1-0.1-0.3-0.3-0.4-0.3
		c-0.1-0.1-0.2-0.1-0.2-0.2c0,0,0.1-0.1,0.3-0.1c0.2,0,0.4,0.1,0.6,0.2c0.2,0.1,0.4,0.2,0.5,0.3c0.1,0.1,0.2,0.1,0.2,0.2
		c0,0.2-0.1,0.3-0.2,0.4l-0.2,0.4c0.2,0.2,0.5,0.4,0.7,0.6c0.2,0.1,0.4,0.3,0.6,0.4c0.1,0,0.1,0.1,0.2,0.1l0.2,0.1
		c0.2,0.1,0.3,0.1,0.4,0.2c0.3,0.3,0.5,0.5,0.7,0.8c0.1,0.2,0.2,0.4,0.1,0.5c-0.1,0.1-0.2,0.1-0.4-0.1l-0.3-0.3
		c-0.5-0.5-0.9-0.8-1.2-1.1l-1.2-1c-0.5,0.6-1,1.2-1.7,1.7c-0.6,0.4-1.3,0.8-2,1c-0.2,0.1-0.3,0.1-0.3,0c0-0.1,0.1-0.1,0.2-0.2
		c0.7-0.3,1.3-0.8,1.8-1.3c0.6-0.6,1.2-1.2,1.6-2C85,108,84.9,107.9,84.8,107.7L84.8,107.7z M81.7,105.9l1.9-0.1h0.3l0.3,0h0.1
		c0-0.2,0-0.6,0-1.2c0-0.5,0-1,0-1.5l-2.5,0.1h-0.1c0,0-0.1,0-0.1,0.1c0,0,0,0.1,0,0.1L81.7,105.9z M86.7,101.9
		c-0.2-0.1-0.5-0.3-0.7-0.4c-0.2-0.1-0.3-0.1-0.3-0.2c0-0.1,0.2-0.1,0.4-0.1c0.2,0,0.4,0,0.6,0.1c0.1,0,0.3,0.1,0.6,0.2l0.1,0
		c0.1,0,0.2,0.1,0.3,0.2c0,0.1,0,0.2,0,0.2v0.2v3.1h0.4c0.1,0,0.1,0,0.2-0.1l0.2-0.1c0.1-0.1,0.2-0.1,0.3-0.1c0.2,0,0.5-0.1,0.7,0
		c0.1,0,0.2,0,0.3,0.1c0.1,0,0.1,0.1,0.1,0.2c0,0.1,0,0.1-0.1,0.2c-0.1,0.1-0.1,0.1-0.2,0.1l-1.9,0c0,0.5,0,0.8-0.1,1.1
		c0,0.2-0.1,0.4-0.1,0.6c-0.1,0.2-0.2,0.4-0.3,0.4c-0.1,0-0.2-0.2-0.2-0.5v-5C86.9,102.1,86.8,102,86.7,101.9L86.7,101.9z"/>
	<path class="st2" d="M83.2,120.3c-0.1-0.1-0.3-0.2-0.4-0.3c-0.1-0.1-0.2-0.1-0.2-0.2s0.1-0.1,0.3-0.1c0.2,0,0.4,0.1,0.6,0.2
		c0.2,0.1,0.4,0.2,0.6,0.3c0.1,0,0.1,0.1,0.1,0.2c0,0.1-0.1,0.3-0.2,0.4l-0.2,0.3c0.1,0.1,0.3,0.2,0.4,0.3c0.1,0.1,0.2,0.1,0.3,0.1
		c0.1,0,0.2,0.1,0.3,0.2c0.1,0.1,0.2,0.3,0.3,0.4c0.1,0.3,0.1,0.5-0.1,0.6c-0.1,0.1-0.3,0-0.5-0.3c-0.1-0.2-0.2-0.4-0.3-0.5
		l-0.5-0.6c-0.4,0.6-0.9,1.1-1.4,1.5c-0.5,0.4-1,0.7-1.5,1c-0.2,0.1-0.3,0.1-0.3,0c0,0,0-0.1,0.2-0.2c0.5-0.3,1-0.7,1.4-1.2
		c0.5-0.5,0.9-1.1,1.2-1.8v-0.2C83.3,120.4,83.2,120.3,83.2,120.3 M82.8,115c0-0.1,0-0.1-0.1-0.2c-0.1-0.1-0.2-0.2-0.1-0.2
		c0,0,0.2,0,0.3,0c0.2,0,0.4,0.2,0.5,0.3c0,0.1,0,0.1-0.1,0.2l-0.1,0.1c0.6,0.1,1.1,0.4,1.5,0.8c0.3,0.4,0.4,0.8,0.3,1.3
		c-0.1,0.4-0.3,0.8-0.6,1.1c-0.4,0.4-1,0.5-1.5,0.5c-0.6,0-1.2-0.2-1.6-0.5c-0.4-0.3-0.6-0.7-0.6-1.2c-0.1-0.5,0.1-0.9,0.4-1.3
		c0.4-0.4,0.9-0.7,1.5-0.8h0.1C82.7,115.1,82.8,115,82.8,115 M81.6,116c-0.5,0.6-0.5,1.4,0,2c0.3,0.3,0.8,0.5,1.2,0.5
		c0.4,0,0.9-0.1,1.2-0.5c0.5-0.6,0.5-1.4,0-2c-0.3-0.3-0.8-0.5-1.2-0.4C82.4,115.5,82,115.7,81.6,116 M87,120
		c-0.1-0.1-0.3-0.2-0.4-0.3c-0.2-0.1-0.2-0.1-0.2-0.2c0-0.1,0.2-0.1,0.4-0.1c0.2,0,0.4,0.1,0.6,0.2c0.1,0.1,0.3,0.1,0.4,0.2
		c0.1,0,0.2,0.1,0.2,0.2c0,0.1,0,0.1-0.1,0.2l0,0.1l0,0c-0.1,0.2-0.1,0.3-0.2,0.4s-0.1,0.3-0.2,0.4c0.2,0.2,0.4,0.4,0.6,0.6
		c0.1,0.1,0.3,0.2,0.4,0.3c0.1,0.1,0.2,0.2,0.3,0.3c0.1,0.2,0.3,0.4,0.4,0.6c0.1,0.3,0.1,0.5,0,0.6c-0.1,0.1-0.3,0-0.5-0.3l-0.3-0.4
		l-0.6-0.8l-0.5-0.7c-0.3,0.4-0.7,0.8-1.1,1.2c-0.5,0.4-1,0.8-1.5,1.1c-0.2,0.1-0.3,0.1-0.3,0.1c0,0,0-0.1,0.2-0.2
		c0.6-0.4,1.2-0.9,1.7-1.5c0.4-0.5,0.8-1.1,1-1.8l0-0.1C87.1,120.1,87.1,120,87,120 M87.1,114.2c-0.2-0.2-0.5-0.3-0.7-0.4
		c-0.2-0.1-0.3-0.1-0.3-0.2s0.2-0.1,0.4-0.1l0.7,0.1c0.2,0,0.4,0.1,0.6,0.2c0.1,0,0.2,0.1,0.3,0.2c0,0.1,0,0.1,0,0.2v0.2v2.5
		c0,0.5,0,0.9,0,1.2c0,0.3-0.1,0.5-0.1,0.8c-0.1,0.3-0.2,0.4-0.3,0.4c-0.1,0-0.1-0.2-0.1-0.5v-4.2C87.4,114.4,87.3,114.3,87.1,114.2
		"/>
	<path class="st3" d="M83.2,120.3c-0.1-0.1-0.3-0.2-0.4-0.3c-0.1-0.1-0.2-0.1-0.2-0.2s0.1-0.1,0.3-0.1c0.2,0,0.4,0.1,0.6,0.2
		c0.2,0.1,0.4,0.2,0.6,0.3c0.1,0,0.1,0.1,0.1,0.2c0,0.1-0.1,0.3-0.2,0.4l-0.2,0.3c0.1,0.1,0.3,0.2,0.4,0.3c0.1,0.1,0.2,0.1,0.3,0.1
		c0.1,0,0.2,0.1,0.3,0.2c0.1,0.1,0.2,0.3,0.3,0.4c0.1,0.3,0.1,0.5-0.1,0.6c-0.1,0.1-0.3,0-0.5-0.3c-0.1-0.2-0.2-0.4-0.3-0.5
		l-0.5-0.6c-0.4,0.6-0.9,1.1-1.4,1.5c-0.5,0.4-1,0.7-1.5,1c-0.2,0.1-0.3,0.1-0.3,0c0,0,0-0.1,0.2-0.2c0.5-0.3,1-0.7,1.4-1.2
		c0.5-0.5,0.9-1.1,1.2-1.8v-0.2C83.3,120.4,83.3,120.4,83.2,120.3z M82.8,115c0-0.1,0-0.1-0.1-0.2c-0.1-0.1-0.2-0.2-0.1-0.2
		s0.2,0,0.3,0c0.2,0,0.4,0.2,0.5,0.3c0,0.1,0,0.1-0.1,0.2l-0.1,0.1c0.6,0.1,1.1,0.4,1.5,0.8c0.3,0.4,0.4,0.8,0.3,1.3
		c-0.1,0.4-0.3,0.8-0.7,1.1c-0.4,0.4-1,0.5-1.5,0.5c-0.6,0-1.2-0.2-1.6-0.5c-0.4-0.3-0.6-0.7-0.6-1.2c-0.1-0.5,0.1-0.9,0.4-1.3
		c0.4-0.4,0.9-0.7,1.5-0.8h0.1C82.7,115.1,82.8,115,82.8,115L82.8,115z M81.6,116.1c-0.5,0.6-0.5,1.4,0,2c0.3,0.3,0.8,0.5,1.2,0.5
		c0.4,0,0.9-0.1,1.2-0.5c0.5-0.6,0.5-1.4,0-2c-0.3-0.3-0.8-0.5-1.2-0.4C82.4,115.6,82,115.7,81.6,116.1L81.6,116.1z M87,120.1
		c-0.1-0.1-0.3-0.2-0.4-0.3c-0.2-0.1-0.2-0.1-0.2-0.2c0-0.1,0.2-0.1,0.4-0.1c0.2,0,0.4,0.1,0.6,0.2c0.1,0.1,0.3,0.1,0.4,0.2
		c0.1,0,0.2,0.1,0.2,0.2c0,0.1,0,0.1-0.1,0.2l0,0.1l0,0c-0.1,0.2-0.1,0.3-0.2,0.4s-0.1,0.3-0.2,0.4c0.2,0.2,0.4,0.4,0.6,0.6
		c0.1,0.1,0.3,0.2,0.4,0.3c0.1,0.1,0.2,0.2,0.3,0.3c0.1,0.2,0.3,0.4,0.4,0.6c0.1,0.3,0.1,0.5,0,0.6c-0.1,0.1-0.3,0-0.5-0.3l-0.3-0.4
		l-0.6-0.8l-0.5-0.7c-0.3,0.4-0.7,0.8-1.1,1.2c-0.5,0.4-1,0.8-1.5,1.1c-0.2,0.1-0.3,0.1-0.3,0.1c0,0,0-0.1,0.2-0.2
		c0.6-0.4,1.2-0.9,1.7-1.5c0.4-0.5,0.8-1.1,1-1.8l0-0.1C87.1,120.2,87.1,120.1,87,120.1L87,120.1z M87.1,114.3
		c-0.2-0.2-0.5-0.3-0.7-0.4c-0.2-0.1-0.3-0.1-0.3-0.2c0-0.1,0.2-0.1,0.4-0.1l0.7,0.1c0.2,0,0.4,0.1,0.6,0.2c0.1,0,0.2,0.1,0.3,0.2
		c0,0.1,0,0.1,0,0.2v0.2v2.5c0,0.5,0,0.9,0,1.2c0,0.3-0.1,0.5-0.1,0.8c-0.1,0.3-0.2,0.4-0.3,0.4s-0.1-0.2-0.1-0.5v-4.2
		C87.4,114.5,87.3,114.3,87.1,114.3L87.1,114.3z"/>
	<path class="st2" d="M87.8,130.7l0.1-0.1c0.1-0.1,0.2-0.1,0.3-0.1c0.3,0,0.6,0,0.9,0c0.1,0,0.3,0,0.4,0.1c0.1,0,0.1,0.1,0.1,0.2
		c0,0.1-0.1,0.1-0.1,0.2c-0.1,0.1-0.2,0.1-0.3,0.1c-1.2,0-2.5,0-4.1,0c-1.2,0-2.3,0.1-3.1,0.2c-0.1,0-0.2,0-0.3,0.1
		c-0.1,0-0.1,0.1-0.2,0.1c-0.1,0.1-0.3,0.1-0.4,0.1c-0.4-0.1-0.8-0.3-1.2-0.5c-0.2-0.1-0.2-0.2-0.2-0.2c0,0,0.1-0.1,0.3,0
		c0.9,0.1,1.9,0.1,2.8,0.1c1.1,0,2.5-0.1,4.2-0.2l0.5,0L87.8,130.7 M81.4,126.9c-0.1,0-0.3-0.1-0.5-0.1h-0.1c-0.1,0-0.2-0.1-0.2-0.1
		c0,0,0.1-0.1,0.4-0.2c0.3-0.1,0.6,0,0.9,0c0.1,0,0.3,0,0.4,0.1c0.1,0,0.1,0.1,0.1,0.1c0,0,0,0.1,0,0.1v0.1v1.5c0,0.1,0,0.2,0.1,0.2
		c0.1,0.1,0.2,0.1,0.4,0.1c0.4,0,0.9,0,1.5,0c0.7,0,1.2,0,1.6-0.1c0.1,0,0.1,0,0.2-0.1l0.1-0.1c0.1-0.1,0.2-0.1,0.4-0.2
		c0.3-0.1,0.6-0.1,0.8,0c0.2,0,0.3,0,0.4,0.1c0.1,0,0.1,0.1,0.1,0.2c0,0.1-0.1,0.2-0.1,0.2c-0.1,0.1-0.2,0.1-0.4,0.1l-2.5,0.1
		c-1,0-1.8,0-2.4,0c-0.3,0-0.6,0-0.8-0.2c-0.1-0.1-0.2-0.3-0.2-0.4l0-1.4C81.7,127.1,81.6,127,81.4,126.9 M81.9,133
		c-0.2-0.1-0.4-0.2-0.6-0.2c-0.1,0-0.2-0.1-0.1-0.1s0.1-0.1,0.3-0.1c0.3,0,0.6,0,0.8,0c0.1,0,0.3,0,0.4,0.1c0.1,0,0.1,0.1,0.1,0.1
		c0,0.1,0,0.1,0,0.2v0.2v1.5c0,0.1,0,0.2,0.1,0.3c0.1,0.1,0.2,0.1,0.3,0.1H86c0.2,0,0.3,0,0.5-0.1c0.1,0,0.2-0.1,0.3-0.1
		c0.1-0.1,0.2-0.1,0.3-0.1c0.2,0,0.5-0.1,0.7,0c0.2,0,0.3,0,0.4,0.1c0.1,0,0.1,0.1,0.2,0.2c0,0.1,0,0.1-0.1,0.2
		c-0.1,0.1-0.2,0.1-0.3,0.1h-4.8c-0.3,0-0.5,0-0.8-0.2c-0.2-0.1-0.3-0.3-0.3-0.5v-1.3C82.1,133.1,82,133,81.9,133"/>
	<path class="st3" d="M87.8,130.7l0.1-0.1c0.1-0.1,0.2-0.1,0.3-0.1c0.3,0,0.6,0,0.9,0c0.1,0,0.3,0,0.4,0.1c0.1,0,0.1,0.1,0.1,0.2
		c0,0.1-0.1,0.1-0.1,0.2c-0.1,0.1-0.2,0.1-0.3,0.1c-1.2,0-2.5,0-4.1,0c-1.2,0-2.3,0.1-3.1,0.2c-0.1,0-0.2,0-0.3,0.1
		c-0.1,0-0.1,0.1-0.2,0.1c-0.1,0.1-0.3,0.1-0.4,0.1c-0.4-0.1-0.8-0.3-1.2-0.5c-0.2-0.1-0.2-0.2-0.2-0.2c0,0,0.1-0.1,0.3,0
		c0.9,0.1,1.9,0.1,2.8,0.1c1.1,0,2.5-0.1,4.2-0.2l0.5,0L87.8,130.7z M81.4,126.9c-0.1,0-0.3-0.1-0.5-0.1h-0.1
		c-0.1,0-0.2-0.1-0.2-0.1s0.1-0.1,0.4-0.2c0.3-0.1,0.6,0,0.9,0c0.1,0,0.3,0,0.4,0.1c0.1,0,0.1,0.1,0.1,0.1c0,0,0,0.1,0,0.1v0.1v1.5
		c0,0.1,0,0.2,0.1,0.2c0.1,0.1,0.2,0.1,0.4,0.1c0.4,0,0.9,0,1.5,0c0.7,0,1.2,0,1.6-0.1c0.1,0,0.1,0,0.2-0.1l0.1-0.1
		c0.1-0.1,0.2-0.1,0.4-0.2c0.3-0.1,0.6-0.1,0.8,0c0.2,0,0.3,0,0.4,0.1c0.1,0,0.1,0.1,0.1,0.2c0,0.1-0.1,0.2-0.1,0.2
		c-0.1,0.1-0.2,0.1-0.4,0.1l-2.5,0.1c-1,0-1.8,0-2.4,0c-0.3,0-0.6,0-0.8-0.2c-0.1-0.1-0.2-0.3-0.2-0.4l0-1.4
		C81.7,127.1,81.6,127,81.4,126.9L81.4,126.9z M81.9,132.9c-0.2-0.1-0.4-0.2-0.6-0.2c-0.1,0-0.2-0.1-0.1-0.1s0.1-0.1,0.3-0.1
		c0.3,0,0.6,0,0.8,0c0.1,0,0.3,0,0.4,0.1c0.1,0,0.1,0.1,0.1,0.1c0,0.1,0,0.1,0,0.2v0.2v1.5c0,0.1,0,0.2,0.1,0.3
		c0.1,0.1,0.2,0.1,0.3,0.1H86c0.2,0,0.3,0,0.5-0.1c0.1,0,0.2-0.1,0.3-0.1c0.1-0.1,0.2-0.1,0.3-0.1c0.2,0,0.5-0.1,0.7,0
		c0.2,0,0.3,0,0.4,0.1c0.1,0,0.1,0.1,0.2,0.2c0,0.1,0,0.1-0.1,0.2c-0.1,0.1-0.2,0.1-0.3,0.1h-4.8c-0.3,0-0.5,0-0.8-0.2
		c-0.2-0.1-0.3-0.3-0.3-0.5v-1.3C82.1,133.1,82,133,81.9,132.9L81.9,132.9z"/>
	<path class="st1" d="M57.1,102.2c0.6,0.3,1.4,0.2,1.9,0.5c0.3,0.2,0.6,0.6,0.8,1c0.3,0.6,0.9,1,1.5,1.1c0.4,0.1,1.2,0.4,1.3-0.2
		c0-0.1,0-0.2,0-0.3c0-0.2-0.2-0.4-0.3-0.6c-1.8-1.7-3.8-3.3-6-4.5c0-0.1,0.1-0.3,0.1-0.4c0-0.1,0-0.2,0-0.2
		c0.1-1.2,0.3-2.3,0.5-3.5c0.2-1.3,0-2.4,0.1-3.7c-1.1,2.3-2,4.6-2.8,6.9l0,0c-1.7-0.6-3.5-0.9-5-1.9c-1.6-0.9-3-2.3-4.7-3.2
		l-0.2-0.1c0.2-0.3,0.3-0.7,0.5-1.1c0.6-1.4,1-2.8,1.5-4.1C45.9,88,45.4,88,45,88c-0.7,0.7-1.2,1.5-1.7,2.3
		c-0.1,0.1-0.1,0.2-0.2,0.2c-0.2,0.6-0.5,1.2-0.8,1.9C39,91,35.6,90.3,32,90.1c0.5-0.8,1.1-1.5,1.6-2.3c0.1-0.1,0.2-0.3,0.2-0.5
		c-0.6,0.2-1.2,0.5-1.8,0.8c-0.9,0.5-1.6,1.2-2.5,1.6L29.4,90l-1.9,0c-0.5,0.2-1,0.4-1.6,0.5c-1.4,0.2-2.9-0.1-4.3,0.4
		c0,0,0,0.1,0,0.1c0.3,0.1,0.6,0.1,0.9,0.1c1.5,0.2,2.8,1.1,4.3,1.1c0.1,0,0.1,0,0.2,0h1c-1.5,2.3-2.7,4.8-3.6,7.4
		c-0.8-0.6-1.6-1.3-2.5-1.9c-2.3-1.7-5-2.2-7.5-3.4c-0.5-0.3-1.2-0.1-1.5,0.4c1,0.5,1.9,1.1,2.8,1.7c0.4,0.2,0.7,0.5,1.1,0.7
		l0.3,0.2c0.4,0.3,0.8,0.5,1.1,0.9c0.6,0.3,1.2,0.6,1.7,0.9c1.3,0.9,2.5,1.9,3.7,3c0,0.1-0.1,0.3-0.1,0.5c0,0.1,0.1,0.2,0,0.3
		c-0.3,2,0.3,4,0.9,5.9c0.4-0.2,0.6-0.5,0.6-1c0-1.4,0.2-2.9,0.5-4.3c0.1,0,0.1,0.1,0.2,0.1c4.4,2.2,9.4,2.3,12.5,6.4
		c-0.2,0.9-0.4,1.8-0.5,2.7c-0.1,0.5,0.3,1,0.8,1.1c0,0,0,0,0,0c0.4-1.1,0.4-2.2,0.9-3.3c0.2-0.4,0.4-0.7,0.6-1.1
		c0.2-0.5,0.3-1.1,0.2-1.6c-0.3-0.1-0.7-0.1-1,0c-2.6-2.9-6.2-4.2-10-5.3c-1.1-0.3-2.2-0.8-3.1-1.5c1-3.1,2.5-6,4.3-8.7
		c3.7,0.1,7.3,0.8,10.8,2.1c-1.4,2.8-2.7,5.6-2.5,8.9c0,0.6,0.4,1,1,1.1c-0.2-1.2,0-2.3,0.5-3.4c0.8-1.6,1.6-3.2,2.6-4.8
		c0,0,0.1-0.1,0.1-0.1l0.3-0.6l0.6,0.4c0.1-0.1,0.3-0.1,0.4-0.1c1.4,0.3,2.6,1,3.6,2c0.6,0.6,1.4,1.1,2.1,1.7c0.5,0.2,1,0.4,1.5,0.6
		c0.7,0.2,1.4,0.5,2,0.8c-0.6,2.2-0.9,4.4-0.9,6.6c0,0.6,0.5,1.1,1.1,1.1c0.1,0,0.2,0,0.2,0c0.1-2,0.4-3.9,1.5-5.7
		c0.1-0.3,0.1-0.6,0.2-1c0.3,0.2,0.6,0.4,1,0.6C56.8,102.2,57,102.2,57.1,102.2"/>
	<path class="st1" d="M44,86.8h0.2c0.4,0,0.7-0.1,1.1-0.1c0.1,0,0.2,0,0.3,0.1l1.1,0v0c0.3,0,0.5,0.1,0.8,0.1c2,0.1,3.9,0.5,5.8,1.2
		c2.8,1.1,5.7,1.9,8.7,2.3c0.8,0.1,1.6,0.4,2.3,0.9c0.3,0.1,0.7,0.3,1,0.5c0,0.1,0,0.1,0,0.2c0.6,0.4,1.1,0.7,1.8,0.9
		c1.8,0.6,3.3,1.2,4.7,2.5c0.5-0.3,0.7-0.9,0.4-1.4c-0.1-0.2-0.2-0.3-0.4-0.4c-1.4-0.7-2.8-1.5-4.1-2.4c0-0.2-0.2-0.4-0.4-0.6
		c-1.5-1.3-3-1.6-4.9-1.8c-3-0.5-5.9-1.3-8.7-2.3c-2-0.7-4-1.2-6.1-1.5c0.4-0.9,1-1.8,1.6-2.6c0.3-0.4,0.3-1-0.1-1.3
		c-0.1-0.1-0.1-0.1-0.2-0.1c-0.1,0.1-0.1,0.1-0.2,0.1c-1.1,0.5-1.8,1.5-2.7,2.2c-0.3,0.5-0.5,1-0.7,1.5c-1.7,0.1-3.4,0.5-4.9,1.2
		c-0.5,0.2-0.7,0.8-0.5,1.4c0.1,0.1,0.2,0.3,0.3,0.4c0.9-0.2,1.9-0.8,2.7-0.7c0.3,0,0.5,0,0.8,0.1C43.8,86.8,43.9,86.8,44,86.8"/>
	<path class="st1" d="M75.5,82.8c-0.1-0.2-0.2-0.3-0.3-0.5c-0.2-0.5-0.7-0.7-1.2-0.5c-3.2-1.7-7.3-2.7-10.8-3.5
		c-0.1-1.4-0.4-2.8-0.9-4.1c-0.2-0.6-0.9-0.9-1.5-0.7c0.1,1.1,0,2.1-0.1,3.2c0.1,0.4,0.1,0.7,0.2,1.1c-3-0.5-6-0.3-8.8,1.4
		c-0.5,0.3-0.7,1-0.4,1.5c0,0.1,0.1,0.1,0.1,0.2l0.3-0.1c0,0,0-0.1,0.1-0.1c1-1.1,3.2-1.5,4.6-1.1c0.7,0.2,0.4,0.2,1-0.1
		c0.6-0.3,1.3-0.3,1.9,0c0.2,0.1,0.2,0.3,0.3,0.5c0.3,0,0.7,0.1,1,0.2c0,0.8-0.2,1.7-0.4,2.5c0.1,0.2,0.1,0.5,0.1,0.6
		c0.1,0.7,0.3,1.4,0.5,2.1c0.5,0,1-0.3,1.2-0.8c0.5-1.3,0.7-2.6,0.8-3.9l0.8,0.2l0.5,0.1h0.1c1.3,0.3,2.6,0.1,3.9,0.5
		c1,0.3,2.1,0.6,3.1,0.9c1.4,0.4,2.8,0.7,3.7,1.8C75.7,83.8,75.7,83.3,75.5,82.8"/>
	<path class="st1" d="M72.7,71.3c0.2,0.1,0.4,0.1,0.6,0.2c1.4-0.5,3,0.2,3.7,1.5c0.3-0.3,0.3-0.8,0.1-1.2c-0.8-1.8-2.5-2.4-4.2-2.7
		c0.1-0.4,0.1-0.7,0.2-1.1c0.3-1.4-1.8-2-2.2-0.6c-0.1,0.5-0.2,0.9-0.3,1.4c-0.5-0.1-0.9-0.1-1.4-0.2c-1.1,0.2-2.1,0.3-3.2,0.3
		c-0.4,0-0.9,0-1.3-0.1c-0.9,0.3-1.8,0.8-2.5,1.5l-0.1,0.1c0.3,0.4,0.7,0.6,1.2,0.5c2.1-0.3,4.2-0.3,6.3,0l0.8,0.1
		c-0.2,2.5,0,5.1,0.5,7.6c0.1,0.6,0.7,0.9,1.3,0.8c0.2,0,0.3-0.1,0.5-0.2c0-1.1,0-2.3,0-3.4C72.6,74.2,72.6,72.8,72.7,71.3"/>
	<path class="st4" d="M120.7,143.1v-0.9l1.6-0.1v-12.4l-1.6-0.1v-0.9h4.4v0.9l-1.6,0.1v12.4l1.6,0.1v0.9L120.7,143.1z M123.3,139.1
		l-0.6-0.9l7.6-8.5v-0.1l-1.4-0.1v-0.9h4v0.9l-1.2,0.1L123.3,139.1z M129.4,143.1v-0.9l1.4-0.1l0,0l-4.7-6.5l0.8-0.9l5.4,7.4
		l1.2,0.1v0.9L129.4,143.1z"/>
	<path class="st4" d="M144.1,143.3c-0.9,0-1.7-0.2-2.5-0.5c-0.7-0.3-1.4-0.9-1.9-1.5c-0.5-0.7-1-1.5-1.2-2.3c-0.3-1-0.4-2-0.4-3
		v-0.2c0-1,0.1-2,0.4-3c0.3-0.8,0.7-1.6,1.2-2.3c0.5-0.6,1.2-1.1,1.9-1.5c1.6-0.7,3.4-0.7,5,0c0.8,0.3,1.4,0.9,1.9,1.5
		c0.5,0.7,0.9,1.5,1.2,2.3c0.3,1,0.4,2,0.4,3v0.2c0,1-0.1,2-0.4,3c-0.2,0.8-0.6,1.6-1.2,2.3c-0.5,0.6-1.2,1.1-1.9,1.5
		C145.8,143.1,145,143.3,144.1,143.3z M144.1,142.3c0.9,0,1.9-0.2,2.6-0.8c0.7-0.6,1.3-1.3,1.6-2.2c0.4-1.1,0.6-2.2,0.6-3.3v-0.2
		c0-1.1-0.2-2.2-0.6-3.3c-0.3-0.9-0.9-1.6-1.6-2.2c-0.8-0.5-1.7-0.8-2.6-0.8c-0.9,0-1.8,0.2-2.6,0.8c-0.7,0.6-1.3,1.3-1.7,2.2
		c-0.4,1-0.6,2.2-0.6,3.3v0.2c0,1.1,0.2,2.2,0.6,3.3c0.3,0.9,0.9,1.6,1.7,2.2C142.3,142,143.2,142.3,144.1,142.3z"/>
	<path class="st4" d="M156,143.1v-0.9l1.6-0.1v-12.4l-1.6-0.1v-0.9h6.1c0.9,0,1.8,0.1,2.6,0.5c0.7,0.3,1.2,0.7,1.6,1.3
		c0.4,0.6,0.6,1.4,0.6,2.1c0,0.7-0.2,1.5-0.6,2.1c-0.4,0.6-1,1-1.6,1.3c-0.8,0.3-1.6,0.5-2.4,0.4l-3.4,0v5.6l1.6,0.1v0.9L156,143.1z
		 M158.7,135.5h3.2c1,0.1,2-0.2,2.8-0.8c0.6-0.5,0.9-1.3,0.9-2.1c0-0.8-0.3-1.6-0.9-2.2c-0.8-0.6-1.7-0.8-2.7-0.8h-3.3L158.7,135.5z
		 M165.6,143.1l-3.1-7.2h1.2l2.7,6.2l1.2,0.1v0.9L165.6,143.1z"/>
	<path class="st4" d="M173.6,143.1v-0.9l1.6-0.1v-12.4l-1.6-0.1v-0.9h10.3v3.2h-1l-0.1-2.2h-6.4v5.5h5.8v1h-5.8v6h6.7l0.1-2.2h1v3.2
		L173.6,143.1z"/>
	<path class="st4" d="M190.2,143.1v-0.9l1.1-0.1l5.1-13.5h1.1l5.1,13.5l1.1,0.1v0.9h-3.6v-0.9l1.3-0.1l-1.2-3.2h-6.4l-1.2,3.2
		l1.3,0.1v0.9L190.2,143.1z M194.1,137.9h5.7l-2.6-7.1l-0.2-0.6h-0.1l-0.2,0.6L194.1,137.9z"/>
	<path class="st4" d="M209.3,143.1v-0.9l1.6-0.1v-12.4l-1.6-0.1v-0.9h2.8l8.2,12.4h0.1v-11.4l-1.7-0.1v-0.9h4.4v0.9l-1.6,0.1v13.4
		h-1.1l-8.3-12.4H212v11.4l1.7,0.1v0.9L209.3,143.1z"/>
	<path class="st4" d="M237.5,143.1v-0.9l1.1-0.1l5.1-13.5h1.1l5.1,13.5l1.1,0.1v0.9h-3.5v-0.9l1.3-0.1l-1.2-3.2H241l-1.2,3.2
		l1.3,0.1v0.9L237.5,143.1z M241.4,137.9h5.7l-2.6-7.1l-0.2-0.6h-0.1l-0.2,0.6L241.4,137.9z"/>
	<path class="st4" d="M262.5,143.3c-1.2,0-2.4-0.3-3.4-0.9c-1-0.6-1.7-1.5-2.2-2.6c-0.5-1.2-0.8-2.5-0.8-3.8v-0.3
		c0-1.3,0.2-2.6,0.8-3.8c0.5-1,1.2-1.9,2.2-2.5c0.9-0.6,2-0.9,3.2-0.9c0.9,0,1.8,0.1,2.7,0.4c0.7,0.2,1.4,0.6,2,1.1v2.7h-1l-0.1-2.2
		c-0.4-0.3-0.9-0.6-1.4-0.7c-0.7-0.2-1.3-0.3-2-0.3c-0.9,0-1.8,0.3-2.6,0.8c-0.8,0.5-1.4,1.3-1.8,2.2c-0.5,1-0.7,2.1-0.6,3.2v0.3
		c0,1.1,0.2,2.2,0.6,3.3c0.4,0.9,1,1.7,1.8,2.2c0.8,0.5,1.8,0.8,2.8,0.8c1.3,0,2.5-0.3,3.6-0.9v-3.8l-3,0v-1h4.1v5.3
		c-0.6,0.4-1.2,0.8-1.9,1C264.4,143.2,263.5,143.3,262.5,143.3z"/>
	<path class="st4" d="M273.5,143.1v-0.9l1.6-0.1v-12.4l-1.6-0.1v-0.9h4.4v0.9l-1.6,0.1v12.4l1.6,0.1v0.9L273.5,143.1z"/>
	<path class="st4" d="M283.5,143.1v-0.9l1.6-0.1v-12.4l-1.6-0.1v-0.9h2.8l8.2,12.4h0.1v-11.4l-1.7-0.1v-0.9h4.4v0.9l-1.6,0.1v13.4
		h-1.1l-8.3-12.4h-0.1v11.4l1.7,0.1v0.9L283.5,143.1z"/>
	<path class="st4" d="M309.6,143.3c-1.2,0-2.4-0.3-3.4-0.9c-1-0.6-1.7-1.5-2.2-2.6c-0.5-1.2-0.8-2.5-0.8-3.8v-0.3
		c0-1.3,0.2-2.6,0.8-3.8c0.5-1,1.2-1.9,2.2-2.5c0.9-0.6,2-0.9,3.2-0.9c0.9,0,1.8,0.1,2.7,0.4c0.7,0.2,1.4,0.6,2,1.1v2.7h-1l-0.1-2.2
		c-0.4-0.3-0.9-0.6-1.4-0.7c-0.7-0.2-1.3-0.3-2-0.3c-0.9,0-1.8,0.3-2.6,0.8c-0.8,0.5-1.4,1.3-1.8,2.2c-0.5,1-0.7,2.1-0.6,3.2v0.3
		c0,1.1,0.2,2.2,0.6,3.3c0.4,0.9,1,1.7,1.8,2.2c0.8,0.5,1.8,0.8,2.8,0.8c0.7,0,1.4-0.1,2.1-0.3c0.5-0.2,1.1-0.4,1.5-0.6v-3.8l-3,0
		v-1h4.1v5.3C313,142.8,311.3,143.3,309.6,143.3L309.6,143.3z"/>
	<path class="st4" d="M334.7,143.3c-0.8,0-1.7-0.1-2.5-0.4c-0.8-0.3-1.7-0.7-2.4-1.2V139h1l0.1,2.2c0.6,0.4,1.2,0.6,1.8,0.8
		c0.6,0.2,1.3,0.3,1.9,0.3c0.7,0,1.4-0.1,2-0.3c0.5-0.2,1-0.5,1.3-1c0.3-0.4,0.5-0.9,0.5-1.5c0-0.5-0.1-1-0.4-1.4
		c-0.3-0.5-0.7-0.8-1.2-1.1c-0.7-0.4-1.5-0.6-2.3-0.8c-0.9-0.2-1.8-0.5-2.6-0.9c-0.6-0.3-1.1-0.7-1.5-1.3c-0.3-0.6-0.5-1.2-0.5-1.8
		c0-0.7,0.2-1.3,0.6-1.9c0.4-0.6,1-1,1.6-1.3c0.8-0.3,1.6-0.5,2.4-0.5c0.9,0,1.8,0.1,2.6,0.4c0.7,0.3,1.4,0.6,1.9,1.1v2.6h-1l-0.1-2
		c-0.4-0.3-0.9-0.6-1.5-0.8c-0.6-0.2-1.3-0.3-1.9-0.3c-0.6,0-1.2,0.1-1.8,0.3c-0.5,0.2-0.9,0.5-1.2,0.9c-0.3,0.4-0.4,0.9-0.4,1.3
		c0,0.5,0.1,0.9,0.3,1.3c0.3,0.4,0.7,0.8,1.1,1c0.7,0.3,1.5,0.6,2.2,0.8c1.3,0.3,2.5,0.8,3.5,1.6c0.8,0.7,1.2,1.7,1.2,2.7
		c0,0.7-0.2,1.4-0.6,2c-0.4,0.6-1.1,1.1-1.7,1.3C336.4,143.2,335.6,143.3,334.7,143.3z"/>
	<path class="st4" d="M349.1,143.1v-0.9l1.6-0.1v-12.4h-4l-0.1,2.2h-1v-3.2H357v3.2h-1l-0.1-2.2h-4v12.4l1.6,0.1v0.9L349.1,143.1z"
		/>
	<path class="st4" d="M362.7,143.1v-0.9l1.6-0.1v-12.4l-1.6-0.1v-0.9H373v3.2h-1l-0.1-2.2h-6.4v5.5h5.8v1h-5.8v6h6.7l0.1-2.2h1v3.2
		L362.7,143.1z"/>
	<path class="st4" d="M379.3,143.1v-0.9l1.1-0.1l5.1-13.5h1.1l5.1,13.5l1.1,0.1v0.9h-3.5v-0.9l1.3-0.1l-1.2-3.2h-6.4l-1.2,3.2
		l1.3,0.1v0.9L379.3,143.1z M383.2,137.9h5.7l-2.6-7.1l-0.2-0.6H386l-0.2,0.6L383.2,137.9z"/>
	<path class="st4" d="M398.4,143.1v-0.9l1.6-0.1v-12.4l-1.6-0.1v-0.9h4.4v0.9l-1.6,0.1v12.4l1.6,0.1v0.9L398.4,143.1z M401,139.1
		l-0.6-0.9l7.6-8.5v-0.1l-1.4-0.1v-0.9h4.1v0.9l-1.2,0.1L401,139.1z M407,143.1v-0.9l1.4-0.1l0,0l-4.7-6.5l0.8-0.9l5.4,7.3l1.2,0.1
		v0.9H407z"/>
	<path class="st4" d="M416.6,143.1v-0.9l1.6-0.1v-12.4l-1.6-0.1v-0.9h4.4v0.9l-1.6,0.1v5.8h8.1v-5.8l-1.6-0.1v-0.9h4.4v0.9l-1.6,0.1
		v12.4l1.6,0.1v0.9h-4.4v-0.9l1.6-0.1v-5.6h-8.1v5.6l1.6,0.1v0.9L416.6,143.1z"/>
	<path class="st4" d="M442.2,143.3c-0.9,0-1.7-0.2-2.5-0.5c-0.7-0.3-1.4-0.9-1.9-1.5c-0.5-0.7-1-1.5-1.2-2.3c-0.3-1-0.4-2-0.4-3
		v-0.2c0-1,0.1-2,0.4-3c0.3-0.8,0.7-1.6,1.2-2.3c0.5-0.6,1.2-1.2,1.9-1.5c0.8-0.4,1.6-0.5,2.5-0.5c0.9,0,1.7,0.2,2.5,0.5
		c0.7,0.3,1.4,0.9,1.9,1.5c0.5,0.7,1,1.5,1.2,2.3c0.3,1,0.4,2,0.4,3v0.2c0,1-0.1,2-0.4,3c-0.2,0.8-0.7,1.6-1.2,2.3
		c-0.5,0.6-1.2,1.1-1.9,1.5C443.9,143.1,443.1,143.3,442.2,143.3z M442.2,142.3c0.9,0,1.9-0.2,2.6-0.8c0.7-0.6,1.3-1.3,1.6-2.2
		c0.4-1.1,0.6-2.2,0.5-3.3v-0.2c0-1.1-0.2-2.2-0.6-3.3c-0.3-0.9-0.9-1.6-1.6-2.2c-0.8-0.5-1.7-0.8-2.6-0.8c-0.9,0-1.8,0.2-2.6,0.8
		c-0.7,0.6-1.3,1.3-1.7,2.2c-0.4,1-0.6,2.2-0.6,3.3v0.2c0,1.1,0.2,2.2,0.6,3.3c0.3,0.9,0.9,1.6,1.7,2.2
		C440.4,142,441.3,142.3,442.2,142.3z"/>
	<path class="st4" d="M460.6,143.3c-0.9,0-1.8-0.2-2.6-0.6c-0.7-0.4-1.4-0.9-1.8-1.7c-0.4-0.8-0.7-1.7-0.6-2.6v-8.8l-1.6-0.1v-0.9
		h4.4v0.9l-1.6,0.1v8.8c0,0.7,0.1,1.4,0.5,2.1c0.3,0.6,0.8,1,1.4,1.3c0.6,0.3,1.3,0.5,2,0.5c0.7,0,1.4-0.1,2-0.4
		c0.6-0.3,1.1-0.7,1.4-1.3c0.3-0.6,0.5-1.4,0.5-2.1v-8.7l-1.6-0.1v-0.9h4.4v0.9l-1.6,0.1v8.8c0,0.9-0.2,1.8-0.6,2.7
		c-0.4,0.7-1,1.3-1.8,1.6C462.4,143.1,461.5,143.3,460.6,143.3z"/>
	<path class="st4" d="M477.9,143.3c-0.8,0-1.7-0.1-2.5-0.4c-0.8-0.3-1.6-0.7-2.4-1.2V139h1l0.1,2.2c1.1,0.7,2.4,1.1,3.7,1.1
		c0.7,0,1.3-0.1,2-0.3c0.5-0.2,1-0.5,1.3-1c0.3-0.4,0.5-0.9,0.5-1.5c0-0.5-0.1-1-0.4-1.4c-0.3-0.5-0.7-0.8-1.2-1.1
		c-0.7-0.4-1.5-0.6-2.3-0.8c-0.9-0.2-1.8-0.5-2.6-0.9c-0.6-0.3-1.1-0.7-1.5-1.3c-0.3-0.6-0.5-1.2-0.5-1.8c0-0.7,0.2-1.3,0.6-1.9
		c0.4-0.6,1-1,1.6-1.3c0.8-0.3,1.6-0.5,2.4-0.5c0.9,0,1.8,0.1,2.6,0.4c0.7,0.3,1.4,0.6,1.9,1.1v2.6h-1l-0.1-2
		c-0.4-0.3-0.9-0.6-1.5-0.8c-0.6-0.2-1.3-0.3-1.9-0.3c-0.6,0-1.2,0.1-1.8,0.3c-0.5,0.2-0.9,0.5-1.2,0.9c-0.3,0.4-0.4,0.9-0.4,1.3
		c0,0.5,0.1,0.9,0.3,1.3c0.3,0.4,0.7,0.8,1.1,1c0.7,0.3,1.5,0.6,2.2,0.8c1.3,0.3,2.5,0.8,3.5,1.6c0.8,0.7,1.2,1.7,1.2,2.7
		c0,0.7-0.2,1.4-0.6,2c-0.5,0.6-1.1,1.1-1.7,1.3C479.6,143.2,478.7,143.3,477.9,143.3z"/>
	<path class="st4" d="M488.6,143.1v-0.9l1.6-0.1v-12.4l-1.6-0.1v-0.9h10.3v3.2h-1l-0.1-2.2h-6.4v5.5h5.8v1h-5.8v6h6.7l0.1-2.2h1v3.2
		L488.6,143.1z"/>
</g>
</svg>
