<?xml version="1.0" encoding="utf-8"?>
<!-- Generator: Adobe Illustrator 26.3.1, SVG Export Plug-In . SVG Version: 6.00 Build 0)  -->
<svg version="1.1" id="Layer_1" xmlns="http://www.w3.org/2000/svg" xmlns:xlink="http://www.w3.org/1999/xlink" x="0px" y="0px"
	 viewBox="0 0 215 87" style="enable-background:new 0 0 215 87;" xml:space="preserve">
<style type="text/css">
	.st0{fill:#EB5B26;}
</style>
<g>
	<path class="st0" d="M69.3,60.5c0-7.3,4.7-11.7,11.2-11.7c5.3,0,9.2,2.9,10.2,8c0.1,0.5-0.3,0.9-0.8,0.9h-4.5
		c-0.3,0-0.6-0.2-0.7-0.5c-0.7-2-2.2-3.2-4.2-3.2c-2.9,0-4.9,2.4-4.9,6.4c0,4,2.1,6.4,4.9,6.4c2,0,3.6-1.2,4.2-3.3
		c0.1-0.3,0.4-0.6,0.7-0.6H90c0.5,0,0.9,0.4,0.8,0.9c-1,5.1-5,8-10.3,8C73.9,72.1,69.3,67.8,69.3,60.5"/>
	<path class="st0" d="M94.7,49.2h3.2c0.5,0,0.9,0.4,0.9,0.9v9.3c0.9-2.2,3.2-4,6.3-4c3.1,0,5.2,2.1,5.2,6.2v9.5
		c0,0.5-0.4,0.9-0.9,0.9h-4c-0.5,0-0.9-0.4-0.9-0.9v-8c0-2.3-0.8-3.3-2.3-3.3c-1.8,0-2.9,1.5-2.9,3.8V71c0,0.5-0.4,0.9-0.9,0.9h-4
		c-0.5,0-0.9-0.4-0.9-0.9V50.1C93.8,49.6,94.2,49.2,94.7,49.2"/>
	<path class="st0" d="M112.9,68.1h3.1v-8.7h-2c-0.3,0-0.6-0.3-0.6-0.6v-2.5c0-0.3,0.3-0.6,0.6-0.6h6.6c0.3,0,0.6,0.3,0.6,0.6V68h3.1
		c0.3,0,0.4,0.2,0.4,0.5v2.8c0,0.3-0.2,0.5-0.4,0.5h-11.4c-0.3,0-0.5-0.2-0.5-0.5v-2.7C112.5,68.3,112.7,68.1,112.9,68.1
		 M118.4,49.2c1.8,0,2.8,0.9,2.8,2.3c0,1.5-1,2.3-2.8,2.3c-1.9,0-2.9-0.8-2.9-2.3C115.5,50.2,116.6,49.2,118.4,49.2"/>
	<path class="st0" d="M130.6,63.5l-3.9-7.1c-0.2-0.3,0-0.7,0.4-0.7h4.7c0.2,0,0.4,0.1,0.5,0.3l2.6,6.4h0.6l2.6-6.4
		c0.1-0.2,0.3-0.3,0.5-0.3h4.8c0.4,0,0.6,0.4,0.4,0.7l-3.9,7.1l4.5,7.5c0.2,0.3,0,0.7-0.4,0.7h-5c-0.2,0-0.4-0.1-0.5-0.3l-2.9-6.9
		h-0.6l-2.9,6.9c-0.1,0.2-0.3,0.3-0.5,0.3h-5c-0.4,0-0.6-0.4-0.4-0.7L130.6,63.5z"/>
	<path class="st0" d="M147.6,55.7h3.2c0.5,0,0.9,0.4,0.9,0.9v2.8h0.6c0.8-2.2,2.6-4,5.2-4c2,0,3.9,1.1,4.5,4h0.6
		c0.7-2.1,2.3-4,5.2-4c3.1,0,5.1,2.1,5.1,6.2v9.5c0,0.5-0.4,0.9-0.9,0.9h-4c-0.5,0-0.9-0.4-0.9-0.9v-8c0-2.3-0.8-3.3-2.1-3.3
		c-1.5,0-2.6,1.5-2.6,3.8V71c0,0.5-0.4,0.9-0.9,0.9H158c-0.5,0-0.9-0.4-0.9-0.9v-8.1c0-2.3-0.8-3.3-2.1-3.3c-1.5,0-2.6,1.5-2.6,3.8
		v7.6c0,0.5-0.4,0.9-0.9,0.9h-4c-0.5,0-0.9-0.4-0.9-0.9V56.6C146.7,56.1,147.1,55.7,147.6,55.7"/>
	<path class="st0" d="M175.4,67.6c0-2.6,1.8-4.9,6.5-4.9h4.3v-1.1c0-1.8-1.1-2.7-2.4-2.7c-1.2,0-2,0.7-2.3,1.5
		c-0.1,0.3-0.4,0.4-0.7,0.4H177c-0.5,0-0.9-0.5-0.7-0.9c0.8-2.8,3.2-4.7,7.5-4.7c4.2,0,7.7,1.8,7.7,6.1V68h1.6
		c0.4,0,0.7,0.3,0.7,0.7V71c0,0.4-0.3,0.7-0.7,0.7h-5.4c-0.4,0-0.7-0.3-0.7-0.7l0-3.4c-0.7,2.7-3.6,4.5-6.6,4.5
		C177,72.1,175.4,70.1,175.4,67.6 M182.9,69c1.8,0,3.2-1.5,3.2-3.6v-0.5l-3,0c-1.5,0-2.4,0.8-2.4,2.1C180.7,68.2,181.6,69,182.9,69"
		/>
	<path class="st0" d="M199.4,63.5l-3.8-6.8c-0.3-0.4,0.1-1,0.6-1h4.3c0.3,0,0.5,0.2,0.6,0.4l2.5,6.3h0.6l2.5-6.3
		c0.1-0.3,0.3-0.4,0.6-0.4h4.4c0.5,0,0.8,0.6,0.6,1l-3.8,6.9l4.3,7.3c0.3,0.4,0,1-0.6,1h-4.6c-0.3,0-0.5-0.2-0.6-0.4l-2.9-6.8h-0.6
		l-2.8,6.8c-0.1,0.3-0.3,0.4-0.6,0.4h-4.6c-0.5,0-0.8-0.6-0.6-1L199.4,63.5z"/>
</g>
<g>
	<path class="st0" d="M25.2,29.4c6.1-6.4,13.5-3.2,13.5-3.2s2.1-1.5,4.2-4.3c1.7-2.4,3-5.9,1.7-8.7c-1.1-2.5-4.3-3.6-6.9-2.7
		c-1.8,0.6-4,3.1-3.9,5.1c-0.2-4-2.6-9.9-7.4-9.9c-5,0-7.1,5.7-5.2,9.7c1,2,3.3,4,4.4,5.1c-2.9-3-10.8-3.4-10,2.3
		C16.2,26.9,21.7,28.9,25.2,29.4 M25.9,20.7c-0.1-0.1-0.2-0.2-0.3-0.3C25.7,20.5,25.8,20.6,25.9,20.7"/>
	<path class="st0" d="M62,77.8c-1.1-3.1-3.4-9.1-4.7-12.5c-2-5.4-4.1-10.8-6.2-16.2c2.8,0.3,5.7,1.1,7.8,2.3l1.6-3
		c-2.7-1.5-6.3-2.4-9.8-2.7c2.3-1.9,4.4-4.5,6.7-8l-2.8-1.8c-2.2,3.3-4,5.6-6,7.3c-1.3-3-2.6-6-4.2-8.8c-2.1-3.7-5.9-6.7-10.3-6.5
		C27.8,28,24.9,33.4,23,38.5c-1.8,5-3.7,10-5.5,15c-1.4,3.8-3.1,7.6-4.2,11.5c-0.6,1.7-1.3,3.6-2.1,5.8c-0.3,0.9-1.9,5.1-2.6,7.1
		c-4.7,0.3-7.2,0.7-7.2,1.4c0,1.5,12.5,2.7,33.9,2.7s33.9-0.8,33.9-2.7C69.3,78.5,66.7,78,62,77.8 M39.7,40.5
		c0.8-0.1,1.7,0.9,1.9,2.3s-0.3,2.6-1.1,2.7s-1.7-0.9-1.9-2.3C38.4,41.9,38.9,40.7,39.7,40.5 M15.5,67.5h39.6
		c0.2,0.5,0.4,1.2,0.7,1.9H14.8C15,68.8,15.2,68.2,15.5,67.5 M13.7,72.3c0.1-0.3,0.2-0.5,0.3-0.7h42.6c0.3,0.6,0.5,1.3,0.7,1.9h-44
		C13.5,72.8,13.7,72.4,13.7,72.3 M35.3,77.5c-9.9,0-17.9,0.1-23.6,0.3c0.2-0.6,0.5-1.5,0.8-2.3h45.6c0.3,0.8,0.6,1.5,0.8,2.1
		C53.1,77.5,45.2,77.5,35.3,77.5"/>
</g>
</svg>
