<?xml version="1.0" encoding="utf-8"?>
<!-- Generator: Adobe Illustrator 26.3.1, SVG Export Plug-In . SVG Version: 6.00 Build 0)  -->
<svg version="1.1" id="Layer_1" xmlns="http://www.w3.org/2000/svg" xmlns:xlink="http://www.w3.org/1999/xlink" x="0px" y="0px"
	 viewBox="0 0 70.3 87" style="enable-background:new 0 0 70.3 87;" xml:space="preserve">
<style type="text/css">
	.st0{fill:#FD3700;}
	.st1{fill:#EFF0E6;}
</style>
<rect x="0.5" y="9.6" class="st0" width="69.4" height="69.4"/>
<g>
	<path class="st1" d="M50.5,29.6l-5.1-0.9l-0.3,2.8h-9l-0.3-6.4l-10,1.6l1.3,4.7h-7.3v1h8.7l-1.2-4.7c0,0,6.9-1,7.4-1.1l0.6,5.8
		h10.6l0.4-2.4l3.9,0.8L50.5,29.6z"/>
	<path class="st1" d="M29.6,48.4c-0.5,0.3-1.1,0.5-1.7,0.6c-1.2,0.2-2.4,0.2-3.6,0c-1.3-0.3-2.3-1.1-3-2.3c0,0,0-0.1-0.1-0.1
		c0,0,0,0,0,0c-0.5-0.9-0.7-1.9-0.8-3c-0.1-1.1-0.2-2.2-0.1-3.4c0.1-1.1,0.2-2.2,0.7-3.3c0.6-1.3,1.6-2,2.9-2.4
		c1.5-0.4,3-0.4,4.5,0.1c0,0,0.1,0,0.1,0c0.8,0.3,0.8,0.3,0.7,1.1c-0.1,0.4-0.2,0.8-0.2,1.2c-0.1,0.4-0.3,0.5-0.7,0.4
		c-0.8-0.2-1.6-0.3-2.4-0.1c-1.2,0.2-1.8,0.8-2.1,2c-0.2,0.9-0.2,1.7-0.2,2.6c0.1,0.9,0.1,1.8,0.4,2.7c0,0,0,0,0,0c0,0,0,0.1,0,0.1
		c0.4,1,1.1,1.5,2.2,1.6c0.8,0,1.6-0.1,2.3-0.4c0.1,0,0.2-0.1,0.3-0.1l0,0c0.3,0,0.4,0.1,0.6,0.5c0.1,0.4,0.3,0.9,0.4,1.3
		C30.1,48.1,30,48.2,29.6,48.4"/>
	<path class="st1" d="M45.4,35.7c0,0.4,0,0.8-0.1,1.3c0,0.5-0.2,0.6-0.7,0.6c-0.6,0-1.3-0.1-1.9-0.1c-0.2,0-0.3,0-0.3,0.2l0,0
		c0,0,0,0.1,0,0.1c0,0.8-0.1,1.6-0.1,2.4c-0.1,0.9-0.1,1.9-0.2,2.8c-0.1,1.5-0.2,3-0.2,4.5l0,0.7c0,0.6-0.2,0.8-0.8,0.7
		c-0.6,0-1.3-0.1-1.9-0.1c-0.4,0-0.6-0.2-0.6-0.6c0-0.1,0-0.2,0-0.3l0-0.7c0.2-3.2,0.4-6.4,0.5-9.6l0,0c0-0.2-0.1-0.3-0.3-0.3
		c-0.6,0-1.3-0.1-1.9-0.1c-0.5,0-0.7-0.2-0.7-0.7c0-0.4,0-0.8,0.1-1.1c0-0.2,0-0.4,0-0.6c0-0.4,0.2-0.6,0.6-0.5
		c2.7,0.1,5.3,0.3,8,0.4c0.4,0,0.6,0.2,0.5,0.6C45.4,35.3,45.4,35.5,45.4,35.7"/>
	<path class="st1" d="M49,56.1c0-0.1,0-0.1,0-0.2c0-1,0-2.1,0-3.1c0-0.3,0-0.3,0.3-0.3c0.3,0,0.7,0,1,0c0.1,0,0.2,0,0.2,0.2
		c0,2.1,0,4.1,0,6.2c0,0.1,0,0.2-0.2,0.2c-0.4,0-0.8,0-1.3,0c-0.1,0-0.2,0-0.2-0.1c-0.5-1.1-0.9-2.2-1.4-3.3c0-0.1-0.1-0.1-0.1-0.1
		c0,0,0,0,0,0v0.2c0,1.1,0,2.1,0,3.2c0,0.2,0,0.2-0.2,0.2c-0.4,0-0.7,0-1.1,0c-0.1,0-0.2,0-0.2-0.2c0-2.1,0-4.1,0-6.2
		c0-0.2,0.1-0.2,0.2-0.2c0.4,0,0.8,0,1.2,0c0.1,0,0.2,0,0.2,0.2c0.5,1.1,0.9,2.2,1.4,3.3C48.9,56.1,49,56.1,49,56.1
		C49,56.2,49,56.1,49,56.1"/>
	<path class="st1" d="M33.2,57.6c-0.2-0.8-0.3-1.6-0.5-2.4c-0.2-0.8-0.3-1.6-0.5-2.5c0-0.1-0.1-0.2-0.2-0.2c-0.8,0-1.6,0-2.4,0
		c-0.1,0-0.2,0-0.1,0.2c0.1,0.2,0.1,0.4,0.2,0.7c0,0.1,0.1,0.2,0.1,0.4c0,0.2-0.1,0.4-0.1,0.6c-0.1,0.7-0.3,1.3-0.4,2
		c-0.1,0.7-0.3,1.4-0.4,2.1c-0.1,0.2-0.1,0.5-0.2,0.7c0.1,0,0.1,0,0.2,0c0.4,0,0.7,0,1.1,0c0.2,0,0.2-0.1,0.2-0.2
		c0-0.3,0.1-0.7,0.2-1c0-0.1,0.1-0.1,0.2-0.1c0.4,0,0.8,0,1.2,0c0.1,0,0.2,0,0.2,0.2c0.1,0.3,0.1,0.7,0.2,1c0,0.1,0.1,0.2,0.2,0.2
		c0.4,0,0.7,0,1.1,0h0.2C33.4,58.6,33.3,58.1,33.2,57.6 M31.6,56.4c0,0-0.1,0.1-0.1,0.1c-0.3,0-0.5,0-0.8,0c-0.1,0-0.1-0.1-0.1-0.2
		c0.1-0.4,0.1-0.7,0.2-1.1c0.1-0.4,0.2-0.8,0.2-1.3c0,0,0-0.1,0-0.1c0,0,0,0,0,0c0,0,0,0.1,0.1,0.1c0.1,0.7,0.3,1.5,0.4,2.2
		C31.6,56.3,31.6,56.3,31.6,56.4"/>
	<path class="st1" d="M21.8,59.1c-0.4,0-0.7,0-1.1,0c-0.5,0-0.9-0.3-0.9-0.8c0-0.3,0-0.5,0-0.8c0-0.1,0.1-0.1,0.1-0.2
		c0.4-0.1,0.8-0.2,1.2-0.3c0.1,0,0.1,0,0.1,0.1c0,0.2,0,0.3,0,0.5c0,0.1,0,0.2,0.2,0.2c0.3,0,0.5,0,0.8,0c0.1,0,0.1,0,0.1-0.1
		c0-0.3,0-0.6,0-0.9c0-0.1-0.1-0.1-0.1-0.2c-0.6-0.3-1.2-0.5-1.8-0.8c-0.4-0.2-0.6-0.5-0.6-0.9c0-0.5,0-1,0-1.5c0-0.6,0.4-1,1-1
		c0.7,0,1.4,0,2,0c0.6,0,1,0.4,1,1c0,0.2,0,0.4,0,0.7c0,0.1,0,0.2-0.2,0.2c-0.4,0.1-0.7,0.2-1.1,0.2c-0.2,0-0.2,0-0.2-0.2
		c0-0.1,0-0.3,0-0.4c0-0.1,0-0.1-0.1-0.1c-0.3,0-0.5,0-0.8,0c-0.1,0-0.2,0.1-0.2,0.2c0,0.2,0,0.4,0,0.5c0,0.2,0.1,0.3,0.2,0.3
		c0.6,0.2,1.1,0.5,1.7,0.7c0.4,0.2,0.6,0.5,0.6,0.9c0,0.5,0,1.1,0,1.6c0,0.6-0.3,1-1,1C22.4,59.1,22.1,59.1,21.8,59.1"/>
	<path class="st1" d="M27.3,56.5c0,0.8,0,1.6,0,2.4c0,0.2,0,0.2-0.2,0.2c-0.3,0-0.7,0-1,0c-0.2,0-0.2-0.1-0.2-0.2c0-1.6,0-3.2,0-4.7
		c0,0,0-0.1,0-0.1c0-0.1,0-0.2-0.2-0.2c-0.4,0-0.7,0-1.1,0c-0.2,0-0.2,0-0.2-0.2c0-0.3,0-0.6,0-0.9c0-0.1,0-0.2,0.2-0.2
		c1.3,0,2.7,0,4,0c0.1,0,0.2,0,0.2,0.2c0,0.3,0,0.6,0,1c0,0.1-0.1,0.2-0.2,0.2c-0.3,0-0.7,0-1,0c-0.3,0-0.3,0-0.3,0.3
		C27.3,54.9,27.3,55.7,27.3,56.5"/>
	<path class="st1" d="M34.7,56.5c0-0.8,0-1.6,0-2.4c0-0.2,0-0.2-0.2-0.2c-0.3,0-0.7,0-1,0c-0.1,0-0.2-0.1-0.2-0.2c0-0.3,0-0.6,0-0.9
		c0-0.1,0-0.2,0.2-0.2c1.3,0,2.7,0,4,0c0.1,0,0.2,0,0.2,0.1c0,0.3,0,0.7,0,1c0,0.1-0.1,0.1-0.2,0.1c-0.3,0-0.7,0-1,0
		c-0.3,0-0.3,0-0.3,0.3c0,1.6,0,3.1,0,4.7c0,0,0,0.1,0,0.1c0,0.1,0,0.2-0.2,0.2c-0.4,0-0.7,0-1.1,0c-0.1,0-0.2-0.1-0.2-0.2
		C34.7,58.1,34.7,57.3,34.7,56.5"/>
	<path class="st1" d="M39.8,55.8c0,1,0,2.1,0,3.1c0,0.2,0,0.2-0.2,0.2c-0.4,0-0.7,0-1.1,0c-0.1,0-0.2,0-0.2-0.2c0-2.1,0-4.2,0-6.2
		c0-0.1,0.1-0.2,0.2-0.2c0.3,0,0.7,0,1,0c0.2,0,0.2,0,0.2,0.2C39.8,53.8,39.8,54.8,39.8,55.8"/>
	<path class="st1" d="M44,52.6c-0.8,0-1.5,0-2.3,0c-0.6,0-1,0.4-1,1v2.3c0,0.8,0,1.6,0,2.4c0,0.6,0.4,0.9,0.9,0.9c0.8,0,1.6,0,2.4,0
		c0.6,0,1-0.3,1-1c0-1.6,0-3.1,0-4.7C45,52.9,44.6,52.6,44,52.6 M43.9,55.5l-1.6,2.8c0,0.1-0.1,0-0.1,0l0.5-2c0,0,0-0.1,0-0.1h-0.9
		c0,0-0.1,0,0-0.1l1.6-2.8c0-0.1,0.1,0,0.1,0l-0.5,2c0,0,0,0.1,0,0.1L43.9,55.5C43.9,55.5,44,55.5,43.9,55.5"/>
	<rect x="19.8" y="50.4" class="st1" width="30.7" height="1"/>
	<rect x="19.8" y="60.2" class="st1" width="30.7" height="1"/>
	<path class="st1" d="M49.7,40.2c0,0.1,0,0.2,0,0.3c-0.3,2.1-0.7,4.2-1,6.3c-0.1,0.4-0.1,0.9-0.2,1.3c0,0.1-0.1,0.2-0.1,0.3
		c-0.1,0.1-0.2,0.2-0.3,0.3c-0.2,0-0.3,0-0.5,0c-0.4,0-0.8-0.1-1.2-0.1c-0.3,0-0.6-0.1-0.8-0.2c-0.2-0.1-0.5-0.1-0.7-0.3
		c-0.1-0.1-0.2-0.1-0.2-0.3c0-0.1,0-0.2,0-0.2c0.1-0.5,0.1-0.9,0.2-1.4c0.1-0.9,0.2-1.7,0.4-2.6c0.2-1.3,0.4-2.6,0.5-3.8
		c0-0.2,0.1-0.5,0.3-0.7c0.1-0.2,0.3-0.4,0.5-0.5c0.1-0.1,0.3-0.3,0.4-0.5c0-0.1,0.1-0.2,0.1-0.3c0.1-0.2,0.1-0.5,0.2-0.7
		c0-0.2,0.1-0.4,0.1-0.6c0.1-0.2,0.1-0.5,0.2-0.7c0-0.2,0.1-0.4,0.1-0.6c0-0.2,0.1-0.3,0.1-0.5l1.7,0.3c0,0.1,0,0.2,0,0.3
		c0,0.2,0,0.4,0,0.6c0,0.2,0,0.4-0.1,0.6c0,0.2,0,0.4,0,0.6c0,0.2,0,0.4,0,0.6c0,0.1,0,0.3,0,0.4c0,0.2,0.1,0.3,0.1,0.5
		c0.1,0.2,0.2,0.4,0.3,0.6C49.6,39.7,49.7,39.9,49.7,40.2"/>
	<path class="st1" d="M36.6,48.3c0,0.2-0.1,0.4-0.3,0.5c-0.2,0.1-0.4,0.2-0.6,0.2c-0.5,0.1-1,0.2-1.5,0.3c-0.4,0-0.7,0.1-1.1,0.1
		c-0.3,0-0.6,0-0.9-0.1c-0.1,0-0.3-0.1-0.3-0.3c0-0.1-0.1-0.2-0.1-0.3c-0.1-0.6-0.2-1.2-0.3-1.8c-0.2-1.1-0.3-2.2-0.5-3.2
		c-0.2-1.6-0.5-3.2-0.7-4.8c0-0.3,0-0.6,0.1-0.9c0.1-0.3,0.2-0.5,0.4-0.8c0.1-0.2,0.2-0.4,0.3-0.7c0-0.1,0-0.3,0-0.4
		c0-0.3,0-0.6-0.1-0.9c0-0.3,0-0.5,0-0.7c0-0.3,0-0.6-0.1-0.9c0-0.1,0-0.1,0-0.2c0-0.2,0-0.4,0-0.5c0-0.2,0-0.4,0-0.6l2.2-0.3
		c0,0.1,0.1,0.3,0.1,0.4c0.1,0.3,0.1,0.5,0.2,0.8c0,0.1,0,0.2,0,0.2c0,0.2,0.1,0.4,0.1,0.5c0.1,0.3,0.1,0.5,0.2,0.8
		c0.1,0.3,0.1,0.5,0.2,0.8c0,0.2,0.1,0.4,0.1,0.5c0.1,0.2,0.2,0.4,0.3,0.5c0.2,0.2,0.4,0.4,0.6,0.7c0.2,0.3,0.4,0.5,0.5,0.8
		c0,0.1,0.1,0.2,0.1,0.3c0.4,2.7,0.7,5.3,1,8c0.1,0.5,0.1,1.1,0.2,1.6C36.7,48,36.7,48.1,36.6,48.3"/>
	<path class="st1" d="M49.6,34c0-0.1,0-0.3,0-0.4c0-0.1,0-0.1,0-0.2c0,0,0-0.1,0-0.1c0.1-0.1,0.1-0.2,0.1-0.3c0-0.1-0.1-0.1-0.1-0.2
		c-0.1,0-0.4-0.1-0.8-0.2c-0.4-0.1-0.7-0.1-0.8-0.1c-0.1,0-0.1,0-0.2,0.1c-0.1,0.1-0.1,0.2,0,0.3c0,0,0,0.1,0,0.1
		c0,0.1-0.1,0.1-0.1,0.2c-0.1,0.1-0.1,0.2-0.1,0.4c0,0,0,0,0,0c0,0.2,0.1,0.4,0.3,0.4l0.7,0.1l0.7,0.1C49.4,34.3,49.6,34.2,49.6,34
		C49.6,34,49.6,34,49.6,34"/>
	<path class="st1" d="M30.5,31.1c0-0.2,0-0.3,0-0.5c0-0.1,0-0.2,0-0.2c0-0.1,0-0.1-0.1-0.1c-0.1-0.1-0.2-0.2-0.1-0.4
		c0-0.1,0.1-0.2,0.2-0.2c0.1,0,0.5-0.1,1-0.2c0.4-0.1,0.9-0.1,1-0.1c0.1,0,0.2,0,0.2,0.1c0.1,0.1,0.1,0.3,0,0.4c0,0,0,0.1,0,0.1
		c0,0.1,0.1,0.2,0.1,0.2c0.1,0.1,0.1,0.3,0.2,0.5c0,0,0,0,0,0c0.1,0.2-0.1,0.5-0.3,0.5l-0.8,0.1L31,31.5
		C30.8,31.5,30.6,31.4,30.5,31.1C30.5,31.1,30.5,31.1,30.5,31.1"/>
</g>
</svg>
