<svg id="Layer_1" data-name="Layer 1" xmlns="http://www.w3.org/2000/svg" viewBox="0 0 71.23 87"><defs><style>.cls-1{fill:#ec1c24;}</style></defs><path class="cls-1" d="M36.53,79.85H34.71a.94.94,0,0,1-.64-.19.64.64,0,0,1-.21-.5.66.66,0,0,1,.21-.5.91.91,0,0,1,.64-.19h1.82a.9.9,0,0,1,.63.19.66.66,0,0,1,.21.5.64.64,0,0,1-.21.5.88.88,0,0,1-.63.19Z"/><path class="cls-1" d="M31.17,82.46V75.85a1.09,1.09,0,0,1,.24-.77.8.8,0,0,1,.61-.26.82.82,0,0,1,.62.26,1.06,1.06,0,0,1,.24.77v6.61a1.1,1.1,0,0,1-.24.78.79.79,0,0,1-.62.26.77.77,0,0,1-.61-.26,1.1,1.1,0,0,1-.24-.78Z"/><path class="cls-1" d="M24.08,75.85v2.41h3.68V75.85a1.14,1.14,0,0,1,.23-.77.8.8,0,0,1,.61-.26.83.83,0,0,1,.63.26,1.06,1.06,0,0,1,.24.77v6.61a1.06,1.06,0,0,1-.25.78.86.86,0,0,1-1.23,0,1.15,1.15,0,0,1-.23-.78V79.64H24.08v2.82a1.1,1.1,0,0,1-.24.78.82.82,0,0,1-.62.26.81.81,0,0,1-.62-.26,1.15,1.15,0,0,1-.22-.78V75.85a1.14,1.14,0,0,1,.22-.77.79.79,0,0,1,.62-.26.82.82,0,0,1,.62.26,1.06,1.06,0,0,1,.24.77Z"/><path class="cls-1" d="M20.67,80.71a2.27,2.27,0,0,1-.2.86,3.17,3.17,0,0,1-.62.92,3.26,3.26,0,0,1-1.08.73,3.93,3.93,0,0,1-1.55.28A5.1,5.1,0,0,1,16,83.37,3.3,3.3,0,0,1,15,83a3.55,3.55,0,0,1-.82-.7,4.43,4.43,0,0,1-.57-.88,5.18,5.18,0,0,1-.35-1.05,5.55,5.55,0,0,1-.12-1.18,5.13,5.13,0,0,1,.3-1.81A3.69,3.69,0,0,1,14.31,76a3.59,3.59,0,0,1,1.29-.87,4.15,4.15,0,0,1,1.58-.3,4,4,0,0,1,1.82.41,3.24,3.24,0,0,1,1.22,1,1.94,1.94,0,0,1,.42,1.14.72.72,0,0,1-.2.51.65.65,0,0,1-.5.22.7.7,0,0,1-.49-.15,2.46,2.46,0,0,1-.37-.53,2.57,2.57,0,0,0-.78-.94,1.89,1.89,0,0,0-1.11-.31,2,2,0,0,0-1.67.8,3.56,3.56,0,0,0-.63,2.26,4.26,4.26,0,0,0,.28,1.63,2,2,0,0,0,.78,1,2.19,2.19,0,0,0,1.18.32,2.12,2.12,0,0,0,1.25-.36,2.27,2.27,0,0,0,.76-1.07,1.94,1.94,0,0,1,.27-.54.62.62,0,0,1,.52-.21.72.72,0,0,1,.52.21.69.69,0,0,1,.22.53Z"/><path class="cls-1" d="M9.75,82.46V75.85a1.09,1.09,0,0,1,.24-.77.76.76,0,0,1,.6-.26.83.83,0,0,1,.63.26,1.11,1.11,0,0,1,.24.77v6.61a1.15,1.15,0,0,1-.24.78.79.79,0,0,1-.63.26.75.75,0,0,1-.6-.26,1.1,1.1,0,0,1-.24-.78Z"/><path class="cls-1" d="M2.57,75.85v2.94l3.35-3.48a3.87,3.87,0,0,1,.41-.37.79.79,0,0,1,.45-.12.84.84,0,0,1,.6.21.72.72,0,0,1,.23.53,1,1,0,0,1-.39.74l-2.07,2,2.39,3.41a5.22,5.22,0,0,1,.38.62,1.23,1.23,0,0,1,.12.52.62.62,0,0,1-.22.48.84.84,0,0,1-.6.21,1,1,0,0,1-.58-.15,1.25,1.25,0,0,1-.38-.41L6,82.49,4,79.4l-1.4,1.33v1.73a1.09,1.09,0,0,1-.24.78.77.77,0,0,1-.62.26.84.84,0,0,1-.42-.12.65.65,0,0,1-.3-.31.81.81,0,0,1-.1-.37,5,5,0,0,1,0-.61V75.85a1.09,1.09,0,0,1,.23-.77.77.77,0,0,1,.61-.26.83.83,0,0,1,.63.26,1.11,1.11,0,0,1,.23.77Z"/><path class="cls-1" d="M68.65,82.46V75.85a1.09,1.09,0,0,1,.24-.77.8.8,0,0,1,.61-.26.82.82,0,0,1,.62.26,1.06,1.06,0,0,1,.24.77v6.61a1.1,1.1,0,0,1-.24.78.79.79,0,0,1-.62.26.77.77,0,0,1-.61-.26,1.1,1.1,0,0,1-.24-.78Z"/><path class="cls-1" d="M61.56,75.85v2.41h3.68V75.85a1.14,1.14,0,0,1,.23-.77.81.81,0,0,1,.62-.26.82.82,0,0,1,.62.26,1.06,1.06,0,0,1,.23.77v6.61a1.06,1.06,0,0,1-.24.78.86.86,0,0,1-1.23,0,1.15,1.15,0,0,1-.23-.78V79.64H61.56v2.82a1.1,1.1,0,0,1-.24.78.82.82,0,0,1-.62.26.81.81,0,0,1-.62-.26,1.15,1.15,0,0,1-.22-.78V75.85a1.14,1.14,0,0,1,.22-.77.79.79,0,0,1,.62-.26.82.82,0,0,1,.62.26,1.06,1.06,0,0,1,.24.77Z"/><path class="cls-1" d="M58.16,80.71a2.27,2.27,0,0,1-.2.86,3.17,3.17,0,0,1-.62.92,3.31,3.31,0,0,1-1.09.73,3.85,3.85,0,0,1-1.54.28,5.1,5.1,0,0,1-1.21-.13,3.2,3.2,0,0,1-1-.39,3.36,3.36,0,0,1-.82-.7,4.43,4.43,0,0,1-.57-.88,5.18,5.18,0,0,1-.35-1.05,5.55,5.55,0,0,1-.12-1.18,5.13,5.13,0,0,1,.3-1.81A3.81,3.81,0,0,1,51.79,76a3.72,3.72,0,0,1,1.3-.87,4.15,4.15,0,0,1,1.58-.3,4,4,0,0,1,1.82.41,3.24,3.24,0,0,1,1.22,1,2,2,0,0,1,.42,1.14.72.72,0,0,1-.2.51.66.66,0,0,1-.5.22.7.7,0,0,1-.49-.15,2.46,2.46,0,0,1-.37-.53,2.57,2.57,0,0,0-.78-.94,1.89,1.89,0,0,0-1.11-.31A2,2,0,0,0,53,77a3.62,3.62,0,0,0-.62,2.26,4.08,4.08,0,0,0,.28,1.63,2,2,0,0,0,.78,1,2.17,2.17,0,0,0,1.18.32,2.09,2.09,0,0,0,1.24-.36,2.22,2.22,0,0,0,.77-1.07,1.7,1.7,0,0,1,.27-.54.62.62,0,0,1,.52-.21.72.72,0,0,1,.52.21.73.73,0,0,1,.22.53Z"/><path class="cls-1" d="M47.24,82.46V75.85a1.09,1.09,0,0,1,.23-.77.86.86,0,0,1,1.23,0,1.06,1.06,0,0,1,.24.77v6.61a1.1,1.1,0,0,1-.24.78.77.77,0,0,1-.62.26.75.75,0,0,1-.6-.26,1.1,1.1,0,0,1-.24-.78Z"/><path class="cls-1" d="M40.06,75.85v2.94l3.35-3.48a3.87,3.87,0,0,1,.41-.37.77.77,0,0,1,.45-.12.86.86,0,0,1,.6.21.71.71,0,0,1,.22.53,1.07,1.07,0,0,1-.38.74l-2.07,2L45,81.67a3.46,3.46,0,0,1,.38.62,1.11,1.11,0,0,1,.13.52.62.62,0,0,1-.22.48.84.84,0,0,1-.6.21,1,1,0,0,1-.58-.15,1.25,1.25,0,0,1-.38-.41c-.11-.16-.2-.32-.28-.45l-2-3.09-1.4,1.33v1.73a1.09,1.09,0,0,1-.24.78.79.79,0,0,1-.62.26.81.81,0,0,1-.42-.12.71.71,0,0,1-.31-.31,1,1,0,0,1-.1-.37c0-.14,0-.34,0-.61V75.85a1.14,1.14,0,0,1,.22-.77.81.81,0,0,1,.62-.26.79.79,0,0,1,.62.26,1.06,1.06,0,0,1,.24.77Z"/><path class="cls-1" d="M51,24.09h0A20.53,20.53,0,0,0,35.31,16.6c-.62,0-1.27,0-1.92.08h0a20.28,20.28,0,0,0-16,12l.34.15-.35-.13a21.83,21.83,0,0,0-1.57,7.88,20,20,0,0,0,3.43,11l.76.29h0l.45.17h0a19.77,19.77,0,0,1-3.89-11.45A21,21,0,0,1,18.08,29,19.53,19.53,0,0,1,33.46,17.43h0c.63-.06,1.25-.09,1.85-.09A19.79,19.79,0,0,1,50.47,24.6h0a18.65,18.65,0,0,1,4.29,12.08,18,18,0,0,1-.92,5.83h0A20.56,20.56,0,0,1,40.7,55.16l.11.39-.13-.38a15.3,15.3,0,0,1-4.5.62A19.75,19.75,0,0,1,22.8,50.63l-.64.43a20.46,20.46,0,0,0,14,5.48,16,16,0,0,0,4.72-.65h0a21.33,21.33,0,0,0,13.6-13h0a18.73,18.73,0,0,0,1-6.23A19.38,19.38,0,0,0,51,24.09Z"/><polygon class="cls-1" points="26.53 48.94 33.79 48.94 33.79 46.49 26.53 46.49 26.53 48.94 26.53 48.94"/><path class="cls-1" d="M30.3,31.56a3.73,3.73,0,0,1,.51.41l.1.12h0a.76.76,0,0,1-.31.5,2.07,2.07,0,0,1-.27.2l-.08.05h0a.61.61,0,0,0-.27.8.6.6,0,0,0,.53.32.53.53,0,0,0,.27-.06,3.38,3.38,0,0,0,.63-.44,1.9,1.9,0,0,0,.7-1.38V32a1.62,1.62,0,0,0-.63-1c-.44-.37-1-.7-1.4-1a2.69,2.69,0,0,1-.48-.42.41.41,0,0,1-.08-.13h0a.17.17,0,0,1,0-.1,4.74,4.74,0,0,1,1.11-1.07c.25-.2.49-.39.7-.59a3,3,0,0,0,.29-.32,1,1,0,0,0,.17-.53,1.47,1.47,0,0,0-.65-1.15c-.32-.24-.68-.43-1.05-.66a.59.59,0,0,0-.62,1h0c.4.25.75.44,1,.59l.15.15a4.8,4.8,0,0,1-.36.32c-.33.27-.76.59-1.14.95a2.08,2.08,0,0,0-.77,1.4,1.6,1.6,0,0,0,.59,1.12,14.57,14.57,0,0,0,1.41,1.07Z"/><path class="cls-1" d="M26.82,31.12a5.55,5.55,0,0,1,.5.41l.1.13h0a.78.78,0,0,1-.31.51,2.07,2.07,0,0,1-.27.2l-.08.05h0a.59.59,0,0,0-.27.8.6.6,0,0,0,.53.32.66.66,0,0,0,.27-.06,3.05,3.05,0,0,0,.63-.44,1.89,1.89,0,0,0,.7-1.39v-.1a1.59,1.59,0,0,0-.63-1c-.44-.38-1-.7-1.4-1a3.83,3.83,0,0,1-.48-.42A.55.55,0,0,1,26,29v0l0-.09a4.74,4.74,0,0,1,1.11-1.07c.25-.2.49-.39.7-.59a2.14,2.14,0,0,0,.28-.32.92.92,0,0,0,.18-.53,1.45,1.45,0,0,0-.65-1.15c-.32-.24-.68-.43-1-.66a.59.59,0,0,0-.81.2.6.6,0,0,0,.19.81h0c.4.24.75.44.95.59a1.1,1.1,0,0,1,.15.14,2.48,2.48,0,0,1-.36.32c-.33.28-.76.6-1.14,1a2.06,2.06,0,0,0-.77,1.39,1.64,1.64,0,0,0,.58,1.13,13.15,13.15,0,0,0,1.43,1.06Z"/><path class="cls-1" d="M33.56,31.13a4.2,4.2,0,0,1,.44.48l.08.14h0a.78.78,0,0,1-.38.45,2.19,2.19,0,0,1-.29.16l-.1,0h0a.58.58,0,0,0-.37.74.6.6,0,0,0,.47.41.61.61,0,0,0,.27,0,3.23,3.23,0,0,0,.7-.34,1.93,1.93,0,0,0,.89-1.27s0-.07,0-.1a1.62,1.62,0,0,0-.47-1.13c-.38-.43-.87-.83-1.24-1.21a3.53,3.53,0,0,1-.41-.48l-.07-.14v0a.25.25,0,0,1,0-.09,4.71,4.71,0,0,1,1.26-.9c.27-.16.54-.31.77-.48a1.75,1.75,0,0,0,.33-.28.91.91,0,0,0,.26-.5,1.46,1.46,0,0,0-.48-1.22c-.28-.29-.62-.53-.94-.81a.6.6,0,0,0-.77.91c.37.3.68.54.86.72l.13.16a3.23,3.23,0,0,1-.41.27c-.37.22-.84.48-1.26.78a2.09,2.09,0,0,0-1,1.27,1.6,1.6,0,0,0,.42,1.2,13.4,13.4,0,0,0,1.25,1.25Z"/><polygon class="cls-1" points="41 48.94 45.69 48.94 45.69 46.92 41 46.92 41 48.94 41 48.94"/><polygon class="cls-1" points="34.42 48.94 40.46 48.94 40.46 46.7 34.42 46.7 34.42 48.94 34.42 48.94"/><path class="cls-1" d="M48.08,38.2c0,.32-.08.64-.15.95a10.36,10.36,0,0,1-3.3,5.67c-.25.22-.51.43-.77.63a16.58,16.58,0,0,1-3.27,1.61c-.22.07-.46.1-.69.15a9.33,9.33,0,0,0,2.81.43,9,9,0,0,0,2.61-.38A9.31,9.31,0,0,0,47.93,46a.6.6,0,0,0,.33-.23,7.8,7.8,0,0,0,.7-.56,9.4,9.4,0,0,0,3.18-7Z"/><path class="cls-1" d="M42.21,37A11.58,11.58,0,0,1,42,38.18v0a11.4,11.4,0,0,1-3.36,6c-.09.08-.16.17-.25.24s-.46.39-.7.57l-.07.05a2.08,2.08,0,0,1-.49.35c-.18.12-.39.21-.58.33l-.06,0A10.93,10.93,0,0,1,34,46.86l-.2,0a10.51,10.51,0,0,0,3.38.57,10.13,10.13,0,0,0,2.21-.27c.23-.05.47-.08.69-.15A10.28,10.28,0,0,0,43,45.7a7.85,7.85,0,0,0,1.14-.88,10.36,10.36,0,0,0,3.3-5.67,7.52,7.52,0,0,0,.15-.95,9.55,9.55,0,0,0,.08-1.2Z"/><path class="cls-1" d="M30.21,45.34l-.09,0-.12,0c-4.79,0-8.27-2.5-9.21-7a.71.71,0,0,1,.54-.84.72.72,0,0,1,.85.55,7,7,0,0,0,6.1,5.74l.36,0A11.58,11.58,0,0,0,30,44a.71.71,0,0,1,.71.71.69.69,0,0,1-.5.65ZM18.67,35.82a11.49,11.49,0,0,0,11.48,11.5,11.36,11.36,0,0,0,3-.41l.2,0a19.48,19.48,0,0,0,2.53-1.14.17.17,0,0,0,.06,0s.4-.2.59-.32L37,45a.18.18,0,0,1,.07-.05c.23-.18.47-.37.69-.57s.17-.16.26-.24a11.4,11.4,0,0,0,3.36-6v0a11.81,11.81,0,0,0,.24-2.36Z"/><path class="cls-1" d="M50.38,13.3,49.92,13l-.54.86.44.28a1.39,1.39,0,0,0,.31.12.37.37,0,0,0,.25,0,.47.47,0,0,0,.22-.2.49.49,0,0,0,.1-.38A.65.65,0,0,0,50.38,13.3ZM12.07,23.62a.47.47,0,0,0-.39-.06c-.11,0-.22.15-.32.35l-.25.48.9.47.24-.46a1.16,1.16,0,0,0,.09-.33.3.3,0,0,0-.05-.25A.48.48,0,0,0,12.07,23.62ZM28.36,60.37a.84.84,0,0,0-.75.12,1.82,1.82,0,0,0-.56,1A1.8,1.8,0,0,0,27,62.59a.83.83,0,0,0,.57.52A.82.82,0,0,0,28.3,63a2,2,0,0,0,.57-1,1.68,1.68,0,0,0,.06-1.07A.85.85,0,0,0,28.36,60.37ZM61.57,30.8a.32.32,0,0,0,.2.16.51.51,0,0,0,.3,0,.52.52,0,0,0,.34-.21.64.64,0,0,0,0-.47l-.12-.53-1,.23.12.51A1.6,1.6,0,0,0,61.57,30.8Zm-17,29.35a.84.84,0,0,0-.77-.08.86.86,0,0,0-.53.54,1.8,1.8,0,0,0,.12,1.12,1.89,1.89,0,0,0,.6,1,.82.82,0,0,0,.76.08.79.79,0,0,0,.55-.53A1.94,1.94,0,0,0,45.13,61,1.68,1.68,0,0,0,44.55,60.15ZM54,16.59a2,2,0,0,0-.93.63,2.08,2.08,0,0,0-.59.94.74.74,0,0,0,.21.67.68.68,0,0,0,.67.19,2.13,2.13,0,0,0,1-.69,1.76,1.76,0,0,0,.55-.9.71.71,0,0,0-.22-.66A.66.66,0,0,0,54,16.59Zm6.58,1.07C54.75,9.54,45.7,6.12,38.87,5.32A31.8,31.8,0,0,0,12.07,15.8,32.21,32.21,0,0,0,4.18,37.56a34.24,34.24,0,0,0,1.29,8.2A32.25,32.25,0,0,0,9,53s.62-7.65,1.43-9.22c3.71,1.72,7.35,3.18,7.35,3.18A20,20,0,0,1,14.9,37.4a19.9,19.9,0,0,1,4.41-13.74,20.83,20.83,0,0,1,36,19.8s-1.29,5.46-7.41,10a20.52,20.52,0,0,1-12.6,4s-8.89-.13-14.93-6.73l-.13-.11,1.47-1s-2.88-1-5.55-2-5-2.16-5-2.16-.6,4.13-.78,6.12-.4,6.21-.4,6.21l1.48-1a31.44,31.44,0,0,0,47.69.76,30.9,30.9,0,0,0,7.14-14.08C68.28,34.49,66.45,25.79,60.6,17.66ZM7.45,39.88l-.21-3.31,1.07-.07.13,2.08.79,0L9.11,36.6l1-.06.12,1.92,1-.06-.13-2.14,1.13-.06.22,3.37ZM12.55,33l-1.69.6,1.5,1-.15,1.37L9.77,34.23l-2.52,1,.16-1.36L9,33.33l-1.45-.87.15-1.34L10,32.64l2.72-1.06Zm.29-1.76L8.05,29.74l.61-2a1.2,1.2,0,0,1,.67-.84,1.65,1.65,0,0,1,1.18,0,1.74,1.74,0,0,1,1,.69,1.38,1.38,0,0,1,.09,1.19l-.2.65,1.78.55Zm2.41-6.14L13.59,25a1.11,1.11,0,0,0-.44,0,.52.52,0,0,0-.25.21l-.05.1,1.81.94-.57,1.1L9.64,25l.95-1.83a2.22,2.22,0,0,1,.51-.72.93.93,0,0,1,.63-.23,1.57,1.57,0,0,1,.8.21,1.83,1.83,0,0,1,.58.45,1.31,1.31,0,0,1,.25.57,1.14,1.14,0,0,1,0,.48,1.06,1.06,0,0,1,.31-.2,1.43,1.43,0,0,1,.33-.05,2.51,2.51,0,0,1,.35,0l1.57.14Zm.9-1.56-4-3,2-2.64.85.66-1.26,1.64.63.49,1.17-1.53.81.62-1.17,1.53.79.6,1.29-1.7.9.69Zm4.35-5a1.89,1.89,0,0,1-.57.81,1.7,1.7,0,0,1-1.37.61,2.26,2.26,0,0,1-1.17-.63l.8-.86a1.35,1.35,0,0,0,.48.29.61.61,0,0,0,.61-.14.5.5,0,0,0,.2-.39.53.53,0,0,0-.14-.37.52.52,0,0,0-.34-.16,1.28,1.28,0,0,0-.66.21,2.3,2.3,0,0,1-1.26.34,1.34,1.34,0,0,1-.92-.47,1.64,1.64,0,0,1-.36-.66,1.24,1.24,0,0,1,0-.76,2.13,2.13,0,0,1,.59-.81A1.66,1.66,0,0,1,17.53,15a1.62,1.62,0,0,1,1.11.51l-.8.85a.82.82,0,0,0-.47-.23.59.59,0,0,0-.41.17.45.45,0,0,0-.16.3.37.37,0,0,0,.11.28.32.32,0,0,0,.21.1.93.93,0,0,0,.43-.14,4.2,4.2,0,0,1,1.16-.47,1.35,1.35,0,0,1,.75.06,1.73,1.73,0,0,1,.62.44,1.76,1.76,0,0,1,.44.8A1.45,1.45,0,0,1,20.5,18.47Zm3.32-2.34a2,2,0,0,1-.7.7,1.74,1.74,0,0,1-1.46.35,2.27,2.27,0,0,1-1-.81l.93-.72A1.4,1.4,0,0,0,22,16a.62.62,0,0,0,.63,0,.58.58,0,0,0,.26-.35.5.5,0,0,0-.08-.38.52.52,0,0,0-.3-.22,1.37,1.37,0,0,0-.69.09,2.41,2.41,0,0,1-1.31.12,1.36,1.36,0,0,1-.81-.62,1.68,1.68,0,0,1-.25-.71,1.33,1.33,0,0,1,.16-.75,2.24,2.24,0,0,1,.73-.7,1.7,1.7,0,0,1,1.17-.33,1.68,1.68,0,0,1,1,.7l-.93.7a.92.92,0,0,0-.43-.31.54.54,0,0,0-.43.1.39.39,0,0,0-.21.27.42.42,0,0,0,0,.29.31.31,0,0,0,.2.13A.81.81,0,0,0,21.2,14a4.48,4.48,0,0,1,1.22-.25,1.35,1.35,0,0,1,.73.19,1.7,1.7,0,0,1,.54.53,2,2,0,0,1,.3.87A1.52,1.52,0,0,1,23.82,16.13Zm12.66-4.2a1.43,1.43,0,0,1-1.13.61A1.4,1.4,0,0,1,34.2,12a2.23,2.23,0,0,1-.5-1.42,2.21,2.21,0,0,1,.45-1.44,1.41,1.41,0,0,1,2.29,0,2.17,2.17,0,0,1,.49,1.42A2.21,2.21,0,0,1,36.48,11.93Zm-14.61,50,1-1.76-1.32-.77-1,1.76-1.21-.7,2.52-4.34,1.21.7-.89,1.51,1.32.77.89-1.52,1.2.71L23.08,62.6Zm8.33.48a3.44,3.44,0,0,1-.67,1.3,2,2,0,0,1-1,.62,2.31,2.31,0,0,1-1.29-.07,2.71,2.71,0,0,1-1.13-.62,2.13,2.13,0,0,1-.53-1.06,3,3,0,0,1,.14-1.49,2.71,2.71,0,0,1,1.14-1.66,2.23,2.23,0,0,1,1.84-.15,2.19,2.19,0,0,1,1.46,1.15A2.62,2.62,0,0,1,30.2,62.38Zm5.38-.69-1.41-.12-.32,3.76-1.39-.11.32-3.76-1.42-.12.1-1.24,4.23.36Zm4.77,1a1.65,1.65,0,0,1-1.19.58l-.76.09.22,1.85-1.39.16-.6-5,2.31-.27a1.46,1.46,0,0,1,1.17.26,1.6,1.6,0,0,1,.51,1.08A1.63,1.63,0,0,1,40.35,62.71Zm6.33-.66a2,2,0,0,1-.44,1.08,2.3,2.3,0,0,1-1.08.71,2.5,2.5,0,0,1-1.28.16,1.89,1.89,0,0,1-1.05-.53,3.25,3.25,0,0,1-.78-1.28,2.8,2.8,0,0,1,0-2A2.24,2.24,0,0,1,43.4,59a2.21,2.21,0,0,1,1.86.06,2.69,2.69,0,0,1,1.19,1.58A3.38,3.38,0,0,1,46.68,62.05Zm3.27-.5-2-3.22-1.21.74L46.13,58l3.61-2.21.65,1.06-1.21.74,2,3.23ZM63.47,30.33a2.48,2.48,0,0,1,.09.88,1,1,0,0,1-.34.58,1.6,1.6,0,0,1-.75.36,1.66,1.66,0,0,1-.73,0,1.33,1.33,0,0,1-.56-.27,1.36,1.36,0,0,1-.3-.38,1.13,1.13,0,0,1-.1.36,1.49,1.49,0,0,1-.21.25,2.33,2.33,0,0,1-.27.24L59,33.29l-.32-1.36,1.34-1a1.17,1.17,0,0,0,.32-.31.45.45,0,0,0,.05-.32l0-.11-2,.47-.29-1.22L63,28.32Zm-12.84-15a1.09,1.09,0,0,1-.48-.06,1.39,1.39,0,0,1,.18.33q0,.09,0,.33a1.44,1.44,0,0,1,0,.35l-.26,1.55-1.18-.75.25-1.64a1.2,1.2,0,0,0,0-.45.47.47,0,0,0-.2-.26l-.09-.06-1.08,1.72-1-.66,2.66-4.24,1.75,1.1a2.44,2.44,0,0,1,.68.58,1,1,0,0,1,.17.64,1.76,1.76,0,0,1-.28.79,1.71,1.71,0,0,1-.5.53A1.22,1.22,0,0,1,50.63,15.33ZM53,20.24a1.91,1.91,0,0,1-1-.55,2.19,2.19,0,0,1-.62-1,2,2,0,0,1,.07-1.11,3.4,3.4,0,0,1,.82-1.25,3,3,0,0,1,1.71-1,1.83,1.83,0,0,1,1.57.56,1.85,1.85,0,0,1,.65,1.55,2.91,2.91,0,0,1-.91,1.74,3.83,3.83,0,0,1-1.17.87A1.94,1.94,0,0,1,53,20.24Zm1.61,2.32,3.1-2.16-.73-1,1-.7,2.15,3.08-1,.71-.72-1-3.09,2.15Zm1.53,2.17L61.28,24l.56,1.23L57.92,28.7l-.54-1.18.67-.53-.59-1.28-.83.17ZM61,48.54a1.45,1.45,0,0,1-1,.78,2.4,2.4,0,0,1-2.58-1.24,1.43,1.43,0,0,1,0-1.29,1.41,1.41,0,0,1,1-.77,2.41,2.41,0,0,1,2.58,1.23A1.44,1.44,0,0,1,61,48.54Zm.28-12.4-2.1.08,0-1.24,2.1-.08,2.85-1.68,0,1.38-1.66.87,1.72.74.06,1.37Zm-51-8a.67.67,0,0,0-.42,0,.57.57,0,0,0-.3.4l-.1.34,1.07.33.09-.3a.61.61,0,0,0,0-.52A.58.58,0,0,0,10.21,28.1ZM39.09,61.31a.69.69,0,0,0-.55-.1l-.39,0,.13,1.11.34,0a.76.76,0,0,0,.54-.22.55.55,0,0,0,.12-.42A.6.6,0,0,0,39.09,61.31ZM60.37,25.15l-1.81.35.36.81Z"/><path class="cls-1" d="M35.61,3.5A33.09,33.09,0,0,0,8.69,55.8l.1-1.15a32.33,32.33,0,1,1,2.76,3.55l-.62.42A33.08,33.08,0,1,0,35.61,3.5Z"/></svg>