<svg id="Layer_1" data-name="Layer 1" xmlns="http://www.w3.org/2000/svg" viewBox="0 0 70.28 87"><defs><style>.cls-1{fill:#b4202a;fill-rule:evenodd;}.cls-2{fill:#fff;}.cls-3{fill:none;}</style></defs><path class="cls-1" d="M6,8.5H64.33A5.5,5.5,0,0,1,69.78,14V73a5.5,5.5,0,0,1-5.45,5.51H6A5.5,5.5,0,0,1,.49,73V14A5.5,5.5,0,0,1,6,8.5Z"/><path class="cls-2" d="M27.45,30.61l-.47.22Z"/><path class="cls-2" d="M28.1,30.3l-.07.05Z"/><path class="cls-2" d="M26.55,32l-.07,0Z"/><path class="cls-2" d="M25,33.69c-.27.13-.05,0,0,0Z"/><path class="cls-2" d="M26.15,32.19l-.24.12Z"/><path class="cls-2" d="M26.48,32a2.33,2.33,0,0,1-.33.16A3.42,3.42,0,0,0,26.48,32Z"/><path class="cls-2" d="M28.19,29.31l-.4.19Z"/><polygon class="cls-3" points="16.7 17.41 16.88 17.67 17.44 18.24 16.7 17.41"/><polygon class="cls-3" points="19.8 16.72 19.83 16.84 20.29 17.56 19.8 16.72"/><polygon class="cls-3" points="20.84 18.41 19.75 16.7 20.09 18.22 20.84 18.41"/><path class="cls-3" d="M25.28,41.68a10.57,10.57,0,0,1-1.46.22,1,1,0,0,0,1.63.05C25.58,41.78,25.61,41.56,25.28,41.68Z"/><polygon class="cls-3" points="21.52 24.77 22.7 23.66 16.72 17.5 21.52 24.77"/><path class="cls-3" d="M38.79,35.78a3.21,3.21,0,0,0-1.26-.58,1.63,1.63,0,1,0-2.34.34A3.46,3.46,0,0,0,33.52,39a3.35,3.35,0,0,0,3.76,2.89A3.43,3.43,0,0,0,40.1,38,3.59,3.59,0,0,0,38.79,35.78Z"/><path class="cls-2" d="M25.45,42a1,1,0,0,1-1.63-.05,10.57,10.57,0,0,0,1.46-.22C25.61,41.56,25.58,41.78,25.45,42Z"/><path class="cls-2" d="M47.61,26.8c0-.15-.85-1.82-1.84-3.8C39.05,26.07,34,28.3,33.94,28.23s5-2.47,11.69-5.56l-.32-.62c-6.73,3.06-11.79,5.3-11.81,5.23s5-2.47,11.65-5.55c-.08-.18-.18-.35-.27-.53-6.7,3.07-11.76,5.29-11.8,5.22S38,24,44.73,20.88c-.09-.18-.19-.35-.27-.53-6.71,3-11.8,5.21-11.8,5.21s5-2.46,11.64-5.53c-.6-1.17-1.6-3.23-1.63-3.29-.14-.3-.25-.28-.39-.28a1.34,1.34,0,0,0-.4.13l-6,2.65s.93-.61,2.1-1.32a6.75,6.75,0,0,0-4.79-.45,13.19,13.19,0,0,0-5.59,2.93l-2-.58-6.08-3.45.37,1.8-3.64-1.05L21.24,25a14.9,14.9,0,0,0-.08,2.69,10.86,10.86,0,0,0,.53,2.87s0,0,0,0c.9.18,3.24.21,7.92-2,0,0-5,3.64-8.45,3.2a3.52,3.52,0,0,0,0,.58c1.26,0,3.44-.43,7-2.1,0,0-3.75,2.82-6.76,3.2l.15.33A22.62,22.62,0,0,0,26.55,32a18.23,18.23,0,0,1-4.38,2.61,1.2,1.2,0,0,0,.32.16c.74-.28,1.6-.63,2.52-1.08L23.68,35c.32,1.17,2,2.43,2.35,2.62s.3.37,0,.41a3.35,3.35,0,0,0-3,2.25,1.91,1.91,0,0,0,1.5,2.58,1.53,1.53,0,0,0,1.56-1c.1-.31.25-.28.57-.31,5.05.28,8.14,6.69,8.33,7.09s.3.36.48,0,.31-.47.28-.86-.22-.41-.16-.63,1.11-2.2,1.23-2.43a4.72,4.72,0,0,1,.89-1.08c.59-.56,1.47-1.51,2-1.92s1.88,0,3,.26a4.69,4.69,0,0,0,2.08,0,1,1,0,0,1,.58,0c.25.08.55,0,1-.28,1.25-.7.27-2,.2-2.11s-.08-.21,0-.29a1,1,0,0,1,.2-.24,1.36,1.36,0,0,0,.36-.6c.08-.27-.4-.69-.54-.82s0-.21,0-.26a.83.83,0,0,0,.26-.56c0-.32-.19-.34-.29-.43a1.08,1.08,0,0,1-.29-.39,1.19,1.19,0,0,1-.07-.48.28.28,0,0,0-.1-.15,1.08,1.08,0,0,1,.19-.27c.15-.13.31,0,.8-.39a1.43,1.43,0,0,0,.22-1.56,4.78,4.78,0,0,1-.75-.32c-.22-.18-1-.95-1.56-1.63a1.06,1.06,0,0,1,.18-1.51c.15-.1.4-.11.58-.22s0-.14,0-.14a1.54,1.54,0,0,1-.42.06c-.19,0-.21-.08-.1-.29a3.14,3.14,0,0,0,.4-1.08.77.77,0,0,0,0-.19C46.47,27.56,47.65,27.07,47.61,26.8ZM19.8,16.71l1.11,1.71-.77-.2Zm1.72,8.06-4.8-7.27,5.7,6.43Zm3.72,15.38a1.19,1.19,0,0,1-1.07.34c-.17-.05-.14-.16-.26,0a1.72,1.72,0,0,0-.16.74c0,.26-.12.34-.21.22s-.13-.22-.13-.6a1.23,1.23,0,0,1,.11-.62,2,2,0,0,1,1.88-1.52C26.14,38.89,25.57,39.79,25.24,40.15Zm12,1.75A3.35,3.35,0,0,1,33.52,39a3.46,3.46,0,0,1,1.67-3.47,1.65,1.65,0,1,1,2.34-.34,3.21,3.21,0,0,1,1.26.58A3.59,3.59,0,0,1,40.1,38,3.43,3.43,0,0,1,37.28,41.9Z"/><path class="cls-2" d="M25.28,41.68a10.57,10.57,0,0,1-1.46.22,1,1,0,0,0,1.63.05C25.58,41.78,25.61,41.56,25.28,41.68Z"/><path class="cls-2" d="M29.64,28.62l-.14.06Z"/><path class="cls-2" d="M29.25,28.81a5.12,5.12,0,0,0-.48.23Z"/><path class="cls-2" d="M36.19,35.18a.93.93,0,0,0,.9-1,.92.92,0,0,0-.91-.93.93.93,0,0,0-.92.93A1,1,0,0,0,36.19,35.18Z"/><path class="cls-2" d="M36.66,37.48a1,1,0,0,0-.87,1.19,1,1,0,0,0,1.15.89,1,1,0,0,0,.69-.42,1.09,1.09,0,0,0,.18-.77A1,1,0,0,0,36.66,37.48Z"/><path class="cls-2" d="M39.22,38.15a2.41,2.41,0,0,0-1-1.63A2.28,2.28,0,0,0,36.46,36a2.5,2.5,0,0,0-2.07,2.84A2.44,2.44,0,0,0,37.16,41,2.5,2.5,0,0,0,39.22,38.15ZM38,39.49a1.47,1.47,0,0,1-1,.61,1.57,1.57,0,0,1-1.77-1.35,1.6,1.6,0,0,1,1.33-1.81A1.6,1.6,0,0,1,38,39.49Z"/><polygon class="cls-1" points="46.72 24.78 31.55 31.09 46.27 23.78 46.72 24.78"/><polygon class="cls-1" points="43.89 19.11 29.11 25.8 43.45 18.11 43.89 19.11"/><path class="cls-2" d="M24.7,67.56a3,3,0,0,1-.87,2.15,2.89,2.89,0,0,1-2.13.89,2.83,2.83,0,0,1-2.1-.88,3,3,0,0,1-.88-2.15V66.13h1.93v-1h.52v1.55h-1v.89a1.48,1.48,0,0,0,.44,1,1.4,1.4,0,0,0,1,.44,1.43,1.43,0,0,0,1-.44,1.45,1.45,0,0,0,.41-1V64.7a1.61,1.61,0,0,0-.61-1.25,9.73,9.73,0,0,0-1.2-.74,7.31,7.31,0,0,1-1.86-1.28,3,3,0,0,1-.78-2.08V57.67a3,3,0,0,1,.87-2.17,2.95,2.95,0,0,1,4.23,0,3,3,0,0,1,.87,2.15v1.83H22.41v-.56h.74V57.65a1.41,1.41,0,0,0-.43-1,1.45,1.45,0,0,0-1-.43,1.35,1.35,0,0,0-1,.45,1.46,1.46,0,0,0-.43,1.05v1.68a1.45,1.45,0,0,0,.43,1.06,7.7,7.7,0,0,0,1.49,1,6.82,6.82,0,0,1,1.59,1.07,3.07,3.07,0,0,1,1,2.23Z"/><path class="cls-2" d="M35.06,70.58V67.94h-.5l0,1.08h-.3a.65.65,0,0,1-.5-.21.72.72,0,0,1-.21-.52l0-11.45a.71.71,0,0,1,.2-.51.72.72,0,0,1,.51-.2h.29v1.09h.49V54.58h-.8a2.17,2.17,0,0,0-1.57.65A2.25,2.25,0,0,0,32,56.85v4.5H28v-4.5a2.2,2.2,0,0,0-.68-1.59,2.13,2.13,0,0,0-1.57-.67H25v2.65h.5V56.15h.29a.65.65,0,0,1,.5.2.7.7,0,0,1,.2.5l0,11.47a.76.76,0,0,1-.2.51.64.64,0,0,1-.5.21h-.28V68H25V70.6h.82a2.12,2.12,0,0,0,1.57-.68,2.19,2.19,0,0,0,.65-1.6V62.91h4V68.3a2.24,2.24,0,0,0,.66,1.62,2.09,2.09,0,0,0,1.58.66Z"/><polygon class="cls-2" points="38.57 70.58 36.29 70.58 36.28 55.08 35.49 55.08 35.49 54.58 37.79 54.57 37.81 70.08 38.57 70.08 38.57 70.58"/><path class="cls-2" d="M51.29,70.56V69h-.69a.63.63,0,0,1-.49-.2.67.67,0,0,1-.22-.5l0-10.95a2.71,2.71,0,0,0-.8-2,2.62,2.62,0,0,0-1.92-.82,2.54,2.54,0,0,0-1.93.85,2.68,2.68,0,0,0-2-.84,2.52,2.52,0,0,0-1.9.82,2.76,2.76,0,0,0-.79,2l0,11a.7.7,0,0,1-.21.5.72.72,0,0,1-.51.2h-.69v1.56h.69a2.16,2.16,0,0,0,1.58-.66,2.22,2.22,0,0,0,.65-1.6l0-11a1.17,1.17,0,0,1,.36-.85,1.12,1.12,0,0,1,.82-.37,1.26,1.26,0,0,1,.87.35,1.24,1.24,0,0,1,.36.87v10h-1v.48H47v-.48H46v-10a1.23,1.23,0,0,1,.34-.86,1.09,1.09,0,0,1,.84-.36,1.12,1.12,0,0,1,.86.35,1.13,1.13,0,0,1,.34.86l0,10.95A2.13,2.13,0,0,0,49,69.91a2.08,2.08,0,0,0,1.56.65Z"/><path class="cls-2" d="M18.37,69.06a5.18,5.18,0,0,1-.91,0,.63.63,0,0,1-.46-.69V56.16h-.64a3.3,3.3,0,0,0-2.9-1.55,3.35,3.35,0,0,0-2.92,1.56H9.9l0,12.17a.8.8,0,0,1-.21.52.68.68,0,0,1-.49.21H8.54v1.56h.68A2.12,2.12,0,0,0,10.79,70a2.24,2.24,0,0,0,.64-1.62V63h4v5.4a2.15,2.15,0,0,0,.65,1.6,2.05,2.05,0,0,0,1.56.68h.7Zm-6.94-7.67,0-3.2a2,2,0,0,1,2-2,2,2,0,0,1,1.39.56,1.75,1.75,0,0,1,.61,1.35v3.31Z"/><path class="cls-2" d="M61.73,69a5.71,5.71,0,0,1-.89,0,.64.64,0,0,1-.48-.7l0-12.16h-.62a3.29,3.29,0,0,0-2.91-1.55,3.33,3.33,0,0,0-2.93,1.56h-.63V68.27a.76.76,0,0,1-.19.52.65.65,0,0,1-.5.21h-.66v1.56h.67a2,2,0,0,0,1.56-.68,2.22,2.22,0,0,0,.64-1.61V62.89h4v5.39a2.15,2.15,0,0,0,.65,1.6,2,2,0,0,0,1.56.68h.7Zm-7-7.67V58.13a1.94,1.94,0,0,1,.61-1.43,2,2,0,0,1,1.43-.6,2,2,0,0,1,1.4.57A1.74,1.74,0,0,1,58.8,58l0,3.3Z"/></svg>