<svg id="Layer_1" data-name="Layer 1" xmlns="http://www.w3.org/2000/svg" xmlns:xlink="http://www.w3.org/1999/xlink" viewBox="0 0 84.31 87"><defs><style>.cls-1{fill:none;}.cls-2{fill:#231f20;}.cls-3,.cls-7{fill:#fff;}.cls-3,.cls-4{opacity:0.4;}.cls-4,.cls-5{fill:#be2026;}.cls-6{clip-path:url(#clip-path);}</style><clipPath id="clip-path"><path class="cls-1" d="M40.72,3c-1,0-1.95,0-2.93.14A31.57,31.57,0,1,0,40.73,3Z"/></clipPath></defs><path class="cls-2" d="M14,75.54c0-.67,0-1.34,0-2a1.46,1.46,0,0,0-1.64-1.37,4.11,4.11,0,0,0-1,.15.4.4,0,0,0-.26.25.41.41,0,0,0,0,.29,8.45,8.45,0,0,1,.13,1.52c0,.65.06,1.6.07,2.64-.7,0-1.69.05-2.62.05-.65,0-1.49,0-2.13,0,0-1.45,0-2.91,0-3.49A1.45,1.45,0,0,0,5,72.14a4.11,4.11,0,0,0-1,.15.42.42,0,0,0-.26.23.37.37,0,0,0,0,.29,11.78,11.78,0,0,1,.13,1.55c0,.75.09,4,.09,5a27.66,27.66,0,0,1-.16,4.18.41.41,0,0,0,0,.36.38.38,0,0,0,.29.2l.34.06a3.39,3.39,0,0,0,.77.1,1.31,1.31,0,0,0,1.42-1.46c0-.53,0-1,0-1.53s0-.9,0-1.32V78.74c.69,0,1.62,0,2.48,0,.67,0,1.57,0,2.29,0,0,.56,0,1.11,0,1.65,0,.77,0,1.5,0,2.15,0,.42,0,1.7,1.41,1.7a4,4,0,0,0,.81-.09l.33-.07a.38.38,0,0,0,.27-.16.42.42,0,0,0,.06-.31c-.13-.62-.2-4-.2-6.13,0-.65,0-1.29,0-1.94"/><path class="cls-2" d="M26.13,72.14a4.19,4.19,0,0,0-.82.15.4.4,0,0,0-.28.42c.17,1.84.17,4,.17,6.31s-.92,3.56-2.51,3.56S20.16,81.29,20.16,79c0-.69,0-1.86,0-3s0-2,0-2.53a1.45,1.45,0,0,0-1.64-1.37,5.21,5.21,0,0,0-1,.15.39.39,0,0,0-.3.38.76.76,0,0,0,0,.14c.15.88.18,3.8.18,6.1,0,3.49,1.71,5.41,4.83,5.41,2.15,0,4.71-.95,4.71-5.5,0-.65,0-1.64.07-2.6s.06-2,.06-2.71,0-1.37-1-1.37"/><path class="cls-2" d="M38.69,72.21a.39.39,0,0,0-.3-.07,9.44,9.44,0,0,1-1.64.15c-1.57,0-6.81-.08-6.87-.08s-.75.08-.75,1.08a4.61,4.61,0,0,0,.05.68.39.39,0,0,0,.15.26.39.39,0,0,0,.3.08,11.93,11.93,0,0,1,1.76-.14h1.26v.19c.05,1.08.08,2.33.08,3.54v4.87a1.31,1.31,0,0,0,1.42,1.46,3.39,3.39,0,0,0,.77-.1l.34-.06a.4.4,0,0,0,.34-.44,47.49,47.49,0,0,1-.27-6.16c0-.72,0-1.42,0-2.14l0-1.13,2.82,0c.33,0,.7-.24.7-.91a7.54,7.54,0,0,0-.06-.85.39.39,0,0,0-.17-.26"/><path class="cls-2" d="M49.19,78c0,2.32-1,4.67-3,4.67-2.15,0-3.27-2.3-3.27-4.58s1-4.36,3-4.36c2.15,0,3.28,2.14,3.28,4.27m-3-5.93a6,6,0,0,0-6.09,6.4,5.62,5.62,0,0,0,5.87,5.86c2.93,0,6.08-2.1,6.08-6.71a5.46,5.46,0,0,0-5.86-5.55"/><path class="cls-2" d="M64.39,79.62c0-1.31,0-2.42,0-3.5s0-1.8,0-2.69c0-.45,0-1.3-1.12-1.3a1.8,1.8,0,0,0-.77.19.41.41,0,0,0-.19.24.36.36,0,0,0,0,.25,11.78,11.78,0,0,1,.13,1.55c0,.85.06,2.21.07,3.52,0,.6,0,1.17,0,1.67q-.34-.45-.9-1.11l-3-3.68A25,25,0,0,1,57,72.61a1.32,1.32,0,0,0-1.15-.44,3.17,3.17,0,0,0-.93.14.4.4,0,0,0-.25.24.45.45,0,0,0,0,.28,12.67,12.67,0,0,1,.14,1.53c0,.76.09,4.07.09,5a20.84,20.84,0,0,1-.2,4.18.34.34,0,0,0,0,.28.39.39,0,0,0,.21.24,2.44,2.44,0,0,0,.85.19c1,0,1-.71,1-1.47,0-1.31,0-2.57-.07-3.8,0-.81-.05-1.59-.06-2.38l.84,1,3.11,3.72a22.57,22.57,0,0,1,1.7,2.23,1.32,1.32,0,0,0,1.08.6,3.32,3.32,0,0,0,.87-.11.38.38,0,0,0,.28-.47,35.76,35.76,0,0,1-.13-4"/><path class="cls-2" d="M77.67,79.6c0-.44-.17-1.46-1.77-1.46a2.62,2.62,0,0,0-.88.1.41.41,0,0,0-.25.32.43.43,0,0,0,.11.33A11.75,11.75,0,0,1,75,81.22c0,.37,0,.8,0,1.15a5.61,5.61,0,0,1-1.34.15c-2.37,0-3.61-2.38-3.61-4.72,0-2.79,1.52-4,3-4A3.6,3.6,0,0,1,76,75.5a.42.42,0,0,0,.34.18h.09a.43.43,0,0,0,.3-.13,3.07,3.07,0,0,0,.73-1.6c0-1.43-2.72-1.89-4-1.89a6.14,6.14,0,0,0-6.1,6.46,5.58,5.58,0,0,0,6,5.8c.35,0,.89,0,1.46-.1s1.35-.12,1.86-.12a2.91,2.91,0,0,1,.46,0,.39.39,0,0,0,.35-.11l.08-.08a.38.38,0,0,0,.12-.29s0-.81,0-1.29,0-.9.05-1.36,0-1,0-1.41"/><path class="cls-3" d="M42.91,7.15h.38l-.31,0h-.22l.15,0"/><path class="cls-4" d="M38.27,7.3a8.43,8.43,0,0,0-1.37,0l-.24.05h.79c.57,0,.86,0,.82-.1"/><path class="cls-3" d="M36.66,7.4h-.33l.23,0h.1"/><path class="cls-4" d="M43.91,32.85h-1v1.08h1Zm0,3V34.7h-1c0,.59,0,1,0,1.15Zm-5,2.09h1.26V36.32H38.93Zm1.26.91H38.93v.35H37.82V35.45H39V34.26H37.63v-.93H39V31.91h1.13v1.42h1.21v.93H40.15v1.19h1.12v3.26a7,7,0,0,0,.4-1.52,10.71,10.71,0,0,0,.13-1.67V32H45v6.43a.71.71,0,0,1-.26.53.91.91,0,0,1-.63.22h-1l-.14-1h.68a.21.21,0,0,0,.16-.07.17.17,0,0,0,.07-.13V36.61H42.82a7.24,7.24,0,0,1-.72,2.68l-.83-.38v.21H40.19Z"/><path class="cls-5" d="M40.5,47.82h1.63v-1H40.5Zm0,.9V49H39.39V45.89h3.85v2.83Zm3-3.36H39.07v-.92h4.47ZM45,49.28a.78.78,0,0,1-.3.62,1.08,1.08,0,0,1-.71.25H42.78l-.13-1h.92a.27.27,0,0,0,.17-.06.23.23,0,0,0,.08-.16v-5h-5v6.35H37.66V43H45Z"/><path class="cls-5" d="M25.63,62.49a31.52,31.52,0,0,1-9.38-7.89,31,31,0,0,1-5.62-10.9,1.69,1.69,0,0,0-.18-.48s0,.2.08.45a31,31,0,0,0,5.6,10.92,31.51,31.51,0,0,0,9.37,7.93,1.88,1.88,0,0,0,.49.22s-.13-.13-.36-.25"/><path class="cls-5" d="M22.68,12.67c.13-.09.36-.26.5-.38s.08-.12-.05,0a3,3,0,0,0-.5.38c-.13.13-.1.15.05,0"/><path class="cls-5" d="M49.82,7.89l.35.22h0l-.48-.3.14.08M66.46,18.14c.15.25.29.49.42.75s.34.74.49,1.12a1.09,1.09,0,0,0-.08-.15c-.26-.47-.51-.95-.78-1.42a2.39,2.39,0,0,1,.13.28,31.36,31.36,0,0,0-3.71-5,28.2,28.2,0,0,0-7.31-6c.84.41,1.63.84,2.36,1.25a33.07,33.07,0,0,1,8.48,9.17m-7-6.17a30.39,30.39,0,0,1,4.46,4.84l-.49-.59c-.17-.18-.47-.57-.36-.32a27.65,27.65,0,0,0-4.42-4.36l-.94-.71-1-.62a17.15,17.15,0,0,0-2.28-1.78,32.87,32.87,0,0,1,5,3.54m-18-6.54.4.08-.4-.08m30.25,28a33.68,33.68,0,0,0-1.4-8.15c0,.13,0,.28-.05.4-.12-.48-.23-.86-.33-1.26,0-.2-.11-.4-.17-.62s-.15-.44-.25-.7c.08.31.16.58.22.89a.14.14,0,0,0,0-.06,18.94,18.94,0,0,0-.64-1.81c-.27-.63-.56-1.3-.91-1.94a26.24,26.24,0,0,0-2.63-4.63,28.82,28.82,0,0,0-4-4.51l-.32-.29a13.72,13.72,0,0,0-1.79-1.59c-.32-.27-.72-.55-.95-.75a25.55,25.55,0,0,0-3.71-2.57c-.36-.2-.72-.42-1.1-.6l-1.17-.58-1.23-.52C50.9,4,50.47,3.84,50,3.68l1,.41,1,.45c-.5-.21-1-.42-1.5-.6s-1-.37-1.63-.52l.37.2a23.19,23.19,0,0,0-5.94-1.23,20.6,20.6,0,0,0-5.21.24c-1.25.27-1.62.51-1.25.66a18.17,18.17,0,0,0,3.27.28l.43,0a14.88,14.88,0,0,0-4.14.6c-.45.17,0,.25.09.35-.06.11.26.12.82.15.28,0,.62,0,1,0h1.27l1.44,0a30.26,30.26,0,0,1,6.2,1,8.18,8.18,0,0,0,1.08.25c.19,0,0-.09-.37-.21a30.65,30.65,0,0,0-4.25-1h-.34l.18,0-.42-.07h.34l.31,0h.61a27.61,27.61,0,0,1,7.26,2.17c.13,0-.12,0,.11.16l.35.2c-.39-.19-.81-.36-1.26-.54l-.61-.19-.52-.14-.81-.2-1-.2h0l-.14,0c-.21-.05-.4-.09-.68-.13,0,0,0,0,0,0l-.17,0-.79-.18a3.94,3.94,0,0,0-.75-.11l-.35-.11c-.39-.08-.67-.13-.92-.16L43.52,5c-.39-.06-.79-.09-1.59-.16,0,0,0,0,.06,0H40.77l-.71,0-1.39,0L39.4,5l-.64,0,.17.08-.29-.09h0L38.37,5,37.1,4.9l-.9.16-.27.08s0,0-.49.19c0,0,0,0,.05,0s.16,0,.21.09.17,0,.42,0,.3,0,1.18-.08l-.21.06c-.15.17-.14.17,1,.43l.42,0L39.63,6c.57,0,.85,0,1.15,0s.63,0,1.28.08l.76.08c.36.09.44.12.7.2h0a5.64,5.64,0,0,0-.69,0c-.58,0-.66.09-.18.18-.66.2-.28.42.48.7-.21,0-.32.1-.34.17a27.31,27.31,0,0,0-7,.26A27.63,27.63,0,0,0,24.76,12h0c.23-.17.44-.32.61-.46.34-.27.56-.47.56-.55s-.27,0-.63.17a13.2,13.2,0,0,0-1.37.82c.16-.13.33-.24.49-.36s.28-.23.22-.22a2.68,2.68,0,0,0-.47.28c-.3.22-.58.46-.87.69s-.56.47-.83.71a27.79,27.79,0,0,0-6.56,7.56A28.32,28.32,0,0,0,12.45,30,28,28,0,0,1,23.71,11.75c-.11.1-.11.13.05,0s.39-.26.51-.36.1-.12-.05,0h0a27.84,27.84,0,0,1,11-4.51c.23,0,.43-.1.42-.13a1.67,1.67,0,0,0-.48,0,28.06,28.06,0,0,0-16.84,9.86,29.1,29.1,0,0,0-2.77,4.06,28.73,28.73,0,0,0-2,4.46,29.34,29.34,0,0,0-1.2,4.69A27.59,27.59,0,0,0,12,34.66c0,.69,0,1.39.05,2.09h0a4.82,4.82,0,0,0-.16,1.33,29.35,29.35,0,0,1,0-6.82,28.83,28.83,0,0,1,1.63-6.63,28.79,28.79,0,0,1,6.15-9.54c.4-.39.69-.74.66-.8s-.39.24-.8.65-.64.69-1,1l-.91,1.08c.44-.64.69-1.1.63-1.21s-.37.12-.86.58A30.56,30.56,0,0,1,27,8.31c.21-.11.32-.19.23-.17a2,2,0,0,0-.53.23,29.84,29.84,0,0,0-12.5,12.5c-.31.5-.57,1-.84,1.55s-.51,1-.75,1.59a28.67,28.67,0,0,0-1.21,3.33,30.74,30.74,0,0,0-.81,3.53,28.72,28.72,0,0,0-.33,3.75,28.31,28.31,0,0,0,1.82,10.7,29.23,29.23,0,0,0,5.4,9,29.85,29.85,0,0,0,5.43,5.11c-.31-.16-.51-.24-.55-.18s0,0,0,.07a31.53,31.53,0,0,1-4.87-4.53,31.86,31.86,0,0,1-2.34-3.1c-.37-.53-.69-1.1-1-1.65-.16-.28-.31-.56-.46-.85s-.31-.56-.44-.85a30.38,30.38,0,0,1-2.5-7.23,30.89,30.89,0,0,1-.65-7.55c0-.63.05-1.26.13-1.89,0-.31.06-.62.1-.94l.14-.93c0-.31.11-.62.17-.93l.19-.93.23-.91a9.41,9.41,0,0,1,.25-.91,30.25,30.25,0,0,1,3-6.91,33,33,0,0,1,2.1-3.14,33.52,33.52,0,0,1,2.48-2.85A30.61,30.61,0,0,1,31.76,5.36l.45-.14.41-.13c.26-.07.48-.15.67-.21.35-.14.54-.24.45-.28a2.46,2.46,0,0,0-.92.06c-.25,0-.52.09-.82.16l-.92.27c-.6.16-1.18.39-1.76.59s-1.14.47-1.7.7a33,33,0,0,0-3.23,1.7,30,30,0,0,0-5.66,4.41,30.91,30.91,0,0,0-7.57,12.23,30.77,30.77,0,0,0-1.21,5,29.78,29.78,0,0,0-.37,5A31.16,31.16,0,0,0,26.51,62.24l1,.54,1.1.48c.37.16.75.28,1.13.43l.56.2.58.18c.74.26,1.5.45,2.26.66s1.53.35,2.3.46a28.91,28.91,0,0,0,4.64.43,31.12,31.12,0,0,0,4.63-.28,30.26,30.26,0,0,0,4.52-1,31.3,31.3,0,0,1-21.64-1c-.49-.2-.82-.33-.79-.26a3.27,3.27,0,0,0,1,.53l.89.37.9.33.46.17.46.14.92.29a32.51,32.51,0,0,0,3.77.83,33.06,33.06,0,0,0,3.84.38A33.12,33.12,0,0,0,42.92,66a31.77,31.77,0,0,0,7.51-1.62A30.89,30.89,0,0,0,57.31,61a20.82,20.82,0,0,0,5.07-3.45,26.13,26.13,0,0,0,2.77-2.87c.42-.53.86-1.07,1.25-1.64.19-.28.4-.56.58-.84s.36-.59.54-.87a25.77,25.77,0,0,0,2.37-5.18c-.16.4-.32.8-.5,1.19s-.34.78-.55,1.16c.28-.58.5-1.15.72-1.71s.4-1.11.55-1.65a25.89,25.89,0,0,0,.73-3.21c0-.18.09-.36.14-.55a27.76,27.76,0,0,0,.79-7.9"/><g class="cls-6"><path class="cls-7" d="M48.19,30.7c.65.54,1.26,1,1.85,1.53,6.5,5.51,8.49,12.9,6.14,21.06-1.68,5.82-5.85,9-11,11.18-4.42,1.92-9,2.26-13.42,0a41.79,41.79,0,0,1-4.46-3,15,15,0,0,0,8.09,6.31,16.85,16.85,0,0,0,12.13-1,26.36,26.36,0,0,0,10.07-7.67,12.55,12.55,0,0,0,3.08-9.06c-.25-3.69-.49-7.34-2.06-10.76-2-4.45-5.62-7.13-10.14-8.71,0,0-.13,0-.31.1"/><path class="cls-7" d="M52.6,39.67c.19,2.12.54,4.29.52,6.46a11.71,11.71,0,0,1-.88,4.33c-2.7,6.48-7.72,9.84-14.64,10.34a19.22,19.22,0,0,1-5.51-.35c-3.46-.76-5.16-3.37-4.7-6.89a35.13,35.13,0,0,1,.87-3.64C25,53.85,25.32,60,30.86,62.47a18.63,18.63,0,0,0,12,.73,13.12,13.12,0,0,0,8.35-5.5c3.69-5.43,4.49-11.18,1.85-17.3-.09-.19-.18-.39-.29-.58a.66.66,0,0,0-.15-.15"/><path class="cls-7" d="M56.22,65.33a6.07,6.07,0,0,0,3.55-1.66c4.93-4,6.32-8.69,5.73-14.79a17.18,17.18,0,0,0-5.78-11.52,1.53,1.53,0,0,0-.55-.32c7.08,10.21,5.77,19.56-3,28.29"/><path class="cls-7" d="M41.45,57.46c-1.76-.06-3.23,0-4.69-.17a8.41,8.41,0,0,1-4.69-1.89,3.1,3.1,0,0,1-1.23-3.19,21.05,21.05,0,0,1,1.49-3.81c.28-.61.81-1.11,1.15-1.72-2.18,1.44-4,3.17-4.63,5.84a5.34,5.34,0,0,0,3.93,6.19c3,.84,5.7-.16,8.67-1.25"/><path class="cls-7" d="M30.08,29.25s-1.79-.67-1.47-1.26a3.5,3.5,0,0,1,3.32-1.74,15.52,15.52,0,0,1,4.6.29c1.86.42,4.64,1.17,4.39-.2-.08-.49,0-.83,1.24-.59s6.78.87,11.31,3.27,12.19,6.79,14.21,21.41c0,0,2.23-8.94-4.37-18.27S48.07,21.29,39.72,20.09c-1-.14-1.72-.09-.68-.8S43.4,17.55,49,19c.75.23,4.19-.56,5.82-2.24.33-.36-.31-1.69-1.64-.77s-2.72,1.64-4.46,1.2c-.35-.16-.18-.75-.12-1s0-.6-.88-.2a8.34,8.34,0,0,1-4.46.61c-2-.26-3.43-.71-4.5-.82a12.59,12.59,0,0,0-6.22.66c-3,1.09-3.62,2.18-3.58,3.35,0,0,.37,1.37,1.85.45,0,0,1.41,1.24,2.55.37.43-.38.07-1-.18-.86s-.87.12-.61-.23.63-.67,1.12-.1.79,1.92-.91,2.06c-.51.06-.71-.2-1.14-.27s-.08-.15-.86,0-1.07.44-1.52.17-.69-1-1.32-.72-1,.6-1.48.75-.68-.08-1.26-.18-.71-.34-1.22-.18a2.8,2.8,0,0,1-1.06.23c-.28,0-.56-.31-.19-.37s.49-.26.93-.16A5.79,5.79,0,0,0,26,20.6a5.58,5.58,0,0,0,2.13-1.5c.37-.61,1.31-2.26,2.28-2.54s4.93-1,4.7-2c-.14-.45-.48,0-.63.09s.11.18-.63.4a25.74,25.74,0,0,0-4,1.12c-.37.33-.91.81-1.49,1.4a16,16,0,0,0-1.6,1.82c-.13.28.09.22-.76.43a6.21,6.21,0,0,1-2.17.47c-.91-.05-.93.16-1.8-.14S20.4,19.66,20,20a2.54,2.54,0,0,0-.73,3.37c.28.42,1.72.06,2.69,1V24a.69.69,0,0,1,.53-.24,16,16,0,0,0,1.8.42,22.25,22.25,0,0,0,3.26-.42c.8-.13,2.6-.43,2.7-.18s.13.52-1.63.85-2,.72-2.57.53-.53-.59-2.49-.21c-.82.16-.72.56-.26.48a7.72,7.72,0,0,1,1.63.25c.6.06,1.42,0,1.72.1s0,.24-.85.35-.52,0-1.64.12-1.35-.15-1.78.2a1.24,1.24,0,0,0-.23,2c.93.95,1.78,1.46,2.65,1.32,0,0-.56-.87-.34-1.1s5.22,1.44,5.61.71"/><path class="cls-7" d="M53.88,19.57s-1.73,0-3.54,0a43.83,43.83,0,0,1-4.47-.42c-1.36-.15-4.08-1.07-5.12.08-.41.42.4.49,1,.56s4.1.72,5.35,1,5.78,1.35,8.44,3.15,5.61,3.47,8.05,7a59.65,59.65,0,0,1,4.86,8.13c.64,1.51.57.62.33-.6a16.11,16.11,0,0,0-1.63-5.35c-1.27-2.47-4.87-7.06-7.65-8.76-.84-.45-.87-1,0-.66s3.78,1.84,4.35,2.15.77.47.77.47,1.49.57-.27-1.11A11.88,11.88,0,0,0,59,22.06c-2.13-.62-3.06-.73-3.4-.86s-1.3-.47-.19-.47,3,.16,3.31.19,1.09-.24-1.35-.85a11.47,11.47,0,0,0-3.46-.5"/></g><path class="cls-7" d="M43.29,33.07h-1v1.07h1Zm0,3V34.91h-1v1.15Zm-5,2.09h1.26V36.54H38.3Zm1.26.91H38.3v.36H37.2V35.67h1.19v-1.2H37v-.92h1.39V32.12h1.13v1.43h1.21v.92H39.52v1.2h1.12v3.25A6.86,6.86,0,0,0,41,37.4a10.59,10.59,0,0,0,.13-1.66V32.22h3.2v6.43a.69.69,0,0,1-.26.52.91.91,0,0,1-.62.23h-1l-.15-1h.69a.24.24,0,0,0,.15-.06.19.19,0,0,0,.08-.14V36.82H42.2a7.43,7.43,0,0,1-.73,2.68l-.83-.38v.21H39.56Z"/><path class="cls-7" d="M39.87,48H41.5V47H39.87Zm0,.91v.31H38.76V46.1h3.85v2.84Zm3.05-3.37H38.44v-.92h4.48Zm1.42,3.92a.78.78,0,0,1-.29.62,1.07,1.07,0,0,1-.72.25H42.15l-.13-1h.92a.23.23,0,0,0,.17-.07.22.22,0,0,0,.08-.15v-5h-5v6.34H37V43.22h7.3Z"/></svg>