<svg id="Layer_1" data-name="Layer 1" xmlns="http://www.w3.org/2000/svg" viewBox="0 0 113.94 87"><defs><style>.cls-1{fill:#f26200;}</style></defs><path class="cls-1" d="M2.74,35.73a3.85,3.85,0,0,1,0-5.49,3.82,3.82,0,0,1,2.79-1.13,3.9,3.9,0,0,1,2.83,1.13,3.87,3.87,0,0,1,0,5.49,3.87,3.87,0,0,1-2.83,1.14A3.79,3.79,0,0,1,2.74,35.73ZM2,41.21H9.1V71.45H2Z"/><path class="cls-1" d="M43.93,36.8A12.34,12.34,0,0,0,39,32a15,15,0,0,0-7.31-1.71H15.83V71.45h7.36V57.84h8.5A14.93,14.93,0,0,0,39,56.11a12.36,12.36,0,0,0,4.93-4.82,14.23,14.23,0,0,0,1.76-7.2V44A14.32,14.32,0,0,0,43.93,36.8Zm-5.71,7.32A7.47,7.47,0,0,1,36,49.87a8.74,8.74,0,0,1-6.18,2H23.19V36.28h6.67a8.73,8.73,0,0,1,6.18,2,7.45,7.45,0,0,1,2.18,5.76Z"/><path class="cls-1" d="M50.55,30.28h7.1v16h.14a9.15,9.15,0,0,1,3.58-4.23,10.76,10.76,0,0,1,5.75-1.48,10.49,10.49,0,0,1,5.68,1.5,9.94,9.94,0,0,1,3.7,4.19,14.29,14.29,0,0,1,1.32,6.35V71.45H70.71V54A8.22,8.22,0,0,0,69,48.55a5.87,5.87,0,0,0-4.73-2,6.25,6.25,0,0,0-5.82,3.58A8.48,8.48,0,0,0,57.65,54V71.45h-7.1Z"/><path class="cls-1" d="M99.71,28.16a7.27,7.27,0,0,0-4.78-1.56,10.16,10.16,0,0,0-1.78.16,8.68,8.68,0,0,0-1.49.39v4.62c.26-.06.54-.1.83-.14a7.16,7.16,0,0,1,1-.06,4,4,0,0,1,2.49.68,2.22,2.22,0,0,1,.9,1.86,3.27,3.27,0,0,1-.64,2,8.7,8.7,0,0,1-1.67,1.73h4.39a7.54,7.54,0,0,0,2-2.3,6.14,6.14,0,0,0,.73-3A5.28,5.28,0,0,0,99.71,28.16Z"/><path class="cls-1" d="M109.71,47.88A13.11,13.11,0,0,0,105,42.72a10.08,10.08,0,0,0,1.32-.59,7,7,0,0,0,3.31-3.43A15.24,15.24,0,0,0,110.68,33H105a12.14,12.14,0,0,1-.67,4.3A4.18,4.18,0,0,1,102,39.61a16.11,16.11,0,0,1-5,1h0a15.07,15.07,0,0,0-7.67,1.89,13.08,13.08,0,0,0-5.11,5.43,17.94,17.94,0,0,0-1.82,8.37v.06a18.14,18.14,0,0,0,1.81,8.4,13,13,0,0,0,5.09,5.42,16.79,16.79,0,0,0,15.46,0,12.72,12.72,0,0,0,5.09-5.4,18.21,18.21,0,0,0,1.82-8.43v-.06A18.07,18.07,0,0,0,109.71,47.88Zm-5.42,8.45a14.46,14.46,0,0,1-.9,5.4,7.46,7.46,0,0,1-2.55,3.41,7.14,7.14,0,0,1-7.83,0,7.54,7.54,0,0,1-2.6-3.41,14.05,14.05,0,0,1-.92-5.4v-.06a13.87,13.87,0,0,1,.92-5.36A7.43,7.43,0,0,1,93,47.52a6.49,6.49,0,0,1,3.86-1.18,6.62,6.62,0,0,1,3.93,1.18,7.46,7.46,0,0,1,2.58,3.39,14.27,14.27,0,0,1,.91,5.36Z"/><polygon class="cls-1" points="112.08 19.99 112.08 21.45 20.66 22.18 20.66 22.23 1.6 22.33 1.59 19.27 20.27 19.39 20.67 19.39 112.08 19.99"/><polygon class="cls-1" points="112.09 17.04 112.09 18.5 21.25 16.93 21.25 16.99 1.61 16.59 1.59 13.55 20.32 14.12 21.26 14.15 112.09 17.04"/><polygon class="cls-1" points="23.17 14.14 23.17 14.15 22.16 14.12 23.17 14.14"/></svg>