<svg id="Layer_1" data-name="Layer 1" xmlns="http://www.w3.org/2000/svg" viewBox="0 0 174.4 87"><defs><style>.cls-1{fill:#e71e25;}.cls-2{fill:#fff;}</style></defs><rect class="cls-1" x="2.29" y="16.79" width="53.56" height="53.56" rx="4.43"/><path class="cls-2" d="M49.73,37c-.25-.74-.74-1.84-.88-2.17A40.67,40.67,0,0,0,43.73,26a16.41,16.41,0,0,0-9.59-6.08c-4.87-1.09-9.85.29-11.64.8s-6.76,1.95-10.33,5.44a16.43,16.43,0,0,0-5,10.23,40.74,40.74,0,0,0,.27,10.23c0,.36.22,1.55.39,2.31A24.92,24.92,0,0,0,13,59.43s6.27,7.41,15.46,8.45a18.94,18.94,0,0,0,7.21-.9,19.32,19.32,0,0,0,6.62-3.06C49.52,58.19,51,48.62,51,48.57A25.21,25.21,0,0,0,49.73,37"/><path class="cls-1" d="M34.51,22.84c-2.65.75-7.82,2.66-10.47,3.41s-8,1.85-10.7,2.6c-4.91,1.4-4.75,11.4-2.77,18.41,1.59,5.58,8.67,3.57,11.08,2.89,3.37-1,3.7-1.39,8.41-2.73s5.22-1.15,8.59-2.1c2.4-.69,9.49-2.7,7.9-8.28-2-7-7.13-15.58-12-14.2"/><path class="cls-2" d="M21.76,47.79a.22.22,0,0,0,0,.3c.41.64,2-.21,2.12-.31a4.87,4.87,0,0,1,2.24-.57A1.86,1.86,0,0,0,28,45.43l-3.49,1a2.48,2.48,0,0,1-1.92,1.32c-.35,0-.65-.08-.79,0"/><path class="cls-2" d="M17.12,39.53a3.83,3.83,0,1,1,5.34,1h0a3.83,3.83,0,0,1-5.32-1"/><path class="cls-1" d="M17.84,38.77a3.1,3.1,0,1,1,4.32.8,3.09,3.09,0,0,1-4.32-.8h0"/><path class="cls-2" d="M22.06,29.88s0,1.12-2.08,1c0,0,.89.45,1.16.64C22.9,32.66,22.73,33,22.38,33s-.77-.23-1.86-.85c-3.26-1.86-6.1-2.56-7.68-1.12-2,1.75-.93,5.07,0,6.64.68,1.12.83.64.93-.07a5.74,5.74,0,0,1,2.85-4.1,0,0,0,0,0,0-.07l0,0c-1.32.18-2,.09-2.13-.3-.13-.59,2-1.11,3.78-.78,1.43.26,3.83,1.23,4.47.78.38-.28.54-.87-.64-3.24"/><path class="cls-2" d="M24.84,39.75a2.39,2.39,0,0,0-1.92,2.56.64.64,0,0,0,.1.26.49.49,0,0,0,.7.07l.07-.07a.8.8,0,0,0,.15-.47c.17-1,1.13-2.25,2.39-1.64a2.73,2.73,0,0,1,1.14,1.28,2.25,2.25,0,0,0-2.63-2"/><path class="cls-2" d="M19.39,43.73s0,0,0,0a0,0,0,0,0,0,0,2.25,2.25,0,0,0-2.85.14A2.12,2.12,0,0,0,16,46.05c.4,1.28,1.28,1.65,2,1.43A1.81,1.81,0,0,0,19.28,46a.86.86,0,0,1,.35-.48c-.56.16-.53.37-.89.63s-1.28.43-1.59-.72a1.28,1.28,0,0,1,.73-1.56,2.78,2.78,0,0,1,1.51-.18"/><path class="cls-2" d="M37.31,43.38a.23.23,0,0,1,.16.24c0,.74-1.78.85-2,.86a4.94,4.94,0,0,0-2.21.69,1.88,1.88,0,0,1-2.51-.54l3.5-1a2.48,2.48,0,0,0,2.32.12c.3-.14.51-.42.7-.38"/><path class="cls-2" d="M36.91,33.92a3.84,3.84,0,1,0-4,3.62h0a3.84,3.84,0,0,0,4-3.63"/><path class="cls-1" d="M35.89,33.64a3.1,3.1,0,1,0-3.25,3,3.11,3.11,0,0,0,3.25-3h0"/><path class="cls-2" d="M27.64,28.3s.55,1,2.27-.28a12,12,0,0,0-.64,1.14c-.89,1.92-.56,2.13-.26,2s.54-.6,1.14-1.7c1.79-3.3,3.83-5.36,5.94-5,2.62.45,3.47,3.83,3.49,5.65,0,1.28-.38.95-.82.43a5.76,5.76,0,0,0-4.58-2s-.06-.07,0-.09c1.22-.55,1.79-1,1.66-1.38-.19-.57-2.31.12-3.63,1.31-1.08,1-2.6,3.07-3.38,3-.51,0-1-.44-1.19-3.08"/><path class="cls-2" d="M30.46,38.15a2.39,2.39,0,0,1,3,1.19.48.48,0,0,1-.2.64.49.49,0,0,1-.44,0,.85.85,0,0,1-.38-.32c-.64-.74-2.13-1.33-2.88-.14a2.77,2.77,0,0,0-.31,1.69,2.28,2.28,0,0,1,1.22-3.06"/><path class="cls-2" d="M37.19,38.68a0,0,0,0,1-.06,0,0,0,0,0,1,0,0,2.27,2.27,0,0,1,2.51-1.38,2.12,2.12,0,0,1,1.68,1.61c.34,1.31-.2,2-1,2.27a1.82,1.82,0,0,1-1.88-.54.9.9,0,0,0-.55-.22c.56-.16.64,0,1.1.08s1.28-.3,1-1.45a1.29,1.29,0,0,0-1.44-.94,2.78,2.78,0,0,0-1.36.62"/><path class="cls-2" d="M39.07,33.13a14,14,0,0,0-2.32,3.3.15.15,0,0,0,0,.2.14.14,0,0,0,.18,0c1.13-1.15,3.25-2.55,4.43-.2,1.37,2.78,1.46,4,.35,5.16a3.29,3.29,0,0,1-3.88-.11,3.93,3.93,0,0,0-3.15-.63c-.64.16-4.64,1.7-6,2.07s-5.55,1.19-6.16,1.37a3.94,3.94,0,0,0-2.34,2.22A3.32,3.32,0,0,1,17,48.62c-1.55-.41-2.11-1.49-2.4-4.57-.25-2.64,2.31-2.56,3.87-2.16a.16.16,0,0,0,.19-.09.15.15,0,0,0-.09-.18A13.55,13.55,0,0,0,14.87,40c-4-1.09-3.65,4.59-2,7.25,1.92,3.19,5.32,1.66,5.61,1.54a10.37,10.37,0,0,0,2.24-1.54c3.29-2.77,4.39-2.15,8.38-3.36s4.63-2.17,8.87-1.54a11.35,11.35,0,0,0,2.73.13c.3,0,4-.57,4-4.27,0-3.12-2.69-8.14-5.54-5.11"/><path class="cls-1" d="M44.25,45.75h-.07c-.4.23-1.12.64-1.59.88a.11.11,0,0,0,0,.15s0,0,0,0c4.63,2.41,1.92,10.16,1,12.5a.1.1,0,0,0,0,.14.11.11,0,0,0,.14,0c4.15-5.4,4.52-12.85.49-13.66"/><path class="cls-1" d="M41,47.49h-.07c-.23.09-1.45.56-2,.82a.12.12,0,0,0,0,.17.08.08,0,0,0,0,.05c4.6,2.64,2.16,10.67,1.28,13.26a.13.13,0,0,0,.22.12c4-5.67,4.65-13.48.61-14.42"/><path class="cls-1" d="M45.7,44.76a.1.1,0,0,0,0,.14s0,0,.06,0a3.22,3.22,0,0,1,2.56,3.29.1.1,0,0,0,.11.09.12.12,0,0,0,.08,0,3.09,3.09,0,0,0,.1-3.31,2.19,2.19,0,0,0-2.88-.21"/><path class="cls-1" d="M17,53.48h.07c.46,0,1.28,0,1.8-.09a.12.12,0,0,1,.12.09.14.14,0,0,1,0,.07C16.32,58,22.7,63.2,24.74,64.7a.1.1,0,0,1-.1.18C18.25,62.44,14,56.29,17,53.48"/><path class="cls-1" d="M20.72,53.25l.06,0c.25,0,1.53-.28,2.17-.37a.12.12,0,0,1,.14.11.15.15,0,0,1,0,.07C20.52,57.69,26.84,63.25,29,65a.13.13,0,0,1,0,.18.12.12,0,0,1-.14,0c-6.41-2.71-11.09-9-8.14-11.92"/><path class="cls-1" d="M15.27,53.42a.1.1,0,0,1,.1.09.1.1,0,0,1,0,.09,3.19,3.19,0,0,0-.43,4.13.11.11,0,0,1-.05.14.07.07,0,0,1-.09,0,3.06,3.06,0,0,1-1.82-2.76c.18-1.5,1.7-1.69,2.33-1.69"/><path class="cls-1" d="M40.74,64.87a3.11,3.11,0,0,0-1-.79,2.26,2.26,0,0,0,.38-.25,2,2,0,0,0,.45-.5,1.67,1.67,0,0,0,.21-.64c0-.14.12-1.12.16-1.58v-.23a1.65,1.65,0,0,0-.43-1.14,2.26,2.26,0,0,0-.84-.56,4.13,4.13,0,0,0-1.34-.29A3.08,3.08,0,0,0,36.51,58a1.86,1.86,0,0,0-.78.05,1.36,1.36,0,0,0-.94.95,1.54,1.54,0,0,0,0,.64l-2.56.87A1.78,1.78,0,0,0,32,60a3.16,3.16,0,0,0-.64-.77,4,4,0,0,0-.81-.56,3.47,3.47,0,0,0-1.07-.36,2.77,2.77,0,0,0-1.18,0,4.4,4.4,0,0,0-.85.33l-.55.29c-.21.12-.49.27-.73.42l-.3.18H25.3a2.36,2.36,0,0,0-.12-.28,2.84,2.84,0,0,0-.84-.92,2.23,2.23,0,0,0-1.27-.41H23a1.68,1.68,0,0,0-.86.27,1.45,1.45,0,0,0-1.22.67,1.3,1.3,0,0,0-.18.88h-.29a2.16,2.16,0,0,0-.6-.89,3.13,3.13,0,0,0-1.14-.67,1.84,1.84,0,0,0-1-.06,1.44,1.44,0,0,0-1.1,1.71,1.21,1.21,0,0,0,.11.32l.08.16-1,.64a1.4,1.4,0,0,0-.56,1.49,1.69,1.69,0,0,0,.64,1,2.6,2.6,0,0,0,.45.28l-.14.39c-.09.24-.2.47-.31.7v0a2.94,2.94,0,0,0-.29.71,2.16,2.16,0,0,0,0,1.1,2.3,2.3,0,0,0,.8,1.14,2.12,2.12,0,0,0,1.32.46,1.63,1.63,0,0,0,1.4-.77,3.36,3.36,0,0,0,1.18.51,3.17,3.17,0,0,0,.75.12H22.2a4.52,4.52,0,0,0,.74-.06,3.29,3.29,0,0,0,.88-.25A4.31,4.31,0,0,0,25,67.17a14.33,14.33,0,0,1,1.38.71,3.54,3.54,0,0,0,1,.29h.13a7.74,7.74,0,0,0,.83.07h.51l.47,0a6.56,6.56,0,0,0,.88-.19,6.65,6.65,0,0,1,1.84-.26,5.52,5.52,0,0,1,1.71.2,5.4,5.4,0,0,0,1.78.43h.07c.23,0,.47,0,.7,0a3.57,3.57,0,0,0,1.23-.41,2.21,2.21,0,0,0,.47-.33l.22.16a2.81,2.81,0,0,0,.77.35,2.5,2.5,0,0,0,.47.05h.07a1.89,1.89,0,0,0,.91-.3,1.82,1.82,0,0,0,.63-.72,1.93,1.93,0,0,0,.18-.88,2.24,2.24,0,0,0-.54-1.38"/><path class="cls-2" d="M20,64.5a1.93,1.93,0,0,1,.3-.27,1.45,1.45,0,0,1,.43-.26,3,3,0,0,1,.58-.18A3.4,3.4,0,0,1,22,63.7h.13a1.67,1.67,0,0,1,.44.11,1.51,1.51,0,0,0,.35.14.59.59,0,0,0,.23,0,.65.65,0,0,0,.2,0,1.11,1.11,0,0,0,.48-.35A.92.92,0,0,0,24,63a.24.24,0,0,0,0-.12,2,2,0,0,0-.09-.49,2.5,2.5,0,0,0-1-1.25,1.78,1.78,0,0,0-.89-.27h-.12a1.91,1.91,0,0,0-.33.06,2.5,2.5,0,0,0-.64.3,7.93,7.93,0,0,0-1.1.91l-.54.56-.19.22-.16.16v0c.06-.2.11-.4.17-.6a.19.19,0,0,1,.06-.07l.29-.21.52-.37a.7.7,0,0,0,.23-.28.47.47,0,0,0-.11-.64,1.26,1.26,0,0,0-.52-.25h-.08a.83.83,0,0,0-.05-.35,1.07,1.07,0,0,0-.31-.52,2,2,0,0,0-.75-.44.74.74,0,0,0-.25,0h-.15a.31.31,0,0,0-.25.35l0,.09a.71.71,0,0,0,.19.23,3.69,3.69,0,0,0,.34.25.09.09,0,0,1,.05.1,3.78,3.78,0,0,1-.08.6.2.2,0,0,1-.08.13l-.72.51-.57.41h0a.84.84,0,0,0-.2,0h-.12a.26.26,0,0,0-.19.32h0a.51.51,0,0,0,.21.32,1.38,1.38,0,0,0,.64.29,1.55,1.55,0,0,0,.31,0h.34v.1l-.55,1.59c-.12.3-.25.58-.39.86a2,2,0,0,0-.2.48,1,1,0,0,0,0,.49,1.17,1.17,0,0,0,.4.58,1.05,1.05,0,0,0,.64.22.46.46,0,0,0,.47-.34,1.64,1.64,0,0,0,.1-.38,8.48,8.48,0,0,1,.25-1l.25-.64a7.48,7.48,0,0,1,.64-1.22,5.71,5.71,0,0,1,.74-.9,8.07,8.07,0,0,1,.8-.75,2,2,0,0,1,.46-.3.46.46,0,0,1,.2,0,.41.41,0,0,1,.19,0l.2.14a1.64,1.64,0,0,1,.38.55v.09h-.08a6.53,6.53,0,0,0-1.42.52,4.22,4.22,0,0,0-1.22,1,2.72,2.72,0,0,0-.34.42,1.56,1.56,0,0,0-.27,1v.16a1.46,1.46,0,0,0,.1.46,1.34,1.34,0,0,0,.54.68,2.11,2.11,0,0,0,.8.34A2.53,2.53,0,0,0,21,67c.21,0,.43,0,.64,0h.52l.59,0a2.45,2.45,0,0,0,.64-.18.73.73,0,0,0,.36-.31.53.53,0,0,0,0-.5,1.54,1.54,0,0,0-.21-.29,1.31,1.31,0,0,0-.45-.28.84.84,0,0,0-.38-.08h-.18l-.7.13c-.2,0-.39,0-.59.06h-.64a1.71,1.71,0,0,1-.54-.1.48.48,0,0,1-.3-.32.86.86,0,0,1,0-.32A.84.84,0,0,1,20,64.5"/><path class="cls-2" d="M39.83,65.6a2.12,2.12,0,0,0-.75-.54,5.07,5.07,0,0,0-1-.35l-.31-.08V63.51l.42-.13c.23-.08.46-.15.7-.21a1.23,1.23,0,0,0,.48-.25.58.58,0,0,0,.17-.18.56.56,0,0,0,.05-.42.46.46,0,0,0-.15-.27l-.21-.13a6.45,6.45,0,0,1-.69-.47l-.09-.1h.73a1.4,1.4,0,0,0,.28-.06.4.4,0,0,0,.24-.16.51.51,0,0,0-.06-.64,1.21,1.21,0,0,0-.43-.27,3,3,0,0,0-1.07-.2H38a1,1,0,0,0-.29,0l0-.06a1,1,0,0,0-.37-.45,1.8,1.8,0,0,0-1-.41h-.09a.89.89,0,0,0-.23,0,.25.25,0,0,0-.16.17.31.31,0,0,0,.1.34l.11.08.25.14a.06.06,0,0,1,0,.06v.54a.05.05,0,0,1,0,0H36.3l-1,.36c-.45.17-.89.37-1.35.54l-.34.16-.09-.07a.35.35,0,0,0-.23-.07h0a.26.26,0,0,0-.23.23.44.44,0,0,0,.13.32,1.37,1.37,0,0,0,.64.36l.38.07c0,.06-.09.12-.13.19a1.85,1.85,0,0,0-.28.68.7.7,0,0,0,.16.59,1.21,1.21,0,0,0,.83.41H35a2.33,2.33,0,0,0,.59-.08l.82-.25h.07v.59h-.87a3.91,3.91,0,0,0-.48,0,2.73,2.73,0,0,0-.89.24,1.21,1.21,0,0,0-.49.34.79.79,0,0,0-.18.29.86.86,0,0,0,0,.45,1.18,1.18,0,0,0,.29.64,2.25,2.25,0,0,0,.6.45,2.79,2.79,0,0,0,1.24.29h0a3.27,3.27,0,0,0,.54,0A2.45,2.45,0,0,0,37,67a1.37,1.37,0,0,0,.64-.64c0-.06.06-.13.09-.2l.1,0a4,4,0,0,1,.78.45l.3.21a1.69,1.69,0,0,0,.41.19h.18a.65.65,0,0,0,.33-.11.58.58,0,0,0,.23-.26.82.82,0,0,0,.06-.38,1.1,1.1,0,0,0-.29-.68m-1.74-4.11.32-.1a.31.31,0,0,1,.07.2v.29a.19.19,0,0,1-.11.18l-.32.13c0-.23,0-.47,0-.7M36.32,66a1,1,0,0,1-.51.2,1.41,1.41,0,0,1-.29,0,2.41,2.41,0,0,1-.53-.07.83.83,0,0,1-.34-.19.19.19,0,0,1,0-.19.11.11,0,0,1,.09-.1.92.92,0,0,1,.27-.08l.55,0h.06a4.63,4.63,0,0,1,.91.12h.09a.61.61,0,0,1-.25.32Zm.37-3.27-.85.39-.77.34-.13,0a.08.08,0,0,1-.09,0,.09.09,0,0,1,0-.12,2.39,2.39,0,0,1,.13-.21,3.34,3.34,0,0,1,.33-.32,4.16,4.16,0,0,1,.92-.57l.52-.23h0v.62a.12.12,0,0,1-.11.09Z"/><path class="cls-2" d="M23.66,59.32a1.11,1.11,0,0,0-.64-.21h0a.59.59,0,0,0-.41.18,1.66,1.66,0,0,0-.18.19h0l-.2-.07h-.09a.3.3,0,0,0-.25.14.11.11,0,0,0,0,.11.21.21,0,0,0,.17.18.34.34,0,0,1,.22.2l.28.54a.69.69,0,0,0,.28.28.48.48,0,0,0,.18.06.35.35,0,0,0,.27-.37.7.7,0,0,0-.13-.32l-.28-.48a.28.28,0,0,1,0-.2s0-.07,0-.07h.05l.09.06a.81.81,0,0,1,.12.14,2.27,2.27,0,0,1,.39.58.67.67,0,0,0,.12.2.3.3,0,0,0,.25.12.32.32,0,0,0,.23-.09.4.4,0,0,0,.12-.28.54.54,0,0,0-.09-.35,1.61,1.61,0,0,0-.43-.54"/><path class="cls-2" d="M31.41,62.76a2.43,2.43,0,0,0-1.28-.41h-.67v0a10.25,10.25,0,0,1,1.1-.76,1,1,0,0,0,.34-.27.59.59,0,0,0,.13-.36,1,1,0,0,0-.11-.38,2.8,2.8,0,0,0-.41-.5,4.13,4.13,0,0,0-.59-.41,2.88,2.88,0,0,0-.75-.25h-.3a1.09,1.09,0,0,0-.36.06,2.75,2.75,0,0,0-.64.25c-.18.08-.34.17-.51.26l-.69.4-.69.43h-.1a.47.47,0,0,0-.3-.08.31.31,0,0,0-.29.3.68.68,0,0,0,.07.28.89.89,0,0,0,.31.33,1.93,1.93,0,0,0,.58.27,1.15,1.15,0,0,0,.37.06,1.65,1.65,0,0,0,.31,0,1.89,1.89,0,0,0,.47-.24L28,61.2l.64-.47.48-.35.27-.18h.05a.08.08,0,0,1,.07,0,.13.13,0,0,1,0,.12l-.07.12a1.51,1.51,0,0,1-.21.23l-.68.73L28,62l-.87.71a23.79,23.79,0,0,1-2,1.36.49.49,0,0,0-.26.35v.17a1.22,1.22,0,0,0,0,.27.88.88,0,0,0,.35.64,1,1,0,0,0,.45.21h.06a.61.61,0,0,0,.26-.08v.18a1.42,1.42,0,0,0,.2.53,1.66,1.66,0,0,0,.64.54,2.74,2.74,0,0,0,.83.25,5.52,5.52,0,0,0,.71,0h.34l.48,0A5.16,5.16,0,0,0,30,67a3.89,3.89,0,0,0,1.22-.57,2.9,2.9,0,0,0,.51-.48,2.28,2.28,0,0,0,.48-1.23,2.43,2.43,0,0,0-.08-.89,1.86,1.86,0,0,0-.68-1.05M27.8,65.81h-.21a1.74,1.74,0,0,1-.45-.06.72.72,0,0,1-.33-.18.33.33,0,0,1-.09-.3.1.1,0,0,1,.07-.09.33.33,0,0,1,.14,0h.12a1.07,1.07,0,0,1,.64.4l.12.16,0,.06Zm3.05-1.72a1.45,1.45,0,0,1-.38.76,2.07,2.07,0,0,1-.86.6l-.2.06-.11-.18a1.79,1.79,0,0,0-.42-.53,1.57,1.57,0,0,0-.55-.31,2,2,0,0,0-.64-.13h-.34l.2-.15a8.13,8.13,0,0,1,.87-.57,4.17,4.17,0,0,1,1.11-.47,1.67,1.67,0,0,1,.44-.06h.11a.89.89,0,0,1,.45.15.73.73,0,0,1,.3.48.84.84,0,0,1,0,.35"/><path class="cls-1" d="M77.43,36h0a7.16,7.16,0,0,0-2.38-3.13,15.85,15.85,0,0,0-1.88-1.37,4.77,4.77,0,0,0-2.3-.59,6.24,6.24,0,0,0-2.37.56,6.25,6.25,0,0,1-1.56.53,6.45,6.45,0,0,0-1.38-.18,1,1,0,0,0-.89.87V50.94a6.31,6.31,0,0,0,2.06,1.28,6.52,6.52,0,0,0,2.73.72,2.53,2.53,0,0,0,1-.16A9,9,0,0,0,73,50.45a24.09,24.09,0,0,0,3.2-4.91,13.92,13.92,0,0,0,1.6-6A13.14,13.14,0,0,0,77.43,36m-5.05,6.23c-.82,2.42-1.81,4-2.93,4.69V35.81a7.07,7.07,0,0,1,3.3-1.12.75.75,0,0,1,.39.07c.12.06.33.35.33,1.53a19.62,19.62,0,0,1-1.09,6"/><path class="cls-1" d="M92.1,41.22a74,74,0,0,1-1.22-8.39v0A7.43,7.43,0,0,0,88,31.68,16,16,0,0,0,84.4,31a1,1,0,0,0-.71.15c-.17.13-.24.44-.2.93a3.91,3.91,0,0,1,0,1.08L80,44.29c-1.42.7-1.63,1-1.66,1.14a1.41,1.41,0,0,0,0,.29,1.54,1.54,0,0,0,.56,1.09c-.11.33-.43,1.12-1,2.4s-.56,1.64-.51,1.8.25.33,1.63.91a7.11,7.11,0,0,0,2.21.64.64.64,0,0,0,.28-.06,1,1,0,0,0,.53-.58c.06-.23.12-.45.16-.64q.66-1.55,1.08-2.64a11.92,11.92,0,0,1,2.5-.92A20.32,20.32,0,0,1,88.68,47a19.53,19.53,0,0,1,.64,2.72c.2,1.18.36,1.46.46,1.56a4.3,4.3,0,0,0,2,1,7.43,7.43,0,0,0,2.24.44,1.13,1.13,0,0,0,.51-.09,1.3,1.3,0,0,0,.23-.74c.05-.55.09-.92.11-1.08q-1.41-2.73-2.75-9.6m-7.21,2.45A22.69,22.69,0,0,1,85.7,41c.41-1.24.78-2.27,1.11-3.07A31.34,31.34,0,0,0,87.19,41c.06.32.18,1,.41,2-1.36.28-2.28.5-2.71.63"/><path class="cls-1" d="M153.08,50V34.55a2.8,2.8,0,0,1,.13-.64,2.69,2.69,0,0,0,.14-.75,1.34,1.34,0,0,0-.06-.4c-.12-.45-.64-.74-1.5-.9-.22,0-1-.11-2.47-.23a11.39,11.39,0,0,1-1.63-.3,9.06,9.06,0,0,0-1.55-.23,2.31,2.31,0,0,0-.46,0c-.29.07-.78.53-1.69,3.73-1.28,4.41-2.15,7.32-2.67,8.86l-3.54-9a.76.76,0,0,1-.08-.36,3.62,3.62,0,0,1,.08-.64,1.38,1.38,0,0,0,0-.64c-.08-.27-.54-.72-3.46-1.43s-3.39-.68-3.59-.6a1.32,1.32,0,0,0-.64.55,1.38,1.38,0,0,0-.28.75v17.9a1.91,1.91,0,0,1-.1.53,2.35,2.35,0,0,0-.09.53.79.79,0,0,0,.15.49,3.5,3.5,0,0,0,1.8.71,10.28,10.28,0,0,0,2.4.33,1.4,1.4,0,0,0,.67-.11c.25-.15.38-.52.42-1.13a4,4,0,0,0-.05-1.24,7.31,7.31,0,0,0-.3-.9,2.64,2.64,0,0,1-.21-.87V39c.42.88,1.19,2.83,2.27,5.84.49,1.36,1.08,3,1.78,5a2.73,2.73,0,0,1,0,.7.73.73,0,0,0,.19.71c.89.77,2.56,1.16,4.88,1.16a4,4,0,0,0,1-.08.82.82,0,0,0,.63-.67,6,6,0,0,0,.09-1,5.83,5.83,0,0,0-.1-.73,5.31,5.31,0,0,1-.09-.79.67.67,0,0,1,0-.2,64.69,64.69,0,0,1,3.13-10.09V49.92a2,2,0,0,1-.07.55,4.46,4.46,0,0,0-.07.51,1.43,1.43,0,0,0,.09.42c.21.37.95.71,2.28,1.06a6.35,6.35,0,0,0,2.52.33c.35-.07.59-.49.73-1.28a1.27,1.27,0,0,0-.3-.83,1.36,1.36,0,0,1-.33-.68"/><path class="cls-1" d="M111.92,48.73a5.14,5.14,0,0,0-.64-.38,4.23,4.23,0,0,0-.69-.3c-2.51-2.41-4.12-3.91-4.9-4.59,3.62-3,5.4-5.57,5.29-7.52a2.76,2.76,0,0,0-.77-1.74,18.9,18.9,0,0,0-1.56-1.41c-.34-.31-.72-.64-1.19-1a3.22,3.22,0,0,0-1.41-.63,4.17,4.17,0,0,0-.86-.08,5.91,5.91,0,0,0-2.5.68,7.15,7.15,0,0,1-1.84.68,6.23,6.23,0,0,1-1.61-.26,5.07,5.07,0,0,0-1.5-.25c-.75.09-1.14.39-1.16.91a.62.62,0,0,0,.09.26.5.5,0,0,1,.07.27V50.93a1.52,1.52,0,0,1-.07.52,1.53,1.53,0,0,0-.07.36c0,.34.56.6,1.81.85a10.53,10.53,0,0,0,2.1.3h.32c.76-.05,1.14-.36,1.14-.92a1.68,1.68,0,0,0-.24-.68,1.44,1.44,0,0,1-.22-.64V46.25L107,51.08a3.81,3.81,0,0,1,.4.71,1.71,1.71,0,0,0,1.45.91c.57,0,1.28-.53,2.09-1.7,1.1-1.54,1.07-2,1-2.2Zm-10.4-7.83V37.22c2.1-1.61,3.57-2.42,4.38-2.42.25,0,.37.12.37.41,0,.68-.64,1.75-1.87,3.19a9.85,9.85,0,0,1-2.88,2.5"/><path class="cls-1" d="M172.35,50.73c-.93-1.73-1.86-4.93-2.75-9.51a71.83,71.83,0,0,1-1.21-8.39v0a7.43,7.43,0,0,0-2.85-1.11A15.62,15.62,0,0,0,161.9,31c-.38,0-.61,0-.7.15a1.32,1.32,0,0,0-.2.93,3.91,3.91,0,0,1,0,1.08l-3.46,11.09c-1.44.7-1.64,1-1.67,1.14v.29a1.55,1.55,0,0,0,.57,1.09q-.18.51-1,2.4a3.88,3.88,0,0,0-.52,1.8c0,.13.19.31,1.64.91a7,7,0,0,0,2.21.64.71.71,0,0,0,.28-.06,1,1,0,0,0,.52-.58c.07-.21.12-.42.17-.64.44-1,.8-1.91,1.07-2.64a11.8,11.8,0,0,1,2.51-.92,20.52,20.52,0,0,1,2.91-.69,18.18,18.18,0,0,1,.63,2.72c.2,1.18.36,1.46.46,1.56a4.19,4.19,0,0,0,2,1,7.42,7.42,0,0,0,2.23.44,1.1,1.1,0,0,0,.51-.09,1.21,1.21,0,0,0,.24-.74c0-.57.09-.92.1-1.08Zm-10-7a22.73,22.73,0,0,1,.82-2.7c.41-1.24.78-2.27,1.11-3.06a27.39,27.39,0,0,0,.38,3.12c.05.35.2,1,.41,2-1.37.25-2.28.47-2.72.6Z"/><path class="cls-1" d="M126.68,32.06h0a4.73,4.73,0,0,0-1.75-.64,9.45,9.45,0,0,0-2.3-.38,1.1,1.1,0,0,0-.51.08,1.24,1.24,0,0,0-.64,1.38,3.14,3.14,0,0,0,.25.64,1.39,1.39,0,0,1,.1.78v0a21.74,21.74,0,0,1,.19,3.69,52,52,0,0,1-.51,7.79c-.42,2.8-1,4.26-1.85,4.34h0c-.42,0-1-.8-1.42-4.48a69.62,69.62,0,0,1-.43-8,14.05,14.05,0,0,1,.14-2.75,1.69,1.69,0,0,1,.23-.85,2.38,2.38,0,0,0,.28-.94.63.63,0,0,0-.16-.46,5.14,5.14,0,0,0-2.11-.81,5.64,5.64,0,0,0-2.11-.36,1.24,1.24,0,0,0-.85,1.09,40,40,0,0,0-.38,5.79,46.14,46.14,0,0,0,.6,7.79c.45,2.56,1,4.22,1.8,5a3,3,0,0,0,1.46.8c.64.17,1.28.32,1.79.44l2.09.64a5.54,5.54,0,0,0,1.56.26h.3c2.94-.31,4.37-5.19,4.37-14.93,0-3.51,0-4.52,0-4.81.08-.61.06-.94-.07-1.09"/></svg>