<svg id="Layer_1" data-name="Layer 1" xmlns="http://www.w3.org/2000/svg" viewBox="0 0 93.13 87"><defs><style>.cls-1{fill:#ec1c24;}.cls-2{fill:#231f20;}.cls-3,.cls-4{fill:#fff;}.cls-4{isolation:isolate;}</style></defs><path class="cls-1" d="M21,66.79c-.36-.52.23-.89.32-1.35a2.11,2.11,0,0,1-.23-1.21c-.34-.19-.16-.63-.56-.74-.08-.52-.71-.81-.84-1.31-.31-.2-.31-.78-.84-.56-.24-.06-.26-.43-.51-.42a3,3,0,0,0-2.19-.51,3.73,3.73,0,0,0-1.4-1.16,10.5,10.5,0,0,0-3.26-1.12l-2.46-.14a17.46,17.46,0,0,0-1.87.56A5.88,5.88,0,0,0,4.08,60.6c-.2.5-.7.87-.93,1.3l.19.14c0,.45-.23.78-.14,1.26-.31.57.19,1,.09,1.63a9.12,9.12,0,0,0,.42,2c-.18.72.68,1,.65,1.67A9.94,9.94,0,0,0,5.81,70c.48.11.82.57,1.25.79.13.53.74.3,1.08.56a.68.68,0,0,0,.41.42c.36,0,.63.28,1,.32.79.32,1.85.9,1.87,1.91-.42.36-.58,1.15-1.26,1.07-.37-.29-.9-.19-1.35-.28-.16-.1-.5-.18-.42-.46-.27-.13-.61-.09-.79-.42-.81-.59-1.42-1.55-2.43-1.77-.2-.25-.54-.3-.74-.47s-.15.06-.23.1c-.81-.07-1.24.78-1.87,1.16L2,72.85c-.2.1,0,.28,0,.42,0,.49-.59.44-.69.83.27.19-.15.36,0,.56.38.22-.1.31-.18.52a6.64,6.64,0,0,1-.05,1.25,1.68,1.68,0,0,1,.74.84c.42.16.48.8,1,.84.62-.6,1.08.3,1.63.42s.9.73,1.49.32c.21,0,.38.24.56.14s.41.08.61.14.43-.1.65.05c.33.38.84.06,1.26.09,2.33.06,5-.11,6-2.51A8.49,8.49,0,0,0,15,75.45h0c-.05.24.12.56-.14.7-.19-.11,0-.36-.14-.51-.18,0,0,.25-.14.33,0,.29.23.59,0,.84,0,0-.11-.08-.09-.14h-.1c-.18.25-.35.63-.7.69-.14-.1.07-.19,0-.32s.11-.3-.09-.37a5.18,5.18,0,0,1,.42-1.22c-.17-.61-.22-1.28-.37-1.9a3.09,3.09,0,0,1-.84-1.77,14.44,14.44,0,0,0-1.54-1.49c-.52-1.2-2-1.29-2.37-2.52-.33-.4.25-.83-.14-1.21a1.06,1.06,0,0,1,.28-.65,2.44,2.44,0,0,1,.65-1.07c.59-.37,1.15-1,1.91-.8.45.36,1.07.34,1.49.8.71.34.69,1.14,1.26,1.63,0,.63.9.67.93,1.3A3.59,3.59,0,0,0,17,69.12c.43,0,1,.33,1.35-.09.64.06,1-.64,1.58-.65C20.51,67.92,20.55,67.27,21,66.79ZM14.52,76.85s.06.05,0,.09-.1.15-.18.14S14.47,76.93,14.52,76.85Zm-.28.42c-.12.46-.62.58-.94.84a9.2,9.2,0,0,1-3,.84c0-.18.2-.24.32-.28.55,0,.92-.41,1.49-.33A8.47,8.47,0,0,0,14.24,77.27Zm-1.35-.09H13c-.09.21-.38.34-.56.51-.29-.1-.46.27-.7.14a4.84,4.84,0,0,1-.51.14c.13-.34.49-.32.79-.37A2.55,2.55,0,0,0,12.89,77.18Zm-.42-2.05h.09v.09h-.09Zm-.66,1.4h-.23a.78.78,0,0,1,.79-.47C12.38,76.37,12,76.42,11.81,76.53Zm-.32-5.73c.39,0,.41.48.7.7,0,.06,0,.15,0,.18C11.88,71.44,11.45,71.2,11.49,70.8Z"/><path class="cls-1" d="M31.62,69.46c-.11-.28-.45-.18-.66-.31-.33-.32-.85-.18-1.28-.27-.31.25-.83.09-1,.58a.42.42,0,0,0,.08.31c-.07.58-.17,1.14-.28,1.71-.15.34-.62.2-.89.23-.65-.13-1.46.14-2-.23-.08-.17-.21-.3,0-.47a3.72,3.72,0,0,1,.74-1.47c0-.16.37-.24.19-.43.14-.31.56-.18.59-.51,0-.51.6-.64.81-1-.19-.34.15-.54.31-.78s0-.42.2-.55c.45,0,.54-.46.66-.81-.11-.09-.27-.13-.31-.27a4.83,4.83,0,0,0,.35-1.21c-.38-.32.2-.53.11-.93.15-.19.17-.46.39-.58.64,0,.16-.69.47-.94-.06-.06-.26-.2-.08-.31s-.16-.37-.12-.54-.07-.33-.19-.47c-.09-.39-.57-.35-.82-.62-.09-.41-.6-.29-.81-.66a.92.92,0,0,0-.31-.5c-.14,0-.24.13-.39.11-.49-.18-1,.15-1.4.31-.18,0-.3.33-.5.2-.13.18-.21.35-.43.43a.22.22,0,0,1,0,.27c-.38.11-.36.51-.55.77.17.27-.23.39-.35.59s.2.34.24.54c.36.63-.55.72-.55,1.24-.07.24-.48.28-.27.59-.06.1-.17.08-.23.19.11.16-.18.26-.08.47-.5.19,0,.72-.27,1.05a1.39,1.39,0,0,0-.51,1.2c.17.3-.23.46-.23.74.05.08.19.12.16.23-.24.21,0,.47-.2.7,0,.37-.14.76-.15,1.17-.22.41-.19.93-.39,1.36-.22.08-.08.31-.12.46-.34.42-.06-.33-.31-.31-.16.2-.11.48-.23.7s.15.65,0,.93c.05.27-.25.4-.2.66a5.16,5.16,0,0,0-.58,1H20a2.18,2.18,0,0,1,0-.63,1.82,1.82,0,0,0-.28.51,4.12,4.12,0,0,0-.19,1.4,3.1,3.1,0,0,0,.16,1.28c.19.39-.08,1,.23,1.32.42.11.42.61.78.85.32-.1.51.36.77.16.37.14.64-.16.9-.39.42-.09.62-.48,1-.66s.16-.76,0-1.09c.14-.82.19-1.78,1-2.21.15,0,.29-.14.43,0,.11-.09.29,0,.39-.16s.49-.31.74-.11a1.35,1.35,0,0,1,1.16-.08A.6.6,0,0,1,27.7,74a1,1,0,0,1,0,.81c-.1.38,0,1-.12,1.36.07.49,0,1.09.39,1.4a.67.67,0,0,0,.39-.31c.31-.12.19.38.46.39,1.05-.31.67-1.42,1-2.14.15-.38.07-.87.35-1.2a1.63,1.63,0,0,1,.5-.9c.15-.24-.11-.41-.08-.66a4.11,4.11,0,0,1,.35-1.16c-.08-.7.9-1,.86-1.64A.56.56,0,0,1,31.62,69.46Z"/><path class="cls-1" d="M42.66,72.57a5.13,5.13,0,0,0-1.52-2.37,1,1,0,0,0-.58-.51c-.5-.6-1.32-.49-1.75-1.16.18-.12.13-.34.19-.51-.13-.41-.66,0-.85-.35a1.39,1.39,0,0,0-1-.89c-.29,0-.61-.16-.86,0s-1,0-1,.47A8,8,0,0,0,33,69.07a4.08,4.08,0,0,0-1.09,2.72c-.08.79.3,1.38.28,2.14a4.65,4.65,0,0,0,.35,1c0,.48.35.81.62,1.12a7.47,7.47,0,0,0,3.22,1.79c1.58.67,3.28,0,4.66-.62.57-.26.53-.9.86-1.32-.27-.25-.23.24-.47.31-.07,0-.11,0-.15-.08a6.51,6.51,0,0,0,.27-1c.37-.18.14-.64.43-.81.22.18-.09.33,0,.54.34.38.1-.34.42-.35.06.14.21,0,.32.08.29-.13.2-.49.38-.7C43.1,73.37,42.47,73.09,42.66,72.57Zm-6.1-4.2v0c-.31,0-.58.27-.86.23A.77.77,0,0,1,36.56,68.37Zm-3.93,4c-.11,0,0-.12-.11-.15-.33-1.72,1.13-2.94,2.37-3.77a.77.77,0,0,1,.42-.12c0,.08-.15.13,0,.2a2.29,2.29,0,0,1,.74-.31c-.08.21-.44.18-.43.46a7.56,7.56,0,0,1-.89.47l0,0c.2-.21.43-.36.62-.58-.12,0-.26.07-.38.15a7.09,7.09,0,0,0-1.68,1.87l.08.08a4.61,4.61,0,0,1,.78-1c.07.13,0,.27,0,.39A5.69,5.69,0,0,0,32.63,72.33ZM40,74.94c-.44.21-.78.84-1.4.7-1.84-.29-4.23-.11-5-2.26-.09-.23,0-.52-.15-.73a4.78,4.78,0,0,1,.27-1c.17,0,.37.26.5,0a.59.59,0,0,1,.35,0c.07.23.31,0,.43.16l.35.35-.19.15c.12.19.33.13.5.2s.49-.25.82-.2a8.26,8.26,0,0,1,2.64.66c.26.54.93.79.81,1.48A.47.47,0,0,1,40,74.94Zm1.13.11a5.46,5.46,0,0,0-.35.78c-.06-.2.13-.39.12-.62a1.59,1.59,0,0,1,.27-.47C41.28,74.85,41.15,75,41.14,75.05Z"/><path class="cls-1" d="M13.35,72.52c.1.06.31.11.37,0-.14-.27-.42-.2-.6-.37C13,72.28,13.27,72.38,13.35,72.52Z"/><path class="cls-1" d="M14.47,73.68a1,1,0,0,0,.28.61v-.14C14.7,74,14.68,73.75,14.47,73.68Z"/><path class="cls-1" d="M61.32,69.28c-.16-.59-.8-.78-1.09-1.32-.24,0-.36-.21-.58-.23s-.33-.14-.43-.27c-.41.07-.66-.38-1-.27-.1,0-.14-.14-.15-.24-.32,0-.55-.18-.89-.11-.34-.45-.82,0-1.25-.16-.12,0-.18-.23-.35-.15s-.52-.21-.85-.12v.08c-.47.4-1-.13-1.56.15-.63-.33-.85.58-1.39.59a2.56,2.56,0,0,0-.86.93c-.22.25,0,.52-.15.81-.37.51.14.93.31,1.36.1.21-.07.39.15.55-.18.55.44.58.66.93.13,0,.29,0,.39,0,.16.33.59.15.86.31a.6.6,0,0,1,.31.51.65.65,0,0,1-.39.46,2.14,2.14,0,0,1-1.36-.27c-.43.1-.7-.16-1-.23-.27-.43-.79-.24-1.13-.51-.14-.09-.07-.36-.31-.31-.47-.38-1-.59-1.47-1,0-.23-.33-.31-.32-.54-.68-.43-.37-1.26-.81-1.79a.89.89,0,0,1,0-.51,2.52,2.52,0,0,0,0-.66c.1-.31,0-.72.12-1,.11,0,.14.12.23.12,0-.36-.1-.75.12-1.09a6,6,0,0,1,3.92-2.06c.24.16.56.12.82.24.11-.34.51,0,.62-.31.15,0,.24.13.35.23s.15.08.19,0l-.23-.27c.05,0,.08-.1.15-.08-.23-.64-1.05-.35-1.51-.7l.08-.08a3.82,3.82,0,0,1,3.11,1.56c0,.21-.27.37-.43.5-.21.48.43.3.62.51,0,.14-.17.19-.19.31-.27.42.35.5.46.77.33-.35.59.16.93.12s.71.14,1,.23c.37-.29.48-.79.93-1.05l.32-.89c-.56-.46-.59-1.21-1.13-1.71a2.3,2.3,0,0,0-1-1.55c0,.24.3.39.39.62a.76.76,0,0,1,.08.58c-.67-.46-1.17-1.27-1.91-1.63a6.29,6.29,0,0,0-3-.54c-.07.06-.28,0-.19.19H50.17c-.59.13-1.2.21-1.79.35C46.37,61.59,44,62.8,43,65a7.69,7.69,0,0,0,0,5l.2.35a8.2,8.2,0,0,0,2,3.42c.54.37.94,1.06,1.66,1a22.65,22.65,0,0,0,2.68,1.17c.48-.09.57.63,1.05.43.21.34.61.21.86.46.12-.1.24.07.38,0,.39.27.88.25,1.29.47.57-.27.29.56.7.74-.08.31.28.59.15.93.4.2-.13.49.16.74s.8.29,1.24.35l.12-.08c.63.1.84-.46,1.28-.78-.06-.19.25-.24.19-.43.14-.26.39-.52.24-.85.31-.3.28-.78.69-1,0-.13-.17-.28,0-.39a2,2,0,0,1,0-1.13,2,2,0,0,1,.24-1.55l0,0c0-.23,0-.52.31-.62s.6-.71,1.05-.7c.26-.29.78-.06,1-.35l0,0c.09-.15.11-.36.31-.43.35-.32.25-.83.58-1.16C61.17,70.05,61.49,69.72,61.32,69.28Z"/><path class="cls-1" d="M72.36,70.39c.24-.23.19-.58.29-.87a.45.45,0,0,1,.06-.54c.17-.44-.44-.71-.25-1.12,0-.3.19-.55.22-.86-.51-.55-1.21-.77-1.76-1.31l-.19,0c-.13,0-.29.07-.35.22s0,.14-.06.2c-.24,0-.28.3-.48.38.08.35-.38.48-.48.73A5.78,5.78,0,0,1,69.23,69c-.27.23-.36.56-.61.77a12,12,0,0,1-1.5.7c-.29,0-.59.07-.92,0-.17-.11,0-.27-.07-.41a.91.91,0,0,0,.35-.58c.59-.63.41-1.59.9-2.26-.14-.25.1-.49.16-.74a10,10,0,0,1,.09-1.11c-.3-.75-1.11-.82-1.56-1.47-.14,0-.31.15-.42,0-.08.07-.22,0-.28,0-.19-.13-.33.07-.45.19-.32,0-.47.36-.7.54-.06.1-.1.25.06.29-.16.37-.63.62-.8,1a.31.31,0,0,0,.35.19c.05.07.18.11.13.22a6.46,6.46,0,0,1-.89,1.6c-.27.26-.34.6-.61.86-.11.16,0,.39-.22.51.07.34-.29.5-.16.87a4.45,4.45,0,0,0,.44,3.06A5.2,5.2,0,0,0,64.28,75c.31,0,.56.18.86.06A8.55,8.55,0,0,0,67,75a16.14,16.14,0,0,0,2.68-1.12l0-.22c.43-.52,1-.86,1.44-1.41.45-.32.43-.9.89-1.24C72.07,70.77,72.33,70.63,72.36,70.39Z"/><path class="cls-1" d="M91.77,60.27c-.32-.39-.17-1-.72-1.21s-1.09-.6-1.79-.61c-.29-.44-.71-.26-1.09-.5-.65.11-1.59-.56-2,.09,0,.55-.58.91-1,1s-.37.79-.63,1.13c.44.33.06.53.08.88-.7.19.1.85-.27,1.26a4.57,4.57,0,0,0-.71,1.64c.11-.08.11-.23.16-.34.17-.31.32.13.51.12a.75.75,0,0,1,.17.28A22.28,22.28,0,0,0,82,69.17c-.26.23-.14-.23-.35-.32-.38-.25-.56.1-.86.27.69.36.09,1.18.36,1.65.39.31,0,.58,0,.84-.31-.14-.12-.53-.28-.77-.67.1-.43,1-.93,1.3-.41-.34-.25-1-.38-1.42a8,8,0,0,0-.21-1.9.48.48,0,0,0-.1-.6s-.09,0-.14,0,0-.2,0-.3-.2-.39-.39-.42-.17-.19-.12-.32c-.69-.64,0-1.36-.34-2.07A13.11,13.11,0,0,0,76.79,63c-.34-.29-.54.21-.93-.07a.56.56,0,0,0-.41.52,2.48,2.48,0,0,1-.31,1.3c0,.54-.26,1-.29,1.5-.38,1.26-.49,2.69-.94,3.91s-.25,3-.78,4.23c-.2.22-.41.31-.51.59s-.36.22-.4.43c-.35.15-.17.66-.25,1,.08.42.5.52.69.88-.1.58.61.9.8,1.42a3.45,3.45,0,0,0,2.68.64c.53-.22.19-1.12.79-1.34,0-.06.1-.15,0-.23.57-.41-.17-1,.06-1.6-.5-1.06,0-2.18.19-3.14.16-.39,0-1,.27-1.31a2,2,0,0,1,.42.86,10.47,10.47,0,0,1,.56,2.27l.88,1.68c.51.58.56,1.36,1.2,1.8a1.28,1.28,0,0,0,.93.12c.41.54.79,0,1.21,0a1.93,1.93,0,0,0,1-1.23c.37-.14.31-.56.34-.92a2.85,2.85,0,0,1,0-1.71A13.07,13.07,0,0,1,84.41,73c.2-1,.41-2,.61-3,.39-.74.37-1.75.76-2.48.62-1.13,1-2.4,2.26-3.12.36.28.64-.05.94-.11s.68.28.53-.21a.24.24,0,0,1,.34-.11c.6-.37,1.26-.52,1.84-.94a3,3,0,0,1,.29-1A8.52,8.52,0,0,0,91.77,60.27Z"/><path class="cls-1" d="M83.75,64c0,.14-.18.24-.07.41l.17-.39Z"/><path class="cls-1" d="M82.7,65.16c-.12-.3.34-.22.22-.52,0,0,0-.07-.09-.07-.13.16-.29.4-.18.62Z"/><path class="cls-1" d="M81.91,66.49a.84.84,0,0,1-.17.58,1.79,1.79,0,0,0-.09.6,1.73,1.73,0,0,0,.38-.86C82.07,66.69,82,66.5,81.91,66.49Z"/><path class="cls-1" d="M81.57,68.17c0-.06.05-.15,0-.2l-.06.22S81.54,68.19,81.57,68.17Z"/><path class="cls-2" d="M84.61,52.54v-.12A.83.83,0,0,0,84.61,52.54Z"/><path class="cls-2" d="M72.48,60h0S72.48,60,72.48,60Z"/><path class="cls-2" d="M84.36,51.1v.06S84.38,51.11,84.36,51.1Z"/><path class="cls-2" d="M84.81,52.68c0-.11,0-.44.06-.31a3.77,3.77,0,0,0-.12-.53s0,.1.06.16l-.09-.41,0,.13a1.76,1.76,0,0,0-.26-.7c.08,0,.13.21.21.35,0-.16-.07-.08-.12-.33,0,0,0,0,0,0l-.11-.18s0,0,0,0c-.15-.28-.07,0-.25-.37.06.27.13.2.18.43s-.15-.23-.21-.28c-.06-.21,0-.28-.12-.52.1.17.07,0,.17.25s0-.09,0-.14,0,.08-.11-.12h0l-.09-.14L84,49.77a2.64,2.64,0,0,0-.23-.44,1.4,1.4,0,0,1-.2-.38l0,.08a3.6,3.6,0,0,0-.35-.5c.06,0,.14.1.22.22a1.79,1.79,0,0,0-.29-.4,3.73,3.73,0,0,0-.31-.28c.07.17.08.19.15.34-.22-.11-.1-.26-.33-.44,0-.06.1,0,.11-.08a4.68,4.68,0,0,1-.37-.29c0-.1.13,0,.34.18s.34.34.41.53l0-.12.37.44h0l.12,0-.06-.09a1.17,1.17,0,0,1,.28.26c-.18-.28-.29-.24-.43-.34s-.14-.41-.31-.53c0,0-.06-.2,0-.11s.15.25.2.23c-.11-.14,0-.11-.22-.32a1.08,1.08,0,0,1-.43-.21,2.4,2.4,0,0,1-.24-.22,1.88,1.88,0,0,1-.2-.21c.15.13.34.23.33.16s-.25-.31-.27-.2c-.17-.17-.46-.43-.44-.5.2.11.32.31.47.42,0,0-.06-.09,0-.08l.2.2c-.13-.17-.08-.17-.29-.34,0,0,0,.05,0,0L82,46.67l0-.06a6.81,6.81,0,0,0-.79-.58h0c-.26-.17-.35-.06-.64-.21.1,0,.08,0,.08-.07a1.29,1.29,0,0,1-.35-.22c.15.12-.15,0,0,.09,0,.07-.33-.07-.48-.15s.5.18.31,0-.21-.05-.11,0c-.19-.12-.49-.22-.62-.33s-.35-.09-.53,0c.13,0,.16,0,.31,0H79a5.29,5.29,0,0,1-.58-.21h.17c.08,0,.3.07.28,0s-.28-.07-.5-.08h0c-.38,0-.63-.21-.88-.11.07,0,.19.08.15.1s-.31-.05-.3-.09h.08a2.35,2.35,0,0,0-.42,0c-.06,0,0,.08-.16.1-.37,0,.16-.1-.1-.16,0,0-.35.06-.35.06l-.07,0a5.33,5.33,0,0,0-1.45.29s.07-.09.18-.13l.32-.07c-.19,0-.42.08-.65.1s-.35.15-.31.18c-.25.09-.19,0-.23,0s-.38.19-.57.28l0,0-.14.09-.14.09c.08,0,0,0,0,.07l-.08,0a1,1,0,0,0,.25-.07l.24-.11a1,1,0,0,1,.51-.15c-.09,0,0,0,0,.07s-.09,0-.11,0-.15.13,0,.07c0,.09-.31.19-.52.3s.14-.15.22-.23a.85.85,0,0,1-.27.13v-.08c-.29.17-.06.1-.1.19s-.27.12-.35.17l.08-.06a2.25,2.25,0,0,0-.46.28h-.12c.28-.09.26-.26.43-.3-.42.12,0-.17.11-.29a1.09,1.09,0,0,1-.43.17c-.19.22-.51.27-.68.5s.08-.11,0,0a3.5,3.5,0,0,0-.66.57c-.12.1-.12.06-.17.06a4.15,4.15,0,0,0-.36.33l-.25.33-.25.34a3.2,3.2,0,0,1-.31.42l0-.12c-.1.14-.21.24-.21.34a1,1,0,0,0-.26.4c0,.08-.09.17-.13.24a.8.8,0,0,1-.15.2c-.17.31-.1.37-.18.63,0,0-.05-.11-.11,0a8.41,8.41,0,0,0-.5,2.7.2.2,0,0,1,0-.09,4,4,0,0,0,0,.49l.06.47c0,.3.1.59.12.86,0,.1.1.39.14.29s0-.16.08-.15c.15.44,0,.24.05.54-.06.12-.11-.18-.19-.16l.17.43c0,.26.2.49.23.71,0-.09-.08,0-.1-.17,0,0,0,0,0,0-.13-.36-.13-.18-.25-.5.05.14.13.31.19.47s.12.32.18.45c0-.08.12.18.19.23v0s.11.13.14.17l0,.1c.06.1,0-.05.08,0s.42.64.38.72c.12.16.19.18.31.35,0,0-.06,0-.08,0l.21.29.24.27c.17.18.32.37.47.52l.37.3a1.89,1.89,0,0,0,.34.18c-.08,0-.28-.22-.11-.16a2.21,2.21,0,0,1,.32.2c-.06,0,.26.24,0,.1,0,.13.52.31.47.39l.25.13a1.44,1.44,0,0,0,.32.12c0,.05-.21-.07-.22,0l.17.07v0c.31.18.41.11.61.17h0l.14,0-.19,0c.22.06.35,0,.59.11l0,0,.15,0s0,0,0,0,.46.08.6,0,.16.15.3.11l0,.08c-.33-.05-.11-.09-.45-.14a1.36,1.36,0,0,0,.61.23,4,4,0,0,0,.82.09c.2,0,.46,0,.69,0a1,1,0,0,0,.51-.1l0,.06h.33l.33,0,.42-.07.4-.1c.13,0,.25-.07.37-.12a1.48,1.48,0,0,0,.31-.15h.13c.18-.13.51-.31.82-.48a1.94,1.94,0,0,0,.64-.54c.23-.1,0,.1,0,.14.17-.08.33-.37.52-.4,0,0-.19.17-.09.11s.12-.15.28-.19c-.08,0,.11-.25.26-.4l0,0s.07-.11.14-.18a.06.06,0,0,1,0,0c.21-.2.38-.44.57-.66s.35-.49.52-.73a10.64,10.64,0,0,0,.84-1.6L84,56a3,3,0,0,1,.19-.54v0c.18-.28,0-.37.17-.58v0a3.94,3.94,0,0,0,.22-1,3.88,3.88,0,0,1,.15-.45.41.41,0,0,0-.05-.27v.08c-.05.09,0-.18-.05-.3-.07.08-.17,0-.26.28v-.53s0,0,0,0a.43.43,0,0,1,0-.05v-.07h0a1.15,1.15,0,0,0,.1.35c0-.18,0-.19,0-.38a.17.17,0,0,1,.06.15c0-.16,0-.31.07-.38a.34.34,0,0,0,0,.24,1.41,1.41,0,0,0,0-.43c.09,0-.08-.45,0-.31,0,0-.07-.18-.06-.28s.09.23.15.32c.12.45-.06,0-.07.11l0,.17v.18s.07.14.06-.09a.81.81,0,0,1,.07.51s0-.1,0-.14.14.27.14,0C84.89,52.75,84.84,52.53,84.81,52.68Zm-3.89-6-.06,0,.09,0Zm-.41-.41c.13-.13.33.26.52.35l-.14,0h-.1l-.33-.21c.21.12-.07-.09-.08-.12h0l-.27-.12C80.16,46.05,80.43,46.31,80.51,46.27Zm-1-.44c-.05,0,0,.05,0,.06l.19,0,.2,0c.09.08.1.13,0,.13a1.75,1.75,0,0,0,.34.15c.11,0,.18.1.16.14a6.52,6.52,0,0,0-1.29-.58Zm4.74,6.46v0Zm0-.72a3.82,3.82,0,0,0,.11.51c0,.06-.06.05-.08,0,0-.2-.06-.4-.1-.6,0,0,0,0,0,0a.18.18,0,0,0-.09-.17c-.07-.28-.15-.55-.24-.82a2.3,2.3,0,0,0-.11-.37.06.06,0,0,1,0,0,1,1,0,0,0-.07-.15l0,0c.2.27.2.09.38.51,0,0,.08.08.13.19a3.44,3.44,0,0,1,.11.38v-.13c.16.23-.06.06.1.37C84.42,51.47,84.33,51.74,84.23,51.57Z"/><path class="cls-2" d="M84.48,50.8v0Z"/><path class="cls-2" d="M84.36,51.1v0Z"/><path class="cls-3" d="M75.43,46.52c.19,0,.29.13.29.38a4.94,4.94,0,0,1-.06.59c-.1.84-.16,1.87-.18,3.08V52q0,.48-.24.48c-.18,0-.31-.16-.38-.48a10.8,10.8,0,0,1-.1-1.31,1.77,1.77,0,0,1-1,.45c-.26,0-.4-.09-.4-.27s.17-.23.51-.27a1.64,1.64,0,0,0,.86-.47v0c0-.34,0-.68,0-1a2.44,2.44,0,0,1-.33-.19,3.44,3.44,0,0,1-.73-.7.88.88,0,0,1-.2-.46.35.35,0,0,1,.3-.34.7.7,0,0,1,.49.29,4.44,4.44,0,0,0,.54.53,1.15,1.15,0,0,1,0-.19,4,4,0,0,1,.31-1.3C75.24,46.61,75.33,46.52,75.43,46.52Zm.72,2.89a3.73,3.73,0,0,1,.49.08,6.67,6.67,0,0,0,1.1.1v0a1.21,1.21,0,0,1,.16-.49.35.35,0,0,1,.3-.16c.21,0,.32.15.32.43a1.36,1.36,0,0,1,0,.22l.24,0c.37,0,.56.1.57.28a.4.4,0,0,1-.32.37,2.2,2.2,0,0,1-.63.12,10.79,10.79,0,0,0-.13,1.64c0,.35-.07.53-.21.53a.53.53,0,0,1-.35-.2.54.54,0,0,1-.16-.28c0-.06,0-.08.08-.08h.06l.1,0s0,0,0-.14,0-.16,0-.39a9.41,9.41,0,0,1,0-1v-.09a5,5,0,0,1-1.44-.15c-.39-.1-.59-.26-.59-.47S75.83,49.41,76.15,49.41Zm-.08-1.7a.5.5,0,0,1,.27.08,1,1,0,0,1,.27.32,1.46,1.46,0,0,1,.16.56.27.27,0,0,1-.27.27c-.17,0-.33-.12-.5-.37a1.21,1.21,0,0,1-.22-.54.33.33,0,0,1,.09-.26A.32.32,0,0,1,76.07,47.71Zm.13-1.16a5.46,5.46,0,0,1,.72.2,5.37,5.37,0,0,0,1.46.23H79c.25,0,.38.09.37.24s-.14.26-.43.33a5.77,5.77,0,0,1-1,.08,5,5,0,0,1-1.48-.22c-.43-.13-.64-.3-.64-.51S75.94,46.56,76.2,46.55Zm.27,4.14a1.43,1.43,0,0,1,.47.28.57.57,0,0,1,.29.43c0,.14-.1.21-.29.21a1.11,1.11,0,0,1-.53-.22.46.46,0,0,1-.26-.37A.29.29,0,0,1,76.47,50.69Zm1-2.8a.18.18,0,0,1,.15.07.47.47,0,0,1,.16.21,1.17,1.17,0,0,1,.09.4.28.28,0,0,1-.27.27c-.09,0-.19-.08-.3-.25a.91.91,0,0,1-.12-.37.33.33,0,0,1,.08-.26A.28.28,0,0,1,77.5,47.89Zm1.78-.32c.09,0,.13.06.13.17a.41.41,0,0,1-.13.24,1.63,1.63,0,0,0-.57.72c0,.15-.1.22-.19.22a.13.13,0,0,1-.13-.13,1.49,1.49,0,0,1,.18-.52,1.65,1.65,0,0,1,.39-.51A.44.44,0,0,1,79.28,47.57Z"/><path class="cls-3" d="M76.56,53.42A13.9,13.9,0,0,1,78,53.5c.53.09.79.27.79.54a.91.91,0,0,1-.25.44c-.21.23-.37.34-.5.34s-.17-.08-.17-.24a1.28,1.28,0,0,1,.1-.22.35.35,0,0,0,.07-.17c0-.17-.49-.26-1.48-.26a6.84,6.84,0,0,0-1.22.09c-.26.06-.4.17-.4.34a1.31,1.31,0,0,0,.06.23l.18,0q.55.09,1.14.15c.08-.29.2-.43.35-.43s.32.13.33.39v.09l.74,0h1c.27,0,.4.09.39.23s-.15.26-.43.34a5.82,5.82,0,0,1-1,.07c-.28,0-.55,0-.82,0a1,1,0,0,0,0,.17l.82.08c.53.1.79.3.79.61a1.57,1.57,0,0,1-.37.74,3.15,3.15,0,0,1-.27.31c.1,0,.16.1.16.19s-.09.25-.27.32a3.51,3.51,0,0,1-1,.11h0v.27h.62l1.2,0c.32,0,.48.08.49.24s-.14.24-.43.3a8.29,8.29,0,0,1-1.61.11h-.27c0,.07,0,.11,0,.11l0,0s0,0,0,.07a.48.48,0,0,1-.1.31.31.31,0,0,1-.23.16c-.1,0-.18-.12-.24-.35l0-.28a12.13,12.13,0,0,1-1.51-.11c-.58-.09-.88-.22-.88-.39s.14-.27.4-.27a7.2,7.2,0,0,1,.76.07c.3,0,.69.06,1.17.08V58l-.42-.05a.26.26,0,0,1-.25.14,1,1,0,0,1-.74-.47,2.09,2.09,0,0,1-.45-1.1.72.72,0,0,1,.45-.64,3.29,3.29,0,0,1,1.49-.25c0-.06,0-.12,0-.18-.47,0-.94-.09-1.41-.16-.85-.13-1.28-.3-1.28-.52s.13-.34.4-.35l.24,0a.49.49,0,0,1-.05-.18c0-.26.19-.47.55-.62A5.42,5.42,0,0,1,76.56,53.42Zm-1.11,3.85.27,0,.38,0c0-.12,0-.24,0-.36a5.59,5.59,0,0,1-.82-.12A2.84,2.84,0,0,0,75.45,57.27Zm.67-.75,0-.38a2.28,2.28,0,0,0-.65.1.37.37,0,0,0-.16.1l.21.06A5.78,5.78,0,0,0,76.12,56.52Zm.6.5c0,.13,0,.26,0,.39h.35l.18,0a2.9,2.9,0,0,1,.29-.51.94.94,0,0,0,.2-.4c0-.18-.31-.29-.91-.33,0,.14,0,.28,0,.42h.45c.18,0,.27.06.27.16s-.11.19-.31.25Z"/><path class="cls-1" d="M47.89,20.89a2.87,2.87,0,0,0-4.64,0,17.45,17.45,0,0,1,2.31-.16A17.64,17.64,0,0,1,47.89,20.89Z"/><path class="cls-1" d="M60.51,32a.81.81,0,0,0-.73-.81q.22.72.39,1.47A.81.81,0,0,0,60.51,32Z"/><path class="cls-1" d="M52.85,22.43a.81.81,0,0,0-1.37-.59,12.1,12.1,0,0,1,1.36.64A.11.11,0,0,0,52.85,22.43Z"/><path class="cls-1" d="M30.69,32a.81.81,0,0,0,.34.66c.12-.51.27-1,.42-1.47A.82.82,0,0,0,30.69,32Z"/><path class="cls-1" d="M39.72,21.84a.81.81,0,0,0-1.37.59.13.13,0,0,0,0,.06A12.16,12.16,0,0,1,39.72,21.84Z"/><path class="cls-1" d="M38.28,26.19l.2.15.28.19.28.2q.7.46,1.38.87a2,2,0,0,1,.7-.35.28.28,0,0,1,.25,0l.27-1.69,0-.34.06-.33.1-.66.41-2.58a13.82,13.82,0,0,0-1.7.49l-.29.11a1.88,1.88,0,0,0-.3.12,12.45,12.45,0,0,0-1.33.63l-.29.16-.26.16a14.22,14.22,0,0,0-1.71,1.26A17.79,17.79,0,0,0,38.28,26.19Z"/><path class="cls-1" d="M49.22,24.3l.1.63,0,.34.05.33.3,1.87.15-.14a.31.31,0,0,1,.3-.08,2.15,2.15,0,0,1,.68.33q.63-.37,1.29-.81l.28-.19.29-.2.13-.1a19.88,19.88,0,0,0,2-1.66,13.7,13.7,0,0,0-1.75-1.27l-.27-.16L52.57,23a10.91,10.91,0,0,0-1.34-.63c-.1-.05-.2-.08-.3-.12l-.3-.11a13.77,13.77,0,0,0-1.76-.49l-.07,0,.11.7Z"/><path class="cls-1" d="M32.58,34.26a.49.49,0,0,1,0-.11s0,0,0,0a5.06,5.06,0,0,1,.41-.37l.46-.37a15.83,15.83,0,0,1,2.22-1.33q-.59-.39-1.17-.84l-.24-.19a2.43,2.43,0,0,1-.25-.2l-.28-.22c-.37-.31-.74-.63-1.11-1-.16.36-.3.73-.44,1.1,0,.1-.08.2-.11.3s-.07.21-.1.31c-.15.46-.29.92-.41,1.41,0,.1-.05.21-.08.31a2.82,2.82,0,0,1-.07.31l-.15.77,1.18.12A.46.46,0,0,0,32.58,34.26Z"/><path class="cls-1" d="M59.64,33.13c0-.1,0-.21-.07-.31-.11-.49-.24-1-.38-1.43,0-.1-.06-.21-.1-.31l-.1-.3c-.14-.37-.28-.73-.43-1.09-.42.39-.85.77-1.28,1.11l-.17.14-.26.2-.24.19c-.36.27-.72.53-1.08.77a16.37,16.37,0,0,1,2,1.19l.45.33a4.68,4.68,0,0,1,.46.39h0l.28.28,1.08-.11c0-.25-.08-.49-.13-.74Z"/><path class="cls-1" d="M60.36,50.43h-1c.18,1,.35,1.83.42,2.22l0,.19h1.3c-.07-.27-.32-1.29-.61-2.41Z"/><path class="cls-1" d="M60.05,50h.32V50l-.13-.5H59.14l.1.55h.81Z"/><path class="cls-1" d="M60.05,49.07h.08l-.08-.32L60,48.47l-.24,0-.59.07c0,.1-.09.19-.13.29l0,.22h1Z"/><path class="cls-1" d="M30.74,49.47h-.46l-.14.55h1.13l.1-.55h-.63Z"/><path class="cls-1" d="M30.74,48.46l-.2,0-.11.44-.05.19h1.07l.1-.53-.51,0Z"/><path class="cls-1" d="M30.74,50.43H30l-.61,2.41h1.3v0c0-.18.15-.82.3-1.62l.15-.77h-.45Z"/><path class="cls-1" d="M47.15,56.63a1.42,1.42,0,0,1-.08.18c.07.6.18,1.5.22,1.84l1.13-.21-.56-1.88Z"/><path class="cls-1" d="M43.32,56.55l-.71-.1c-.16.55-.47,1.61-.59,2l1.12.21c0-.38.17-1.41.25-2a.35.35,0,0,1,0-.08S43.33,56.56,43.32,56.55Z"/><path class="cls-1" d="M58.35,47.61l0-.13v-.14l-.12.32,0,.05h0a12.57,12.57,0,0,1-2.37,3.82,11.74,11.74,0,0,1-1.44,1.3l-.43.31c-.15.11-.31.21-.47.31a14.09,14.09,0,0,1-6.34,1.94,1.52,1.52,0,0,1,.09.28,1.71,1.71,0,0,1,0,.31v0l.74-.08.31,0a13.46,13.46,0,0,0,6.33-2.43l.4-.31.36-.31c.28-.24.54-.49.8-.76a12.17,12.17,0,0,0,2.19-3.3l.12-.28a.37.37,0,0,1-.08-.18Z"/><path class="cls-1" d="M43.15,55.91a.88.88,0,0,1,0-.23,1.07,1.07,0,0,1,.06-.3.25.25,0,0,1,0-.07,13.74,13.74,0,0,1-5.41-1.85c-.16-.1-.32-.2-.47-.31l-.43-.31a11.36,11.36,0,0,1-1.82-1.65,12.86,12.86,0,0,1-2.19-3.43,3.65,3.65,0,0,1-.14-.35l-.15-.36s0-.09,0-.13v0h0V47l0,.32,0,.3,0,.34a13.12,13.12,0,0,0,2.37,3.75A12,12,0,0,0,36,52.84l.38.31c.13.11.27.21.41.31a13.69,13.69,0,0,0,5.41,2.29C42.5,55.81,42.82,55.87,43.15,55.91Z"/><path class="cls-1" d="M46.53,55.54h0l-.06-.1-.94,0a1.77,1.77,0,0,1,.18.61s0,.1,0,.16,0,.1,0,.15a1,1,0,0,1-.07.3h0a.55.55,0,0,0,.15.08.63.63,0,0,0,.47,0,.71.71,0,0,0,.14-.1l0,0a.74.74,0,0,0,.17-.3,1,1,0,0,0,0-.31,1,1,0,0,0,0-.24A2.58,2.58,0,0,0,46.53,55.54Z"/><path class="cls-1" d="M45,55.73h0a1.35,1.35,0,0,0-.2-.27l0,0h-.28l-.6,0a1,1,0,0,0-.09.17.85.85,0,0,0,0,.23,1.23,1.23,0,0,0,0,.19,1.19,1.19,0,0,0,.1.32h0a.86.86,0,0,0,.13.2l.13.12a.79.79,0,0,0,.29.17.49.49,0,0,0,.39,0h0a.52.52,0,0,0,.11-.1.38.38,0,0,0,.09-.15.83.83,0,0,0,0-.15.81.81,0,0,0,0-.31A1.42,1.42,0,0,0,45,55.73Z"/><path class="cls-1" d="M60.34,36.12l-.31,0-1,.11-.3,0-.31,0-.6.06L58.19,40l0,.28v.05l0,.35.11,1,.16,0,.24,0h.07l.24,0,.31,0,.21,0,.21,0H60l.14,0h.39l5.62-.58c-.26-2.48-.52-5-.55-5.33l-4.94.51Z"/><path class="cls-1" d="M66.25,42.12l-.66.06.13,1.32.67-.07C66.33,42.84,66.27,42.31,66.25,42.12Z"/><path class="cls-1" d="M63.75,44.71l.12,1.21.74-.08-.13-1.21Z"/><path class="cls-1" d="M60.82,45l-.19,0,0,.43.08.78.74-.07L61.36,45Z"/><path class="cls-1" d="M61.67,44.92l.12,1.21.74-.07-.13-1.21Z"/><path class="cls-1" d="M62.71,44.82,62.83,46l.74-.08-.13-1.21Z"/><path class="cls-1" d="M65.28,42.22l-.73.07.13,1.32.74-.08Z"/><path class="cls-1" d="M64.24,42.32l-.73.08.13,1.32.74-.08Z"/><path class="cls-1" d="M63.2,42.43l-.73.08.13,1.31.74-.07Z"/><path class="cls-1" d="M66.49,44.43l-.66.07L66,45.7l.67-.06Z"/><path class="cls-1" d="M64.79,44.6l.12,1.21.74-.07-.13-1.21Z"/><path class="cls-1" d="M62.16,42.54l-.73.07.13,1.32.74-.07Z"/><path class="cls-1" d="M60.68,44,61,44l.27,0-.14-1.32-.23,0-.31,0h-.19l0,.38.09.94Z"/><path class="cls-1" d="M59.67,46l0,.3v.06h.49l.16,0h.09l0-.3,0-.55h0l0-.35-.16,0h-.11l-.21,0h-.1l-.15,0,.08.8Z"/><path class="cls-1" d="M60.08,42.75l-.19,0h0l-.28,0-.21,0,.06.58,0,.37,0,.3v.07h0l.18,0h.15l.17,0h0l.17,0,0-.26-.07-.71h0Z"/><path class="cls-1" d="M59.3,46.39h.1v-.09h0l0-.37,0-.37,0-.38-.14,0-.2,0h-.19v.07l.05.47v.15l0,.38,0,.14h0l.33,0Z"/><path class="cls-1" d="M59.14,44.18h0V44l0-.23-.1-.92h0l-.22,0h-.26c0,.13,0,.4.07.74v.13l0,.3v.15l.17,0Z"/><path class="cls-1" d="M30.56,41.51h.07l.13,0h.18l.2,0h.13l.3,0,.31,0,.31,0h0l.24,0,.07-.64,0-.43,0-.34,0-.33.17-1.67c.08-.73.15-1.39.2-1.92l-.36,0-.31,0-.31,0-1-.1-.31,0-.31,0-5.19-.54c0,.29-.29,2.85-.55,5.33l5.69.59Z"/><path class="cls-1" d="M27.64,42.43l-.14,1.32.74.07.13-1.31Z"/><path class="cls-1" d="M27.28,46,28,46l.12-1.21-.73-.08Z"/><path class="cls-1" d="M24.59,42.12c0,.19-.08.72-.14,1.31l.67.07.13-1.32Z"/><path class="cls-1" d="M26.24,45.84l.73.08.12-1.21-.73-.08Z"/><path class="cls-1" d="M28.68,42.54l-.14,1.32.74.07.13-1.32Z"/><path class="cls-1" d="M25.2,45.74l.73.07.12-1.21-.73-.07Z"/><path class="cls-1" d="M26.6,42.32l-.14,1.32.74.08.13-1.32Z"/><path class="cls-1" d="M25.56,42.22l-.14,1.31.74.08.13-1.32Z"/><path class="cls-1" d="M24.24,45.45v.06l0,.13.67.06L25,44.5l-.66-.07Z"/><path class="cls-1" d="M28.32,46.06l.73.07.12-1.21-.73-.07Z"/><path class="cls-1" d="M30.15,45.65l.06-.62-.3,0-.43,0-.12,1.21.73.07Z"/><path class="cls-1" d="M30.53,46.29h.21l.21,0h.18v-.06l0-.18v0l.09-.94h0l-.21,0h-.11l-.19,0-.17,0h-.05l-.06.56,0,.34,0,.16v.15h.13Z"/><path class="cls-1" d="M30.45,42.72l-.29,0-.31,0-.13,0L29.58,44l.17,0,.3,0,.27,0,0-.31.09-.9Z"/><path class="cls-1" d="M32,45.22l-.34,0h-.14l-.09.88,0,.24v.09h.13l.32,0H32l0-.14,0-.4.06-.58h0v-.09H32Z"/><path class="cls-1" d="M31.36,44.15V44l0-.24,0-.24.07-.71-.26,0h0l-.29,0h0l-.13,0-.08.76,0,.28,0,.28h.13l.32,0,.23,0Z"/><path class="cls-1" d="M32.28,42.91l-.31,0-.17,0-.07.64h0l0,.28,0,.3v.1l.18,0H32l.19,0h0v-.15l0-.3.06-.65v-.08l0-.14h0Z"/><path class="cls-1" d="M44.74,25.22V21.37c-.26,0-.52,0-.77.06l-.38,2.35,0,.12-.06.36,0,.31v0l-.05.28,0,.33-.51,3.2a5.5,5.5,0,0,0,1.89.64Z"/><path class="cls-1" d="M47.65,24.9l0-.23v-.09l0-.26L47.5,24l0-.17-.38-2.38-.72-.05v7.71a5.65,5.65,0,0,0,1.85-.55l-.53-3.31Z"/><path class="cls-1" d="M32.89,35.37l.23.1h0l.28.1h0l.29.09h0a21.73,21.73,0,0,0,2.62.51l.13-.29.42-.88L40,36.49l.16.08,1.4.07c1.23.06,2.59.09,4.06.09,1.19,0,2.29,0,3.32-.06l1.58-.07.18-.08,3.2-1.5.43.91.15.32c1.08-.14,2-.3,2.62-.45h0l.29-.07h0l.29-.09h0l.49-.17.28-.15a.29.29,0,0,0,.13-.15.34.34,0,0,0-.08-.18l0,0a1.24,1.24,0,0,0-.16-.19s0,0,0-.05l0,0-.21-.19L58,34.41l0,0,0,0a14.89,14.89,0,0,0-2.77-1.7s0,0,0,0a.27.27,0,0,1-.09.2c-2.1,2.27-6.3,3.46-9.39,3.47h-.07c-3.09,0-7.29-1.2-9.4-3.47a.3.3,0,0,1-.08-.2v0a15.22,15.22,0,0,0-2.84,1.77l0,.05-.1.09,0,0-.11.1,0,0a1.8,1.8,0,0,0-.2.24l0,.05a.3.3,0,0,0-.05.14C32.68,35.22,32.76,35.29,32.89,35.37Z"/><path class="cls-1" d="M31.66,27.71,32,28c.18.21.38.41.57.61l.23.23.23.22h0l.31.29c.29.27.59.52.88.77l.24.19.25.2.24.19c.5.38,1,.74,1.5,1.07l.12.07a2.5,2.5,0,0,1,.23-.23,5.56,5.56,0,0,1,2.76-1,2.63,2.63,0,0,1,.07-1.93,2.51,2.51,0,0,1,.36-.61c-.49-.29-1-.61-1.51-1l-.27-.19-.27-.2-.16-.12a19.13,19.13,0,0,1-1.84-1.53l-.22-.21-.22-.23-.12-.12A13.14,13.14,0,0,1,33,21.34a8.66,8.66,0,0,1-1-4,9.35,9.35,0,0,1,.13-1.55,11.15,11.15,0,0,1,1.61-4.24,10.56,10.56,0,0,1,3.88-3.5h0l0,0h0a8.73,8.73,0,0,0-4.28,1.13,11.19,11.19,0,0,0-4.64,5.59A10.37,10.37,0,0,0,28,18.82a12.37,12.37,0,0,0,2.2,7A20.81,20.81,0,0,0,31.66,27.71Z"/><path class="cls-1" d="M53.52,8.06h0a10.58,10.58,0,0,1,3.92,3.52A11.12,11.12,0,0,1,59,15.82a9.4,9.4,0,0,1,.14,1.55,8.79,8.79,0,0,1-1,4,13.7,13.7,0,0,1-2.3,3.16l-.12.11-.23.24-.21.21a19.26,19.26,0,0,1-2,1.63l-.08.07L53,27l-.26.18c-.47.33-1,.63-1.41.91a2.55,2.55,0,0,1,.37.62,2.63,2.63,0,0,1,.07,1.93,5.51,5.51,0,0,1,2.74,1,1.67,1.67,0,0,1,.23.23l.12-.08c.47-.31.94-.65,1.42-1l.23-.18.26-.2.13-.11c.35-.28.7-.58,1-.89l.31-.3,0,0,.23-.22.24-.23.51-.54.29-.33a18,18,0,0,0,1.54-2,12.29,12.29,0,0,0,2.2-6.95,10.39,10.39,0,0,0-.78-4.06,11.25,11.25,0,0,0-4.65-5.59A8.7,8.7,0,0,0,53.58,8h-.06Z"/><path class="cls-4" d="M50.12,43.78a1.68,1.68,0,0,0,.65.3,1.51,1.51,0,0,0,.42.05,1.42,1.42,0,0,0,.42-.05,1.8,1.8,0,0,0,.66-.3,1.81,1.81,0,1,0-2.88-1.45A1.79,1.79,0,0,0,50.12,43.78Zm1.07-2.37a.92.92,0,1,1-.92.92A.92.92,0,0,1,51.19,41.41Z"/><path class="cls-4" d="M38.44,43.78a1.8,1.8,0,0,0,.66.3,1.42,1.42,0,0,0,.42.05,1.51,1.51,0,0,0,.42-.05,1.68,1.68,0,0,0,.65-.3,1.81,1.81,0,0,0-1.07-3.26,1.81,1.81,0,0,0-1.08,3.26Zm1.08-2.37a.92.92,0,1,1-.92.92A.92.92,0,0,1,39.52,41.41Z"/><path class="cls-4" d="M58,44.39l0-.2,0-.11,0-.3-.34-3.3,0-.32,0-.32-.36-3.42a21.3,21.3,0,0,1-2.41.42l.23.5-6.44,3L47.48,38l1.65-.77c-1.87.07-3.3.07-3.48.07s-1.88,0-4-.09l1.69.79-1.09,2.33-6.45-3,.27-.56a19,19,0,0,1-2.41-.48l-.36,3.51,0,.32,0,.33-.28,2.72-.06.6,0,.3,0,.31v0l-.09.92c.12.45.26.89.41,1.32.08.2.15.39.23.57a3.45,3.45,0,0,0,.14.34l.15.33.11.22a14.45,14.45,0,0,0,.81,1.39,12,12,0,0,0,1,1.27A11.45,11.45,0,0,0,38,52.84l.51.31.59.31a13.73,13.73,0,0,0,4.59,1.29l1,.08h.83l.85,0,.41,0a14.36,14.36,0,0,0,5.43-1.34l.58-.31c.18-.1.35-.2.51-.31a10.29,10.29,0,0,0,2.06-1.72,10.14,10.14,0,0,0,.87-1.07A13.3,13.3,0,0,0,57,48.79c.17-.31.32-.63.46-.95,0-.11.09-.22.14-.34l0-.07.1-.27c.17-.44.31-.9.44-1.37l-.05-.51ZM47,49.86c-1.47.06-1.26-2.21-1.26-2.21s6.51-.56,9.95-2.72C55.66,44.93,56.25,49.47,47,49.86Zm2.21,0a.39.39,0,0,1,.64.46,5.51,5.51,0,0,1-4.46,1.88,5.53,5.53,0,0,1-4.5-1.92.39.39,0,0,1,.1-.55.4.4,0,0,1,.55.09,4.72,4.72,0,0,0,3.85,1.59A4.79,4.79,0,0,0,49.18,49.83Zm-5.42,0c-9.28-.39-8.69-4.93-8.69-4.93,3.44,2.16,10,2.72,10,2.72S45.23,49.92,43.76,49.86Zm7.43-10.13a2.61,2.61,0,0,1,2.6,2.6,2.69,2.69,0,0,1-.44,1.45,2.48,2.48,0,0,1-.25.3,2,2,0,0,1-.34.31,2.55,2.55,0,0,1-3.14,0,2.45,2.45,0,0,1-.34-.31,1.76,1.76,0,0,1-.24-.3,2.6,2.6,0,0,1,2.15-4.05Zm-5.83,3.78a3.8,3.8,0,0,1,1.43.27,2.44,2.44,0,0,1,.58.3,2.77,2.77,0,0,1,.36.31,1.57,1.57,0,0,1,.44,1c0,1.08-1.24,1.92-2.81,1.92s-2.81-.84-2.81-1.92a1.52,1.52,0,0,1,.44-1,2.27,2.27,0,0,1,.93-.61A3.85,3.85,0,0,1,45.36,43.51Zm-5.84-3.78a2.6,2.6,0,0,1,2.15,4.05,1.76,1.76,0,0,1-.24.3,2.45,2.45,0,0,1-.34.31,2.55,2.55,0,0,1-3.14,0,2,2,0,0,1-.34-.31,2.48,2.48,0,0,1-.25-.3,2.6,2.6,0,0,1,2.16-4.05Z"/><path class="cls-4" d="M68.06,47c-.11-1.09-1.27-12.31-1.32-12.87l-6.22.64-.3,0-.31,0-.73.07s0,0,0,0a.65.65,0,0,1,.06.26.66.66,0,0,1-.23.47l1-.1.3,0,.31,0,5.22-.54a.3.3,0,0,1,.34.27L67.27,46v0a.34.34,0,0,1-.07.19.36.36,0,0,1-.21.11L60.36,47h-.11l-.2,0h-.11l-.2,0h-.11l-.29,0h0l-.3,0h-.09c0,.06,0,.12,0,.18v0l.05.52V48h.06l.34,0,.34,0h.09l.22,0h.08l.23,0h.08L68.07,47Z"/><path class="cls-4" d="M58.81,42.36l.23,0,.31,0,.33,0,.19,0h.62l.22,0,5.42-.55v-.1l0-.29-5.56.58h-.14l-.19,0h-.13l-.18,0h-.14l-.38,0-.3,0-.24,0h-.08l-.23,0-.12,0h-.13l0,.29v.09h.19l.23,0Z"/><path class="cls-4" d="M59,44.89l.24,0h0l.29,0h.05l.14,0h.17l.14,0,.17,0h.14l.22,0h0l.31,0,.43-.05.3,0,.74-.08.3,0,.74-.07.3,0,.74-.07.3,0,.74-.08.31,0,.59-.06,0-.38-.59.06-.31,0-.73.08-.31,0-.73.07-.31,0-.73.08-.31,0-.73.08-.31,0-.33,0-.32,0h-.08l-.2,0h-.11l-.2,0H60l-.22,0h-.33l-.2,0-.13,0h0l-.3,0h-.23v.14l0,.25.12,0h0l.2,0Z"/><path class="cls-4" d="M31.81,47.16h0l-.34,0h-.06l-.37,0h-.15l-.15,0-.16,0h-.15l-.16,0-6.43-.66a.3.3,0,0,1-.27-.3v-.16h0l.08-.74,1-9.93a.36.36,0,0,1,.11-.21.32.32,0,0,1,.23-.06l5.5.56.3,0,.31,0,1.05.11h.16a.53.53,0,0,1-.13-.13.56.56,0,0,1-.16-.39.52.52,0,0,1,0-.21l0-.05-.88-.09-.31,0-.3,0-6.52-.68c-.05.56-1.21,11.77-1.32,12.87V47l7.3.75.31,0h.05l.26,0h0l.3,0,.62.06.11,0h.07v-.06l0-.49h0l0-.23h-.11Z"/><path class="cls-4" d="M32.44,42l-.2,0h0l-.31,0-.31,0-.25,0h-.14l-.19,0h-.12l-.19,0-.12,0h0l-.34,0-5.46-.57,0,.29v.1l5.31.54.33,0,.23,0h.31l.19,0,.12,0,.21,0,.2,0,.31,0,.31,0h0l.14,0h.13v-.09l0-.16V42h-.13Z"/><path class="cls-4" d="M32.18,44.54h-.09l-.19,0-.16,0h-.11l-.19,0h-.11l-.21,0H31l-.24,0h-.21l-.16,0h0l-.11,0-.2,0-.32,0-.22,0-.3,0-.74-.08-.3,0-.74-.08-.3,0L26.43,44l-.3,0-.74-.08-.3,0-.6-.06c0,.13,0,.25,0,.38l.6.06.3,0,.74.08.3,0,.74.07.3,0,.74.07.3,0,.74.08.3,0,.32,0,.33,0h.09l.18,0h.12l.19,0h.13l.17,0h.25l.22,0h.08l.31,0h.37a.31.31,0,0,0,0-.1l0-.28h-.13Z"/><path class="cls-4" d="M45.87,29.13V21.29h-.62v7.83h.62Z"/><path class="cls-4" d="M47.93,23.47l.06.42v0l.06.36.06.38.05.32,0,.33.48,3c.19-.12.38-.25.56-.39l-.4-2.43-.06-.32,0-.33-.12-.69-.08-.49-.09-.54-.16-1-.09-.48V21.5h0l-.6-.08v.06Z"/><path class="cls-4" d="M42.84,25.3l0-.32,0-.32.08-.45,0-.31v-.09l.07-.45.31-1.88v-.06l-.51.07h-.1v.08l-.22,1.32-.1.6-.09.57-.12.71-.06.33,0,.33-.38,2.27c.18.15.36.29.55.42Z"/><path class="cls-4" d="M48.35,32.65a.28.28,0,1,0-.28-.28A.29.29,0,0,0,48.35,32.65Z"/><path class="cls-4" d="M41,35a17,17,0,0,0,2.49.59l.17,0,.15,0h0l.32,0a12.26,12.26,0,0,0,1.45.09h.05a11.61,11.61,0,0,0,1.41-.09l.32,0h0l.09,0,.23,0A16.55,16.55,0,0,0,50.07,35a12,12,0,0,0,3.71-1.82,8.5,8.5,0,0,0,.7-.61,1.09,1.09,0,0,0-.08-.15,1.16,1.16,0,0,0-.2-.25h0a4.89,4.89,0,0,0-2.88-1,.28.28,0,0,1-.25-.15.42.42,0,0,1,0-.15s0-.05,0-.08l0-.07a1.6,1.6,0,0,0,.1-.23,2,2,0,0,0,.13-.73,2.07,2.07,0,0,0-.17-.84,1.82,1.82,0,0,0-.34-.55,2.73,2.73,0,0,0-.25-.23,2,2,0,0,0-.31-.19l-.08,0-.24.22-.07.06-.47.37a6.65,6.65,0,0,1-.56.36l-.48.25a6.1,6.1,0,0,1-1.57.49,7.89,7.89,0,0,1-1.1.1h0a7.36,7.36,0,0,1-1.16-.11h-.08a6.41,6.41,0,0,1-1.64-.58l-.48-.27a6,6,0,0,1-.55-.38l-.26-.21-.2-.18-.12-.11L41,28a1.65,1.65,0,0,0-.31.2,1.79,1.79,0,0,0-.25.23,1.87,1.87,0,0,0-.32.53,2.07,2.07,0,0,0-.17.84,2,2,0,0,0,.13.74,1.47,1.47,0,0,0,.1.22l0,.07s0,0,0,.08a.42.42,0,0,1,0,.15.28.28,0,0,1-.25.15,4.81,4.81,0,0,0-2.89,1.05h0a1.57,1.57,0,0,0-.2.25l-.06.13a6.84,6.84,0,0,0,.81.69A11.61,11.61,0,0,0,41,35Zm-3.39-2.2a.29.29,0,0,1-.08-.21v0a.31.31,0,0,1,.09-.18c.5-.51,1.88-.67,3.4-.79-.08-.17-.16-.37-.25-.59s-.07-.19-.1-.29l-.09-.31a3.39,3.39,0,0,1-.12-.82,1.59,1.59,0,0,1,.09-.55,1,1,0,0,1,.31-.38,1.13,1.13,0,0,1,.27-.13h0a.29.29,0,0,1,.13,0,.26.26,0,0,1,.16.09h0l.18.15a4.2,4.2,0,0,0,.56.38l.11.06a8.75,8.75,0,0,0,1.69.67l.23.07h0l.32.08c.2,0,.39.08.57.1l.46,0h0l.46,0,.53-.09.31-.07h0l.08,0,.23-.06A8.65,8.65,0,0,0,49,29.11h0l.39-.24a3.32,3.32,0,0,0,.39-.31.2.2,0,0,1,.07-.06.26.26,0,0,1,.23,0,.83.83,0,0,1,.25.12.88.88,0,0,1,.32.39,1.38,1.38,0,0,1,.1.55,3.46,3.46,0,0,1-.12.82l-.09.3c0,.11-.07.2-.1.3s-.17.42-.25.59c1.52.12,2.9.28,3.4.79a.34.34,0,0,1,.09.15v.07a.29.29,0,0,1-.08.21,5.36,5.36,0,0,1-.42.39,10.37,10.37,0,0,1-3.13,1.51,18,18,0,0,1-2.39.58l-.32.06h-.06l-.26,0a12.45,12.45,0,0,1-1.39.11h-.05a13.12,13.12,0,0,1-1.43-.11l-.27,0h-.05l-.32,0a16.91,16.91,0,0,1-2.41-.59,10,10,0,0,1-3-1.43A4,4,0,0,1,37.65,32.77Z"/><path class="cls-4" d="M43.92,34.68l.32,0a10.44,10.44,0,0,0,1.38.11h.05a11.62,11.62,0,0,0,1.34-.1l.32-.05.32,0a12.41,12.41,0,0,0,5.26-2A11.73,11.73,0,0,0,50,32.15l-.3,0a.31.31,0,0,1-.24-.16.23.23,0,0,1,0-.14.28.28,0,0,1,0-.15,9,9,0,0,0,.38-.84c0-.1.08-.2.11-.3l.09-.3a2.72,2.72,0,0,0,.11-.69.91.91,0,0,0,0-.31l-.06-.09a6,6,0,0,1-1.42.84c-.19.09-.39.16-.59.24a6.18,6.18,0,0,1-.73.23h0l-.32.09-.32.07a5.93,5.93,0,0,1-1,.12h0a5.73,5.73,0,0,1-1.08-.13l-.32-.07L44,30.45h0c-.23-.06-.46-.14-.69-.22a6.07,6.07,0,0,1-.59-.24,6,6,0,0,1-1.42-.84l-.06.09a.91.91,0,0,0,0,.31,2.72,2.72,0,0,0,.11.69l.09.3c0,.1.07.2.11.3a8,8,0,0,0,.38.84.28.28,0,0,1,0,.15.23.23,0,0,1,0,.14.31.31,0,0,1-.24.16l-.3,0a11.81,11.81,0,0,0-2.89.46,12.46,12.46,0,0,0,5.23,2Zm4.43-3.2a.89.89,0,1,1-.86,1.13.88.88,0,0,1,0-.24.41.41,0,0,1,0-.11A.88.88,0,0,1,48.35,31.48Zm-2.75.27h.06a1,1,0,0,1,0,2H45.6a1,1,0,0,1,0-2ZM42.85,33.2a.89.89,0,1,1,.89-.89A.89.89,0,0,1,42.85,33.2Z"/><path class="cls-4" d="M42.85,32a.27.27,0,0,0-.28.28.28.28,0,0,0,.28.28.29.29,0,0,0,.28-.28A.28.28,0,0,0,42.85,32Z"/><path class="cls-4" d="M45.6,33.11h.06a.37.37,0,0,0,.31-.36.39.39,0,0,0-.31-.37H45.6a.37.37,0,0,0,0,.74Z"/><path class="cls-4" d="M45.36,46.56c1.07,0,2-.53,2-1.13s-.55-.87-1.28-1a3.49,3.49,0,0,0-.74-.09,3.66,3.66,0,0,0-.75.09c-.73.17-1.27.59-1.27,1S44.28,46.56,45.36,46.56Z"/><path d="M69.09,47.22,67.7,33.67a.71.71,0,0,0-.78-.62l-6.17.63,0-.19a1.8,1.8,0,0,0-.89-3.28c-.11-.3-.23-.59-.35-.88a21.81,21.81,0,0,0,2.45-3,13.45,13.45,0,0,0,2.38-7.53h0a11.49,11.49,0,0,0-.87-4.47,12.3,12.3,0,0,0-5.09-6.09A9.76,9.76,0,0,0,53.56,7a7.5,7.5,0,0,0-1.43.12.72.72,0,0,0-.56.64s0,0,0,.07a.73.73,0,0,0,.44.66,10,10,0,0,1,4.55,3.66A10,10,0,0,1,58,16a8,8,0,0,1,.12,1.37,7.6,7.6,0,0,1-.86,3.5,11.46,11.46,0,0,1-2,2.77,14.51,14.51,0,0,0-1.44-1,1.13,1.13,0,0,0,0-.18A1.82,1.82,0,0,0,52,20.61a1.77,1.77,0,0,0-1.28.55,16.45,16.45,0,0,0-1.83-.49,3.84,3.84,0,0,0-6.71,0,17.77,17.77,0,0,0-1.77.48,1.81,1.81,0,0,0-3.1,1.28c0,.06,0,.13,0,.19a15.65,15.65,0,0,0-1.4,1,12,12,0,0,1-2-2.77,7.72,7.72,0,0,1-.85-3.5A8,8,0,0,1,33.22,16a10,10,0,0,1,1.44-3.85,10.08,10.08,0,0,1,4.56-3.66.73.73,0,0,0,.43-.66V7.76a.74.74,0,0,0-.56-.64A8,8,0,0,0,37.65,7a9.76,9.76,0,0,0-4.78,1.26,12.25,12.25,0,0,0-5.09,6.09,11.49,11.49,0,0,0-.87,4.47h0a13.38,13.38,0,0,0,2.38,7.54,20.66,20.66,0,0,0,2.45,3l-.36.88a1.8,1.8,0,0,0-.95,3.27l0,.24-6.5-.67a.7.7,0,0,0-.52.15.73.73,0,0,0-.25.47l-1.4,13.55v.07a.74.74,0,0,0,.15.45.73.73,0,0,0,.48.25l7.06.73c-.18.73-1.08,4.26-1.08,4.26a1,1,0,0,0,0,.17.66.66,0,0,0,.15.43.72.72,0,0,0,.56.27h6.59a14.32,14.32,0,0,0,5.88,2.79l-.55,1.85a.68.68,0,0,0,.08.57.66.66,0,0,0,.47.32l1.78.33a.69.69,0,0,0,.54-.13.67.67,0,0,0,.28-.48s.1-.79.16-1.31a1.49,1.49,0,0,0,1-.12l0,0,.11.06a1.68,1.68,0,0,0,.73.1l.16,1.28a.67.67,0,0,0,.28.48.69.69,0,0,0,.54.13l1.78-.33a.66.66,0,0,0,.47-.32.68.68,0,0,0,.08-.57L49,56.8a14.07,14.07,0,0,0,6.78-2.95h5.71a.72.72,0,0,0,.56-.27.66.66,0,0,0,.15-.43,1,1,0,0,0,0-.17s-.89-3.5-1.07-4.23L68.47,48a.73.73,0,0,0,.47-.25.75.75,0,0,0,.16-.45S69.09,47.25,69.09,47.22ZM44.85,56.77h0a.49.49,0,0,1-.39,0,.79.79,0,0,1-.29-.17L44,56.51a.86.86,0,0,1-.13-.2h0a1.19,1.19,0,0,1-.1-.32,1.23,1.23,0,0,1,0-.19.85.85,0,0,1,0-.23,1,1,0,0,1,.09-.17l.6,0h.28l0,0a1.35,1.35,0,0,1,.2.27h0a1.42,1.42,0,0,1,.11.33.81.81,0,0,1,0,.31.83.83,0,0,1,0,.15.38.38,0,0,1-.09.15A.52.52,0,0,1,44.85,56.77ZM37.69,8.08a10.56,10.56,0,0,0-3.88,3.5,11.15,11.15,0,0,0-1.61,4.24,9.35,9.35,0,0,0-.13,1.55,8.66,8.66,0,0,0,1,4,13.14,13.14,0,0,0,2.3,3.16l.12.12.22.23.22.21a19.13,19.13,0,0,0,1.84,1.53l.16.12.27.2.27.19c.51.35,1,.67,1.51,1a2.51,2.51,0,0,0-.36.61,2.63,2.63,0,0,0-.07,1.93,5.56,5.56,0,0,0-2.76,1,2.5,2.5,0,0,0-.23.23l-.12-.07c-.5-.33-1-.69-1.5-1.07l-.24-.19-.25-.2-.24-.19c-.29-.25-.59-.5-.88-.77L33,29.09h0l-.23-.22-.23-.23c-.19-.2-.39-.4-.57-.61l-.29-.31a20.81,20.81,0,0,1-1.5-1.94A12.37,12.37,0,0,1,28,18.82a10.37,10.37,0,0,1,.79-4.06,11.19,11.19,0,0,1,4.64-5.59A8.73,8.73,0,0,1,37.67,8h0l0,0Zm.66,14.35a.81.81,0,0,1,1.37-.59,12.16,12.16,0,0,0-1.36.65A.13.13,0,0,1,38.35,22.43Zm1.92-.14.29-.11a13.82,13.82,0,0,1,1.7-.49l-.41,2.58-.1.66-.06.33,0,.34-.27,1.69a.28.28,0,0,0-.25,0,2,2,0,0,0-.7.35q-.68-.41-1.38-.87l-.28-.2-.28-.19-.2-.15a17.79,17.79,0,0,1-1.9-1.57,14.22,14.22,0,0,1,1.71-1.26l.26-.16.29-.16A12.45,12.45,0,0,1,40,22.41,1.88,1.88,0,0,1,40.27,22.29Zm12.57.19a12.1,12.1,0,0,0-1.36-.64.81.81,0,0,1,1.37.59A.11.11,0,0,1,52.84,22.48Zm-1.61-.07a10.91,10.91,0,0,1,1.34.63l.28.15.27.16a13.7,13.7,0,0,1,1.75,1.27,19.88,19.88,0,0,1-2,1.66l-.13.1-.29.2-.28.19q-.66.43-1.29.81a2.15,2.15,0,0,0-.68-.33.31.31,0,0,0-.3.08l-.15.14-.3-1.87-.05-.33,0-.34-.1-.63-.31-1.93-.11-.7.07,0a13.77,13.77,0,0,1,1.76.49l.3.11C51,22.33,51.13,22.36,51.23,22.41Zm4.33,2.44.23-.24.12-.11a13.7,13.7,0,0,0,2.3-3.16,8.79,8.79,0,0,0,1-4A9.4,9.4,0,0,0,59,15.82a11.12,11.12,0,0,0-1.6-4.24,10.58,10.58,0,0,0-3.92-3.52h.06a8.7,8.7,0,0,1,4.27,1.13,11.25,11.25,0,0,1,4.65,5.59,10.39,10.39,0,0,1,.78,4.06,12.29,12.29,0,0,1-2.2,7,18,18,0,0,1-1.54,2l-.29.33-.51.54-.24.23-.23.22,0,0-.31.3c-.34.31-.69.61-1,.89l-.13.11-.26.2-.23.18c-.48.36-1,.7-1.42,1l-.12.08a1.67,1.67,0,0,0-.23-.23,5.51,5.51,0,0,0-2.74-1,2.63,2.63,0,0,0-.07-1.93,2.55,2.55,0,0,0-.37-.62c.46-.28.94-.58,1.41-.91L53,27l.29-.2.08-.07a19.26,19.26,0,0,0,2-1.63Zm3.53,6.23c0,.1.07.21.1.31.14.46.27.94.38,1.43,0,.1,0,.21.07.31l.06.31c0,.25.09.49.13.74l-1.08.11L58.47,34h0a4.68,4.68,0,0,0-.46-.39l-.45-.33a16.37,16.37,0,0,0-2-1.19c.36-.24.72-.5,1.08-.77l.24-.19.26-.2.17-.14c.43-.34.86-.72,1.28-1.11.15.36.29.72.43,1.09ZM30.28,49.47h1.09l-.1.55H30.14Zm11.93-24,0-.33.06-.33.12-.71.09-.57.1-.6.22-1.32V21.5H43l.51-.07v.06l-.31,1.88-.07.45v.09l0,.31-.08.45,0,.32,0,.32-.46,2.83c-.19-.13-.37-.27-.55-.42Zm6-3.85.09.48.16,1,.09.54.08.49.12.69,0,.33.06.32.4,2.43c-.18.14-.37.27-.56.39l-.48-3,0-.33-.05-.32-.06-.38L48,23.92v0l-.06-.42-.33-2v-.06l.6.08h0v.09ZM22.78,47c.11-1.1,1.27-12.31,1.32-12.87l6.52.68.3,0,.31,0,.88.09,0,.05a.52.52,0,0,0,0,.21.56.56,0,0,0,.16.39.53.53,0,0,0,.13.13h-.16l-1.05-.11-.31,0-.3,0L25,34.94a.32.32,0,0,0-.23.06.36.36,0,0,0-.11.21l-1,9.93-.08.74h0V46a.3.3,0,0,0,.27.3l6.43.66.16,0h.15l.16,0,.15,0H31l.37,0h.06l.34,0h.11a1.79,1.79,0,0,0,0,.23h0l0,.49V48h-.07l-.11,0L31,47.87l-.3,0h0l-.26,0h-.05l-.31,0L22.77,47ZM40.22,30.71a1.47,1.47,0,0,1-.1-.22,2,2,0,0,1-.13-.74,2.07,2.07,0,0,1,.17-.84,1.87,1.87,0,0,1,.32-.53,1.79,1.79,0,0,1,.25-.23A1.65,1.65,0,0,1,41,28l.1-.05.12.11.2.18.26.21a6,6,0,0,0,.55.38l.48.27a6.41,6.41,0,0,0,1.64.58h.08a7.36,7.36,0,0,0,1.16.11h0a7.89,7.89,0,0,0,1.1-.1,6.1,6.1,0,0,0,1.57-.49l.48-.25a6.65,6.65,0,0,0,.56-.36l.47-.37.07-.06.24-.22.08,0a2,2,0,0,1,.31.19,2.73,2.73,0,0,1,.25.23,1.82,1.82,0,0,1,.34.55,2.07,2.07,0,0,1,.17.84,2,2,0,0,1-.13.73,1.6,1.6,0,0,1-.1.23l0,.07s0,0,0,.08a.42.42,0,0,0,0,.15.28.28,0,0,0,.25.15,4.89,4.89,0,0,1,2.88,1h0a1.16,1.16,0,0,1,.2.25,1.09,1.09,0,0,1,.08.15,8.5,8.5,0,0,1-.7.61A12,12,0,0,1,50.07,35a16.55,16.55,0,0,1-2.35.53l-.23,0-.09,0h0l-.32,0a11.61,11.61,0,0,1-1.41.09h-.05a12.26,12.26,0,0,1-1.45-.09l-.32,0h0l-.15,0-.17,0A17,17,0,0,1,41,35a11.61,11.61,0,0,1-3.42-1.68,6.84,6.84,0,0,1-.81-.69l.06-.13a1.57,1.57,0,0,1,.2-.25h0A4.87,4.87,0,0,1,40,31.16a.28.28,0,0,0,.25-.15.42.42,0,0,0,0-.15s0-.05,0-.08Zm3.14-5.49,0-.33.05-.28v0l0-.31.06-.36,0-.12L44,21.43c.25,0,.51-.05.77-.06v7.69a5.5,5.5,0,0,1-1.89-.64Zm3.74-3.8.38,2.38,0,.17.06.35,0,.26v.09l0,.23.05.32.53,3.31a5.65,5.65,0,0,1-1.85.55V21.37Zm-1.23-.07v7.78h-.62V21.29h.62ZM36.21,32.87c2.11,2.27,6.31,3.46,9.4,3.47h.07c3.09,0,7.29-1.2,9.39-3.47a.27.27,0,0,0,.09-.2s0,0,0,0a14.89,14.89,0,0,1,2.77,1.7l0,0,0,0,.05.05.21.19,0,0s0,0,0,.05a1.24,1.24,0,0,1,.16.19l0,0a.34.34,0,0,1,.08.18.29.29,0,0,1-.13.15l-.28.15-.49.17h0l-.29.09h0l-.29.07h0c-.66.15-1.54.31-2.62.45l-.15-.32L53.93,35l-3.2,1.5-.18.08L49,36.67c-1,0-2.13.06-3.32.06-1.47,0-2.83,0-4.06-.09l-1.4-.07L40,36.49,36.89,35l-.42.88-.13.29a21.73,21.73,0,0,1-2.62-.51h0l-.29-.09h0l-.29-.11h0l-.23-.1c-.13-.08-.21-.15-.23-.21a.3.3,0,0,1,.05-.14l0-.05a1.8,1.8,0,0,1,.2-.24l0,0,.11-.1,0,0,.1-.09,0-.05a15.22,15.22,0,0,1,2.84-1.77v0A.3.3,0,0,0,36.21,32.87ZM68.07,47l-7.63.78h-.08l-.23,0h-.08l-.22,0h-.09l-.34,0-.34,0H59v-.06l-.05-.52v0l0-.18H59l.3,0h0l.29,0h.11l.2,0h.11l.2,0h.11L67,46.34a.36.36,0,0,0,.21-.11.34.34,0,0,0,.07-.19v0L66.16,35.21a.3.3,0,0,0-.34-.27l-5.22.54-.31,0-.3,0-1,.1a.66.66,0,0,0,.23-.47.65.65,0,0,0-.06-.26s0,0,0,0l.73-.07.31,0,.3,0,6.22-.64c.05.56,1.21,11.78,1.32,12.87ZM57,48.79a13.3,13.3,0,0,1-.78,1.26,10.14,10.14,0,0,1-.87,1.07,10.29,10.29,0,0,1-2.06,1.72c-.16.11-.33.21-.51.31l-.58.31a14.36,14.36,0,0,1-5.43,1.34l-.41,0-.85,0h-.83l-1-.08a13.73,13.73,0,0,1-4.59-1.29l-.59-.31L38,52.84a11.45,11.45,0,0,1-2.44-2.06,12,12,0,0,1-1-1.27,14.45,14.45,0,0,1-.81-1.39l-.11-.22-.15-.33a3.45,3.45,0,0,1-.14-.34c-.08-.18-.15-.37-.23-.57-.15-.43-.29-.87-.41-1.32l.09-.92v0l0-.31,0-.3.06-.6.28-2.72,0-.33,0-.32.36-3.51a19,19,0,0,0,2.41.48l-.27.56,6.45,3L43.33,38l-1.69-.79c2.13.09,3.82.09,4,.09s1.61,0,3.48-.07L47.48,38l1.1,2.33,6.44-3-.23-.5a21.3,21.3,0,0,0,2.41-.42l.36,3.42,0,.32,0,.32.34,3.3,0,.3,0,.11,0,.2.09.89.05.51c-.13.47-.27.93-.44,1.37l-.1.27,0,.07c-.05.12-.09.23-.14.34C57.32,48.16,57.17,48.48,57,48.79ZM58.27,42h.13l.12,0,.23,0h.08l.24,0,.3,0,.38,0h.14l.18,0h.13l.19,0h.14l5.56-.58,0,.29v.1l-5.42.55-.22,0h-.62l-.19,0-.33,0-.31,0-.23,0h-.08l-.23,0h-.19v-.09Zm7.15,1.5-.74.08-.13-1.32.73-.07Zm-5.37,2.78h-.34v-.06l0-.3v-.05l-.08-.8.15,0h.1l.21,0h.11l.16,0,0,.35h0l0,.55,0,.3h-.09l-.16,0Zm4.33-2.67-.74.08-.13-1.32.73-.08Zm-5.5,2.79,0-.14,0-.38v-.15l-.05-.47v-.07h.19l.2,0,.14,0,0,.38,0,.37,0,.37h0v.09h-.16l-.33,0Zm4.46-2.68-.74.07-.13-1.31.73-.08Zm-3.86.4v-.07l0-.3,0-.37-.06-.58.21,0,.28,0h0l.19,0,0,.35h0l.07.71,0,.26-.17,0h0l-.17,0h-.15l-.18,0Zm1-1,0-.38h.19l.31,0,.23,0L61.26,44,61,44l-.31,0-.16,0Zm1-.49.73-.07.14,1.32-.74.07Zm-2.75.29h.1l.22,0h0l.1.92,0,.23v.17h0l-.32,0-.17,0v-.15l0-.3v-.13c0-.34-.06-.61-.07-.74Zm2,2.56,0-.43.19,0,.54,0,.13,1.21-.74.07Zm1-.54.73-.07.13,1.21-.74.07Zm1-.1.73-.08L63.57,46l-.74.08Zm1-.11.73-.08.13,1.21-.74.08Zm1-.11.73-.07.13,1.21-.74.07Zm1-.1.66-.07.13,1.21L66,45.7Zm0-.31-.31,0-.74.08-.3,0-.74.07-.3,0-.74.07-.3,0-.74.08-.3,0-.43.05-.31,0h0l-.22,0h-.14l-.17,0-.14,0h-.17l-.14,0h-.05l-.29,0h0l-.24,0h-.09l-.2,0h0l-.12,0,0-.25v-.14h.23l.3,0h0l.13,0,.2,0h.33l.22,0h.09l.2,0h.11l.2,0h.08l.32,0,.33,0,.31,0,.73-.08.31,0,.73-.08.31,0,.73-.07.31,0,.73-.08.31,0,.59-.06,0,.38Zm-.08-.69-.13-1.32.66-.06c0,.19.08.72.14,1.31Zm-5.21-2h-.39l-.14,0h-.17l-.21,0-.21,0-.31,0-.24,0h-.07l-.24,0-.16,0-.11-1,0-.35v-.05l0-.28-.37-3.63.6-.06.31,0,.3,0,1-.11.31,0,.3,0,4.94-.51c0,.29.29,2.85.55,5.33ZM33,36.38c-.05.53-.12,1.19-.2,1.92L32.65,40l0,.33,0,.34,0,.43-.07.64-.24,0h0l-.31,0-.31,0-.3,0h-.13l-.2,0h-.18l-.13,0H30.4l-5.69-.59c.26-2.48.52-5,.55-5.33l5.19.54.31,0,.31,0,1,.1.31,0,.31,0Zm-2.45,5.44.12,0,.19,0H31l.19,0h.14l.25,0,.31,0,.31,0h0l.2,0h.13v.13l0,.16v.09H32.4l-.14,0h0l-.31,0-.31,0-.2,0-.21,0-.12,0-.19,0h-.31l-.23,0-.33,0-5.31-.54v-.1l0-.29,5.46.57.34,0Zm1.71,3v.11H31.9l-.31,0h-.08l-.22,0H31l-.17,0h-.13l-.19,0h-.12l-.18,0h-.09l-.33,0-.32,0-.3,0-.74-.08-.3,0-.74-.07-.3,0-.74-.07-.3,0-.74-.08-.3,0-.6-.06c0-.13,0-.25,0-.38l.6.06.3,0,.74.08.3,0,.74.07.3,0,.74.08.3,0,.74.08.3,0,.22,0,.32,0,.2,0,.11,0h0l.16,0h.21l.24,0h.08l.21,0h.11l.19,0h.11l.16,0,.19,0h.22Zm-1,.31-.09.94v0l0,.18v.06H31l-.21,0H30.4v-.15l0-.16,0-.34.06-.56h.05l.17,0,.19,0H31l.21,0Zm-7,.37v-.06l.06-.59.05-.43.66.07-.12,1.2-.67-.06Zm1.08-1,.73.07-.12,1.21-.73-.07Zm1,.1.73.08L27,45.92l-.73-.08Zm1,.11.73.08L28,46,27.28,46Zm1,.11.73.07-.12,1.21-.73-.07Zm1,.11.43,0,.3,0-.06.62-.06.59-.73-.07Zm-3.92-2.74.73.07-.13,1.32-.74-.08Zm6.63,2h0l-.19,0h-.13l-.18,0v-.1l0-.3,0-.28h0l.07-.64.17,0,.31,0h0l0,.14v.08l-.06.65,0,.3Zm-1.57-.16,0-.28,0-.28.08-.76.13,0h0l.29,0h0l.26,0-.07.71,0,.24,0,.24v.13H31.3l-.23,0-.32,0h-.13Zm-3-1.64.73.08-.13,1.31-.74-.07Zm1,.11.73.07-.13,1.32-.74-.07Zm1,.1.13,0,.31,0,.29,0v.11l-.09.9,0,.31-.27,0-.3,0-.17,0Zm-3.12-.32.73.08-.13,1.32-.74-.08Zm-2-.2.66.06-.13,1.32-.67-.07C24.51,42.84,24.57,42.31,24.59,42.12Zm7.49,3.19h0l-.06.58,0,.4,0,.14h-.07l-.32,0h-.13v-.09l0-.24.09-.88h.14l.34,0h.05ZM59,48.85c0-.1.09-.19.13-.29l.59-.07.24,0,.07.28.08.32H59.06Zm-28.59,0,.11-.44.2,0,.3,0,.51,0-.1.53H30.38Zm28.71.59h1.09l.13.5V50H59.24ZM60.51,32a.81.81,0,0,1-.34.66q-.16-.75-.39-1.47A.81.81,0,0,1,60.51,32ZM45.56,20.73a17.45,17.45,0,0,0-2.31.16,2.87,2.87,0,0,1,4.64,0A17.64,17.64,0,0,0,45.56,20.73ZM32.14,31.1c0-.1.07-.2.11-.3.14-.37.28-.74.44-1.1.37.34.74.66,1.11,1l.28.22a2.43,2.43,0,0,0,.25.2l.24.19q.59.45,1.17.84a15.83,15.83,0,0,0-2.22,1.33l-.46.37a5.06,5.06,0,0,0-.41.37s0,0,0,0a.49.49,0,0,0,0,.11.46.46,0,0,1-.07.07l-1.18-.12.15-.77a2.82,2.82,0,0,0,.07-.31c0-.1.05-.21.08-.31.12-.49.26-.95.41-1.41C32.07,31.31,32.1,31.2,32.14,31.1ZM31,32.68a.81.81,0,0,1-.34-.66.82.82,0,0,1,.76-.81C31.3,31.69,31.15,32.17,31,32.68ZM30,50.43h1.15L31,51.2c-.15.8-.27,1.44-.3,1.62v0h-1.3ZM36,52.84a12,12,0,0,1-1.15-1.11A13.12,13.12,0,0,1,32.46,48l0-.34,0-.3,0-.32V46.9h0v0s0,.09,0,.13l.15.36a3.65,3.65,0,0,0,.14.35,12.86,12.86,0,0,0,2.19,3.43,11.36,11.36,0,0,0,1.82,1.65l.43.31c.15.11.31.21.47.31a13.74,13.74,0,0,0,5.41,1.85.25.25,0,0,0,0,.07,1.07,1.07,0,0,0-.06.3.88.88,0,0,0,0,.23c-.33,0-.65-.1-1-.16a13.69,13.69,0,0,1-5.41-2.29c-.14-.1-.28-.2-.41-.31Zm6.63,3.61.71.1s0,0,0,0a.35.35,0,0,0,0,.08c-.08.58-.2,1.61-.25,2L42,58.45C42.14,58.06,42.45,57,42.61,56.45Zm3,.23a1,1,0,0,0,.07-.3c0-.05,0-.1,0-.15s0-.11,0-.16a1.77,1.77,0,0,0-.18-.61l.94,0,.06.1h0a2.58,2.58,0,0,1,.08.26,1,1,0,0,1,0,.24,1,1,0,0,1,0,.31.74.74,0,0,1-.17.3l0,0a.71.71,0,0,1-.14.1.63.63,0,0,1-.47,0,.55.55,0,0,1-.15-.08Zm1.51,0,.71-.07.56,1.88-1.13.21c0-.34-.15-1.24-.22-1.84A1.42,1.42,0,0,0,47.15,56.63Zm7.48-3.17a13.46,13.46,0,0,1-6.33,2.43l-.31,0-.74.08v0a1.71,1.71,0,0,0,0-.31,1.52,1.52,0,0,0-.09-.28,14.09,14.09,0,0,0,6.34-1.94c.16-.1.32-.2.47-.31l.43-.31a11.74,11.74,0,0,0,1.44-1.3,12.35,12.35,0,0,0,2.36-3.82h0l0-.05.12-.32v.14l0,.13.07.71a.37.37,0,0,0,.08.18l-.12.28a12.17,12.17,0,0,1-2.19,3.3c-.26.27-.52.52-.8.76l-.36.31Zm4.69-3h1.15c.29,1.12.54,2.14.61,2.41h-1.3l0-.19C59.67,52.26,59.5,51.39,59.32,50.43Z"/><path d="M48.35,33.26a.89.89,0,1,0,0-1.78.88.88,0,0,0-.88.78.41.41,0,0,0,0,.11.88.88,0,0,0,0,.24A.89.89,0,0,0,48.35,33.26Zm0-1.17a.28.28,0,1,1-.28.28A.29.29,0,0,1,48.35,32.09Z"/><path d="M37.57,32.52v0a.29.29,0,0,0,.08.21,4,4,0,0,0,.52.46,10,10,0,0,0,3,1.43,16.91,16.91,0,0,0,2.41.59l.32,0h.05l.27,0a13.12,13.12,0,0,0,1.43.11h.05a12.45,12.45,0,0,0,1.39-.11l.26,0h.06l.32-.06a18,18,0,0,0,2.39-.58,10.37,10.37,0,0,0,3.13-1.51,5.36,5.36,0,0,0,.42-.39.29.29,0,0,0,.08-.21v-.07a.34.34,0,0,0-.09-.15c-.5-.51-1.88-.67-3.4-.79.08-.17.16-.37.25-.59s.07-.19.1-.3l.09-.3a3.46,3.46,0,0,0,.12-.82,1.38,1.38,0,0,0-.1-.55.88.88,0,0,0-.32-.39.83.83,0,0,0-.25-.12.26.26,0,0,0-.23,0,.2.2,0,0,0-.07.06,3.32,3.32,0,0,1-.39.31l-.39.24h0a8.65,8.65,0,0,1-1.76.72l-.23.06-.08,0h0l-.31.07-.53.09-.46,0h0l-.46,0c-.18,0-.37-.06-.57-.1l-.32-.08h0L44,29.83a8.75,8.75,0,0,1-1.69-.67l-.11-.06a4.2,4.2,0,0,1-.56-.38l-.18-.15h0a.26.26,0,0,0-.16-.09.29.29,0,0,0-.13,0h0a1.13,1.13,0,0,0-.27.13,1,1,0,0,0-.31.38,1.59,1.59,0,0,0-.09.55,3.39,3.39,0,0,0,.12.82l.09.31c0,.1.07.2.1.29s.17.42.25.59c-1.52.12-2.9.28-3.4.79A.31.31,0,0,0,37.57,32.52Zm3.74-2-.09-.3a2.72,2.72,0,0,1-.11-.69.91.91,0,0,1,0-.31l.06-.09a6,6,0,0,0,1.42.84,6.07,6.07,0,0,0,.59.24c.23.08.46.16.69.22h0l.27.08.32.07a5.73,5.73,0,0,0,1.08.13h0a5.93,5.93,0,0,0,1-.12l.32-.07.32-.09h0a6.18,6.18,0,0,0,.73-.23c.2-.08.4-.15.59-.24a6,6,0,0,0,1.42-.84l.06.09a.91.91,0,0,1,0,.31,2.72,2.72,0,0,1-.11.69l-.09.3c0,.1-.07.2-.11.3a9,9,0,0,1-.38.84.28.28,0,0,0,0,.15.23.23,0,0,0,0,.14.31.31,0,0,0,.24.16l.3,0a11.73,11.73,0,0,1,2.88.46,12.41,12.41,0,0,1-5.26,2l-.32,0-.32.05a11.62,11.62,0,0,1-1.34.1h0a10.45,10.45,0,0,1-1.39-.11l-.32,0-.32,0a12.46,12.46,0,0,1-5.23-2,11.81,11.81,0,0,1,2.89-.46l.3,0A.31.31,0,0,0,41.8,32a.23.23,0,0,0,0-.14.28.28,0,0,0,0-.15,8,8,0,0,1-.38-.84C41.38,30.73,41.34,30.63,41.31,30.53Z"/><path d="M42.85,33.2a.89.89,0,1,0-.89-.89A.89.89,0,0,0,42.85,33.2Zm0-1.17a.28.28,0,0,1,.28.28.29.29,0,0,1-.28.28.28.28,0,0,1-.28-.28A.27.27,0,0,1,42.85,32Z"/><path d="M45.6,33.73h.06a1,1,0,0,0,0-2H45.6a1,1,0,0,0,0,2Zm0-1.36h.06a.39.39,0,0,1,.31.37.37.37,0,0,1-.31.36H45.6a.37.37,0,0,1,0-.74Z"/><path d="M49.28,44.08a2.45,2.45,0,0,0,.34.31,2.55,2.55,0,0,0,3.14,0,2,2,0,0,0,.34-.31,2.48,2.48,0,0,0,.25-.3,2.69,2.69,0,0,0,.44-1.45A2.6,2.6,0,1,0,49,43.78,1.76,1.76,0,0,0,49.28,44.08Zm1.91-3.56a1.8,1.8,0,0,1,.42,3.56,1.42,1.42,0,0,1-.42.05,1.51,1.51,0,0,1-.42-.05,1.68,1.68,0,0,1-.65-.3,1.81,1.81,0,0,1,1.07-3.26Z"/><path d="M51.19,43.25a.92.92,0,1,0-.92-.92A.92.92,0,0,0,51.19,43.25Z"/><path d="M37.61,44.08a2,2,0,0,0,.34.31,2.55,2.55,0,0,0,3.14,0,2.45,2.45,0,0,0,.34-.31,1.76,1.76,0,0,0,.24-.3,2.6,2.6,0,1,0-4.31,0A2.48,2.48,0,0,0,37.61,44.08Zm1.91-3.56a1.81,1.81,0,0,1,1.07,3.26,1.68,1.68,0,0,1-.65.3,1.51,1.51,0,0,1-.42.05,1.42,1.42,0,0,1-.42-.05,1.8,1.8,0,0,1-.66-.3,1.81,1.81,0,0,1,1.08-3.26Z"/><path d="M39.52,43.25a.92.92,0,1,0-.92-.92A.92.92,0,0,0,39.52,43.25Z"/><path d="M45.36,47.35c1.57,0,2.81-.84,2.81-1.92a1.57,1.57,0,0,0-.44-1,2.77,2.77,0,0,0-.36-.31,2.44,2.44,0,0,0-.58-.3,3.8,3.8,0,0,0-1.43-.27,3.85,3.85,0,0,0-1.44.27,2.27,2.27,0,0,0-.93.61,1.52,1.52,0,0,0-.44,1C42.55,46.51,43.78,47.35,45.36,47.35Zm-.75-3a3.66,3.66,0,0,1,.75-.09,3.49,3.49,0,0,1,.74.09c.73.17,1.28.59,1.28,1s-1,1.13-2,1.13-2-.53-2-1.13S43.88,44.56,44.61,44.39Z"/><path d="M49.73,49.74a.39.39,0,0,0-.55.09,4.79,4.79,0,0,1-3.82,1.55,4.72,4.72,0,0,1-3.85-1.59A.4.4,0,0,0,41,49.7a.39.39,0,0,0-.1.55,5.53,5.53,0,0,0,4.5,1.92,5.51,5.51,0,0,0,4.46-1.88A.39.39,0,0,0,49.73,49.74Z"/><path d="M45,47.65s-6.51-.56-10-2.72c0,0-.59,4.54,8.69,4.93C45.23,49.92,45,47.65,45,47.65Z"/><path d="M45.71,47.65S45.5,49.92,47,49.86c9.28-.39,8.69-4.93,8.69-4.93C52.22,47.09,45.71,47.65,45.71,47.65Z"/></svg>