<svg id="Layer_1" data-name="Layer 1" xmlns="http://www.w3.org/2000/svg" viewBox="0 0 150.12 87"><defs><style>.cls-1{fill:#f6b033;}</style></defs><path class="cls-1" d="M45.08,42.43h0a7.14,7.14,0,0,0,7,7.14h.26a7.15,7.15,0,0,0,7-7.14h0a7.16,7.16,0,0,0-7.16-7.16h0a7.16,7.16,0,0,0-7.16,7.14h0Zm7.16-7.16a7.15,7.15,0,0,0,6.92,7.15,7.16,7.16,0,0,0-6.92,7.15h0a7.16,7.16,0,0,0-6.92-7.15A7.16,7.16,0,0,0,52.24,35.27Zm14.32,14.3a7.15,7.15,0,0,1-7.16-7.15h0a7.16,7.16,0,0,1,7.16-7.14,7.15,7.15,0,0,1-7,7.15A7.17,7.17,0,0,1,66.56,49.57Zm7.16-7.15h0a7.16,7.16,0,0,1-7.16,7.15,7.16,7.16,0,0,1,7-7.16,7.15,7.15,0,0,1-7-7.15h0a7.15,7.15,0,0,1,7.16-7.15,7.15,7.15,0,0,1-7.06,7.15h-.1A7.16,7.16,0,0,1,73.72,42.42ZM45.08,28.11a7.15,7.15,0,0,1,7.16,7.14h0a7.16,7.16,0,0,1,6.94-7.14A7.15,7.15,0,0,1,52.24,21a7.16,7.16,0,0,1,7.16,7.16h0a7.16,7.16,0,0,1-7.16,7.15h0A7.16,7.16,0,0,1,45.08,28.11Zm21.48,7.15h-.09a7.14,7.14,0,0,1-7.07-7.14h0A7.15,7.15,0,0,1,66.56,21a7.16,7.16,0,0,1-7,7.15A7.17,7.17,0,0,1,66.56,35.26ZM59.4,56.75h0a7.16,7.16,0,0,1-7.16,7.15,7.16,7.16,0,0,1,6.92-7.16,7.16,7.16,0,0,1-6.92-7.12,7.17,7.17,0,0,1-7.16,7.13,7.15,7.15,0,0,1,7.16-7.16h0A7.16,7.16,0,0,1,59.4,56.75Zm14.32,0a7.16,7.16,0,0,1-7.16-7.16,7.16,7.16,0,0,1-7,7.15,7.17,7.17,0,0,1,7,7.16,7.16,7.16,0,0,1-7.16-7.15h0a7.15,7.15,0,0,1,7.16-7.15h0A7.16,7.16,0,0,1,73.72,56.74Zm-7.16-7.16h0Zm0,0h0ZM12.42,45V57c0,.75,0,.75-3.59.75V45.18L2.71,27.32c-.17-.57-.09-.57,4.08-.57l1.77,6.07a68.17,68.17,0,0,1,2.17,9.26A93.07,93.07,0,0,1,13,32.82l1.55-5.41c.22-.66.22-.66,3.9-.66Zm21.83-9.4v21a14.51,14.51,0,0,1-6.6,1.59c-5.28,0-6.65-2.39-6.65-7.35V36.32c0-.71,0-.71,3.72-.71V51.17c0,2.88.58,3.9,3,3.9a5.66,5.66,0,0,0,3-.8v-18C30.66,35.61,30.7,35.61,34.25,35.61Zm62.67-6.25c0,.58-.22.75-.75.75H90.72v27c0,.71,0,.71-3.59.71V30.11h-6V27.46c0-.49.22-.71.76-.71H96.92Zm7.14,5.81a15.8,15.8,0,0,0-6.74,1.19,1.49,1.49,0,0,0-.49,1.24,4.23,4.23,0,0,0,.49,2,17.35,17.35,0,0,1,5.85-1c1.78,0,2.75.53,2.75,2.61v3.5a8.12,8.12,0,0,0-3.24-.57c-3,0-5.89,1.11-5.89,7.27s3.1,6.78,6.34,6.73a12.27,12.27,0,0,0,6.16-1.5c.22-3.37.26-8.69.26-13.79V40.57C109.55,36.59,107.87,35.17,104.06,35.17Zm1.73,19.28a3.77,3.77,0,0,1-2.35.75c-1.73,0-2.88-.58-2.88-3.81,0-3.86,1.5-4.48,3.28-4.48a5.54,5.54,0,0,1,2.08.4C105.92,49.7,105.92,53,105.79,54.45Zm22.42-13.34V57c0,.75-.09.75-3.72.75V42.17c0-2.79-.44-3.86-2.62-3.86a7.64,7.64,0,0,0-3.32.8V57c0,.75-.09.75-3.59.75V36.67a19.91,19.91,0,0,1,7-1.5C126.62,35.17,128.21,36.81,128.21,41.11Zm20.43-3.9a3.65,3.65,0,0,0-.35-1.69h-5.37a7,7,0,0,0-2.17-.35c-4.34,0-7.35,2.21-7.35,8.11,0,2.83.66,5.27,2.74,6.6-1.73,1.37-2.79,2.79-2.83,4s1,1.91,2.74,2.4c-2,1.28-3.41,3.23-3.41,5.36,0,2.3,1.15,4.83,7.14,4.83s8.46-3.41,8.46-7.22c0-3.51-2.35-4.66-5.85-5.19-3-.4-5.23-.58-5.23-1.37a3.51,3.51,0,0,1,1.15-1.95,9.56,9.56,0,0,0,2,.17c5.14,0,7.18-3,7.18-7.75a6.37,6.37,0,0,0-1.69-4.79,7.25,7.25,0,0,0,1.6.22C148.15,38.62,148.64,38.18,148.64,37.21ZM138.8,56.84c.22,0,.49,0,.76.09,3.9.26,5.05.84,5.05,2.83,0,1.55-1.38,3.42-4.52,3.42s-3.73-1-3.73-2.35A5.48,5.48,0,0,1,138.8,56.84Zm1.69-8.64c-2.75,0-3.28-1.86-3.28-5,0-3.9,1.5-5.36,3.41-5.36,2.13,0,3.23,1.28,3.23,4.52C143.85,46.2,142.83,48.2,140.49,48.2Z"/></svg>