<svg id="Layer_1" data-name="Layer 1" xmlns="http://www.w3.org/2000/svg" viewBox="0 0 144 87"><defs><style>.cls-1{fill:#960b00;}</style></defs><path class="cls-1" d="M84.68,14.66A17.61,17.61,0,0,0,57,35.9L54.47,45l9.33-2.45a17.65,17.65,0,0,0,8.42,2.14h0a17.61,17.61,0,0,0,12.45-30m-14.54.6a2.15,2.15,0,0,1,2,2.13,2.15,2.15,0,0,1,2-2.13,2,2,0,0,1,1.89,2.11c0,2.93-3.06,3.36-3.9,5.7-.83-2.34-3.9-2.77-3.9-5.7a2,2,0,0,1,1.89-2.11m-5,4.61c.77,0,.9.69,1.25,1.22,2,3.05,4.64,2.88,5.72,6.7,1.08-3.82,3.7-3.65,5.72-6.7.36-.53.48-1.22,1.26-1.22s.94,1.08.94,1.58a7.63,7.63,0,0,1-5.15,7,4.93,4.93,0,0,0-2.77,3.07h0a4.94,4.94,0,0,0-2.76-3.07,7.64,7.64,0,0,1-5.16-7c0-.5.19-1.58,1-1.58m7,19.39A13.12,13.12,0,0,1,59,26.13c0-2.62.78-5.79,2.43-5.79.91,0,.8,1.4.8,1.89,0,5.21.68,7.48,5.22,9.8,2.38,1.21,4.11,1.47,4.68,3.72.57-2.25,2.3-2.51,4.68-3.72,4.55-2.32,5.22-4.59,5.22-9.8,0-.49-.11-1.89.8-1.89,1.65,0,2.43,3.17,2.43,5.79A13.12,13.12,0,0,1,72.15,39.26"/><path class="cls-1" d="M2.21,55.15H12.62v3.53h-.23q-.88-3-3.09-3H8.66v9.22c0,1,.25,1.68.77,2v.23H5.35v-.23c.5-.29.75-.94.75-2V55.71H5.53c-1.46,0-2.5,1-3.08,3H2.21Z"/><path class="cls-1" d="M25.44,55.15v.24c-.51.3-.76,1-.76,2v7.55a2.19,2.19,0,0,0,.76,2v.23H21.36v-.23c.52-.29.77-.94.77-2V61.44H17.05v3.49c0,1,.25,1.7.75,2v.23H13.74v-.23c.5-.3.75-1,.75-2V57.38c0-1-.25-1.69-.75-2v-.24H17.8v.24c-.5.3-.75,1-.75,2v3.51h5.08V57.38c0-1.05-.25-1.71-.77-2v-.24Z"/><path class="cls-1" d="M36.26,64.1v3.06H27.4v-.23c.5-.3.75-1,.75-2V57.38c0-1-.25-1.69-.75-2v-.24h8.47v3h-.24a3.49,3.49,0,0,0-3.45-2.4H30.72v5.15l1.19-.09A2.43,2.43,0,0,0,34,59h.21v4H34a2.34,2.34,0,0,0-2.07-1.69l-1.17-.09V65c0,1.13.42,1.59,1.42,1.59h.47A3.4,3.4,0,0,0,36,64.1Z"/><path class="cls-1" d="M43.65,56.63A6.65,6.65,0,0,1,48.26,55a8.35,8.35,0,0,1,3.94.92v3.16H52c-.7-2.2-2-3.53-3.71-3.53-2.13,0-3.61,2-3.63,5.63s1.57,5.66,3.86,5.66c1.8,0,2.87-1.23,3.51-3.45h.25v3.1a7.42,7.42,0,0,1-4,.91,6.67,6.67,0,0,1-4.63-1.66,6.51,6.51,0,0,1,0-9.09"/><path class="cls-1" d="M54.93,65.7a6.26,6.26,0,0,1-1.64-4.6A6,6,0,0,1,55,56.7a6.65,6.65,0,0,1,9,0,6.07,6.07,0,0,1,1.69,4.41A6.19,6.19,0,0,1,64,65.63a6,6,0,0,1-4.51,1.73,6,6,0,0,1-4.52-1.66m7.89-4.6a8.26,8.26,0,0,0-.88-4,2.74,2.74,0,0,0-2.49-1.6c-2.28,0-3.35,2.62-3.35,5.59s1.14,5.71,3.35,5.71,3.37-2.61,3.37-5.71"/><path class="cls-1" d="M75.86,55.15v3h-.24a3.47,3.47,0,0,0-3.45-2.4H70.51V61l1.07-.09a2.42,2.42,0,0,0,2.21-1.74H74v4h-.23a2.5,2.5,0,0,0-2.21-1.71l-1.07-.09v3.52c0,1.06.29,1.71.84,2v.23H67.2v-.23c.5-.3.75-1,.75-2V57.38c0-1-.25-1.69-.75-2v-.24Z"/><path class="cls-1" d="M85.78,55.15v3h-.23a3.49,3.49,0,0,0-3.46-2.4H80.43V61l1.07-.09a2.42,2.42,0,0,0,2.21-1.74h.23v4h-.23A2.49,2.49,0,0,0,81.5,61.5l-1.07-.09v3.52c0,1.06.29,1.71.84,2v.23H77.12v-.23c.5-.3.75-1,.75-2V57.38c0-1-.25-1.69-.75-2v-.24Z"/><path class="cls-1" d="M95.9,64.1v3.06H87v-.23c.5-.3.75-1,.75-2V57.38c0-1-.25-1.69-.75-2v-.24H95.5v3h-.23a3.49,3.49,0,0,0-3.45-2.4H90.36v5.15l1.19-.09a2.43,2.43,0,0,0,2-1.75h.21v4H93.6a2.34,2.34,0,0,0-2.07-1.69l-1.17-.09V65c0,1.13.42,1.59,1.42,1.59h.46a3.4,3.4,0,0,0,3.41-2.51Z"/><path class="cls-1" d="M106.07,64.1v3.06H97.21v-.23c.5-.3.75-1,.75-2V57.38c0-1-.25-1.69-.75-2v-.24h8.47v3h-.24a3.47,3.47,0,0,0-3.45-2.4h-1.46v5.15l1.19-.09a2.43,2.43,0,0,0,2-1.75H104v4h-.21a2.34,2.34,0,0,0-2.07-1.69l-1.17-.09V65c0,1.13.43,1.59,1.42,1.59h.47a3.4,3.4,0,0,0,3.4-2.51Z"/><path class="cls-1" d="M115.35,64.93c0,1,.25,1.7.75,2v.23H112v-.23c.49-.3.74-1,.74-2V57.38c0-1-.25-1.69-.74-2v-.24h4.06v.24c-.5.3-.75,1-.75,2Z"/><path class="cls-1" d="M127.8,67.5h-.32l-7.86-9L119.8,64c.06,1.64.57,2.62,1.29,3v.23h-3.28v-.23c.71-.34,1.21-1.34,1.26-3l.13-5a4.49,4.49,0,0,0-1.36-3.59v-.24h2.41l7.16,8.34-.13-5.22c0-1.57-.46-2.53-1.26-2.88v-.24h3.24v.24c-.71.33-1.21,1.33-1.26,2.9Z"/><path class="cls-1" d="M140.63,67.5h-.32l-7.86-9,.18,5.48c.05,1.64.57,2.62,1.28,3v.23h-3.28v-.23c.72-.34,1.21-1.34,1.27-3l.12-5a4.49,4.49,0,0,0-1.35-3.59v-.24h2.4l7.16,8.34-.12-5.22c-.05-1.57-.46-2.53-1.26-2.88v-.24h3.24v.24c-.72.33-1.21,1.33-1.27,2.9Z"/></svg>