<svg id="Layer_1" data-name="Layer 1" xmlns="http://www.w3.org/2000/svg" xmlns:xlink="http://www.w3.org/1999/xlink" viewBox="0 0 73.4 87"><defs><style>.cls-1{fill:url(#radial-gradient);}.cls-2{fill:#fff;}.cls-3{fill:#091339;}</style><radialGradient id="radial-gradient" cx="39.24" cy="19.86" r="49.97" gradientUnits="userSpaceOnUse"><stop offset="0" stop-color="#fff"/><stop offset="0.01" stop-color="#f6f6f8"/><stop offset="0.05" stop-color="#c8c9d4"/><stop offset="0.09" stop-color="#9d9fb3"/><stop offset="0.14" stop-color="#777a96"/><stop offset="0.2" stop-color="#575a7d"/><stop offset="0.25" stop-color="#3b3f68"/><stop offset="0.32" stop-color="#252a57"/><stop offset="0.4" stop-color="#14194a"/><stop offset="0.49" stop-color="#090d41"/><stop offset="0.63" stop-color="#02073b"/><stop offset="1" stop-color="#00053a"/></radialGradient></defs><rect class="cls-1" x="10.95" y="11.06" width="52.96" height="52.96" rx="2.46"/><path class="cls-2" d="M40.53,57.66a1.86,1.86,0,0,1-1.12-.39,1.61,1.61,0,0,1-.58-1.3h5A5.45,5.45,0,0,0,43.51,54a3,3,0,0,0-1.17-1.45,3.37,3.37,0,0,0-2-.59,3.54,3.54,0,0,0-3.65,3.65,3.23,3.23,0,0,0,1,2.47,3.87,3.87,0,0,0,2.78.94,3.59,3.59,0,0,0,3.27-1.65l-1.66-.54A2.26,2.26,0,0,1,40.53,57.66Zm-.29-4.24a1.32,1.32,0,0,1,1,.39,1.77,1.77,0,0,1,.44,1H38.86Q39.06,53.42,40.24,53.42Z"/><path class="cls-2" d="M48.69,57.66a1.86,1.86,0,0,1-1.12-.39A1.61,1.61,0,0,1,47,56h5A5.45,5.45,0,0,0,51.67,54a3,3,0,0,0-1.16-1.45,3.42,3.42,0,0,0-2-.59,3.55,3.55,0,0,0-2.62,1,3.61,3.61,0,0,0-1,2.61,3.23,3.23,0,0,0,1,2.47,3.88,3.88,0,0,0,2.78.94,3.6,3.6,0,0,0,3.28-1.65l-1.67-.54A2.24,2.24,0,0,1,48.69,57.66Zm-.29-4.24a1.32,1.32,0,0,1,1,.39,1.77,1.77,0,0,1,.44,1H47Q47.22,53.42,48.4,53.42Z"/><path class="cls-2" d="M42.42,19.62h0l-.51-.11h0l-.56-.11-.07,0-.58-.1h-.06a27.07,27.07,0,0,0-4.05-.36h0c2.07,2.78,5.79.83,6,.74Z"/><path class="cls-2" d="M56.43,53.76V52.21H55.25V31.11a21.7,21.7,0,0,0-.16-2.6A14,14,0,0,0,51,20.83c-3-2.92-7.41-4.61-13-4.76a2.13,2.13,0,0,0-2.29,1.1,6.64,6.64,0,0,0-.48,1.11c6.3-.19,11.13,1.19,14.22,4.13a11.76,11.76,0,0,1,3.31,5.77A15.79,15.79,0,0,1,53,31V52.21h-.83v1.55H53v3.53a1.56,1.56,0,0,0,1.77,1.76,4.19,4.19,0,0,0,1.62-.35V57.22a2,2,0,0,1-.67.14c-.25,0-.4,0-.47-.14a.94.94,0,0,1-.1-.53V53.76Z"/><path class="cls-2" d="M34.19,52.74A2.39,2.39,0,0,0,33.37,54V52.31H30.23v1.55H31.4v3.63H30.16v1.56h4.73V57.49H33.55v-.82a3,3,0,0,1,.33-1.45,1.65,1.65,0,0,1,.86-.8,4,4,0,0,1,1.32-.18v-2h-.35A2.29,2.29,0,0,0,34.19,52.74Z"/><path class="cls-2" d="M28.15,49.61,26,51.15v1.06h-.86v1.55H26v3.53a1.56,1.56,0,0,0,1.76,1.76,4.11,4.11,0,0,0,1.62-.35V57.22a2,2,0,0,1-.67.14c-.24,0-.4,0-.46-.14a.94.94,0,0,1-.1-.53V53.76h1.23V52.21H28.15Z"/><path class="cls-2" d="M23,54.89a12.53,12.53,0,0,0-1.86-.43,4.12,4.12,0,0,1-1-.24.3.3,0,0,1-.19-.3q0-.51.93-.51c.85,0,1.34.23,1.48.7h1.53v-2H22.38v.24a4.46,4.46,0,0,0-1.71-.34,2.65,2.65,0,0,0-1.8.58A1.76,1.76,0,0,0,18.18,54a1.68,1.68,0,0,0,.73,1.42,5.57,5.57,0,0,0,2.36.81,4,4,0,0,1,1.06.28.45.45,0,0,1,.27.41.54.54,0,0,1-.3.47,1.56,1.56,0,0,1-.82.18,1.78,1.78,0,0,1-1-.28,1,1,0,0,1-.44-.75H18.44V59H20v-.47a2.18,2.18,0,0,0,1.65.49,2.91,2.91,0,0,0,2-.63,2.07,2.07,0,0,0,.7-1.62A2,2,0,0,0,23,54.89Z"/><path class="cls-2" d="M33.2,39.86a4.34,4.34,0,0,0-2.61-1.54,4,4,0,0,0,2.11-1.45,3.83,3.83,0,0,0,.77-2.35,4.66,4.66,0,0,0-1.83-3.73,8.59,8.59,0,0,0-5.52-1.5,9.45,9.45,0,0,0-5.45,1.38A4.85,4.85,0,0,0,18.6,34a6.72,6.72,0,0,0-.1.8h0v.35h5c0-.07,0-.14,0-.21a2.09,2.09,0,0,1,4.18,0,2.13,2.13,0,0,1-.2.87C26.87,36.85,25,37,25,37h0v2.52h0c2.54,0,3.1,1.72,3.18,2a.06.06,0,0,0,0,0h0a3.19,3.19,0,0,1,.05.54,2.65,2.65,0,0,1-.7,1.79l0,.05-.1.09-.17.14-.08.06a2.6,2.6,0,0,1-1.56.51,2.64,2.64,0,0,1-2.64-2.64,2.6,2.6,0,0,1,.06-.56H18.18V42c0,.23,0,.46.05.68a5.78,5.78,0,0,0,2.11,4.22,9.2,9.2,0,0,0,5.73,1.6,10.07,10.07,0,0,0,5.85-1.55,4.86,4.86,0,0,0,2.22-4.22A4.43,4.43,0,0,0,33.2,39.86Z"/><path class="cls-2" d="M51.09,45.2v-1h-.48v.23H49.34v-.23h-.47v1h.47V45h.35v.65h-.35v-.24h-.47v1h.47v-.23h1.27v.23h.48v-1h-.48v.24h-.45V45h.45v.24Zm-.48,2.06H49.34v-.19h.51V46.6h-1v1.85h1V48h-.51v-.18h1.27V48h.48V47h-.48Z"/><path class="cls-2" d="M35.2,36.16h3.7V33.57h6.65A32.1,32.1,0,0,0,39.46,44.2H37.05v4.28h9.89V44.2H44.51c.44-2.73,2.67-6.42,6.73-10.83V29.49h-16Z"/><path class="cls-3" d="M2.4,76.24h.8V71.72H2.4V70.43H5.94a3.1,3.1,0,0,1,1.19.16,2.28,2.28,0,0,1,1.38,2.24A2.33,2.33,0,0,1,7.1,75.09,3.39,3.39,0,0,1,6,75.24H5v1h.79v1.3H2.4Zm3.33-2.39a1.11,1.11,0,0,0,.63-.15,1,1,0,0,0,.38-.87A1,1,0,0,0,6.39,72a1.14,1.14,0,0,0-.63-.16H5v2Z"/><path class="cls-3" d="M8.78,76.24h.79V71.72H8.78V70.43h3.36v1.29h-.79v1.59h2.54V71.72H13.1V70.43h3.37v1.29h-.8v4.52h.8v1.3H13.1v-1.3h.79V74.7H11.35v1.54h.79v1.3H8.78Z"/><path class="cls-3" d="M20.63,70.31a3.67,3.67,0,1,1,0,7.34,3.67,3.67,0,1,1,0-7.34Zm0,5.8a2,2,0,0,0,1.9-2.17,1.91,1.91,0,1,0-3.8,0A2,2,0,0,0,20.63,76.11Zm-.83-7.63h1.67l1,1.49H21.11l-.47-.81h0l-.47.81H18.81Z"/><path class="cls-3" d="M26.88,76.24h.8V71.72h-.8V70.43h2.6L31.7,74.2a2.35,2.35,0,0,1,.21.46l.09.26h0l0-.28a2.91,2.91,0,0,1,0-.51V71.72h-.83V70.43h3.41v1.29h-.8v5.82H32l-2.23-3.75a3.23,3.23,0,0,1-.21-.47l-.09-.26h0l0,.28a3,3,0,0,1,0,.52v2.38h.83v1.3H26.88Z"/><path class="cls-3" d="M38.68,70.31c1.3,0,2.86.49,2.86,1.39v1.16H40v-.52c0-.36-.52-.54-1.17-.54a1.87,1.87,0,0,0-2.07,2.06,2.09,2.09,0,0,0,2.17,2.3c.48,0,1.23-.11,1.23-.51v-.49H39V73.87H41.7v2.36c0,1.07-2,1.42-3,1.42a3.63,3.63,0,0,1-3.78-3.71A3.56,3.56,0,0,1,38.68,70.31Z"/><path class="cls-3" d="M45.85,70.31a3.67,3.67,0,1,1,0,7.34,3.67,3.67,0,1,1,0-7.34Zm0,5.8a2,2,0,0,0,1.9-2.17,1.91,1.91,0,1,0-3.8,0A2,2,0,0,0,45.85,76.11Z"/><path class="cls-3" d="M50,76.24h.8V71.72H50V70.43h2.6l2.22,3.77a2.35,2.35,0,0,1,.21.46l.09.26h0l0-.28a2.91,2.91,0,0,1,0-.51V71.72h-.83V70.43h3.4v1.29h-.79v5.82H55.1l-2.24-3.75a4.73,4.73,0,0,1-.2-.47l-.09-.26h0l0,.28a3,3,0,0,1,0,.52v2.38h.83v1.3H50Z"/><path class="cls-3" d="M24.36,69.9H23l1.16-1.49h1.76Z"/><path class="cls-3" d="M66.12,74.32a1.66,1.66,0,0,0-1-.58,1.5,1.5,0,0,0,.8-.56,1.44,1.44,0,0,0,.3-.9,1.77,1.77,0,0,0-.7-1.42,3.3,3.3,0,0,0-2.11-.57,3.58,3.58,0,0,0-2.07.53,1.94,1.94,0,0,0-.83,1.59l1.92.1c0-.54.3-.81.79-.81a.83.83,0,0,1,.55.19.74.74,0,0,1,.2.53.68.68,0,0,1-.31.61,1.2,1.2,0,0,1-.67.21v1.15c.77,0,1.16.33,1.16.91a.87.87,0,0,1-.21.59.86.86,0,0,1-.66.24c-.67,0-1-.38-1.06-1.14l-1.83.14A2.3,2.3,0,0,0,61.21,77a3.55,3.55,0,0,0,2.18.61A3.88,3.88,0,0,0,65.63,77a1.87,1.87,0,0,0,.85-1.61A1.68,1.68,0,0,0,66.12,74.32Z"/><path class="cls-3" d="M70.7,75.7a1.29,1.29,0,0,1,0-.19c0-.07,0-.14.06-.22h0a14.92,14.92,0,0,1,1.66-3.49V70.43H66.77v2.43h1.41v-1h2.53a12.27,12.27,0,0,0-2.06,3.36v0a6.42,6.42,0,0,0-.24.66,2.63,2.63,0,0,0-.08.3h-.84v1.32h4.1V76.22h-1s0-.19.08-.42A.3.3,0,0,1,70.7,75.7Z"/></svg>