<svg id="Layer_1" data-name="Layer 1" xmlns="http://www.w3.org/2000/svg" viewBox="0 0 67.01 50.04"><defs><style>.cls-1{fill:#e0651c;}</style></defs><path class="cls-1" d="M6.52,39.18c1.32,0,4.4.35,4.06,2l-.38,1.87H7.48l.15-.75c.11-.53-.78-.55-1.17-.55a3.25,3.25,0,0,0-3.19,3.38c0,1.12.35,2.13,2.22,2.13.57,0,1.42-.09,1.49-.5l.09-.41H5.54L6,44.15h4.25l-.7,3.56c-.3,1.61-2.62,2.15-4.4,2.15-3,0-5.07-1.9-5.07-4.6A6.23,6.23,0,0,1,6.52,39.18Z"/><path class="cls-1" d="M11.21,47.47h1.08l1.13-5.91H12.34l.43-2.21h4.45c3.06,0,4.87,1.52,4.87,4.11a6,6,0,0,1-6,6.22H10.78ZM16,47.28c1.84,0,3-1.62,3-3.53a1.75,1.75,0,0,0-1.89-2h-.61l-1.05,5.53Z"/><path class="cls-1" d="M27.12,42.05c2.09,0,3.26,1.27,3.26,2.92a4.11,4.11,0,0,1-.14,1,3.44,3.44,0,0,1-.14.42H25.74c0,.73.49,1,1.14,1A4.08,4.08,0,0,0,28.36,47a5.58,5.58,0,0,0,.69-.35l.75,2.2a5.6,5.6,0,0,1-.88.48,5.92,5.92,0,0,1-2.37.49c-2.58,0-3.8-1.58-3.8-3.53A4.27,4.27,0,0,1,27.12,42.05Zm.33,3.06a.34.34,0,0,1,0-.14c0-.1,0-.2,0-.27,0-.28-.09-.64-.53-.64s-.82.55-.94,1Z"/><path class="cls-1" d="M31.62,46.64l1-5.16h-.91l.42-2.13H36l-1.33,7a2.57,2.57,0,0,0-.09.59c0,.27.1.42.52.42l.19,0h.1l-.48,2.35-.23,0h-.59c-1.33,0-2.6-.27-2.6-2.07A5.9,5.9,0,0,1,31.62,46.64Z"/><path class="cls-1" d="M37.31,46.82l.48-2.47h-.91l.4-2.13h3.91l-.84,4.39a1.53,1.53,0,0,0-.06.49c0,.24.07.46.52.46l.14,0H41l-.41,2.14-.24,0a5.07,5.07,0,0,1-.59,0c-1.32,0-2.62-.09-2.62-1.86A5.64,5.64,0,0,1,37.31,46.82Zm1.5-7.47h2.9l-.41,2.18H38.39Z"/><path class="cls-1" d="M29.12,18.74A14.19,14.19,0,0,0,31,25.4c.35.63.83,1.18,1.25,1.79A14.55,14.55,0,0,0,34,28.94c7.45,6.46,19.93,4.4,24.42-4V24.9a12,12,0,0,0-.24-2.23,12.23,12.23,0,0,0-.62-2.12,11.71,11.71,0,0,0-1-2,12,12,0,0,0-1.33-1.77,10.72,10.72,0,0,0-1.65-1.51,17.42,17.42,0,0,0-2-1.25,14.69,14.69,0,0,0-2.11-.93,14,14,0,0,0-2.22-.6A13.34,13.34,0,0,0,45,12.29a11.61,11.61,0,0,0-2.28.16,11.64,11.64,0,0,0-4.37,1.63s-1.52,1.28-.51,2.33c.85.88,2.54-.3,2.54-.3,4.35-2.64,10.45.44,10.48,5.65s-4.75,7.88-9.39,6.86C36,27.18,33.47,21,35,15.84,36.87,9.06,44.51,5.6,49.79,9.72A9.12,9.12,0,0,1,53,14.15,12.57,12.57,0,0,1,59,23.77a13.8,13.8,0,0,0,1-5C59.52.28,29.61.24,29.12,18.74"/><path class="cls-1" d="M61.64,13.45s0,.05,0,.06C53.51-6.43,20.19,3,27.41,24.76a17.44,17.44,0,0,0,3.06,5.15L31.58,31l.09.08c-6.21,3.56-12.75-1.38-12.75-1.38-.08-.73,6.25.11,5.86-2.71S22.22,24.45,21.37,25c-7,4.16-9.2.54-11.43-3,2.92.37,4.6.91,5.65.34.78-.42,1.55-.83,1.73-1.75.74-3.91-1.58-5.12-5.64-3.47A10,10,0,0,1,0,14.55c7.42,2.16,7.67-8.68,18.41-2.27,4.18,2,6.44-5.46-3.61-5.13,4.47-7,12.56,2.06,15.75-1.88a7.37,7.37,0,0,1-5.64-3.4A8.05,8.05,0,0,0,26.3,2c.85,0,1.71,0,2.56,0,1.13,0,2.26-.09,3.39-.22a29.6,29.6,0,0,0,3.09-.61C40.55-.12,45.93-.68,51,1.31c.39.16.79.33,1.17.51s.94.47,1.39.73A17.15,17.15,0,0,1,57,5.15,16.39,16.39,0,0,1,59.29,8a17.55,17.55,0,0,1,2.13,4.6c.08.29.16.58.22.88"/><path class="cls-1" d="M65,38.91H47.2a3,3,0,0,0-2.87,2.38l-1.15,6.33a2,2,0,0,0,2,2.38H63a3,3,0,0,0,2.86-2.38L67,41.29A1.94,1.94,0,0,0,65,38.91ZM47.47,47.76H45.53l.37-1.94h1.94Zm8-4.62h-.69l-2.59,4.62H49.77L49,43.14h-.69l.3-1.48h3.18l-.3,1.48h-.54l.27,2.2a2.58,2.58,0,0,1,0,.55,2.26,2.26,0,0,1,0,.26h0a2.58,2.58,0,0,1,.08-.26,4.19,4.19,0,0,1,.24-.55l1.12-2.2h-.54l.29-1.48h3.31Zm7.24,4.62-.16,0H62c-.81,0-1.79-.09-1.79-1.41,0-.69.4-2.08.4-2.49s-.11-.51-.57-.51c-.86,0-1.46.85-1.65,1.8l-.51,2.58h-2l.86-4.36c0-.17,0-.26-.22-.26h-.56l.28-1.48h1.94c.49,0,.72.19.72.56a1.35,1.35,0,0,1-.09.47h0a2.83,2.83,0,0,1,.56-.59A2.61,2.61,0,0,1,61,41.52a1.61,1.61,0,0,1,1.76,1.72c0,.75-.42,2.14-.42,2.62,0,.28.13.43.46.43H63Z"/></svg>