<?xml version="1.0" encoding="utf-8"?>
<!-- Generator: Adobe Illustrator 26.3.1, SVG Export Plug-In . SVG Version: 6.00 Build 0)  -->
<svg version="1.1" id="Layer_1" xmlns="http://www.w3.org/2000/svg" xmlns:xlink="http://www.w3.org/1999/xlink" x="0px" y="0px"
	 viewBox="0 0 215 87" style="enable-background:new 0 0 215 87;" xml:space="preserve">
<style type="text/css">
	.st0{fill:#8BC340;}
	.st1{fill:#808082;}
</style>
<g>
	<g>
		<path class="st0" d="M52.6,36.4c0-0.2-0.1-0.4-0.1-0.5c-0.3-1.3-0.7-2.7-1.2-4c-0.1-0.2-0.1-0.4-0.2-0.5c-0.4-1.1-0.9-2.1-1.5-3.1
			c-0.1-0.2-0.2-0.4-0.3-0.5c-1.4-2.4-3.2-4.5-5.3-6.4c-0.2-0.2-0.4-0.3-0.6-0.5c-4.8-3.9-10.8-6.1-16.9-6.1
			c-4.9,0-9.7,1.4-13.9,3.9c-0.2,0.2-0.5,0.3-0.8,0.5C5.3,23.5,1.1,30.4,0.1,38c0,0.2,0,0.3-0.1,0.5c-0.1,1-0.2,1.9-0.2,2.9
			c0,1.2,0.1,2.3,0.2,3.5c0,0.2,0,0.3,0.1,0.5C1.2,52,4.7,58,10,62.2c0.2,0.2,0.4,0.3,0.7,0.5c4.6,3.4,10,5.2,15.8,5.2
			c3.7,0,7.2-0.7,10.5-2.2c3.2-1.4,6.1-3.4,8.6-5.9c0.2-0.2,0.3-0.3,0.5-0.5c1.7-1.9,3.2-4,4.3-6.4c0.1-0.2,0.2-0.3,0.2-0.5
			C52.2,49,53,45.2,53,41.4C53,39.7,52.9,38.1,52.6,36.4z M33.1,55.9c0,2.2,1.5,3.8,3.6,3.9c1.6,0,3.3,0,7.4,0
			c-4.8,4.6-11,7.1-17.6,7.1c-5,0-9.8-1.4-13.9-4.2l0.6,0c1.3,0,2.5,0,3.8,0l3.4,0c0.8,0,1.6,0,2.4,0c0.8,0,1.6,0,2.4,0
			c2.1,0,3.7-1.6,3.7-3.7c0-1-0.3-2-1-2.7c-0.7-0.7-1.6-1.1-2.6-1.1c-1.7,0-3.3,0-5,0c-1.2,0-2.4,0-3.6,0c-0.9,0-1.6-0.3-2.1-0.8
			c-0.4-0.5-0.7-1.1-0.7-1.7c0-1.5,1.2-2.5,2.8-2.5c0,0,0,0,0,0c0.2,0,0.3,0,0.5,0c0.1,0,0.3,0,0.5,0c1,0,2,0,3,0c0.4,0,0.9,0,1.3,0
			c1,0,3,0,5.3,0c5.9,0,14,0,16.5,0c2.1,0,3.6-1.7,3.6-3.9c0-2-1.6-3.6-3.7-3.6c-2.1,0-4.3,0-6.4,0c-0.5,0-0.9,0-1.4,0
			c-0.6,0-1.3,0-1.9,0c-2.1,0-4.2,0-6.3,0c-1.5,0-2.7-0.9-3-2.3c-0.4-1.4,0.3-2.8,1.5-3.4c0.5-0.3,1.2-0.3,1.8-0.4
			c0.1,0,0.2,0,0.3,0c1.6-0.2,2.7-1.3,2.6-2.7c-0.1-1.5-1.2-2.5-2.9-2.5c-2.7,0-5.4,0-8.1,0l-0.2,0l-3.5,0c-0.1,0-0.3,0-0.4,0
			c-0.6,0-1.2,0-1.7,0c-1-0.1-1.9-0.7-2.4-1.6c-0.5-0.9-0.5-2,0-2.9c0.6-1.1,1.6-1.6,3.1-1.6c0,0,0,0,0,0l1.3,0c2,0,4.1,0,6.2,0
			c1.8,0,3.3-1.5,3.2-3.3c0-1.9-1.4-3.2-3.3-3.2l-0.3,0c-0.7,0-1.4,0-2.1,0c-0.6,0-3,0-5.2,0c3.6-1.9,7.7-2.9,11.8-2.9
			c5.5,0,10.8,1.7,15.2,5.1c-4.4,0-9.5,0-10.4,0c-2,0-3.6,1.6-3.7,3.6c0,2.2,1.5,3.8,3.6,3.9c2.5,0,6.9,0,10.5,0c1.5,0,2.9,0,3.9,0
			c0.4,0,0.9,0,1.3,0c0.5,0,1.1,0,1.6,0c0.5,0.9,1,1.9,1.4,2.9l-2.1,0c-0.8,0-1.7,0-2.5,0c-1.5,0-3,0-4.5,0c-1.4,0-2.4,1.1-2.5,2.4
			c-0.1,1.4,0.9,2.5,2.2,2.7c0.5,0.1,1,0.1,1.4,0.1c0.1,0,0.2,0,0.3,0c1.3,0,2.7,0,4,0c1.7,0,3.4,0,5.1,0c0.3,1.6,0.5,3.2,0.5,4.8
			c0,3.8-0.8,7.5-2.5,10.9c-4.4,0-11.6,0-12.8,0C34.7,52.3,33.1,53.9,33.1,55.9z M12.3,41.7c0,0.8-0.3,1.5-0.8,2.1
			c-0.6,0.6-1.5,1-2.5,1c0,0,0,0,0,0c-1.3,0-2.6,0-3.9,0c-0.7,0-1.4,0-2.1,0l-1.7,0c-0.1-1.1-0.2-2.3-0.2-3.4c0-0.9,0.1-1.8,0.1-2.8
			c2.8,0,7.5,0,7.9,0C10.9,38.6,12.3,39.9,12.3,41.7z M2.2,45.5c1,0,2.1,0,3.1,0c2.4,0,4.9,0,7.3,0c2.1,0,3.6-1.7,3.6-3.9
			c0-2-1.6-3.6-3.7-3.6c-1,0-7.3,0-11.4,0c0.5-3.8,1.9-7.5,4-10.7c2.1-3.2,4.9-5.8,8.2-7.8c2.1,0,5.5,0,6,0c0,0,0,0,0,0
			c1.7,0,2.8,1,2.8,2.5c0,0.7-0.2,1.3-0.7,1.7c-0.5,0.5-1.2,0.8-2.1,0.8c-1.2,0-2.4,0-3.6,0c-1.6,0-3.3,0-4.9,0
			c-1,0-1.9,0.4-2.6,1.1c-0.7,0.7-1,1.7-1,2.7c0,2,1.7,3.6,3.7,3.7c0.8,0,1.6,0,2.4,0c0.8,0,1.6,0,2.5,0l3.4,0c2.4,0,4.9,0,7.4,0
			c1.3,0,2,0.7,2,1.9c0,1-0.8,1.7-1.9,1.8c-0.4,0-0.8,0-1.2,0c-0.5,0-0.9,0-1.4,0c-2.2,0.1-3.8,1.8-3.7,3.9c0.1,2,1.7,3.7,3.8,3.7
			c4.9,0,9.8,0,14.1,0l0,0l0.1,0c0.2,0,0.3,0,0.5,0c1.1,0,2.2,0,3.1,0.6c0.8,0.6,1.3,1.5,1.3,2.5c0,0.8-0.3,1.5-0.8,2.1
			c-0.6,0.6-1.5,1-2.5,1c0,0,0,0,0,0c-1.6,0-7.8,0-18.4,0l-2,0l0,0l-1.1,0c-0.7,0-1.5,0-2.2,0c-0.7,0-1.4,0-2.1,0l-0.3,0
			c-1.9,0-3.3,1.3-3.3,3.2c0,1.8,1.4,3.3,3.2,3.3c2.1,0,4.2,0,6.2,0l1.3,0c0,0,0,0,0,0c1.5,0,2.5,0.5,3.1,1.6c0.5,0.9,0.5,2,0,2.9
			c-0.5,0.9-1.4,1.5-2.4,1.6c-0.6,0.1-1.2,0-1.7,0c-0.1,0-0.3,0-0.4,0l-3.5,0c-1.7,0-3.3,0-5,0c-2.7-2-5-4.4-6.7-7.2
			c-1.8-2.9-3-6-3.5-9.3C1.6,45.5,1.9,45.5,2.2,45.5z M45.1,27.7c-3,0-8,0-10.1,0c-1,0-1.9-0.3-2.5-1c-0.6-0.6-0.9-1.3-0.8-2.1
			c0-1.8,1.4-3,3.3-3.1c0.2,0,1.5,0,3,0c1.6,0,3.5,0,4.7,0c2.1,1.7,4,3.8,5.4,6.1L45.1,27.7z M49.1,35.8c-2.2,0-4.4,0-6.7,0
			c-1.1,0-1.9-0.8-1.9-1.9c0-1,0.8-1.8,2-1.9c0.5,0,1,0,1.5,0c0,0,0.1,0,0.1,0h0.2c0.9,0,1.9,0,2.8,0c1,0,2,0,3,0
			c0.5,1.2,0.9,2.5,1.1,3.8C50.6,35.8,49.9,35.8,49.1,35.8z M40.4,59.1C40.4,59.1,40.4,59.1,40.4,59.1c-1,0-1.9-0.3-2.5-1
			C37.3,57.6,37,56.9,37,56c0-1.8,1.4-3,3.3-3.1c0.2,0,1.1,0,2.4,0c1.7,0,4.1,0,6.4,0c-1.2,2.2-2.6,4.3-4.4,6.1
			C41.8,59.1,41.4,59.1,40.4,59.1z"/>
	</g>
	<g>
		<g>
			<g>
				<g>
					<g>
						<path class="st1" d="M81.6,45.4c-1.6,2-4.1,3-7.5,3c-3.3,0-5.9-0.9-8-2.8c-2.2-2-3.3-4.7-3.3-8.2c0-3.4,1.1-6.1,3.4-8.1
							c2.1-1.8,4.9-2.8,8.4-2.8c2.7,0,4.9,0.4,6.5,1.1l0.2,4.5h-0.1c-0.6-1.2-1.5-2.2-2.7-3S75.9,28,74.3,28c-2.4,0-4.2,0.8-5.5,2.6
							c-1.1,1.5-1.7,3.6-1.7,6.2c0,2.9,0.8,5.3,2.4,7c1.6,1.8,3.7,2.7,6.4,2.7c0.9,0,1.8-0.1,2.5-0.3c1-0.3,2-0.7,2.8-1.3L81.6,45.4
							z"/>
						<path class="st1" d="M84.5,32.2c0-0.1,0-0.2,0-0.4c0-0.2,0-0.3-0.1-0.5c-0.1-0.5-0.2-0.8-0.3-1v-0.1h3.7v15.5
							c0,0.4,0.2,0.7,0.6,0.8c0.3,0.1,0.8,0.2,1.7,0.2h1c1.3,0,2.3-0.2,3-0.4c0.8-0.3,1.4-0.9,1.8-1.7h0.1L95.7,48H84.5V32.2z"/>
						<path class="st1" d="M106.2,29.9c2.9,0,5.3,0.9,7,2.6c1.7,1.7,2.6,3.9,2.6,6.6c0,2.7-0.9,4.9-2.7,6.6
							c-1.8,1.7-4.1,2.6-6.9,2.6c-2.8,0-5.1-0.9-6.9-2.6c-1.8-1.7-2.7-4-2.7-6.7c0-2.7,0.9-4.9,2.6-6.6S103.3,29.9,106.2,29.9z
							 M112.2,39.9c0-2.4-0.5-4.3-1.5-5.9c-1.1-1.8-2.8-2.7-4.9-2.7c-1.8,0-3.3,0.7-4.2,2.1c-0.9,1.3-1.4,3.1-1.4,5.3
							c0,2.4,0.5,4.3,1.6,5.9c1.1,1.7,2.7,2.5,4.8,2.5c1.8,0,3.2-0.7,4.2-2C111.7,43.7,112.2,42,112.2,39.9z"/>
						<path class="st1" d="M118.7,32.2c0-0.1,0-0.2,0-0.4c0-0.2,0-0.3-0.1-0.5c-0.1-0.5-0.2-0.8-0.3-1v-0.1h3.7v9.7
							c0,4.4,1.7,6.6,5.2,6.6c2.2,0,3.7-0.8,4.5-2.4c0.5-1.1,0.8-2.9,0.8-5.5v-6.5c0-0.3-0.1-0.5-0.1-0.7c-0.1-0.6-0.2-1-0.4-1v-0.1
							h2.2v8.9c0,3.3-0.6,5.6-1.7,7c-1.2,1.4-3.1,2.2-5.8,2.2c-2.8,0-4.8-0.7-6.1-2.2c-1.2-1.3-1.8-3.4-1.8-6.1V32.2z"/>
						<path class="st1" d="M137.9,32.2c0-0.1,0-0.2,0-0.4c0-0.2,0-0.3-0.1-0.5c-0.1-0.5-0.2-0.8-0.3-1v-0.1h5.7c3.4,0,6.1,0.7,8,2
							c2.2,1.5,3.2,3.8,3.2,6.8c0,3-1,5.2-2.9,6.8c-1.8,1.4-4.2,2.2-7.2,2.2h-6.5V32.2z M143.8,46.7c2.5,0,4.3-0.6,5.4-1.8
							c1.1-1.1,1.7-3,1.7-5.5c0-5.3-2.6-8-7.9-8h-0.8c-0.4,0-0.7,0-1,0.1v14.3c0,0.4,0.1,0.6,0.4,0.7c0.2,0.1,0.6,0.2,1.2,0.2H143.8
							z"/>
						<path class="st1" d="M164.5,29.3c0-0.1,0-0.2,0-0.4c0-0.2,0-0.4-0.1-0.6c-0.1-0.6-0.2-1-0.4-1.2v-0.1h6.6c5.2,0,7.8,2,7.8,6
							c0,2.2-0.8,3.9-2.5,5.1c-1.4,1-3.2,1.5-5.4,1.5c-0.8,0-1.5-0.1-2.1-0.2v6.1c0,0.1,0,0.2,0,0.4c0,0.3,0.1,0.6,0.1,0.9
							c0.2,0.8,0.4,1.2,0.7,1.2V48h-4.7V29.3z M168.3,37.2c0.2,0.3,0.5,0.5,0.9,0.7c0.3,0.1,0.7,0.2,1.2,0.2c2.5,0,3.8-1.6,3.8-4.9
							c0-3.2-1.4-4.9-4.3-4.9c-0.5,0-1,0-1.6,0.1V37.2z"/>
						<path class="st1" d="M189.8,29.9c2.9,0,5.3,0.9,7,2.6c1.7,1.7,2.6,3.9,2.6,6.6c0,2.7-0.9,4.9-2.7,6.6
							c-1.8,1.7-4.1,2.6-6.9,2.6c-2.8,0-5.1-0.9-6.9-2.6c-1.8-1.7-2.7-4-2.7-6.7c0-2.7,0.9-4.9,2.6-6.6S187,29.9,189.8,29.9z
							 M195.9,39.9c0-2.4-0.5-4.3-1.5-5.9c-1.1-1.8-2.8-2.7-4.9-2.7c-1.8,0-3.3,0.7-4.2,2.1c-0.9,1.3-1.4,3.1-1.4,5.3
							c0,2.4,0.5,4.3,1.6,5.9c1.1,1.7,2.7,2.5,4.8,2.5c1.8,0,3.2-0.7,4.2-2C195.4,43.7,195.9,42,195.9,39.9z"/>
						<path class="st1" d="M205.8,33c0-0.6-0.2-1-0.5-1.2c-0.3-0.2-0.8-0.3-1.5-0.3c-2.3,0-3.5,0.8-3.8,2.3h-0.1l0.1-3.6h14.7
							l0.1,3.6h-0.1c-0.3-1.6-1.6-2.3-3.8-2.3c-0.7,0-1.2,0.1-1.4,0.3c-0.3,0.2-0.5,0.6-0.5,1.2v13c0,0.1,0,0.2,0,0.3
							c0,0.3,0.1,0.5,0.1,0.7c0.1,0.6,0.3,1,0.6,1V48h-3.9V33z"/>
					</g>
				</g>
			</g>
		</g>
		<g>
			<path class="st0" d="M93.3,54.6h1.3v5.8h3.9v0.5h-5.2V54.6z"/>
			<path class="st0" d="M99.7,60.6c-0.3-0.2-0.5-0.6-0.5-1c0-0.5,0.2-0.8,0.6-1c0.4-0.2,0.9-0.4,1.6-0.4h1.2v-0.3
				c0-0.3-0.1-0.6-0.3-0.8c-0.2-0.2-0.5-0.3-0.9-0.3c-0.4,0-0.6,0.1-0.9,0.3c-0.2,0.2-0.3,0.4-0.4,0.8h-0.9c0.1-0.5,0.3-0.8,0.7-1.1
				c0.4-0.3,0.9-0.4,1.6-0.4c0.7,0,1.3,0.1,1.6,0.4c0.4,0.3,0.6,0.7,0.6,1.2v1.4c0,0.5,0,1,0.1,1.5h-1.1c-0.1-0.2-0.1-0.4-0.1-0.7
				c-0.2,0.3-0.4,0.4-0.7,0.6c-0.3,0.1-0.6,0.2-0.9,0.2C100.4,60.9,100,60.8,99.7,60.6z M101.2,54.4h0.8l1.2,1.4h-0.6l-0.9-0.9
				l-0.9,0.9H100L101.2,54.4z M102.2,60.2c0.2-0.2,0.3-0.5,0.3-0.9v-0.7h-0.9c-0.4,0-0.8,0.1-1,0.2c-0.2,0.2-0.3,0.4-0.3,0.7
				c0,0.3,0.1,0.5,0.2,0.7c0.2,0.2,0.4,0.2,0.7,0.2C101.7,60.5,102,60.4,102.2,60.2z M102.4,54.4c0-0.1,0-0.2,0.1-0.2
				c0.1-0.1,0.1-0.1,0.2-0.2c0.1-0.1,0.2-0.1,0.2-0.2s0.1-0.1,0.1-0.2c0-0.1,0-0.1-0.1-0.2c-0.1-0.1-0.1-0.1-0.2-0.1
				c-0.1,0-0.2,0-0.3,0.1c-0.1,0.1-0.1,0.1-0.1,0.2H102c0-0.2,0.1-0.3,0.2-0.4c0.1-0.1,0.3-0.1,0.6-0.1c0.2,0,0.4,0,0.6,0.1
				c0.1,0.1,0.2,0.2,0.2,0.4c0,0.1,0,0.2-0.1,0.3c-0.1,0.1-0.2,0.1-0.3,0.2c-0.1,0.1-0.2,0.1-0.2,0.2c0,0-0.1,0.1-0.1,0.2
				c0,0,0,0.1,0,0.1h-0.5C102.4,54.5,102.4,54.4,102.4,54.4z"/>
			<path class="st0" d="M105.4,60.5c-0.3-0.3-0.5-0.7-0.5-1.2v-2.8h1.2v2.9c0,0.4,0.1,0.7,0.3,0.9c0.2,0.2,0.4,0.3,0.8,0.3
				c0.4,0,0.7-0.1,1-0.4c0.2-0.3,0.4-0.7,0.4-1.1v-2.5h1.2v4.4h-1.2v-0.7c-0.1,0.3-0.4,0.5-0.6,0.6c-0.3,0.1-0.6,0.2-1,0.2
				C106.2,60.9,105.8,60.8,105.4,60.5z"/>
			<path class="st0" d="M113.4,54.6h1.3v2.7h3.6v-2.7h1.3v6.3h-1.3v-3.1h-3.6v3.1h-1.3V54.6z"/>
			<path class="st0" d="M121.2,60.6c-0.3-0.2-0.5-0.6-0.5-1c0-0.5,0.2-0.8,0.6-1c0.4-0.2,0.9-0.4,1.6-0.4h1.2v-0.3
				c0-0.3-0.1-0.6-0.3-0.8c-0.2-0.2-0.5-0.3-0.9-0.3c-0.4,0-0.6,0.1-0.9,0.3c-0.2,0.2-0.3,0.4-0.4,0.8h-0.9c0.1-0.5,0.3-0.8,0.7-1.1
				c0.4-0.3,0.9-0.4,1.6-0.4c0.7,0,1.3,0.1,1.6,0.4c0.4,0.3,0.6,0.7,0.6,1.2v1.4c0,0.5,0,1,0.1,1.5h-1.1c-0.1-0.2-0.1-0.4-0.1-0.7
				c-0.2,0.3-0.4,0.4-0.7,0.6c-0.3,0.1-0.6,0.2-0.9,0.2C122,60.9,121.5,60.8,121.2,60.6z M122.7,54.4h0.8l1.2,1.4h-0.6l-0.9-0.9
				l-0.9,0.9h-0.6L122.7,54.4z M123.8,60.2c0.2-0.2,0.3-0.5,0.3-0.9v-0.7h-0.9c-0.4,0-0.8,0.1-1,0.2c-0.2,0.2-0.3,0.4-0.3,0.7
				c0,0.3,0.1,0.5,0.2,0.7c0.2,0.2,0.4,0.2,0.7,0.2C123.3,60.5,123.6,60.4,123.8,60.2z M124.8,53.6c0.1-0.1,0.3-0.2,0.4-0.2
				c0.1,0,0.2,0,0.2,0.1c0.1,0,0.1,0.1,0.1,0.2c0,0.1,0,0.1-0.1,0.2c-0.1,0.1-0.2,0.2-0.4,0.3l-0.6,0.5H124L124.8,53.6z"/>
			<path class="st0" d="M126.6,56.5h1.2v0.7c0.2-0.3,0.4-0.4,0.7-0.6c0.3-0.1,0.6-0.2,1-0.2c0.7,0,1.3,0.2,1.7,0.6
				c0.4,0.4,0.6,0.9,0.6,1.6c0,0.5-0.1,0.9-0.3,1.2c-0.2,0.3-0.5,0.6-0.8,0.8c-0.3,0.2-0.7,0.3-1.2,0.3c-0.4,0-0.7-0.1-1-0.2
				c-0.3-0.1-0.5-0.4-0.7-0.7v2.5h-1.2V56.5z M130.2,60c0.3-0.4,0.4-0.8,0.4-1.4c0-0.6-0.1-1-0.4-1.3c-0.2-0.3-0.6-0.5-1-0.5
				c-0.4,0-0.8,0.2-1,0.5c-0.3,0.3-0.4,0.8-0.4,1.4c0,0.6,0.1,1,0.4,1.4c0.2,0.3,0.6,0.5,1,0.5S129.9,60.4,130.2,60z"/>
			<path class="st0" d="M137.4,55.1h-2.6v-0.5h6.6v0.5h-2.6v5.8h-1.3V55.1z"/>
			<path class="st0" d="M142,54.7h1.2v2.5c0.1-0.3,0.4-0.5,0.6-0.6c0.3-0.2,0.6-0.2,1-0.2c0.6,0,1,0.1,1.4,0.4
				c0.3,0.3,0.5,0.7,0.5,1.2v2.8h-1.2v-2.9c0-0.4-0.1-0.7-0.3-0.9c-0.2-0.2-0.4-0.3-0.8-0.3c-0.4,0-0.7,0.1-1,0.4
				c-0.2,0.3-0.4,0.7-0.4,1.2v2.5H142V54.7z"/>
			<path class="st0" d="M148.2,60.5c-0.3-0.3-0.5-0.7-0.5-1.2v-2.8h1.2v2.9c0,0.4,0.1,0.7,0.3,0.9c0.2,0.2,0.4,0.3,0.8,0.3
				c0.4,0,0.7-0.1,1-0.4c0.2-0.3,0.4-0.7,0.4-1.1v-2.5h1.2v4.4h-1.2v-0.7c-0.1,0.3-0.4,0.5-0.6,0.6c-0.3,0.1-0.6,0.2-1,0.2
				C149,60.9,148.5,60.8,148.2,60.5z M149.7,55.7c0-0.1,0-0.2,0.1-0.3c0.1-0.1,0.2-0.2,0.3-0.3c0.2-0.1,0.3-0.2,0.3-0.3
				c0.1-0.1,0.1-0.2,0.1-0.3c0-0.1,0-0.2-0.1-0.2c-0.1-0.1-0.2-0.1-0.3-0.1c-0.1,0-0.2,0-0.3,0.1c-0.1,0.1-0.1,0.2-0.2,0.3h-0.5
				c0-0.2,0.1-0.4,0.3-0.6c0.2-0.1,0.4-0.2,0.8-0.2c0.3,0,0.6,0.1,0.7,0.2c0.2,0.1,0.3,0.3,0.3,0.5c0,0.2,0,0.3-0.1,0.4
				c-0.1,0.1-0.2,0.2-0.4,0.3c-0.1,0.1-0.2,0.2-0.3,0.2c-0.1,0.1-0.1,0.1-0.1,0.2c0,0.1,0,0.1,0,0.2h-0.6
				C149.7,55.8,149.7,55.7,149.7,55.7z"/>
			<path class="st0" d="M153,62.3l0.3-0.5c0.1,0.1,0.2,0.2,0.3,0.2c0.1,0.1,0.3,0.1,0.4,0.1c0.2,0,0.4-0.1,0.6-0.2
				c0.2-0.1,0.3-0.2,0.5-0.4c0.1-0.2,0.2-0.4,0.2-0.6c0-0.3,0-0.5-0.1-0.6l-2.1-3.9h1.2l1.7,3.4l1.6-3.4h0.7l-2.2,4.5
				c-0.3,0.6-0.6,1-0.9,1.2c-0.3,0.3-0.7,0.4-1.1,0.4C153.7,62.6,153.3,62.5,153,62.3z"/>
			<path class="st0" d="M161.5,54.6h1.3l3.4,4.4v-4.4h1.2v6.3h-0.8l-3.9-5.1v5.1h-1.2V54.6z"/>
			<path class="st0" d="M168.7,54.7h1.2v2.5c0.1-0.3,0.4-0.5,0.6-0.6c0.3-0.2,0.6-0.2,1-0.2c0.6,0,1,0.1,1.4,0.4
				c0.3,0.3,0.5,0.7,0.5,1.2v2.8h-1.2v-2.9c0-0.4-0.1-0.7-0.3-0.9c-0.2-0.2-0.4-0.3-0.8-0.3c-0.4,0-0.7,0.1-1,0.4
				c-0.2,0.3-0.4,0.7-0.4,1.2v2.5h-1.2V54.7z"/>
			<path class="st0" d="M174.7,55.8c-0.1-0.1-0.2-0.3-0.2-0.5c0-0.2,0.1-0.4,0.2-0.5c0.1-0.1,0.3-0.2,0.6-0.2c0.2,0,0.4,0.1,0.6,0.2
				c0.1,0.1,0.2,0.3,0.2,0.5c0,0.2-0.1,0.4-0.2,0.5c-0.1,0.1-0.3,0.2-0.6,0.2C175,56,174.9,55.9,174.7,55.8z M174.7,56.5h1.2v4.4
				h-1.2V56.5z"/>
			<path class="st0" d="M181.2,59.4h0.9c-0.1,0.5-0.4,0.9-0.8,1.1c-0.4,0.3-1,0.4-1.6,0.4c-0.5,0-1-0.1-1.4-0.3
				c-0.4-0.2-0.7-0.4-0.9-0.8c-0.2-0.3-0.3-0.7-0.3-1.2c0-0.5,0.1-0.9,0.3-1.2c0.2-0.3,0.5-0.6,0.9-0.8c0.4-0.2,0.8-0.3,1.4-0.3
				c0.8,0,1.4,0.2,1.8,0.6c0.4,0.4,0.6,1,0.7,1.7h-3.9v0.1c0,0.6,0.1,1,0.4,1.3c0.3,0.3,0.6,0.5,1.1,0.5
				C180.6,60.5,181,60.1,181.2,59.4z M179.2,54.4h0.8l1.2,1.4h-0.6l-0.9-0.9l-0.9,0.9H178L179.2,54.4z M178.7,57.2
				c-0.2,0.2-0.4,0.6-0.5,1.1h2.7c-0.1-0.5-0.2-0.8-0.4-1.1c-0.2-0.2-0.5-0.4-0.9-0.4C179.3,56.8,179,56.9,178.7,57.2z M179.2,62.2
				c-0.1-0.1-0.2-0.2-0.2-0.4c0-0.2,0.1-0.3,0.2-0.4c0.1-0.1,0.2-0.2,0.4-0.2c0.2,0,0.3,0.1,0.4,0.2c0.1,0.1,0.2,0.2,0.2,0.4
				c0,0.2-0.1,0.3-0.2,0.4c-0.1,0.1-0.2,0.2-0.4,0.2C179.4,62.3,179.3,62.3,179.2,62.2z"/>
			<path class="st0" d="M183.7,60.6c-0.2-0.2-0.3-0.5-0.3-1v-2.7h-0.8l0.1-0.4h0.7l0.3-1.2h0.8v1.2h1.2l-0.1,0.4h-1.1v2.8
				c0,0.5,0.2,0.8,0.6,0.8c0.2,0,0.4-0.1,0.6-0.2v0.4c-0.3,0.1-0.6,0.2-1.1,0.2C184.3,60.9,184,60.8,183.7,60.6z"/>
		</g>
	</g>
</g>
</svg>
