<?xml version="1.0" encoding="utf-8"?>
<!-- Generator: Adobe Illustrator 26.3.1, SVG Export Plug-In . SVG Version: 6.00 Build 0)  -->
<svg version="1.1" id="Layer_1" xmlns="http://www.w3.org/2000/svg" xmlns:xlink="http://www.w3.org/1999/xlink" x="0px" y="0px"
	 viewBox="0 0 215 87" style="enable-background:new 0 0 215 87;" xml:space="preserve">
<style type="text/css">
	.st0{fill:#84B745;}
	.st1{fill:#152E54;}
	.st2{fill:#FFFDF2;}
	.st3{fill:#016938;}
	.st4{fill:#95C13D;}
</style>
<g>
	<g>
		<path class="st0" d="M74.4,9.5H20.3c-4.3,0-7.9,3.5-7.9,7.9v54.1c0,4.3,3.5,7.9,7.9,7.9h54.1c4.3,0,7.9-3.5,7.9-7.9V17.4
			C82.2,13,78.7,9.5,74.4,9.5z M76.4,69.6c-2.1,0.3-3.7,1.9-3.9,3.9H22.2c-0.3-2-1.9-3.7-3.9-3.9V19.3c2.1-0.3,3.7-1.9,3.9-3.9h50.3
			c0.3,2,1.9,3.7,3.9,3.9V69.6z"/>
		<g>
			<path class="st1" d="M77,18.2c-1.9,0-3.4-1.5-3.4-3.4v-0.6H21.1v0.6c0,1.9-1.5,3.4-3.4,3.4h-0.6v52.5h0.6c1.9,0,3.4,1.5,3.4,3.4
				v0.6h52.5v-0.6c0-1.9,1.5-3.4,3.4-3.4h0.6V18.2H77z M76.4,69.6c-2.1,0.3-3.7,1.9-3.9,3.9H22.2c-0.3-2-1.9-3.7-3.9-3.9V19.3
				c2.1-0.3,3.7-1.9,3.9-3.9h50.3c0.3,2,1.9,3.7,3.9,3.9V69.6z"/>
		</g>
		<path class="st2" d="M76.4,19.3v50.3c-2.1,0.3-3.7,1.9-3.9,3.9H22.2c-0.3-2-1.9-3.7-3.9-3.9V19.3c2.1-0.3,3.7-1.9,3.9-3.9h50.3
			C72.7,17.4,74.4,19,76.4,19.3z"/>
		<g>
			<g>
				<path class="st1" d="M31.7,58l0,0.6c0,0.5,0.4,0.9,1.1,1.4c0.7,0.5,1.6,0.9,2.8,1.2c1.1,0.3,2.2,0.5,3.3,0.5
					c1.3,0,2.3-0.2,2.9-0.6c0.6-0.4,0.9-0.9,0.9-1.6c0-0.6-0.2-1.1-0.7-1.5c-0.5-0.4-1.2-0.6-2.1-0.6h-2.2c-0.2,0-0.4,0.1-0.5,0.2
					c-0.1,0.1-0.2,0.4-0.2,0.8h-0.4v-5.4h0.4c0,0.5,0.2,0.8,0.6,0.8h2.4c0.6,0,1-0.1,1.4-0.4c0.4-0.3,0.6-0.7,0.6-1.2
					c0-0.6-0.2-1.1-0.7-1.4c-0.5-0.3-1.2-0.5-2.4-0.5c-1.1,0-2.1,0.2-3,0.5c-1,0.3-1.7,0.7-2.3,1.1c-0.6,0.4-0.9,0.7-0.9,1
					c0,0.1,0,0.3,0.1,0.5l-0.3,0.3l-3-4.9l0.4-0.2c0.2,0.2,0.3,0.3,0.5,0.3c0.1,0,0.5-0.1,1.1-0.4c1.1-0.6,2.2-1,3.4-1.4
					c1.1-0.4,2.5-0.6,4.1-0.6c2.2,0,4,0.4,5.6,1.3c1.5,0.9,2.3,2.2,2.3,4.1c0,1.4-0.7,2.6-2.1,3.5v0.2c2,1,3,2.4,3,4.4
					c0,1.2-0.4,2.3-1.2,3.2c-0.8,0.9-1.8,1.6-3.1,2c-1.3,0.5-2.6,0.7-3.9,0.7c-2.1,0-4.3-0.3-6.5-1c0,0-0.7-0.3-2.1-0.8
					c-0.5-0.2-0.8-0.3-0.8-0.3c-0.3,0-0.5,0.1-0.6,0.4L29,64l2.4-6.2L31.7,58z"/>
			</g>
			<g>
				<path class="st1" d="M48.7,52.3h-0.4v-5.8h0.4c0,0.6,0.2,0.9,0.6,0.9h15.2c0.4,0,0.6-0.3,0.6-0.8h0.4v4.5L59,63.3
					c0,0.1-0.2,0.3-0.4,0.7s-0.3,0.6-0.3,0.7c0,0.4,0.3,0.6,0.8,0.6v0.4h-7.5v-0.4c0.4,0,0.7-0.3,1.1-0.9l7.5-13H49.3
					C48.9,51.5,48.7,51.8,48.7,52.3z"/>
			</g>
		</g>
		<g>
			<g>
				<path class="st1" d="M30,43.7c0.1,0.1,0.3,0.1,0.5,0.1v0.3h-5v-0.3c0.3,0,0.5-0.1,0.5-0.1c0.1-0.1,0.1-0.2,0.1-0.3V31.6
					c0-0.1,0-0.2-0.1-0.3c-0.1-0.1-0.3-0.1-0.5-0.1v-0.3h8.7c1,0,1.8,0.2,2.5,0.6c0.7,0.4,1.2,0.9,1.6,1.5c0.4,0.6,0.5,1.3,0.5,2.1
					c0,0.8-0.2,1.5-0.5,2.1c-0.4,0.6-0.9,1.1-1.6,1.5c-0.7,0.4-1.5,0.6-2.5,0.6h-4.4v4.1C29.9,43.5,29.9,43.6,30,43.7z M33.6,36.6
					c0.7,0,1.2-0.1,1.5-0.4c0.3-0.2,0.5-0.6,0.5-1.1c0-0.5-0.2-0.8-0.5-1.1c-0.3-0.2-0.8-0.3-1.5-0.3h-3.7v2.9H33.6z"/>
			</g>
			<g>
				<path class="st1" d="M53.8,43.7c0.1,0.1,0.3,0.1,0.5,0.1v0.3h-5v-0.3c0.3,0,0.5-0.1,0.5-0.1c0.1-0.1,0.1-0.2,0.1-0.3v-4.7h-6.3
					v4.7c0,0.1,0,0.2,0.1,0.3c0.1,0.1,0.3,0.1,0.5,0.1v0.3h-5v-0.3c0.3,0,0.5-0.1,0.5-0.1c0.1-0.1,0.1-0.2,0.1-0.3V31.6
					c0-0.1,0-0.2-0.1-0.3c-0.1-0.1-0.3-0.1-0.5-0.1v-0.3h5v0.3c-0.3,0-0.5,0.1-0.5,0.1c-0.1,0.1-0.1,0.2-0.1,0.3v4H50v-4
					c0-0.1,0-0.2-0.1-0.3c-0.1-0.1-0.3-0.1-0.5-0.1v-0.3h5v0.3c-0.3,0-0.5,0.1-0.5,0.1c-0.1,0.1-0.1,0.2-0.1,0.3v11.7
					C53.6,43.5,53.7,43.6,53.8,43.7z"/>
			</g>
			<g>
				<path class="st1" d="M66.5,31.5c1.2,0.5,2.1,1.3,2.7,2.3c0.7,1,1,2.2,1,3.7c0,1.4-0.3,2.6-1,3.7c-0.7,1-1.6,1.8-2.7,2.3
					c-1.2,0.5-2.4,0.8-3.8,0.8c-1.4,0-2.7-0.3-3.8-0.8c-1.2-0.5-2.1-1.3-2.7-2.3c-0.7-1-1-2.2-1-3.7c0-1.4,0.3-2.6,1-3.7
					c0.7-1,1.6-1.8,2.7-2.3c1.1-0.5,2.4-0.8,3.8-0.8C64,30.7,65.3,31,66.5,31.5z M60.6,34.3c-0.6,0.3-1.1,0.7-1.5,1.3
					c-0.4,0.6-0.5,1.2-0.5,2c0,0.8,0.2,1.4,0.5,2c0.4,0.6,0.9,1,1.5,1.3c0.6,0.3,1.3,0.4,2,0.4c0.7,0,1.4-0.1,2-0.4
					c0.6-0.3,1.1-0.7,1.5-1.3c0.4-0.6,0.5-1.2,0.5-2c0-0.8-0.2-1.4-0.5-2c-0.4-0.6-0.9-1-1.5-1.3c-0.6-0.3-1.3-0.4-2-0.4
					C61.9,33.8,61.2,34,60.6,34.3z"/>
			</g>
			<g>
				<path class="st1" d="M66.5,30.4l-3.8-1l-3.8,1l-0.1-0.5l3.9-1c0,0,0.1,0,0.1,0l3.9,1L66.5,30.4z"/>
			</g>
			<g>
				<rect x="62.7" y="27.4" transform="matrix(0.994 -0.1096 0.1096 0.994 -2.6472 7.2952)" class="st1" width="4.7" height="0.6"/>
			</g>
		</g>
		<g>
			<g>
				<g>
					<path class="st1" d="M32.5,25.3L32.5,25.3c0.1,0.1,0.1,0.2,0.3,0.2c0.1,0,0.3,0,0.4,0c0.2,0,0.3-0.1,0.4-0.2
						c0.2-0.1,0.3-0.2,0.3-0.3s0.1-0.2,0-0.3c0-0.1-0.1-0.1-0.2-0.1c-0.1,0-0.2,0-0.3,0.1l-0.3,0.2c0,0,0,0-0.1,0.1c0,0,0,0.1,0,0.1
						l-0.1,0l-0.4-0.7l0.1,0c0,0.1,0.1,0.1,0.1,0.1l0.3-0.2c0.1,0,0.1-0.1,0.1-0.1c0-0.1,0-0.1,0-0.2c0-0.1-0.1-0.1-0.2-0.1
						c-0.1,0-0.2,0-0.3,0.1c-0.1,0.1-0.2,0.2-0.3,0.3c-0.1,0.1-0.2,0.2-0.2,0.3c0,0.1-0.1,0.2,0,0.2c0,0,0,0,0,0.1l0,0.1l-0.7-0.4
						l0,0c0,0,0.1,0,0.1,0c0,0,0-0.1,0.1-0.1c0.1-0.1,0.2-0.3,0.3-0.4c0.1-0.1,0.3-0.2,0.5-0.4c0.3-0.2,0.5-0.2,0.8-0.2
						c0.2,0,0.4,0.1,0.6,0.3c0.1,0.2,0.1,0.4,0,0.6l0,0c0.3,0,0.5,0.1,0.7,0.3c0.1,0.2,0.1,0.3,0.1,0.5c0,0.2-0.1,0.3-0.2,0.5
						c-0.1,0.1-0.3,0.3-0.4,0.4c-0.3,0.2-0.6,0.3-0.9,0.3c0,0-0.1,0-0.3,0.1c-0.1,0-0.1,0-0.1,0c0,0,0,0-0.1,0.1l-0.1,0L32.5,25.3
						L32.5,25.3z"/>
				</g>
			</g>
			<g>
				<g>
					<path class="st1" d="M34.8,23L34.8,23l-0.3-0.8l0.1,0c0,0.1,0.1,0.1,0.1,0.1l2.1-0.8c0.1,0,0.1-0.1,0-0.1l0.1,0l0.2,0.6l-0.3,2
						c0,0,0,0.1,0,0.1c0,0.1,0,0.1,0,0.1c0,0.1,0.1,0.1,0.1,0l0,0.1l-1,0.4l0-0.1c0.1,0,0.1-0.1,0.1-0.2l0.4-2.2l-1.5,0.5
						C34.8,22.9,34.8,22.9,34.8,23z"/>
				</g>
			</g>
			<g>
				<g>
					<path class="st1" d="M38.7,20.6L38.7,20.6l0.1,0.4l0,0c0,0,0-0.1-0.1-0.1l-0.4,0.1l0.2,0.9c0,0,0,0,0.1,0l0,0l-0.5,0.1l0,0
						c0,0,0.1,0,0.1-0.1L38,21.2l-0.4,0.1c0,0,0,0,0,0.1l0,0L37.4,21l0,0c0,0,0,0.1,0.1,0.1L38.7,20.6
						C38.7,20.7,38.8,20.7,38.7,20.6z"/>
				</g>
			</g>
			<g>
				<g>
					<path class="st1" d="M39.9,21.7C39.9,21.7,39.9,21.7,39.9,21.7C40,21.7,40,21.7,39.9,21.7L39.9,21.7l-0.4,0.2l0,0
						c0,0,0,0,0.1,0c0,0,0,0,0,0l-0.2-1.1c0,0,0,0,0,0c0,0,0,0-0.1,0l0,0l0.5-0.1l0,0c0,0,0,0-0.1,0c0,0,0,0,0,0l0.1,0.4l0.6-0.1
						l-0.1-0.4c0,0,0,0,0,0c0,0,0,0-0.1,0l0,0l0.5-0.1l0,0c0,0,0,0-0.1,0c0,0,0,0,0,0l0.2,1.1c0,0,0,0,0,0c0,0,0,0,0.1,0l0,0
						l-0.5,0.1l0,0c0,0,0,0,0.1,0s0,0,0,0l-0.1-0.4l-0.6,0.1L39.9,21.7z"/>
				</g>
			</g>
			<g>
				<g>
					<path class="st1" d="M43.6,21.9c0,0,0,0.1,0,0.1c0,0,0.1,0.1,0.2,0.1c0.1,0.1,0.2,0.1,0.4,0.1c0.2,0,0.3,0,0.5,0
						c0.5,0,0.7-0.2,0.7-0.4c0-0.1-0.1-0.1-0.2-0.1c-0.1,0-0.3,0-0.5,0c-0.3,0-0.5,0-0.7-0.1c-0.2,0-0.3-0.1-0.5-0.2
						c-0.1-0.1-0.2-0.2-0.2-0.4c0-0.2,0-0.3,0.1-0.5c0.1-0.1,0.2-0.2,0.4-0.3c0.2-0.1,0.4-0.1,0.6-0.1c0.2,0,0.4,0,0.6,0
						c0.2,0,0.3,0.1,0.5,0.1c0.1,0,0.2,0,0.2,0c0,0,0.1,0,0.1,0c0,0,0,0,0.1-0.1l0.1,0L45.6,21l-0.1,0l0-0.1c0,0-0.1-0.1-0.2-0.1
						c-0.1,0-0.2-0.1-0.4-0.1c-0.2,0-0.3,0-0.5,0c-0.2,0-0.3,0-0.4,0.1c-0.1,0.1-0.1,0.1-0.1,0.2c0,0.1,0.1,0.1,0.2,0.1
						c0.1,0,0.3,0,0.5,0c0.3,0,0.5,0,0.7,0.1s0.3,0.1,0.5,0.2c0.1,0.1,0.2,0.3,0.2,0.5c0,0.2,0,0.3-0.1,0.5
						c-0.1,0.1-0.2,0.3-0.4,0.4c-0.2,0.1-0.5,0.2-0.8,0.2c-0.3,0-0.5,0-0.7,0c-0.2,0-0.3-0.1-0.5-0.1c-0.1,0-0.1,0-0.2,0
						c0,0,0,0-0.1,0c0,0,0,0,0,0l-0.1,0L43.6,21.9L43.6,21.9z"/>
				</g>
			</g>
			<g>
				<g>
					<path class="st1" d="M47.4,22.8c0.1,0,0.1,0,0.1,0c0,0,0,0,0-0.1l0-1.9l-0.8,0c0,0,0,0-0.1,0c0,0,0,0.1,0,0.1l-0.1,0l0-0.9
						l0.1,0c0,0.1,0,0.1,0,0.1c0,0,0,0,0.1,0l2.4,0.1c0,0,0,0,0.1,0c0,0,0-0.1,0-0.1l0.1,0l0,0.9l-0.1,0c0-0.1,0-0.1,0-0.1
						c0,0,0,0-0.1,0l-0.8,0l0,1.9c0,0,0,0,0,0.1c0,0,0.1,0,0.1,0l0,0.1L47.4,22.8L47.4,22.8z"/>
				</g>
			</g>
			<g>
				<g>
					<path class="st1" d="M50.7,22.9c0,0,0.1,0,0.1,0l0,0.1l-1-0.1l0-0.1c0.1,0,0.1,0,0.1,0c0,0,0,0,0-0.1l0.3-2.4c0,0,0,0,0-0.1
						c0,0-0.1,0-0.1,0l0-0.1l1.8,0.2c0.4,0,0.6,0.1,0.8,0.3c0.2,0.2,0.2,0.4,0.2,0.7c0,0.4-0.3,0.7-0.8,0.7l0.5,0.9
						c0,0.1,0.1,0.1,0.1,0.1l0,0.1l-1-0.1l0-0.1c0.1,0,0.1,0,0.1-0.1c0,0-0.1-0.2-0.3-0.6c-0.1-0.2-0.2-0.3-0.2-0.3L50.8,22
						L50.7,22.9C50.7,22.9,50.7,22.9,50.7,22.9z M51.7,21.6c0.1,0,0.2,0,0.3,0c0.1,0,0.1-0.1,0.1-0.2s0-0.2-0.1-0.2
						c-0.1-0.1-0.1-0.1-0.3-0.1l-0.8-0.1l-0.1,0.6L51.7,21.6z"/>
				</g>
			</g>
			<g>
				<g>
					<path class="st1" d="M55.4,22.8c0-0.1,0-0.1-0.1-0.1l-0.9-0.2l-0.1,0.5l1.5,0.4c0,0,0,0,0.1,0c0,0,0-0.1,0.1-0.1l0.1,0
						l-0.2,0.9l-0.1,0c0,0,0-0.1,0-0.1c0,0,0,0-0.1,0l-2.4-0.5l0-0.1c0.1,0,0.1,0,0.1,0c0,0,0,0,0-0.1l0.5-2.3c0,0,0,0,0-0.1
						c0,0,0,0-0.1-0.1l0-0.1l2.4,0.5c0,0,0,0,0.1,0c0,0,0-0.1,0.1-0.1l0.1,0L56.3,22l-0.1,0c0-0.1,0-0.1,0-0.1c0,0,0,0-0.1,0
						l-1.5-0.4l-0.1,0.4l0.9,0.2c0.1,0,0.1,0,0.2-0.1l0.1,0L55.4,22.8L55.4,22.8z"/>
				</g>
			</g>
			<g>
				<g>
					<path class="st1" d="M58.7,23.9c0-0.1,0-0.1-0.1-0.2l-0.9-0.3l-0.2,0.4l1.5,0.6c0,0,0,0,0.1,0c0,0,0,0,0.1-0.1l0.1,0L59,25.2
						l-0.1,0c0,0,0-0.1,0-0.1c0,0,0,0,0,0l-2.3-0.9l0-0.1c0.1,0,0.1,0,0.1,0c0,0,0,0,0-0.1l0.8-2.2c0,0,0,0,0-0.1c0,0,0,0-0.1-0.1
						l0-0.1l2.3,0.9c0,0,0,0,0.1,0c0,0,0,0,0.1-0.1l0.1,0l-0.3,0.8l-0.1,0c0-0.1,0-0.1,0-0.1c0,0,0,0,0,0l-1.5-0.6l-0.1,0.4l0.9,0.3
						c0.1,0,0.1,0,0.2-0.1l0.1,0L58.7,23.9L58.7,23.9z"/>
				</g>
			</g>
			<g>
				<g>
					<path class="st1" d="M60.1,25.6c0,0,0.1,0,0.1,0c0,0,0,0,0.1,0l0.9-1.6l-0.7-0.4c0,0,0,0-0.1,0c0,0,0,0-0.1,0.1l-0.1,0l0.4-0.8
						l0.1,0c0,0.1,0,0.1,0,0.1s0,0,0,0.1l2.1,1.3c0,0,0,0,0.1,0c0,0,0,0,0.1-0.1l0.1,0L62.6,25l-0.1,0c0-0.1,0-0.1,0-0.1
						c0,0,0,0,0-0.1l-0.7-0.4L60.9,26c0,0,0,0,0,0.1c0,0,0,0,0.1,0.1l0,0.1L60.1,25.6L60.1,25.6z"/>
				</g>
			</g>
		</g>
	</g>
	<g>
		<g>
			<g>
				<path class="st1" d="M105.9,74.6c-7.5,0-13.7-6.1-13.7-13.5c0-7.4,6.3-13.5,13.7-13.5c5.3,0,10,3,12.2,7.4l-6,2.7
					c-1.2-2.2-3.5-3.7-6.2-3.7c-3.9,0-7,3.1-7,7.1c0,3.9,3.2,7.1,7,7.1c2.8,0,5-1.5,6.2-3.7l6.1,2.7
					C115.9,71.6,111.2,74.6,105.9,74.6z"/>
			</g>
			<g>
				<path class="st1" d="M144.4,63c0,6.6-4.2,11.7-11.9,11.7c-7.8,0-11.9-5.1-11.9-11.7V48.6h6.6v14c0,3.7,1.8,5.7,5.2,5.7
					c3.5,0,5.3-2,5.3-5.7v-14h6.6V63z"/>
			</g>
			<g>
				<path class="st1" d="M178.8,48.6h5.6L196,63.2V48.6h6.6v26.1H197l-11.6-14.5v14.5h-6.6V48.6z"/>
			</g>
			<g>
				<path class="st3" d="M174.4,64.5c0,0,0.9,0.4-3.7,1.2c-2.9,0.5-4.1,1.4-4.5,2.3c-0.3,0.6-2.5,2.8-3.8,3.5c-1.3,0.7-4.2-1-6-0.1
					c-2.1,1-4.7,0.3-6.9,1c-0.6,0.2-3.5,4.5-1.8,4.6c1.7,0.1,10.5-2.8,10.5-2.8l8.8-1.9L171,69l3.2-3.6L174.4,64.5z"/>
				<g>
					<path class="st1" d="M163,48.9c7.1,1.5,11.7,8.4,10.3,15.4c-1.5,7-8.5,11.5-15.6,10c-7-1.5-11.7-8.4-10.3-15.4
						C148.9,51.9,156,47.4,163,48.9z M158.9,68.2c3.7,0.8,7.2-1.5,8-5.2c0.8-3.7-1.5-7.2-5.2-8c-3.7-0.8-7.2,1.5-8,5.2
						C152.9,63.9,155.3,67.4,158.9,68.2z"/>
				</g>
				<g>
					<polygon class="st1" points="163.3,46.5 156.2,47.6 155.7,45.1 164,43 170.8,47.9 169.5,50.1 					"/>
				</g>
				<g>
					<polygon class="st1" points="170.6,50.9 174.6,42.9 176.8,43.7 172.6,52.1 					"/>
				</g>
				<g>
					<g>
						<path class="st4" d="M175.3,63.7c-0.2,0.2-0.3,0.5-0.6,0.6l-3.4,0.6c-0.5,0.1-0.9,0.3-1.2,0.7l-0.1,0.2c0,0-2.5,2.1-3,2.5
							c0,0-0.2,0.2,0.1,0.6c0.3,0.4,0.6,1.3,0.6,1.3l-0.2,0c0,0-1.1-1.2-1.6-1.2c-0.5,0-1.5,0.2-1.8,0.4c-0.4,0.2-0.8,1-1.4,1.1
							c-0.6,0.1-1.4,0.4-2.2,0.5c-0.8,0.1-1.5,0.2-3.1,0.8c-1.5,0.6-3.3,1.5-3.3,1.5s-1.7,0-3.1,0.3c-1.4,0.3-2.6-0.3-3.6,1.7
							c0,0-1,1.9-0.5,1.8c0.8-0.1,12,0.3,17.6-2.2c6-2.6,7.6-3.8,10.8-9.3c0.1-0.2,0.2-0.4,0.1-0.7l0.1-0.2c0,0,0.2-0.2,1.9-3.6
							l-0.4-0.4C176.9,60.4,176.4,62.4,175.3,63.7z"/>
					</g>
					<path class="st3" d="M177.6,61.1c-0.7,1.2-1.3,2.4-1.9,3.6c-0.1,0.2,0,0.4,0,0.6c0,0.1,0,0.1,0,0.2c-0.3,0.6-0.6,1.3-1,1.8
						c-2,3.5-5.4,5.9-9.1,7.4c-5.9,2.5-12.3,2.5-18.6,2.4c-0.1,0-0.4-0.2-0.4-0.3c0,0,0,0,0,0c3.1-0.2,6.6-0.1,9.7-0.5
						c6.8-0.8,14-3.4,18-9.2c0.4-0.6,0.7-1.2,1.1-1.8l0,0c0,0,0,0,0,0c0,0,0,0,0,0c0,0,0,0,0,0c0-0.3-0.1-0.6,0-0.8
						c0.2-0.4,0.6-1.2,0.8-1.6c0.4-0.7,0.8-1.4,1.2-2.1C177.5,60.9,177.5,60.9,177.6,61.1L177.6,61.1z"/>
				</g>
			</g>
		</g>
		<g>
			<g>
				<path class="st1" d="M117.4,40.3h-6.7v-9.7h-10.6v9.7h-6.6v-26h6.6v10.1h10.6V14.4h6.7V40.3z"/>
			</g>
			<g>
				<g>
					<path class="st1" d="M147.4,40.3h-7.3l-1.4-3.8h-10.2l-1.4,3.8h-7.3l10.5-26h6.6L147.4,40.3z M130.7,30.5h5.7l-2.8-7.6
						L130.7,30.5z"/>
				</g>
				<g>
					<polygon class="st1" points="127.6,12.3 128,7.6 139.3,10.2 138.6,13.4 					"/>
				</g>
			</g>
			<g>
				<path class="st1" d="M149.7,14.4h5.7l11.6,14.5V14.4h6.6v26h-5.6l-11.6-14.5v14.5h-6.7V14.4z"/>
			</g>
			<g>
				<path class="st1" d="M202.5,25.3v15.2h-5.2v-2.9c-1.3,1.9-3.9,2.8-6.6,2.8c-7.5,0-13.8-5.8-13.8-13c0-7.2,6.3-13,13.8-13
					c4.5,0,8.5,2.1,11,5.2l-5.4,3.5c-1.3-1.6-3.3-2.6-5.6-2.6c-3.9,0-7.1,3-7.1,6.8c0,3.8,3.1,6.8,7.1,6.8c2.3,0,4.3-1.1,5.6-2.9
					v-0.7h-6.3v-5.3H202.5z"/>
			</g>
		</g>
	</g>
</g>
</svg>
