<?xml version="1.0" encoding="utf-8"?>
<!-- Generator: Adobe Illustrator 26.3.1, SVG Export Plug-In . SVG Version: 6.00 Build 0)  -->
<svg version="1.1" id="Layer_1" xmlns="http://www.w3.org/2000/svg" xmlns:xlink="http://www.w3.org/1999/xlink" x="0px" y="0px"
	 viewBox="0 0 67 50" style="enable-background:new 0 0 67 50;" xml:space="preserve">
<style type="text/css">
	.st0{fill:#F79131;}
</style>
<g id="Layer_2_00000155142287633914029930000012090071907805248136_">
	<g id="Layer_1-2">
		<path class="st0" d="M10.6,22c-0.1,0.1-0.2,0.2-0.3,0.2c-0.1,0-0.2,0.1-0.3,0c-0.2,0-0.4-0.2-0.5-0.4c0-0.1-0.1-0.2,0-0.3
			c0-0.2,0.2-0.4,0.4-0.5c0.1,0,0.2,0,0.3,0c0.1,0,0.2,0.1,0.3,0.1c0.1,0.1,0.2,0.2,0.2,0.3C10.8,21.6,10.7,21.8,10.6,22L10.6,22z"
			/>
		<path class="st0" d="M15.2,12.3c0,0.3-0.1,0.7-0.3,0.9c-0.2,0.3-0.5,0.6-0.8,0.7c-0.4,0-0.7-0.1-1-0.3l-1.4-0.9c0,0,0,0,0-0.1
			c0,0,0,0,0-0.1l0.4-0.6c0,0,0.1,0,0.1,0l1.5,0.9c0.1,0.1,0.3,0.1,0.4,0.1c0.1,0,0.2-0.1,0.3-0.2c0.1-0.1,0.1-0.2,0.1-0.4
			c-0.1-0.2-0.2-0.3-0.3-0.4l-1.4-0.9c-0.1,0-0.1-0.1,0-0.1l0.3-0.5c0,0,0.1,0,0.1,0l1.5,0.9C14.8,11.7,15.1,12,15.2,12.3z"/>
		<path class="st0" d="M16.7,6.5C16.7,6.5,16.7,6.5,16.7,6.5l2.1,2c0,0,0,0,0,0.1c0,0,0,0,0,0.1l-0.4,0.4c0,0,0,0-0.1,0
			c0,0,0,0-0.1,0l-1.9-0.3c0,0,0,0,0,0c0,0,0,0,0,0l1,1.1c0,0,0,0,0,0.1c0,0,0,0.1,0,0.1L17,10.4c-0.1,0-0.1,0.1-0.1,0l-2-2
			c0,0,0-0.1,0-0.1c0,0,0,0,0,0l0.5-0.5c0,0,0,0,0.1,0c0,0,0.1,0,0.1,0L17.1,8c0,0,0,0,0.1,0c0,0,0,0,0-0.1L16.2,7c0,0,0-0.1,0-0.1
			c0,0,0,0,0,0L16.7,6.5z"/>
		<path class="st0" d="M19.6,4.3c0,0,0.1,0,0.1,0l1.6,2.3c0,0,0,0.1,0,0.1c0,0,0,0.1-0.1,0.1l-0.6,0.4c0,0-0.1,0-0.1,0
			c0,0,0,0-0.1-0.1l-1.6-2.3c0,0,0,0,0-0.1c0,0,0,0,0-0.1L19.6,4.3z"/>
		<path class="st0" d="M23.7,5.3c-0.2,0-0.5-0.1-0.7-0.3c-0.2-0.2-0.4-0.4-0.5-0.7c-0.1-0.3-0.2-0.5-0.2-0.8c0-0.3,0.1-0.5,0.3-0.7
			c0.2-0.2,0.4-0.4,0.6-0.5c0.2-0.1,0.5-0.2,0.8-0.1c0.3,0,0.5,0.1,0.7,0.3c0.2,0.2,0.4,0.4,0.5,0.7c0.1,0.3,0.2,0.5,0.1,0.8
			c0,0.3-0.1,0.5-0.3,0.7c-0.2,0.2-0.4,0.4-0.6,0.5C24.2,5.3,24,5.3,23.7,5.3z M24.5,4.4c0-0.1,0.1-0.2,0-0.3c0-0.2-0.1-0.3-0.2-0.5
			c-0.1-0.2-0.2-0.4-0.4-0.6c-0.1-0.1-0.3-0.1-0.4-0.1c-0.2,0.1-0.3,0.2-0.3,0.3c0,0.2,0.1,0.5,0.2,0.7c0.1,0.2,0.1,0.3,0.2,0.5
			c0.1,0.1,0.1,0.2,0.3,0.2c0.1,0,0.2,0,0.3,0C24.3,4.5,24.4,4.5,24.5,4.4z"/>
		<path class="st0" d="M29.8,0.6C29.9,0.6,29.9,0.6,29.8,0.6l0.6,2.9c0,0,0,0,0,0.1c0,0,0,0-0.1,0l-0.5,0.1c0,0,0,0-0.1,0
			c0,0,0,0-0.1,0l-1.4-1.3c0,0,0,0,0,0c0,0,0,0,0,0l0.3,1.4c0,0,0,0,0,0.1c0,0,0,0-0.1,0l-0.6,0.1c-0.1,0-0.1,0-0.1-0.1l-0.5-2.8
			c0,0,0-0.1,0.1-0.1c0,0,0,0,0,0L28,0.9c0,0,0.1,0,0.1,0c0,0,0.1,0,0.1,0l1.2,1.2c0,0,0,0,0.1,0c0,0,0,0,0-0.1l-0.2-1.3
			c0,0,0-0.1,0.1-0.1c0,0,0,0,0,0L29.8,0.6z"/>
		<path class="st0" d="M37.9,2.4c-0.1,0.1-0.3,0.2-0.4,0.3c-0.2,0-0.4,0.1-0.6,0l-0.5-0.1c0,0,0,0-0.1,0c0,0,0,0,0,0l-0.2,0.9
			c0,0,0,0.1,0,0.1c0,0-0.1,0-0.1,0l-0.7-0.1c0,0-0.1,0-0.1,0c0,0,0-0.1,0-0.1l0.5-2.8c0-0.1,0-0.1,0.1-0.1l1.3,0.2
			c0.2,0,0.4,0.1,0.6,0.2C37.9,1,38,1.2,38.1,1.3c0.1,0.2,0.1,0.4,0.1,0.6C38.1,2.1,38,2.2,37.9,2.4z M37.2,1.5
			c-0.1-0.1-0.1-0.1-0.2-0.1l-0.3-0.1c0,0,0,0-0.1,0c0,0,0,0,0,0.1l-0.1,0.5c0,0,0,0,0,0.1c0,0,0,0,0,0L36.9,2c0.1,0,0.2,0,0.2-0.1
			c0.1-0.1,0.1-0.1,0.1-0.2C37.2,1.6,37.2,1.6,37.2,1.5z"/>
		<path class="st0" d="M41.6,2c0,0,0.1,0.1,0,0.1l-0.9,2.6c0,0,0,0.1-0.1,0.1c0,0-0.1,0-0.1,0l-0.6-0.2c0,0-0.1,0-0.1-0.1
			c0,0,0-0.1,0-0.1l0.9-2.6c0,0,0,0,0-0.1c0,0,0,0,0.1,0L41.6,2z"/>
		<path class="st0" d="M42.7,5.6C42.7,5.6,42.7,5.6,42.7,5.6l0.1-0.2c0,0,0-0.1,0.1-0.1c0,0,0.1,0,0.1-0.1l2-0.9c0,0,0,0,0,0
			c0,0,0,0,0,0L44,3.7c0,0,0,0-0.1-0.1c0,0,0-0.1,0-0.1l0.2-0.4c0,0,0,0,0,0c0,0,0,0,0.1,0l2.1,1.2c0,0,0,0,0,0c0,0,0,0,0,0.1
			l-0.1,0.2c0,0,0,0-0.1,0.1c0,0-0.1,0-0.1,0l-2,0.9l0,0c0,0,0,0,0,0.1l1,0.6c0.1,0,0.1,0.1,0,0.1L45,6.9c0,0,0,0-0.1,0
			c0,0-0.1,0-0.1,0L42.7,5.6C42.7,5.7,42.7,5.6,42.7,5.6z"/>
		<path class="st0" d="M46.6,8.1C46.6,8.1,46.6,8.1,46.6,8.1l0.2-0.2c0,0,0,0,0.1-0.1c0,0,0.1,0,0.1,0L49,7.4c0,0,0,0,0,0
			c0,0,0,0,0-0.1l-0.8-0.7c0,0,0,0,0-0.1c0,0,0-0.1,0-0.1l0.3-0.4c0,0,0,0,0.1,0c0,0,0,0,0.1,0l1.8,1.6c0,0,0,0,0,0.1c0,0,0,0,0,0.1
			l-0.1,0.2c0,0,0,0-0.1,0c0,0-0.1,0-0.1,0L48,8.5c0,0,0,0,0,0c0,0,0,0,0,0.1l0.9,0.8c0,0,0.1,0.1,0,0.1l-0.3,0.4c0,0,0,0-0.1,0
			c0,0-0.1,0-0.1,0L46.6,8.1C46.6,8.2,46.6,8.2,46.6,8.1z"/>
		<path class="st0" d="M49.8,11.4C49.9,11.4,49.9,11.4,49.8,11.4c0.1-0.1,0.1-0.1,0.1-0.1l2.8-0.8c0,0,0.1,0,0.1,0c0,0,0,0,0.1,0.1
			l0.5,0.6c0,0,0,0.1,0,0.1c0,0,0,0.1,0,0.1l-1.7,2.4l0,0c0,0,0,0-0.1,0c0,0,0,0-0.1,0l-0.5-0.7c0,0,0-0.1,0-0.1l0.3-0.4
			c0,0,0,0,0,0c0,0,0,0,0,0l-0.5-0.7c0,0,0,0-0.1,0L50.3,12c0,0-0.1,0-0.1,0L49.8,11.4C49.8,11.5,49.8,11.4,49.8,11.4z M51.8,12.1
			C51.8,12.1,51.8,12.1,51.8,12.1C51.9,12.1,51.9,12.1,51.8,12.1L51.8,12.1l0.5-0.6c0,0,0,0,0,0c0,0,0,0,0,0l-0.7,0.2l0,0
			c0,0,0,0,0,0.1c0,0,0,0,0,0L51.8,12.1z"/>
		<path class="st0" d="M55.1,20.8c0-0.1,0.1-0.2,0.2-0.3c0.1-0.1,0.2-0.1,0.3-0.1c0.1,0,0.2,0,0.3,0c0.2,0.1,0.4,0.3,0.4,0.5
			c0,0.1,0,0.2,0,0.3c-0.1,0.2-0.3,0.4-0.5,0.4c-0.1,0-0.2,0-0.3,0c-0.1,0-0.2-0.1-0.3-0.2c-0.1-0.1-0.1-0.2-0.1-0.3
			C55.1,21,55.1,20.9,55.1,20.8z"/>
		<path class="st0" d="M22.5,16.3c0,3,0.9,5.4,2.8,7.3s4.5,2.9,7.7,2.9c3,0,5.5-1,7.4-2.9c1.9-1.9,3-4.5,3-7.3c0-1-0.1-2-0.4-3
			c-0.1-0.2-0.3-0.4-0.5-0.4H23.4c-0.2,0-0.4,0.1-0.5,0.3C22.6,14.2,22.5,15.3,22.5,16.3z"/>
		<path class="st0" d="M33,27.7c-2.8-0.1-5.5,1-7.4,3c-1,0.9-1.7,2-2.3,3.2c-0.1,0.3,0,0.5,0.3,0.6c0.1,0,0.1,0,0.2,0h18.4
			c0.3,0,0.5-0.2,0.5-0.5c0-0.1,0-0.1,0-0.2c-0.5-1.2-1.3-2.3-2.2-3.3C38.5,28.6,36,27.7,33,27.7z"/>
		<path class="st0" d="M8.6,28.6C8.6,28.6,8.7,28.6,8.6,28.6l2.8-0.6c0,0,0.1,0,0.1,0c0,0,0,0,0,0.1l0.2,1.2c0.1,0.3,0.1,0.7,0,1
			c-0.1,0.2-0.3,0.4-0.5,0.4c-0.1,0-0.3,0-0.4,0c-0.1-0.1-0.3-0.2-0.4-0.3l0,0l0,0c0,0.2-0.1,0.4-0.2,0.5C10.2,30.9,10.1,31,10,31
			c-0.2,0.1-0.5,0-0.7-0.2c-0.2-0.3-0.4-0.6-0.4-0.9L8.6,28.6C8.6,28.7,8.6,28.6,8.6,28.6z M9.5,29.8c0,0.1,0.1,0.2,0.1,0.2
			c0.1,0,0.2,0.1,0.2,0c0.1,0,0.1-0.1,0.2-0.1c0-0.1,0.1-0.2,0-0.3L10,29.3c0,0,0-0.1,0-0.1c0,0,0,0-0.1,0l-0.4,0.1c0,0,0,0-0.1,0
			c0,0,0,0,0,0.1L9.5,29.8z M10.7,29.6c0,0.1,0.1,0.2,0.1,0.2c0.1,0,0.1,0.1,0.2,0c0.1,0,0.2-0.1,0.2-0.1c0-0.1,0-0.2,0-0.3
			l-0.1-0.3c0,0,0-0.1,0-0.1c0,0,0,0-0.1,0l-0.4,0.1c0,0,0,0-0.1,0c0,0,0,0,0,0.1L10.7,29.6z"/>
		<path class="st0" d="M13.5,34.7C13.5,34.7,13.5,34.7,13.5,34.7l-1.8-0.3c0,0-0.1,0-0.1,0l-0.2,0.1l-0.9,0.4c0,0-0.1,0-0.1,0
			c0,0-0.1,0-0.1-0.1l-0.3-0.6c0,0,0-0.1,0-0.1c0,0,0,0,0.1-0.1l1-0.4c0,0,0.1,0,0.1,0c0,0,0,0,0.1-0.1l1.1-1.5c0,0,0,0,0,0
			c0,0,0.1,0,0.1,0.1l0.3,0.8c0,0,0,0.1,0,0.1c0,0,0,0.1,0,0.1l-0.6,0.8c0,0,0,0,0,0c0,0,0,0,0,0l1,0.1c0,0,0.1,0,0.1,0
			c0,0,0,0,0.1,0.1l0.2,0.6C13.6,34.6,13.6,34.7,13.5,34.7z"/>
		<path class="st0" d="M15,41.4c-0.3-0.1-0.6-0.3-0.8-0.6c-0.3-0.3-0.4-0.6-0.4-1c0.1-0.3,0.3-0.7,0.6-0.9l1.3-1.1c0,0,0,0,0.1,0
			c0,0,0,0,0.1,0l0.5,0.6c0,0,0,0.1,0,0.1l-1.3,1.1c-0.1,0.1-0.2,0.2-0.3,0.4c0,0.1,0,0.2,0.1,0.3c0.1,0.1,0.2,0.2,0.3,0.2
			c0.2,0,0.3-0.1,0.4-0.2l1.3-1.1c0,0,0.1,0,0.1,0l0.4,0.5c0,0,0,0.1,0,0.1c0,0,0,0,0,0l-1.3,1.1C15.7,41.3,15.3,41.5,15,41.4z"/>
		<path class="st0" d="M20.6,42.7C20.6,42.7,20.6,42.8,20.6,42.7L18.8,45c0,0,0,0-0.1,0c0,0,0,0-0.1,0l-0.4-0.3c0,0,0,0,0,0
			c0,0,0,0,0-0.1l0.1-1.9c0,0,0,0,0,0s0,0,0,0l-0.9,1.2c0,0,0,0-0.1,0c0,0-0.1,0-0.1,0l-0.4-0.3c-0.1,0-0.1-0.1,0-0.1l1.7-2.2
			c0,0,0.1-0.1,0.1,0c0,0,0,0,0,0l0.5,0.4c0,0,0,0,0.1,0.1c0,0,0,0.1,0,0.1l-0.1,1.7c0,0,0,0,0,0.1s0,0,0,0l0.8-1.1c0,0,0.1,0,0.1,0
			c0,0,0,0,0,0L20.6,42.7z"/>
		<path class="st0" d="M22.9,44.1c0,0,0.1,0.1,0,0.1l-1.3,2.5c0,0,0,0.1-0.1,0.1c0,0-0.1,0-0.1,0l-0.6-0.3c0,0-0.1,0-0.1-0.1
			c0,0,0-0.1,0-0.1l1.4-2.5c0,0,0,0,0.1-0.1c0,0,0,0,0.1,0L22.9,44.1z"/>
		<path class="st0" d="M24.2,47.8c-0.2-0.2-0.3-0.4-0.3-0.7c-0.1-0.6,0.1-1.1,0.5-1.5c0.2-0.2,0.4-0.3,0.7-0.3
			c0.5-0.1,1.1,0.1,1.4,0.5c0.2,0.2,0.3,0.4,0.3,0.7c0,0.3,0,0.6-0.1,0.8c-0.1,0.3-0.2,0.5-0.5,0.7c-0.2,0.2-0.4,0.3-0.7,0.3
			c-0.3,0-0.5,0-0.8-0.1C24.6,48.2,24.4,48,24.2,47.8z M25.4,47.7c0.1,0,0.2-0.1,0.2-0.2c0.1-0.2,0.2-0.3,0.2-0.5
			c0.1-0.2,0.1-0.5,0.1-0.7c0-0.2-0.1-0.3-0.3-0.3c-0.1-0.1-0.3,0-0.4,0.1c-0.2,0.2-0.3,0.4-0.3,0.6c-0.1,0.2-0.1,0.3-0.1,0.5
			c0,0.1,0,0.2,0.1,0.3c0.1,0.1,0.1,0.1,0.2,0.2C25.2,47.7,25.3,47.7,25.4,47.7z"/>
		<path class="st0" d="M31.4,46.5C31.5,46.5,31.5,46.6,31.4,46.5l-0.3,2.9c0,0,0,0,0,0.1c0,0,0,0-0.1,0l-0.6-0.1c0,0,0,0-0.1,0
			c0,0,0,0,0-0.1l-0.9-1.6c0,0,0,0,0,0c0,0,0,0,0,0l-0.2,1.5c0,0,0,0,0,0.1c0,0-0.1,0-0.1,0l-0.5-0.1c-0.1,0-0.1,0-0.1-0.1l0.4-2.8
			c0,0,0-0.1,0.1-0.1c0,0,0,0,0,0l0.7,0.1c0,0,0.1,0,0.1,0c0,0,0,0,0.1,0.1l0.8,1.5c0,0,0,0,0,0c0,0,0,0,0-0.1l0.2-1.3
			c0,0,0-0.1,0.1-0.1c0,0,0,0,0,0L31.4,46.5z"/>
		<path class="st0" d="M36.1,46.3c0.3-0.1,0.5-0.1,0.6-0.1c0.4-0.1,0.9,0,1.3,0.2c0.3,0.2,0.5,0.6,0.6,1c0.1,0.3,0,0.5,0,0.8
			c-0.1,0.3-0.2,0.5-0.4,0.6c-0.2,0.2-0.5,0.3-0.8,0.3l-1,0.2c0,0-0.1,0-0.1,0c0,0,0-0.1,0-0.1l-0.5-2.8c0,0,0-0.1,0-0.1
			c0,0,0,0,0.1,0L36.1,46.3z M36.5,46.9C36.5,46.9,36.5,47,36.5,46.9l0.3,1.6c0,0,0,0,0,0c0,0,0,0,0,0h0c0.2,0,0.4-0.1,0.6-0.3
			c0.1-0.2,0.1-0.5,0.1-0.7c0-0.2-0.1-0.4-0.3-0.6c-0.1-0.1-0.3-0.2-0.5-0.1L36.5,46.9C36.5,46.9,36.5,46.9,36.5,46.9z"/>
		<path class="st0" d="M40.6,45.1C40.7,45.1,40.7,45.1,40.6,45.1l1,2.7c0,0,0,0.1,0,0.1c0,0-0.1,0.1-0.1,0.1L41,48.2
			c0,0-0.1,0-0.1,0c0,0,0,0,0-0.1l-0.9-2.6c0,0,0,0,0-0.1c0,0,0,0,0,0L40.6,45.1z"/>
		<path class="st0" d="M44.1,44.2c-0.1,0-0.2,0-0.3,0.1c-0.1,0-0.2,0.1-0.2,0.2c0,0.1,0,0.1,0,0.2c0,0.1,0.2,0.1,0.3,0.1l0.7-0.2
			c0.2-0.1,0.4-0.1,0.6,0c0.2,0.1,0.3,0.2,0.4,0.4c0.1,0.2,0.1,0.3,0.1,0.5c0,0.2-0.1,0.4-0.2,0.5c-0.1,0.2-0.3,0.3-0.5,0.4
			c-0.2,0.1-0.5,0.2-0.8,0.3c-0.2,0-0.4,0-0.6-0.1c0,0,0,0,0,0c0,0,0-0.1,0-0.1l0.2-0.5c0,0,0,0,0.1-0.1c0,0,0.1,0,0.1,0
			c0.1,0.1,0.2,0.1,0.4,0.1c0.1,0,0.3-0.1,0.4-0.1c0.1-0.1,0.2-0.1,0.3-0.2c0.1-0.1,0.1-0.1,0-0.2c0,0-0.1-0.1-0.1-0.1
			c-0.1,0-0.1,0-0.2,0l-0.6,0.2c-0.2,0.1-0.5,0.1-0.7,0c-0.2-0.1-0.4-0.2-0.5-0.4c-0.1-0.2-0.1-0.3-0.1-0.5c0-0.2,0.1-0.4,0.2-0.5
			c0.1-0.2,0.3-0.3,0.5-0.4c0.2-0.1,0.4-0.2,0.6-0.2c0.2,0,0.4,0,0.5,0.1c0,0,0,0,0.1,0c0,0,0,0,0,0.1l-0.2,0.5c0,0,0,0,0,0
			c0,0-0.1,0-0.1,0C44.2,44.3,44.1,44.2,44.1,44.2z"/>
		<path class="st0" d="M45.9,42.4C45.9,42.4,45.9,42.3,45.9,42.4c0-0.1,0-0.1,0-0.1l1.8-1.6c0,0,0,0,0.1,0c0,0,0,0,0.1,0l0.3,0.4
			c0,0,0,0.1,0,0.1l-0.6,0.5c0,0,0,0,0,0.1l1.4,1.7c0,0,0,0,0,0.1c0,0,0,0,0,0.1L48.5,44c0,0-0.1,0-0.1,0c0,0,0,0,0,0L47,42.3
			c0,0,0,0-0.1,0l-0.5,0.5c0,0-0.1,0-0.1,0L45.9,42.4z"/>
		<path class="st0" d="M52.9,39.2C53,39.2,53,39.2,52.9,39.2c0,0.1,0,0.1,0,0.1l-0.5,0.6c0,0-0.1,0.1-0.1,0l-1.1-0.4c0,0,0,0-0.1,0
			c0,0,0,0-0.1,0.1L51,39.8c0,0,0,0,0,0c0,0,0,0,0,0l0.8,0.6c0,0,0,0,0.1,0.1c0,0,0,0.1,0,0.1l-0.4,0.5c0,0,0,0-0.1,0.1
			c0,0-0.1,0-0.1,0l-2.2-1.7c-0.1,0-0.1-0.1,0-0.1l0.8-1.1c0.2-0.3,0.4-0.5,0.7-0.6c0.2-0.1,0.5,0,0.7,0.1c0.1,0.1,0.2,0.3,0.3,0.4
			c0.1,0.2,0.1,0.3,0,0.5c0,0,0,0,0,0h0L52.9,39.2C52.9,39.2,52.9,39.2,52.9,39.2z M50.9,38.9c0-0.1-0.1-0.1-0.1-0.2
			c-0.1-0.1-0.2-0.1-0.2-0.1c-0.1,0-0.2,0.1-0.2,0.1L50.1,39c0,0,0,0,0,0.1c0,0,0,0,0,0.1l0.3,0.3c0,0,0,0,0.1,0c0,0,0,0,0.1,0
			l0.3-0.3C50.9,39,50.9,39,50.9,38.9L50.9,38.9z"/>
		<path class="st0" d="M52,35.2c0,0,0.1-0.1,0.1,0l2.4,1.4c0,0,0.1,0,0.1,0.1c0,0,0,0.1,0,0.1l-0.3,0.6c0,0,0,0-0.1,0.1
			c0,0-0.1,0-0.1,0L51.7,36c0,0,0,0-0.1-0.1c0,0,0,0,0-0.1L52,35.2z"/>
		<path class="st0" d="M53.6,31.7c0.1-0.1,0.3-0.2,0.5-0.3c0.2-0.1,0.4-0.1,0.5-0.1c0,0,0.1,0,0.1,0c0,0,0,0,0,0c0,0,0,0,0,0.1
			l-0.2,0.7c0,0,0,0,0,0c0,0,0,0-0.1,0c-0.1,0-0.2,0-0.3,0c-0.1,0-0.2,0.1-0.2,0.2c-0.1,0.1,0,0.3,0.1,0.4c0.2,0.2,0.4,0.3,0.6,0.4
			c0.2,0.1,0.5,0.1,0.7,0.1c0.2,0,0.3-0.1,0.3-0.3c0-0.1,0.1-0.3,0-0.4c0-0.1-0.1-0.3-0.3-0.4c0,0,0,0,0-0.1c0,0,0,0,0,0l0.3-0.4
			c0,0,0.1,0,0.1,0c0.1,0.1,0.2,0.1,0.3,0.3c0.1,0.2,0.2,0.4,0.3,0.6c0.1,0.5-0.1,1.1-0.5,1.4c-0.2,0.2-0.4,0.3-0.7,0.3
			c-0.3,0-0.6,0-0.8-0.1c-0.3-0.1-0.5-0.2-0.7-0.4c-0.2-0.2-0.3-0.4-0.3-0.7C53.1,32.5,53.3,32,53.6,31.7L53.6,31.7z"/>
		<path class="st0" d="M54.2,29.5C54.2,29.5,54.2,29.5,54.2,29.5c-0.1-0.1-0.1-0.1-0.1-0.1l0.3-2.4c0,0,0-0.1,0-0.1c0,0,0,0,0.1,0
			l0.5,0.1c0.1,0,0.1,0,0.1,0.1L55,27.8c0,0,0,0.1,0,0.1l2.2,0.3c0,0,0,0,0.1,0c0,0,0,0,0,0.1L57.2,29c0,0.1,0,0.1-0.1,0.1l-2.2-0.3
			c0,0-0.1,0-0.1,0l-0.1,0.7c0,0.1,0,0.1-0.1,0.1L54.2,29.5z"/>
	</g>
</g>
</svg>
