<?xml version="1.0" encoding="utf-8"?>
<!-- Generator: Adobe Illustrator 26.3.1, SVG Export Plug-In . SVG Version: 6.00 Build 0)  -->
<svg version="1.1" id="Layer_1" xmlns="http://www.w3.org/2000/svg" xmlns:xlink="http://www.w3.org/1999/xlink" x="0px" y="0px"
	 viewBox="0 0 215 87" style="enable-background:new 0 0 215 87;" xml:space="preserve">
<style type="text/css">
	.st0{fill:#221F1F;}
</style>
<g>
	<path class="st0" d="M52,37.2c0,0.9,0,1.6,0.1,2.2c0.1,0.6,0.2,0.9,0.5,1.3c0.2,0.2,0.5,0.5,0.9,0.6c0.4,0.1,0.8,0.1,1.5,0v1.8
		c-0.9,0-1.9,0.1-2.8,0.1c-0.9,0-1.9,0.1-2.8,0.2l-0.1-3.8c-0.6,1.3-1.3,2.2-2.3,2.9c-0.9,0.7-2.1,0.9-3.3,0.9
		c-0.8,0-1.5-0.1-2.1-0.4c-0.6-0.2-1.1-0.5-1.4-0.8c-0.4-0.4-0.7-0.7-0.8-1.2c-0.2-0.5-0.4-0.9-0.5-1.3c-0.1-0.5-0.1-0.9-0.1-1.3
		s0-0.7,0-1.1v-2.6c0-0.9,0-1.6-0.1-2.2c-0.1-0.6-0.2-0.9-0.4-1.3c-0.2-0.4-0.5-0.5-0.8-0.6c-0.4-0.1-0.8-0.1-1.4,0V29
		c0.9,0,2-0.1,2.9-0.1s2-0.1,2.9-0.2v7.9c0,0.4,0,0.8,0,1.4s0.1,1.1,0.4,1.5s0.5,0.8,0.9,1.2c0.5,0.4,1.1,0.5,1.9,0.5
		c0.6,0,1.2-0.1,1.6-0.4s0.9-0.6,1.3-1.1c0.4-0.5,0.7-0.9,0.9-1.6c0.2-0.6,0.4-1.4,0.4-2.2v-1.1c0-0.9,0-1.6-0.1-2.2
		c-0.1-0.6-0.2-0.9-0.4-1.3c-0.2-0.4-0.5-0.5-0.8-0.6c-0.4-0.1-0.8-0.1-1.4,0v-1.8c0.9,0,2-0.1,2.9-0.1s2-0.1,2.9-0.2v8.6H52z"/>
	<path class="st0" d="M73.2,37.4c0,0.8,0,1.5,0.1,2c0.1,0.5,0.2,0.9,0.4,1.2c0.2,0.2,0.5,0.5,0.8,0.6c0.4,0.1,0.8,0.1,1.4,0.1v1.8
		h-8.6v-1.8c0.6,0,1.1,0,1.4-0.1s0.6-0.2,0.8-0.6c0.2-0.2,0.4-0.7,0.4-1.2c0-0.5,0.1-1.2,0.1-2v-2.2c0-1.4-0.2-2.6-0.8-3.3
		c-0.5-0.7-1.4-1.1-2.6-1.1c-0.6,0-1.2,0.1-1.6,0.4c-0.6,0.2-0.9,0.6-1.4,1.1c-0.4,0.5-0.7,0.9-0.9,1.6c-0.2,0.6-0.4,1.4-0.4,2.2
		v1.4c0,0.8,0,1.5,0.1,2c0.1,0.5,0.2,0.9,0.4,1.2c0.2,0.2,0.5,0.5,0.8,0.6c0.4,0.1,0.8,0.1,1.4,0.1v1.8h-8.7v-1.8
		c0.7,0,1.2,0,1.5-0.1c0.4-0.1,0.7-0.2,0.9-0.6c0.2-0.2,0.4-0.7,0.4-1.2c0.1-0.5,0.1-1.2,0.1-2v-2.7c0-0.9,0-1.6-0.1-2.2
		c-0.1-0.6-0.2-0.9-0.5-1.3c-0.2-0.4-0.5-0.5-0.9-0.6c-0.4-0.1-0.9-0.1-1.5,0v-1.8c0.9,0,1.9-0.1,2.9-0.1c0.9,0,1.9-0.1,2.9-0.2
		l0.1,3.7c0.6-1.3,1.4-2.2,2.5-2.8s2.2-0.9,3.5-0.9c3.4,0,5,2,5,6C73.2,34.5,73.2,37.4,73.2,37.4z"/>
	<path class="st0" d="M77.2,41.3c0.7,0,1.2,0,1.5-0.1c0.4-0.1,0.7-0.2,0.9-0.6c0.2-0.2,0.4-0.7,0.4-1.2c0.1-0.5,0.1-1.2,0.1-2v-2.7
		c0-0.9,0-1.6-0.1-2.2s-0.2-0.9-0.5-1.3c-0.2-0.4-0.5-0.5-0.9-0.6c-0.4-0.1-0.9-0.1-1.5,0v-1.8c1.1,0,2-0.1,3-0.1
		c1.1,0,2-0.1,2.9-0.2v8.8c0,0.8,0,1.5,0.1,2c0.1,0.5,0.2,0.9,0.4,1.2c0.2,0.2,0.5,0.5,0.8,0.6c0.4,0.1,0.9,0.1,1.5,0.1v1.8h-8.9
		v-1.6H77.2z M81.3,26.1c-0.7,0-1.2-0.2-1.5-0.6c-0.4-0.4-0.6-0.9-0.6-1.5s0.2-1.2,0.6-1.5c0.4-0.4,0.9-0.6,1.5-0.6s1.2,0.2,1.5,0.6
		c0.4,0.4,0.6,0.9,0.6,1.5s-0.2,1.2-0.6,1.5C82.4,26,82,26.1,81.3,26.1"/>
	<path class="st0" d="M97.8,28.8h7.3v1.8c-0.5,0-0.8,0-1.2,0.1s-0.7,0.2-0.9,0.5c-0.2,0.2-0.6,0.6-0.8,1.1c-0.2,0.5-0.6,1.1-0.8,1.8
		l-3.7,9.2h-3.6L90.2,34c-0.4-0.7-0.6-1.3-0.8-1.6c-0.2-0.5-0.5-0.8-0.8-1.1c-0.4-0.2-0.6-0.5-0.9-0.5c-0.4-0.1-0.8-0.1-1.3-0.1
		v-1.8h8.4v1.8c-0.6,0-0.9,0-1.3,0.1c-0.4,0.1-0.5,0.2-0.6,0.5c-0.1,0.2-0.1,0.6,0,0.9c0.1,0.5,0.2,0.9,0.6,1.6l2.8,7.2l2.8-7.3
		c0.2-0.6,0.4-1.1,0.5-1.5c0.1-0.4,0.1-0.7,0-0.9c-0.1-0.2-0.2-0.4-0.6-0.5c-0.4-0.1-0.8-0.1-1.4-0.1v-1.9H97.8z"/>
	<path class="st0" d="M113.1,28.4c1.1,0,2.1,0.2,2.9,0.6c0.8,0.4,1.5,0.9,2.1,1.5c0.6,0.7,0.9,1.5,1.2,2.5c0.2,0.9,0.4,2,0.2,3.2
		h-10.7c0.1,1.5,0.6,2.7,1.4,3.7c0.8,0.8,2,1.3,3.3,1.3c2,0,3.4-0.9,4.3-2.8l1.4,0.8c-0.7,1.5-1.8,2.6-2.9,3.3
		c-1.2,0.7-2.5,1.1-4,1.1c-1.1,0-2-0.2-2.9-0.6c-0.8-0.4-1.6-0.8-2.2-1.5c-0.6-0.6-1.1-1.4-1.4-2.4s-0.5-1.9-0.5-2.9
		c0-1.2,0.2-2.1,0.6-3.2c0.4-0.9,0.9-1.8,1.5-2.5c0.7-0.7,1.4-1.2,2.3-1.6C111,28.6,112.1,28.4,113.1,28.4 M112.9,30.4
		c-1.1,0-2,0.4-2.6,1.1c-0.6,0.7-1.1,1.6-1.3,2.8h7.4c0-1.3-0.4-2.2-0.9-2.8C114.9,30.8,114,30.4,112.9,30.4"/>
	<path class="st0" d="M132.5,28.4c1.1,0,1.9,0.2,2.5,0.8s0.9,1.3,0.9,2.2c0,0.8-0.2,1.4-0.6,1.9s-0.9,0.7-1.5,0.7
		c-0.5,0-0.9-0.1-1.3-0.5c-0.4-0.4-0.6-0.8-0.6-1.3c0-0.1,0-0.4,0-0.5c0-0.1,0-0.2,0-0.4c0-0.2-0.1-0.4-0.2-0.5
		c-0.1-0.1-0.4-0.1-0.6-0.1c-0.5,0-0.9,0.1-1.3,0.5c-0.5,0.4-0.8,0.8-1.2,1.4c-0.4,0.6-0.6,1.3-0.8,2.2c-0.2,0.8-0.4,1.9-0.4,2.9
		c0,0.8,0,1.4,0.1,1.9c0.1,0.5,0.2,0.8,0.5,1.1c0.2,0.2,0.7,0.4,1.2,0.5c0.5,0.1,1.2,0.1,2.1,0.1v1.8h-9.8v-1.8c0.7,0,1.2,0,1.5-0.1
		c0.4-0.1,0.7-0.2,0.9-0.6c0.2-0.2,0.4-0.7,0.4-1.2c0.1-0.5,0.1-1.2,0.1-2v-2.7c0-0.9,0-1.6-0.1-2.2c-0.1-0.6-0.2-0.9-0.5-1.3
		c-0.2-0.4-0.5-0.5-0.9-0.6c-0.4-0.1-0.9-0.1-1.5,0V29c0.9,0,1.9-0.1,2.9-0.1c0.9,0,1.9-0.1,2.9-0.2l0.1,4.2
		c0.6-1.4,1.3-2.5,2.1-3.2C130.2,28.8,131.3,28.4,132.5,28.4"/>
	<path class="st0" d="M141,32c0,0.6,0.2,0.9,0.7,1.3c0.5,0.2,1.1,0.5,1.8,0.7c0.7,0.2,1.4,0.4,2.2,0.5c0.8,0.1,1.5,0.5,2.2,0.7
		c0.7,0.4,1.3,0.8,1.8,1.4s0.7,1.4,0.7,2.4c0,1.4-0.6,2.6-1.6,3.3c-1.1,0.7-2.5,1.2-4.3,1.2c-1.2,0-2.1-0.1-2.8-0.5
		c-0.7-0.2-1.4-0.7-1.9-1.2l-0.5,1.2h-1.6v-5.5h2c0,0.6,0.1,1.2,0.4,1.6s0.6,0.9,0.9,1.3s0.9,0.6,1.4,0.8c0.6,0.2,1.2,0.2,1.9,0.2
		c0.9,0,1.6-0.1,2.1-0.5c0.6-0.4,0.8-0.8,0.8-1.4s-0.2-1.1-0.7-1.4s-1.1-0.6-1.8-0.7c-0.7-0.2-1.4-0.4-2.2-0.5
		c-0.8-0.1-1.5-0.4-2.2-0.7c-0.7-0.4-1.3-0.7-1.8-1.3s-0.7-1.3-0.7-2.2c0-0.7,0.1-1.3,0.5-1.9c0.2-0.6,0.7-0.9,1.2-1.3
		c0.5-0.4,1.1-0.6,1.8-0.8c0.7-0.2,1.4-0.2,2.2-0.2c0.9,0,1.8,0.1,2.5,0.4c0.7,0.2,1.3,0.6,1.6,0.9l0.4-0.9h1.6v4.9h-1.9
		c-0.1-1.1-0.6-2-1.3-2.6c-0.7-0.6-1.6-0.9-2.8-0.9c-0.9,0-1.5,0.1-2.1,0.5C141.4,31,141,31.5,141,32"/>
	<path class="st0" d="M169.6,38.7c0.1,0.7,0.1,1.3,0,1.9c-0.1,0.6-0.4,1.1-0.6,1.4c-0.2,0.4-0.7,0.7-1.2,0.9
		c-0.5,0.2-1.1,0.4-1.6,0.4c-0.9,0-1.6-0.2-2.1-0.6c-0.5-0.5-0.8-0.9-0.9-1.6c-0.6,0.8-1.4,1.5-2.5,1.9c-0.9,0.4-2,0.6-2.9,0.6
		c-1.4,0-2.5-0.4-3.3-0.9c-0.8-0.7-1.3-1.6-1.3-2.8c0-0.7,0.1-1.4,0.5-1.9c0.2-0.5,0.6-0.9,1.1-1.3c0.5-0.4,0.9-0.6,1.5-0.8
		c0.6-0.2,1.2-0.4,1.8-0.5s1.2-0.2,1.8-0.4c0.6-0.1,1.1-0.2,1.5-0.4c0.5-0.1,0.8-0.4,1.1-0.6c0.2-0.2,0.5-0.6,0.5-0.9
		c0-1.9-1.1-2.7-3.2-2.7c-0.6,0-1.2,0.1-1.6,0.2c-0.5,0.2-0.7,0.5-0.7,0.9c0,0.2,0,0.4,0.1,0.6c0,0.1,0.1,0.4,0.1,0.7
		c0,0.5-0.2,0.8-0.6,1.1c-0.4,0.2-0.8,0.5-1.3,0.5c-0.6,0-1.1-0.1-1.4-0.5c-0.4-0.4-0.5-0.7-0.5-1.3c0-0.6,0.1-1.2,0.5-1.6
		c0.4-0.5,0.8-0.9,1.3-1.2c0.6-0.4,1.3-0.6,2.1-0.8s1.6-0.2,2.6-0.2c3.9,0,5.7,1.8,5.7,5.2v5.5c0,0.5,0.1,0.9,0.2,1.3
		c0.1,0.4,0.4,0.6,0.8,0.6c0.2,0,0.4-0.1,0.6-0.2c0.1-0.1,0.2-0.4,0.4-0.6c0.1-0.2,0.1-0.5,0.1-0.8c0-0.2,0-0.6,0-0.8h1.5V38.7z
		 M158.8,41.2c0.5,0,0.9-0.1,1.5-0.2c0.5-0.1,0.9-0.4,1.3-0.7s0.7-0.7,0.9-1.2s0.4-0.9,0.4-1.6v-2c-0.4,0.2-0.7,0.5-1.2,0.6
		c-0.5,0.1-0.9,0.2-1.4,0.4c-0.5,0.1-0.9,0.2-1.4,0.4c-0.5,0.1-0.9,0.2-1.3,0.5c-0.4,0.2-0.7,0.5-0.9,0.7c-0.2,0.4-0.4,0.7-0.4,1.2
		c0,0.6,0.2,1.1,0.7,1.4C157.4,40.9,158,41.2,158.8,41.2"/>
	<path class="st0" d="M170.3,41.3c0.6,0,1.1,0,1.5-0.1c0.4-0.1,0.7-0.2,0.8-0.6c0.2-0.2,0.4-0.7,0.4-1.2c0.1-0.5,0.1-1.2,0.1-2V28
		c0-0.9,0-1.6-0.1-2.2s-0.2-0.9-0.4-1.3c-0.2-0.2-0.5-0.5-0.8-0.6s-0.8-0.1-1.4,0v-1.8c0.9,0,1.9-0.1,2.9-0.1s2-0.1,2.9-0.2v15.6
		c0,0.8,0,1.5,0.1,2c0.1,0.5,0.2,0.9,0.4,1.2c0.2,0.2,0.5,0.5,0.8,0.6s0.9,0.1,1.5,0.1v1.8h-8.8L170.3,41.3L170.3,41.3z"/>
	<path class="st0" d="M92.9,60.4c-0.2,1.2-0.2,2,0,2.6s0.7,0.8,1.4,0.8c0.7,0,1.3-0.4,1.9-0.9c0.6-0.7,1.1-1.6,1.4-3.1l1.6,0.5
		c-0.2,1.1-0.5,1.9-0.9,2.6c-0.4,0.7-0.8,1.3-1.4,1.8c-0.6,0.5-1.1,0.8-1.8,1.1c-0.6,0.2-1.2,0.4-1.8,0.4c-1.4,0-2.6-0.5-3.2-1.4
		c-0.7-0.9-0.8-2.4-0.4-4.2l1.5-7.2h-3.2l0.5-1.9c0.8,0,1.4,0,2-0.1c0.6-0.1,0.9-0.2,1.4-0.6c0.4-0.4,0.7-0.8,0.9-1.5
		s0.6-1.6,0.8-2.8h2.1l-1.1,5.1h5.7l-0.5,2.1c-0.8,0-1.8-0.1-2.7-0.1s-2,0-2.9,0L92.9,60.4z"/>
	<path class="st0" d="M101.1,60.1c0-1.3,0.2-2.5,0.7-3.5c0.5-1.1,1.1-2.1,1.9-2.9c0.8-0.8,1.8-1.5,2.7-2c1.1-0.5,2.1-0.7,3.3-0.7
		c1.4,0,2.6,0.4,3.4,1.1c0.8,0.7,1.3,1.5,1.3,2.6c0,1.5-0.6,2.7-1.9,3.5s-3.2,1.3-5.5,1.3c-0.4,0-0.8,0-1.2,0s-0.8,0-1.3-0.1v0.1
		c0,1.4,0.4,2.5,0.9,3.2c0.6,0.7,1.5,1.1,2.6,1.1c1.1,0,1.9-0.2,2.7-0.8c0.8-0.5,1.5-1.3,2.1-2.1l1.3,0.9c-0.8,1.4-1.9,2.5-3,3.2
		c-1.2,0.7-2.6,1.1-4,1.1c-0.8,0-1.6-0.1-2.3-0.4c-0.7-0.2-1.3-0.6-1.9-1.2c-0.5-0.5-0.9-1.1-1.2-1.9
		C101.3,61.8,101.1,61,101.1,60.1 M104.7,57.5c0.4,0,0.8,0.1,1.2,0.1c0.4,0,0.7,0,0.9,0c1.5,0,2.7-0.2,3.5-0.8
		c0.8-0.6,1.2-1.3,1.2-2.2c0-0.6-0.2-1.1-0.6-1.4c-0.4-0.4-0.8-0.5-1.5-0.5c-0.6,0-1.2,0.1-1.6,0.4c-0.5,0.2-0.9,0.6-1.4,1.1
		c-0.5,0.5-0.8,0.9-1.1,1.5C105,56.2,104.8,57,104.7,57.5"/>
	<path class="st0" d="M125.1,50.9c0.9,0,1.8,0.1,2.3,0.4c0.7,0.2,1.3,0.6,1.9,1.1l0.5-1.1h1.6l-2,9.3c0,0.4-0.1,0.6-0.2,0.9
		c-0.1,0.4-0.1,0.7-0.1,1.1c0,0.4,0,0.6,0.1,0.8c0.1,0.2,0.4,0.4,0.6,0.4c0.4,0,0.7-0.2,1.1-0.8c0.4-0.5,0.7-1.3,0.9-2.2l1.5,0.5
		c-0.4,1.6-0.9,2.8-1.9,3.7c-0.8,0.7-1.8,1.2-2.8,1.2c-0.6,0-0.9-0.1-1.3-0.2c-0.4-0.2-0.6-0.5-0.8-0.8c-0.2-0.4-0.4-0.7-0.5-1.2
		c-0.1-0.5-0.1-0.9-0.1-1.3c-0.7,1.1-1.4,1.9-2.5,2.6c-0.9,0.7-2,0.9-3.2,0.9c-1.3,0-2.3-0.5-3.2-1.3c-0.8-0.8-1.2-2.1-1.2-3.9
		c0-1.3,0.2-2.5,0.7-3.8c0.5-1.2,1.1-2.2,1.9-3.2c0.8-0.9,1.8-1.6,2.8-2.2C122.7,51.2,123.8,50.9,125.1,50.9 M121.9,63.7
		c0.7,0,1.3-0.2,1.9-0.6c0.6-0.5,1.1-0.9,1.5-1.6c0.5-0.7,0.9-1.5,1.3-2.5c0.4-0.9,0.7-1.9,0.8-2.9l0.4-1.8
		c-0.4-0.5-0.8-0.8-1.3-1.1s-0.9-0.4-1.5-0.4c-0.8,0-1.6,0.2-2.2,0.7c-0.7,0.5-1.3,1.1-1.8,1.8c-0.5,0.7-0.8,1.5-1.1,2.5
		c-0.2,0.9-0.4,1.8-0.4,2.6c0,1.1,0.2,1.9,0.6,2.4C120.6,63.4,121.2,63.7,121.9,63.7"/>
	<path class="st0" d="M184.8,27.3c0.5,0.6,0.8,1.2,0.8,1.9c0,0.8-0.2,1.4-0.8,2c-0.5,0.5-1.2,0.7-1.9,0.7s-1.4-0.2-1.9-0.8
		c-0.5-0.5-0.8-1.2-0.8-1.9c0-0.8,0.2-1.4,0.8-2c0.6-0.5,1.2-0.7,1.9-0.7S184.3,26.8,184.8,27.3 M182.8,26.9c-0.6,0-1.2,0.2-1.6,0.7
		c-0.5,0.5-0.7,0.9-0.7,1.5c0,0.6,0.2,1.2,0.7,1.6c0.5,0.5,0.9,0.7,1.5,0.7s1.2-0.2,1.5-0.7c0.5-0.5,0.7-0.9,0.7-1.6
		c0-0.6-0.2-1.2-0.7-1.5C184,27.1,183.5,26.9,182.8,26.9 M182.5,29.6v1.1h-0.8v-3.1c0.2,0,0.5,0,0.8,0s0.6,0,0.6,0
		c0.2,0,0.5,0.1,0.6,0.1c0.2,0.1,0.4,0.4,0.4,0.7c0,0.2-0.1,0.5-0.2,0.6s-0.4,0.2-0.5,0.2c0.2,0,0.4,0.1,0.5,0.1
		c0.2,0.1,0.2,0.4,0.2,0.7v0.2c0,0,0,0,0,0.1c0,0,0,0,0,0.1v0.1h-0.7c0-0.1,0-0.2,0-0.5c0-0.2,0-0.4,0-0.4c0-0.1-0.1-0.2-0.2-0.2
		s-0.1,0-0.2,0h-0.1C182.7,29.6,182.5,29.6,182.5,29.6z M182.7,29.1c0.2,0,0.4,0,0.5-0.1c0.1-0.1,0.1-0.2,0.1-0.4s-0.1-0.2-0.2-0.4
		c-0.1,0-0.2-0.1-0.5-0.1h-0.2V29h0.4V29.1z"/>
	<path class="st0" d="M107.4,79.5c-59.5,0-106.1-16-106.1-36.4S47.9,6.6,107.4,6.6s106.1,16,106.1,36.4S166.9,79.5,107.4,79.5
		 M107.4,9.4C51.4,9.4,3.9,24.8,3.9,43.1s47.3,33.6,103.3,33.6s103.3-15.4,103.3-33.6S163.4,9.4,107.4,9.4"/>
</g>
</svg>
