<svg id="Layer_1" data-name="Layer 1" xmlns="http://www.w3.org/2000/svg" viewBox="0 0 215 87"><defs><style>.cls-1{fill:#221f1f;}.cls-2{fill:#ea8823;}.cls-3{fill:#fff;}.cls-4{fill:none;stroke:#121212;stroke-miterlimit:10;stroke-width:0.21px;}</style></defs><polygon class="cls-1" points="91.5 53.59 97.8 40.91 102.34 40.91 94.05 57.37 87.2 57.37 86.04 40.91 90.49 40.91 91.37 53.59 91.5 53.59"/><path class="cls-1" d="M114,40.91h4.4l-2.33,11a6.58,6.58,0,0,1-2.76,4.54A10.28,10.28,0,0,1,108,57.5a15.58,15.58,0,0,1-4.1-.38,2.79,2.79,0,0,1-2.33-2.83,12.52,12.52,0,0,1,.33-2.41l2.33-11h4.39l-2.3,10.88a2.92,2.92,0,0,0-.1.68,1,1,0,0,0,.7,1.06,7.47,7.47,0,0,0,1.88.15,4.15,4.15,0,0,0,2-.33,2.59,2.59,0,0,0,.94-1.76Z"/><polygon class="cls-1" points="125.77 53.59 132.06 40.91 136.6 40.91 128.31 57.37 121.47 57.37 120.3 40.91 124.76 40.91 125.63 53.59 125.77 53.59"/><path class="cls-1" d="M148.28,40.91h4.4l-2.33,11a6.54,6.54,0,0,1-2.76,4.54,10.28,10.28,0,0,1-5.31,1.08,15.63,15.63,0,0,1-4.1-.38,2.79,2.79,0,0,1-2.33-2.83,12.52,12.52,0,0,1,.33-2.41l2.33-11h4.39l-2.3,10.88a3.58,3.58,0,0,0-.1.68,1,1,0,0,0,.7,1.06,7.51,7.51,0,0,0,1.89.15,4.13,4.13,0,0,0,2-.33,2.55,2.55,0,0,0,.94-1.76Z"/><polygon class="cls-1" points="168.43 40.91 167.67 44.57 157.86 53.55 165.75 53.55 164.94 57.37 151.49 57.37 152.28 53.66 161.94 44.73 154.68 44.73 155.49 40.91 168.43 40.91"/><polygon class="cls-1" points="174.84 44.51 174.19 47.52 181.22 47.52 180.58 50.56 173.56 50.56 172.88 53.77 180.51 53.77 179.75 57.37 167.72 57.37 171.21 40.91 183.08 40.91 182.33 44.51 174.84 44.51"/><polygon class="cls-1" points="190.35 40.91 187.67 53.55 194.53 53.55 193.72 57.37 182.47 57.37 185.95 40.91 190.35 40.91"/><path class="cls-1" d="M206.5,54.54h-5.9l-1.4,2.83h-4.56l8.42-16.46h6.67l1.51,16.46h-4.47Zm-.19-3.21-.5-7.13h-.05l-3.52,7.12Z"/><path class="cls-2" d="M73.85,39.21l0,.09,0-.09"/><path class="cls-2" d="M74,38.94l0,.09,0-.09"/><path class="cls-3" d="M40.41,70.88A30.11,30.11,0,0,1,11.33,48.74l-1.18.66a7.52,7.52,0,0,1-3.63,1.22A4,4,0,0,1,5,50.34C4.1,50,2.56,46.47,2.56,45.79A4.55,4.55,0,0,1,4,42.24a4.43,4.43,0,0,1,1.6-.9,22.43,22.43,0,0,1,2.22-.55c.67-.14,1.29-.27,1.87-.45l.57-.19A30.2,30.2,0,0,1,37.77,10.68c.85-.08,1.71-.11,2.57-.12h.07a30.2,30.2,0,0,1,23,10.65A3.63,3.63,0,0,1,64.82,20a4.53,4.53,0,0,1,1.89-.41c2.64,0,5,2.24,6.11,3.58a20.51,20.51,0,0,1,5.1,10.62c.06.44.1.87.12,1.31.24,4.95-1.64,8.83-5,10.38a6.64,6.64,0,0,1-2.75.58H70.1A30.08,30.08,0,0,1,40.48,70.88Z"/><path class="cls-4" d="M40.41,70.88A30.11,30.11,0,0,1,11.33,48.74l-1.18.66a7.52,7.52,0,0,1-3.63,1.22A4,4,0,0,1,5,50.34C4.1,50,2.56,46.47,2.56,45.79A4.55,4.55,0,0,1,4,42.24a4.43,4.43,0,0,1,1.6-.9,22.43,22.43,0,0,1,2.22-.55c.67-.14,1.29-.27,1.87-.45l.57-.19A30.2,30.2,0,0,1,37.77,10.68c.85-.08,1.71-.11,2.57-.12h.07a30.2,30.2,0,0,1,23,10.65A3.63,3.63,0,0,1,64.82,20a4.53,4.53,0,0,1,1.89-.41c2.64,0,5,2.24,6.11,3.58a20.51,20.51,0,0,1,5.1,10.62c.06.44.1.87.12,1.31.24,4.95-1.64,8.83-5,10.38a6.64,6.64,0,0,1-2.75.58H70.1A30.08,30.08,0,0,1,40.48,70.88Z"/><path class="cls-1" d="M76,34a18.45,18.45,0,0,0-3-7.34,10.21,10.21,0,0,0-2.88-3,.93.93,0,0,0-1,.17l-.11.11L69,24v0a.47.47,0,0,0-.06.09s0,0,0,0l0,.09v0a.14.14,0,0,0,0,.09v0a.19.19,0,0,0,0,.07l0,.05,0,.07,0,0,.13.1C73.17,27.27,75,34.4,74,38.64c0,.1,0,.2-.08.3l0,.08a1.07,1.07,0,0,1-.07.19l0,.09a1,1,0,0,1-.07.15.41.41,0,0,1,0,.09l-.07.12-.06.08-.08.11-.07.07-.08.09-.07.06-.09.07-.08,0-.09.06-.08,0-.11.05-.08,0-.1,0-.09,0-.11,0-.09,0h-.75l-.11,0-.11,0-.11,0-.11,0-.11,0-.11,0-.11-.05-.1,0-.12,0-.1,0L70.38,40l-.09,0-.13-.07-.08,0L70,39.81l-.06,0-.16-.09,0,0a6.54,6.54,0,0,1-1.35-1.17l-.15-.18c-1.29-1.71-1.58-4-1.82-6-.09-.83-.14-1.67-.15-2.51v-.06c0-.3,0-.61,0-.91s0-.61,0-.92v-.1c0-.31,0-.61,0-.92s0-.64.06-1c0-.77.11-1.54.17-2.31a2.45,2.45,0,0,1,0-.27l0-.41.06-.86c0-.74-1.3-.32-1.5.08a12.39,12.39,0,0,1-1.73,2.54A28.14,28.14,0,0,0,12.17,40.78c0,.26,0,.52,0,.77-.65.25-1.31.49-2,.7-1.35.44-2.76.59-4.1,1a2.4,2.4,0,0,0-.88.49,2.61,2.61,0,0,0-.76,2,4.53,4.53,0,0,0,.27,1.72,1.73,1.73,0,0,0,.91,1c1.17.46,2.53-.33,3.53-.89l3.42-1.9a28.15,28.15,0,0,0,55.69-2,5.24,5.24,0,0,0,3.78-.1,6.2,6.2,0,0,0,2.77-2.84A10.57,10.57,0,0,0,76,34"/><path class="cls-2" d="M73,40.25l-.08,0,.08,0"/><path class="cls-2" d="M69.05,23.93,69,24l.08-.1"/><path class="cls-2" d="M73.17,40.14l-.08,0,.08,0"/><path class="cls-2" d="M73.48,39.85l-.07.07.07-.07"/><path class="cls-2" d="M73.62,39.66l-.06.08.06-.08"/><path class="cls-2" d="M69,24.05l-.06.09.06-.09"/><path class="cls-2" d="M73.74,39.45a.41.41,0,0,1,0,.09.41.41,0,0,0,0-.09"/><path class="cls-2" d="M68.86,24.42a.19.19,0,0,0,0,.07.19.19,0,0,1,0-.07"/><path class="cls-2" d="M73.33,40l-.07.06.07-.06"/><path class="cls-2" d="M68.89,24.17l0,.09,0-.09"/><path class="cls-2" d="M68.9,24.54l0,.07,0-.07"/><path class="cls-2" d="M66.24,28.8c0-.31,0-.61,0-.92,0,.31,0,.61,0,.92"/><path class="cls-2" d="M66.31,26.86c0-.32,0-.64.06-1,0,.33-.05.65-.06,1"/><path class="cls-2" d="M66.24,29.71c0-.3,0-.61,0-.91,0,.3,0,.61,0,.91"/><path class="cls-2" d="M66.26,27.78c0-.31,0-.61,0-.92,0,.31,0,.61,0,.92"/><path class="cls-2" d="M69.11,24.75l-.13-.1,0,0,0-.07,0-.05a.19.19,0,0,1,0-.07v0a.14.14,0,0,1,0-.09v0l0-.09v0l.06-.09v0l.08-.1h0l.12-.1h0a7,7,0,0,0-2.56-1,.22.22,0,0,0,0,.08l0,.42a2.11,2.11,0,0,0,0,.26c-.06.77-.12,1.54-.17,2.31h0q0,.48-.06,1h0c0,.31,0,.61,0,.92v.1c0,.31,0,.61,0,.92h0c0,.3,0,.61,0,.91v.06c0,.84.06,1.68.15,2.51.24,2,.53,4.31,1.82,6l.15.18h0a6.47,6.47,0,0,0,1.34,1.16l0,0,.15.09,0,0,.14.08.08,0,.13.07.09,0,.12.06.1,0,.12,0,.1,0,.11,0,.11,0,.11,0,.11,0,.11,0,.11,0,.11,0h.75l.09,0,.11,0,.09,0,.1,0,.09,0,.1-.05.08,0,.09-.06.08,0,.09-.07.07-.06.08-.09.07-.07.08-.11.06-.08.07-.12a.41.41,0,0,0,0-.09,1,1,0,0,0,.07-.15l0-.09a1.34,1.34,0,0,0,.07-.18l0-.09c0-.1,0-.2.08-.3,1-4.24-.86-11.37-4.92-13.89"/><path class="cls-2" d="M69.89,39.77l-.16-.09.16.09"/><path class="cls-2" d="M69.06,23.92l.11-.1-.11.1"/><path class="cls-2" d="M66.37,25.89c0-.77.11-1.54.17-2.31-.06.77-.12,1.54-.17,2.31"/><path class="cls-2" d="M72.81,40.34l-.08,0,.08,0"/><path class="cls-2" d="M68.86,24.38a.27.27,0,0,1,0-.09.27.27,0,0,0,0,.09"/><path class="cls-2" d="M70.08,39.89l-.14-.08.14.08"/><path class="cls-2" d="M69.11,24.75l-.13-.1.13.1"/><path class="cls-2" d="M68.37,38.5a6.47,6.47,0,0,0,1.34,1.16,6.47,6.47,0,0,1-1.34-1.16"/><path class="cls-2" d="M66.59,22.9l0,.42,0-.42"/><path class="cls-2" d="M72,40.49h0"/><path class="cls-2" d="M70.29,40l-.13-.07.13.07"/><path class="cls-2" d="M72.23,40.48h0"/><path class="cls-2" d="M72.63,40.41l-.09,0,.09,0"/><path class="cls-2" d="M72.43,40.45l-.09,0,.09,0"/><path class="cls-2" d="M71.59,40.45l-.11,0,.11,0"/><path class="cls-2" d="M71.81,40.47h0"/><path class="cls-2" d="M70.72,40.19l-.12,0,.12,0"/><path class="cls-2" d="M70.5,40.1,70.38,40l.12.06"/><path class="cls-2" d="M71.37,40.4l-.11,0,.11,0"/><path class="cls-2" d="M70.93,40.27l-.11,0,.11,0"/><path class="cls-2" d="M71.15,40.35l-.11,0,.11,0"/><path class="cls-2" d="M46,39.41c1.05,0,2.09.06,3.14.11,3.85.18,7.73.43,11.57.86a31.07,31.07,0,0,1,6.94,1.46c.59.21,1.17.52,1.77.73a3.42,3.42,0,0,0,2.36,0,3.87,3.87,0,0,0,1-.52,3,3,0,0,0,.45-.35,2.89,2.89,0,0,1,.35-.35C71,43,68.21,41.53,66.72,39c-2.49-4.24-2.19-9.33-1.83-14.11-3.91,4.69-10.9,7-17,8.81A14.57,14.57,0,0,0,46,39.41"/><path class="cls-2" d="M46,34.27l-.48.14c-6.35,1.87-12.89,2.78-19.4,4-1.31.24-2.59.55-3.87.91l-1.2.35c-.56.78-1.18,1.75-1.08,2.15a57.76,57.76,0,0,1,13.2-2.15c1.43-.09,2.87-.15,4.3-.2,2.13-.07,4.27-.09,6.4-.07A6.22,6.22,0,0,0,46,34.27"/><path class="cls-2" d="M19.53,40.13c-.8.26-1.6.54-2.4.83-1.68.61-3.35,1.24-5,1.84-.77.28-1.54.54-2.32.8a11.81,11.81,0,0,1-2.31.63,2.42,2.42,0,0,0-1.15.38c-.54.43-.37,1.45-.06,2,.55.91,1.77.52,2.56.19s1.73-1,2.6-1.42c1.11-.6,2.22-1.15,3.36-1.65a11.6,11.6,0,0,1,3.59-1.4,6.31,6.31,0,0,0,1.17-2.18"/><polygon class="cls-3" points="22.2 51.03 24.12 47.15 25.5 47.15 22.97 52.18 20.88 52.18 20.53 47.15 21.89 47.15 22.16 51.03 22.2 51.03"/><path class="cls-3" d="M29.08,47.15h1.34l-.71,3.35a2,2,0,0,1-.85,1.39,3.11,3.11,0,0,1-1.62.33A5.14,5.14,0,0,1,26,52.11a.85.85,0,0,1-.71-.87,3.69,3.69,0,0,1,.1-.74l.71-3.35h1.34l-.7,3.33a.88.88,0,0,0,0,.21.31.31,0,0,0,.21.32,2.48,2.48,0,0,0,.58,0,1.24,1.24,0,0,0,.61-.1.76.76,0,0,0,.28-.53Z"/><polygon class="cls-3" points="32.66 51.03 34.59 47.15 35.97 47.15 33.44 52.18 31.35 52.18 30.99 47.15 32.35 47.15 32.62 51.03 32.66 51.03"/><path class="cls-3" d="M39.54,47.15h1.35l-.71,3.35a2,2,0,0,1-.85,1.39,3.11,3.11,0,0,1-1.62.33,5.09,5.09,0,0,1-1.25-.11.85.85,0,0,1-.71-.87,3.69,3.69,0,0,1,.1-.74l.71-3.35H37.9l-.71,3.33a.82.82,0,0,0,0,.21.31.31,0,0,0,.21.32,2.37,2.37,0,0,0,.57,0,1.21,1.21,0,0,0,.61-.1.77.77,0,0,0,.29-.53Z"/><polygon class="cls-3" points="45.7 47.15 45.46 48.27 42.47 51.01 44.88 51.01 44.63 52.18 40.52 52.18 40.77 51.05 43.71 48.32 41.49 48.32 41.74 47.15 45.7 47.15"/><polygon class="cls-3" points="47.66 48.25 47.46 49.17 49.6 49.17 49.41 50.1 47.27 50.1 47.06 51.08 49.39 51.08 49.16 52.18 45.48 52.18 46.55 47.15 50.17 47.15 49.95 48.25 47.66 48.25"/><polygon class="cls-3" points="52.39 47.15 51.58 51.01 53.67 51.01 53.42 52.18 49.99 52.18 51.05 47.15 52.39 47.15"/><path class="cls-3" d="M57.33,51.32h-1.8l-.43.86H53.71l2.57-5h2l.46,5H57.41Zm-.06-1-.15-2.18h0L56,50.34Z"/></svg>