<svg id="Layer_1" data-name="Layer 1" xmlns="http://www.w3.org/2000/svg" viewBox="0 0 157 87"><defs><style>.cls-1{fill:#fff;}</style></defs><path class="cls-1" d="M155.37,25.16c-17.19-7.9-44.77-13-75.88-13s-58.7,5.12-75.89,13V63.33c17.19,7.9,44.78,13,75.89,13s58.69-5.12,75.88-13Z"/><path d="M79.49,73.14c-27.86,0-54.87-4.38-72.26-11.72l-.42-.18v-34l.42-.18c17.39-7.34,44.4-11.72,72.26-11.72s54.86,4.39,72.25,11.73l.42.17v34l-.42.17C134.35,68.75,107.34,73.14,79.49,73.14ZM8.17,60.34C25.42,67.51,52,71.78,79.49,71.78s54.07-4.27,71.31-11.44V28.15C133.56,21,107,16.71,79.49,16.71S25.41,21,8.17,28.15Z"/><path d="M95.92,24.86a4.9,4.9,0,0,1,3.56,1.31,4.54,4.54,0,0,1,1.34,3.42A4.59,4.59,0,0,1,99.48,33a5.56,5.56,0,0,1-7.12,0A4.59,4.59,0,0,1,91,29.59a4.55,4.55,0,0,1,1.35-3.42A4.88,4.88,0,0,1,95.92,24.86Zm0,6.68A1.56,1.56,0,0,0,97.17,31a2.31,2.31,0,0,0,0-2.82,1.55,1.55,0,0,0-1.25-.53,1.62,1.62,0,0,0-1.27.53,2.39,2.39,0,0,0,0,2.82A1.63,1.63,0,0,0,95.92,31.54Z"/><path d="M63.12,24.86a4.88,4.88,0,0,1,3.56,1.31A4.51,4.51,0,0,1,68,29.59,4.56,4.56,0,0,1,66.68,33a5.56,5.56,0,0,1-7.12,0,4.59,4.59,0,0,1-1.34-3.44,4.54,4.54,0,0,1,1.34-3.42A4.9,4.9,0,0,1,63.12,24.86Zm0,6.68A1.59,1.59,0,0,0,64.38,31a2.31,2.31,0,0,0,0-2.82,1.76,1.76,0,0,0-2.52,0,2.35,2.35,0,0,0,0,2.82A1.61,1.61,0,0,0,63.12,31.54Z"/><path d="M57.17,28.06a19.54,19.54,0,0,0-2.86-.35,1.89,1.89,0,1,0,0,3.75c.4,0,1.36-.11,2.88-.32l.44,2.68a15.2,15.2,0,0,1-3.6.49A5.38,5.38,0,0,1,50.25,33a4.43,4.43,0,0,1-1.41-3.43,4.39,4.39,0,0,1,1.41-3.41A5.34,5.34,0,0,1,54,24.87a15,15,0,0,1,3.62.5Z"/><path d="M76.18,34.12,74.79,30l-1.4,4.08H70.3l-2.64-9.06H71l1.08,4.1,1.46-4.1H76l1.47,4.12,1.08-4.12h3.32l-2.64,9.06Z"/><path d="M90.48,31.67a2.19,2.19,0,0,1-1,1.85,4,4,0,0,1-2.49.7c-1,0-2.48,0-4.44-.1V25.06C84.51,25,86,25,86.92,25a4,4,0,0,1,2.39.66,2.06,2.06,0,0,1,.92,1.75,2.25,2.25,0,0,1-1.42,2.22A2.18,2.18,0,0,1,90.48,31.67Zm-4.76-4.41v1.48h.79a.76.76,0,0,0,.81-.82c0-.41-.32-.66-.8-.66ZM87.44,31c0-.38-.32-.65-.81-.65h-.91v1.47h.92A.77.77,0,0,0,87.44,31Z"/><path d="M100.25,25.06h3.45l1.56,3.12,1.59-3.12h3.45l-3.46,6.45v2.61h-3.11V31.51Z"/><path d="M106.27,37.21h2.87l-1.62,3.68H103.9Z"/><path d="M47.35,46.62c0,8.19-6.47,9.5-13.12,7.84V48.73c2.13.29,6.14,1.12,6.15-2.39l0-4.5-3.79,0c0-1.69,0-3.43,0-5.12l10.75,0Z"/><path d="M85.87,44.81l-6.59,0c-.88-3-5.25-2.62-5.26,1.1s4.46,4,5.27,1l6.57,0C84.8,58.12,67.18,57.84,67.17,45.87S84.77,33.59,85.87,44.81Z"/><path d="M104.38,37.36l-5.44,8.48,6.23,8.75v.23l-7.82,0L94,49.68l0,5.11-6.91,0,0-17.72,6.91,0v5.47L96,39l1.1-1.92,7.29,0Z"/><path d="M118.25,43.14c0-.53-.68-.8-1.33-.8s-1.34.24-1.34.94.46.85,1,.9c3.56.3,8.31.73,8.29,5.33s-4.35,5.8-8.15,5.79c-4.24,0-8-2-8-6.28l6.59,0c0,.83.75,1.05,1.5,1.05s1.36-.19,1.36-.82-.41-.82-1.62-1c-3.71-.32-7.72-1-7.71-5.47,0-3.46,3.72-5.49,7.91-5.47,4.38,0,7.77,1.88,7.85,5.78Z"/><path d="M60.4,52.65l-5.62,0-.76,2-7.17,0V54l6.88-17.21,7.82,0L68.34,54v.69l-7.16,0Zm-3.83-4.6h2.1L57.62,43.6Z"/><path d="M54.8,64.71l1.08-1.3a3.6,3.6,0,0,0,2.28.84c.52,0,.8-.17.8-.48v0c0-.28-.23-.46-1.18-.67-1.49-.34-2.65-.75-2.65-2.2v0c0-1.32,1-2.25,2.72-2.25a4.39,4.39,0,0,1,2.88.93l-1,1.38a3.43,3.43,0,0,0-2-.7c-.48,0-.71.2-.71.46h0c0,.32.26.48,1.22.69,1.61.35,2.61.87,2.61,2.18v0c0,1.44-1.13,2.29-2.83,2.29A4.9,4.9,0,0,1,54.8,64.71Z"/><path d="M65,58.68h1.88l3,7.07H67.82l-.51-1.25H64.6l-.5,1.25h-2ZM66.75,63,66,61l-.8,2Z"/><path d="M71.34,58.73h1.94V64h3.4v1.71H71.34Z"/><path d="M78,62.26v0a3.78,3.78,0,0,1,7.56,0v0a3.78,3.78,0,0,1-7.56,0Zm5.57,0v0a1.83,1.83,0,0,0-1.8-1.9A1.79,1.79,0,0,0,80,62.22v0a1.82,1.82,0,0,0,1.8,1.89A1.79,1.79,0,0,0,83.6,62.26Z"/><path d="M87.11,62.26v0a3.78,3.78,0,0,1,7.56,0v0a3.78,3.78,0,0,1-7.56,0Zm5.57,0v0a1.83,1.83,0,0,0-1.8-1.9,1.79,1.79,0,0,0-1.78,1.88v0a1.82,1.82,0,0,0,1.8,1.89A1.79,1.79,0,0,0,92.68,62.26Z"/><path d="M96.43,58.73h1.81l2.89,3.71V58.73h1.93v7h-1.71l-3-3.85v3.85H96.43Z"/></svg>