<svg id="Layer_1" data-name="Layer 1" xmlns="http://www.w3.org/2000/svg" viewBox="0 0 215 87"><defs><style>.cls-1{fill:#d4503a;}.cls-2{fill:#da523a;}</style></defs><path class="cls-1" d="M162.85,15l-.67,1.52a1.06,1.06,0,0,1-1,.61h-.66a.39.39,0,0,1-.39-.37c-.64-8.36-5.23-13.3-12.62-13.3h0c-7.37,0-12,4.94-12.6,13.3a.41.41,0,0,1-.42.37h-.63a1,1,0,0,1-1-.61L132.25,15a1.07,1.07,0,0,0-1.41-.55.49.49,0,0,0-.25.64l.92,2.06a2.59,2.59,0,0,0,2.37,1.54h1v.09h0a19.2,19.2,0,0,0,1.9,8.48v.08h0c2.11,4,5.8,6.26,10.77,6.26h0c5,0,8.68-2.25,10.76-6.26h.06v-.12a19.1,19.1,0,0,0,1.87-8.42h0v-.09h1a2.61,2.61,0,0,0,2.38-1.54l.92-2.06a.49.49,0,0,0-.24-.64,1.07,1.07,0,0,0-1.43.53M147.55,4.91c6.58,0,10.56,4.3,11.16,11.84a.36.36,0,0,1-.34.37H152.5a2.19,2.19,0,0,0-2,1.41L148.05,25a.5.5,0,0,1-.93,0l-2.42-6.45a2.19,2.19,0,0,0-2-1.41h-5.89a.34.34,0,0,1-.33-.37C137,9.19,141,4.91,147.55,4.91m-1.91,20.61a.91.91,0,0,0,.11.25H138a.55.55,0,0,1-.53-.36,13.76,13.76,0,0,1-.61-1.91.56.56,0,0,1,.56-.69h6.79a.57.57,0,0,1,.52.35Zm5.25-2.71h7.46a15.19,15.19,0,0,1-.77,2.6.54.54,0,0,1-.52.36h-7.69c0-.08.07-.15.11-.25l.88-2.34a.55.55,0,0,1,.53-.37m-8.26-4.15a.64.64,0,0,1,.59.41l.56,1.5a.57.57,0,0,1-.53.77H137a.57.57,0,0,1-.57-.5c-.05-.51-.09-1.05-.11-1.6a.56.56,0,0,1,.56-.58Zm-3.11,8.63h6.73a.57.57,0,0,1,.57.56v3.58a.55.55,0,0,1-.62.56,9.88,9.88,0,0,1-7.15-3.8.57.57,0,0,1,.47-.9m8.76,4.16V27.87a.56.56,0,0,1,.56-.56h6.73a.56.56,0,0,1,.45.9,9.67,9.67,0,0,1-7.14,3.8.55.55,0,0,1-.6-.56m9.79-10.11h-6.23a.56.56,0,0,1-.52-.77l.56-1.5a.63.63,0,0,1,.58-.41h5.7a.55.55,0,0,1,.56.58c0,.55-.05,1.07-.11,1.6a.52.52,0,0,1-.54.5"/><path class="cls-1" d="M147.55,16.41c3.13,0,5.55-2.66,5.55-4.95s-2.5-4.22-5.55-4.22S142,9.13,142,11.46s2.42,4.95,5.55,4.95m0-7.71c2.21,0,4.09,1.26,4.09,2.76S149.74,15,147.55,15s-4.09-1.91-4.09-3.49,1.87-2.76,4.09-2.76"/><polygon points="35.1 44.78 28.86 57.26 28.22 57.26 25.76 52.02 23.14 57.26 22.5 57.26 16.61 44.78 18.6 44.78 23.04 54.42 25.03 50.49 22.33 44.78 24.32 44.78 26.03 48.48 27.88 44.78 29.38 44.78 26.74 50.04 28.76 54.42 33.62 44.78 35.1 44.78"/><path d="M53.11,51.05a6.78,6.78,0,0,1-.79,3.24A6,6,0,0,1,50,56.67a7,7,0,0,1-3.58.89,7.29,7.29,0,0,1-3.62-.87,5.7,5.7,0,0,1-2.29-2.38,7,7,0,0,1-.75-3.26,7.16,7.16,0,0,1,.75-3.28,5.85,5.85,0,0,1,2.29-2.39,7.89,7.89,0,0,1,7.24,0,5.79,5.79,0,0,1,2.29,2.39,7.11,7.11,0,0,1,.77,3.28m-2.44,2.7a6.93,6.93,0,0,0,0-5.46,4.42,4.42,0,0,0-4.22-2.62,4.56,4.56,0,0,0-2.59.71,4.41,4.41,0,0,0-1.61,1.91,6.82,6.82,0,0,0,0,5.46,4.49,4.49,0,0,0,1.61,1.89,4.6,4.6,0,0,0,2.61.7,4.52,4.52,0,0,0,2.58-.7,4.66,4.66,0,0,0,1.62-1.89"/><path d="M72.08,51.05a6.78,6.78,0,0,1-.78,3.24A6,6,0,0,1,69,56.67a7,7,0,0,1-3.58.89,7.29,7.29,0,0,1-3.62-.87,5.7,5.7,0,0,1-2.29-2.38,7.33,7.33,0,0,1,0-6.54,5.85,5.85,0,0,1,2.29-2.39,7.89,7.89,0,0,1,7.24,0,5.79,5.79,0,0,1,2.29,2.39,7.11,7.11,0,0,1,.76,3.28m-2.45,2.7a6.93,6.93,0,0,0,0-5.46,4.42,4.42,0,0,0-4.22-2.62,4.56,4.56,0,0,0-2.59.71,4.41,4.41,0,0,0-1.61,1.91,6.82,6.82,0,0,0,0,5.46,4.49,4.49,0,0,0,1.61,1.89,4.65,4.65,0,0,0,2.61.7,4.52,4.52,0,0,0,2.58-.7,4.38,4.38,0,0,0,1.62-1.89"/><polygon points="92.39 44.78 92.39 57.26 90.61 57.26 90.61 47.82 85.23 57.01 79.9 47.92 79.9 57.26 78.57 57.26 78.57 44.78 80.15 44.78 80.39 45.23 85.47 53.92 90.86 44.78 92.39 44.78"/><path d="M111.86,57.26h-2l-1.48-3.19H102.6a.77.77,0,0,0-.7.45l-1.31,2.74h-1.5l6.23-12.91H106Zm-9.06-4.41h5l-2.38-5.33Z"/><path d="M127.89,54.05h0a3,3,0,0,1-.67,1.89,4.26,4.26,0,0,1-1.84,1.33,6.78,6.78,0,0,1-2.61.49,8.89,8.89,0,0,1-2.9-.37,9.2,9.2,0,0,1-2-1l-.19-.11v-2h.77l.11.17c.29.37.57.69.83,1a3.06,3.06,0,0,0,.73.51l.06,0a4.35,4.35,0,0,0,1.57.41c.41,0,.92,0,1.39,0l.19,0a.36.36,0,0,0,.15,0l.35,0a3.2,3.2,0,0,0,1-.31,2.7,2.7,0,0,0,1-.75,1.59,1.59,0,0,0,.38-1v-.07a.24.24,0,0,0,0-.13,1.5,1.5,0,0,0-.24-.68c-.1-.13-.19-.24-.3-.36a4.5,4.5,0,0,0-1.43-.8c-.21-.08-.66-.23-1.33-.41l-.68-.19a15.6,15.6,0,0,1-2.34-.92c-.22-.11-.3-.17-.34-.19a5.33,5.33,0,0,1-.92-.79,2.79,2.79,0,0,1-.69-1.53c0-.08,0-.15,0-.23v-.17a3,3,0,0,1,.62-1.82,4.14,4.14,0,0,1,1.67-1.18,6.28,6.28,0,0,1,2.38-.41,9,9,0,0,1,1.89.22,6.29,6.29,0,0,1,.92.25,9.66,9.66,0,0,1,1,.35l.24.12v2h-.79l-.11-.16a3.29,3.29,0,0,0-1.12-1h0a4.89,4.89,0,0,0-2-.41,5.24,5.24,0,0,0-.58,0,3.4,3.4,0,0,0-1.84.71l-.09.08a.81.81,0,0,0-.13.15h0a1.33,1.33,0,0,0-.3.89v.07a.2.2,0,0,0,0,.11.88.88,0,0,0,.07.3,1.2,1.2,0,0,0,.41.6l.08.06a2.43,2.43,0,0,0,.32.24l.09.06,0,0a3.22,3.22,0,0,0,.67.34c.42.17,1,.35,1.78.62s1.43.46,2,.67l.45.19a5.14,5.14,0,0,1,1.69,1.2,2.83,2.83,0,0,1,.73,1.57c0,.08,0,.15,0,.25s0,.07,0,.13"/><polygon points="145.9 46.12 139.95 46.12 139.95 57.26 138.15 57.26 138.15 46.12 132.21 46.12 132.54 44.78 145.56 44.78 145.9 46.12"/><polygon points="153.44 55.92 161.61 55.92 161.29 57.26 151.66 57.26 151.66 44.78 161.29 44.78 161.61 46.12 153.44 46.12 153.44 49.19 158.09 49.19 158.09 50.52 153.44 50.52 153.44 55.92"/><path d="M179.86,55l-1,1.2a3,3,0,0,1-2.32,1c-2.31,0-4.56-2.29-6.36-4.13-.32-.32-.62-.64-.92-.92v5h-1.78V44.78h5.74a4.28,4.28,0,0,1,2.16.57A4.17,4.17,0,0,1,177,46.89a4.06,4.06,0,0,1,.58,2.11,4,4,0,0,1-.58,2.12,4.32,4.32,0,0,1-1.55,1.54,4.22,4.22,0,0,1-2.16.56l-.71,0c.13.13.28.25.39.34l.24.21c1.26,1.07,2.42,2.06,4.07,2.08a3.74,3.74,0,0,0,1.17-.25ZM169.3,46.13v4.15c.62.52,1.22,1.07,1.75,1.56h1.23a4.88,4.88,0,0,0,.79-.06,3.32,3.32,0,0,0,1.09-.34,2.52,2.52,0,0,0,1.12-1,2.63,2.63,0,0,0,.38-1.35v-.17a2.68,2.68,0,0,0-.38-1.35,2.64,2.64,0,0,0-1.12-1,3.32,3.32,0,0,0-1.09-.34l-.28,0h0l-.13,0-.23,0Z"/><path class="cls-2" d="M157.34,66.5v.36c0,.13,0,.24,0,.37s0,.25,0,.36,0,.21,0,.3l-.45.07c0-.07,0-.15,0-.26s0-.22,0-.34V65.53h-.46a3.39,3.39,0,0,0-.45,0,1.89,1.89,0,0,0-.36,0l-.26,0c-.15,0-.32,0-.51,0l-.49,0-.2-.54.6.06c.2,0,.41,0,.6,0h1.5l.58,0a4.35,4.35,0,0,0,.52,0l.4,0c.28,0,.56,0,.84-.06l.77-.07-.07.5h-2.41l0,1Zm-.12-4.12a1.74,1.74,0,0,1,.51.13,1.84,1.84,0,0,1,.39.24.84.84,0,0,1,.25.34,1.1,1.1,0,0,1,.09.39.94.94,0,0,1-.11.45,1.36,1.36,0,0,1-.32.36,1.6,1.6,0,0,1-.49.24,2,2,0,0,1-.62.08,2,2,0,0,1-.6-.08,1.19,1.19,0,0,1-.46-.24.9.9,0,0,1-.3-.36.89.89,0,0,1-.12-.45,1,1,0,0,1,.1-.41,1.21,1.21,0,0,1,.26-.36,1,1,0,0,1,.41-.24,1.57,1.57,0,0,1,.53-.11.25.25,0,0,0-.08-.12.58.58,0,0,0-.19-.07l.1-.19a.59.59,0,0,1,.17,0l.2,0,.21,0a.62.62,0,0,0,.19,0,.53.53,0,0,1-.06.13,1,1,0,0,1-.06.14m.62,1.1a.71.71,0,0,0-.07-.32,1,1,0,0,0-.19-.26,1.24,1.24,0,0,0-.28-.19,1.37,1.37,0,0,0-.34-.07.74.74,0,0,0-.34.07,2.75,2.75,0,0,0-.28.19.87.87,0,0,0-.18.26.72.72,0,0,0,0,.66,1.2,1.2,0,0,0,.18.26.73.73,0,0,0,.28.17,1.09,1.09,0,0,0,.36.06,1,1,0,0,0,.34-.06.73.73,0,0,0,.28-.17,1,1,0,0,0,.19-.26,1.33,1.33,0,0,0,.05-.34"/><path class="cls-2" d="M157.34,74.11v.36c0,.13,0,.25,0,.38s0,.24,0,.35,0,.21,0,.3l-.45.08c0-.08,0-.17,0-.26s0-.23,0-.34V73.06a3.46,3.46,0,0,0-.46,0,3.39,3.39,0,0,0-.45,0l-.36,0-.26,0c-.15,0-.32,0-.51,0l-.49,0-.2-.54.6.06c.2,0,.41,0,.6,0h.92a5.72,5.72,0,0,0,.58,0h.58a4.35,4.35,0,0,0,.52,0l.4,0,.84-.06a7.45,7.45,0,0,0,.77-.09l-.07.5h-2.41l0,1Zm0-3a3.23,3.23,0,0,0,.47.14,4,4,0,0,1,.52.13l.53.11c.18,0,.35.06.5.07L159,72c-.12,0-.25-.09-.42-.15l-.52-.18c-.19-.08-.38-.13-.56-.19l-.51-.17a10.78,10.78,0,0,1-1.14.53,9.67,9.67,0,0,1-1.2.37l-.15-.19a8.81,8.81,0,0,0,1.78-.75,6.08,6.08,0,0,0,1.37-1c-.25,0-.51,0-.77,0l-.73,0a.59.59,0,0,0-.17,0h-.25l-.26,0-.24,0-.32-.51.21,0,.26,0,.28,0h.81l.67,0c.23,0,.47,0,.69-.06s.44,0,.62-.07l.19.19a4.66,4.66,0,0,1-.6.58,5.69,5.69,0,0,1-.71.5"/><path class="cls-2" d="M156.27,78.15a1.62,1.62,0,0,1,.47.13,1.09,1.09,0,0,1,.35.24,1,1,0,0,1,.25.36,1.1,1.1,0,0,1,.07.41,1.08,1.08,0,0,1-.11.47,1.48,1.48,0,0,1-.3.37,1.24,1.24,0,0,1-.45.25,2,2,0,0,1-.56.09,1.57,1.57,0,0,1-.58-.09,1.1,1.1,0,0,1-.45-.25,1,1,0,0,1-.3-.37.91.91,0,0,1-.12-.47.8.8,0,0,1,.1-.43,1.21,1.21,0,0,1,.26-.36,1.51,1.51,0,0,1,.39-.24,1.37,1.37,0,0,1,.51-.13.13.13,0,0,0-.08-.13l-.18-.1.11-.18a.61.61,0,0,1,.17,0l.19,0,.18,0,.17,0s0,.07,0,.11l0,.17m.56,1.12a1.06,1.06,0,0,0-.06-.34.63.63,0,0,0-.16-.26,1.85,1.85,0,0,0-.27-.19,1,1,0,0,0-.32,0,1,1,0,0,0-.31,0,.77.77,0,0,0-.27.19,1.06,1.06,0,0,0-.17.26,1.4,1.4,0,0,0-.05.34,1.11,1.11,0,0,0,.05.34,1.06,1.06,0,0,0,.17.26.77.77,0,0,0,.27.17.78.78,0,0,0,.31.06.79.79,0,0,0,.32-.06.77.77,0,0,0,.27-.17.71.71,0,0,0,.16-.26,1,1,0,0,0,.06-.34m2.53,3.62h-1.54c-.24,0-.48,0-.71,0l-.62,0a.49.49,0,0,1-.32-.08.42.42,0,0,1-.09-.24v-.75a.68.68,0,0,0,0-.22.14.14,0,0,0-.07-.14.54.54,0,0,0-.17-.09,1.48,1.48,0,0,0-.3-.07l.11-.23.24,0,.3,0,.3,0,.25,0c0,.06,0,.13,0,.23s0,.18,0,.24v.71a.22.22,0,0,0,0,.15s.07,0,.17,0h.56l.67,0,.7,0,.62-.08Zm-1.57-5.76a3,3,0,0,1,.33.06l.36.06.34,0,.28.06s0,.07,0,.13,0,.11,0,.17,0,.11,0,.15v2.92c0,.12,0,.23,0,.32a1.28,1.28,0,0,1,0,.3c0,.1,0,.19,0,.25l-.43.07s0-.11,0-.2a1.42,1.42,0,0,0,0-.29c0-.09,0-.2,0-.3v-3a.3.3,0,0,0-.19-.3,2.14,2.14,0,0,0-.58-.23Z"/><path d="M81.33,66.39a.77.77,0,0,1,.09.13.47.47,0,0,0,.12.09.68.68,0,0,0,.15.08.9.9,0,0,0,.22,0v.17h-.86l-1.22-1.7h-.39v1.2a.71.71,0,0,0,0,.15.11.11,0,0,0,.06.09.17.17,0,0,0,.11.06,1.05,1.05,0,0,0,.21,0v.17H78.55v-.17a1.18,1.18,0,0,0,.21,0,.27.27,0,0,0,.11-.06l.06-.09s0-.1,0-.15V64a.34.34,0,0,0,0-.15.11.11,0,0,0-.06-.1.28.28,0,0,0-.11-.05l-.21,0v-.17h1.28v.17l-.21,0-.11.05a.44.44,0,0,0-.06.1s0,.09,0,.15v1h.41l.88-1a.25.25,0,0,0,.07-.12.15.15,0,0,0,0-.09.07.07,0,0,0,0-.06l0,0-.13,0-.21,0v-.17h1.24v.17l-.23.06-.17.07a.41.41,0,0,0-.13.1L81,64l-.79.9Z"/><path d="M85.76,67a1.71,1.71,0,0,1-.7-.13,1.65,1.65,0,0,1-.54-.36,1.5,1.5,0,0,1-.34-.56,2.51,2.51,0,0,1-.11-.75,2.11,2.11,0,0,1,.13-.77,1.69,1.69,0,0,1,.36-.56,1.55,1.55,0,0,1,.54-.36,2.09,2.09,0,0,1,.67-.11,2.14,2.14,0,0,1,.7.11,1.39,1.39,0,0,1,.54.36,1.5,1.5,0,0,1,.34.56,2.51,2.51,0,0,1,.11.75,2.11,2.11,0,0,1-.13.77,1.69,1.69,0,0,1-.36.56,1.55,1.55,0,0,1-.54.36,1.67,1.67,0,0,1-.67.13m0-.24a1.17,1.17,0,0,0,.48-.1,1,1,0,0,0,.36-.3,1.46,1.46,0,0,0,.22-.47,2,2,0,0,0,.08-.63,2.08,2.08,0,0,0-.08-.64,2,2,0,0,0-.22-.51,1,1,0,0,0-.36-.32,1.12,1.12,0,0,0-.5-.11,1.38,1.38,0,0,0-.49.09,1.28,1.28,0,0,0-.36.3,1.7,1.7,0,0,0-.22.47,2.6,2.6,0,0,0,0,1.28,1.9,1.9,0,0,0,.22.5,1.08,1.08,0,0,0,.36.32,1.58,1.58,0,0,0,.51.12"/><path d="M92.64,66.39l.07.15a.22.22,0,0,0,.1.09.23.23,0,0,0,.13.06l.22,0v.15h-.82l-.58-1.25a.75.75,0,0,0-.1-.17.33.33,0,0,0-.13-.13.53.53,0,0,0-.17-.08.68.68,0,0,0-.22,0h-.25v1.15a.36.36,0,0,0,0,.15.1.1,0,0,0,.06.09.17.17,0,0,0,.11.06l.19,0v.15H90v-.15l.21,0,.11-.06a.35.35,0,0,0,.06-.09s0-.1,0-.15V64a.34.34,0,0,0,0-.15.09.09,0,0,0-.06-.09.2.2,0,0,0-.11-.06l-.21,0v-.17h1.58a2.17,2.17,0,0,1,.54.06.77.77,0,0,1,.4.17.84.84,0,0,1,.24.26.78.78,0,0,1,.07.38.69.69,0,0,1-.07.35.94.94,0,0,1-.58.43,1.65,1.65,0,0,1-.47.08,1.14,1.14,0,0,1,.22.07,1.09,1.09,0,0,1,.17.13.86.86,0,0,1,.13.17,2,2,0,0,1,.12.21ZM90.88,65h.5a1.22,1.22,0,0,0,.7-.17.59.59,0,0,0,.22-.51.63.63,0,0,0-.22-.54,1.09,1.09,0,0,0-.66-.17h-.56l0,1.39Z"/><path d="M95.47,66.89v-.15a1.33,1.33,0,0,0,.21,0l.11-.06a.26.26,0,0,0,0-.09s0-.1,0-.15V64a.34.34,0,0,0,0-.15.1.1,0,0,0,0-.1.23.23,0,0,0-.11-.05l-.21,0v-.17H98l.08,1.09H98a1.81,1.81,0,0,0-.14-.43.54.54,0,0,0-.15-.26.42.42,0,0,0-.22-.14,2.68,2.68,0,0,0-.34,0h-.73v1.37h1.2v.22h-1.2v1.13a.32.32,0,0,0,.07.22.33.33,0,0,0,.25.08h.54a.86.86,0,0,0,.34-.06.44.44,0,0,0,.23-.15,2.32,2.32,0,0,0,.16-.28,3.46,3.46,0,0,0,.12-.45h.15L98.15,67H95.47Z"/><path d="M103.72,66.33c0,.06.06.11.08.17a.41.41,0,0,0,.07.11l.11.08.19.07v.15h-1.33v-.15a.82.82,0,0,1,.21,0s.09,0,.11,0,0,0,0,0,0,0,0-.06a.14.14,0,0,0,0-.07.19.19,0,0,0,0-.09l-.23-.57h-1.46l-.19.53a.15.15,0,0,0,0,.09s0,.06,0,.08,0,0,0,0l.06.06s.07,0,.13,0,.13,0,.21.05v.15h-1.13v-.15l.19-.07a.74.74,0,0,0,.13-.08.48.48,0,0,0,.09-.11c0-.06.06-.11.08-.17l1.14-2.85h.34Zm-2.1-.71h1.28L102.26,64Z"/><path d="M108.82,63.44H110v.17l-.22.06a.33.33,0,0,0-.13.09.39.39,0,0,0-.06.15.68.68,0,0,0,0,.21v2.79h-.24L107.19,64V66.2a.68.68,0,0,0,0,.21.69.69,0,0,0,.07.15.43.43,0,0,0,.15.09,1.48,1.48,0,0,0,.25.08v.16h-1.16v-.16l.22-.06a.43.43,0,0,0,.13-.09.22.22,0,0,0,.06-.15.71.71,0,0,0,0-.21V64.08a.58.58,0,0,0,0-.19l-.06-.13a.27.27,0,0,0-.13-.09,1.77,1.77,0,0,0-.22-.08v-.15h.84l2,2.67v-2a.68.68,0,0,0,0-.21.69.69,0,0,0-.07-.15.43.43,0,0,0-.15-.09.7.7,0,0,0-.25-.06v-.17Z"/><path d="M118.67,66.33c0,.06,0,.11.07.17a1,1,0,0,0,.08.11l.11.08.19.07v.15h-1.33v-.15l.2,0c.06,0,.1,0,.12,0s0,0,0,0,0,0,0-.06a.14.14,0,0,0,0-.07.23.23,0,0,0,0-.09l-.22-.57h-1.46l-.19.53a.15.15,0,0,0,0,.09s0,.06,0,.08,0,0,0,0,0,0,.06.06.07,0,.13,0,.13,0,.2.05v.15H115.5v-.15l.19-.07a1.48,1.48,0,0,0,.13-.08.48.48,0,0,0,.09-.11c0-.06.06-.11.08-.17l1.14-2.85h.34Zm-2.12-.71h1.27L117.19,64Z"/><path d="M124.57,65.36l-.16,0-.1.06a.15.15,0,0,0,0,.09v1a1.77,1.77,0,0,1-.2.17,1.06,1.06,0,0,1-.28.15l-.36.11a2.89,2.89,0,0,1-.45,0,2.51,2.51,0,0,1-.75-.11,1.26,1.26,0,0,1-.54-.36,1.39,1.39,0,0,1-.34-.56,2.23,2.23,0,0,1-.11-.75,1.89,1.89,0,0,1,.13-.77,1.34,1.34,0,0,1,.35-.56,1.59,1.59,0,0,1,.55-.36,2.17,2.17,0,0,1,.69-.11,1.59,1.59,0,0,1,.34,0,.84.84,0,0,1,.28.09,1.34,1.34,0,0,1,.23.13.91.91,0,0,0,.16.13l.21-.39h.15l-.06,1.35h-.18a1.45,1.45,0,0,0-.4-.81,1,1,0,0,0-.73-.28,1.54,1.54,0,0,0-.5.09,1,1,0,0,0-.38.3,1.31,1.31,0,0,0-.24.47,2.12,2.12,0,0,0-.08.64,2.16,2.16,0,0,0,.08.64,1.41,1.41,0,0,0,.22.5,1.24,1.24,0,0,0,.38.34,1.13,1.13,0,0,0,.54.11.91.91,0,0,0,.56-.13.4.4,0,0,0,.21-.37v-.51a.36.36,0,0,0,0-.15.22.22,0,0,0-.07-.09.3.3,0,0,0-.15-.06c-.06,0-.15,0-.27,0v-.15h1.32v.12Z"/><path d="M127,66.74a1.18,1.18,0,0,0,.21,0,.27.27,0,0,0,.11-.06l.06-.09s0-.1,0-.15V64a.34.34,0,0,0,0-.15.11.11,0,0,0-.06-.1.19.19,0,0,0-.11-.05l-.21,0v-.17h1.28v.17l-.21,0-.11.05a.44.44,0,0,0-.06.1.66.66,0,0,0,0,.15v2.42a.71.71,0,0,0,0,.15.11.11,0,0,0,.06.09.17.17,0,0,0,.11.06,1.05,1.05,0,0,0,.21,0v.17H127Z"/><path d="M133,63.44h1.19v.17l-.23.06a.43.43,0,0,0-.13.09.39.39,0,0,0-.06.15.68.68,0,0,0,0,.21v2.79h-.24L131.38,64V66.2a.68.68,0,0,0,0,.21.44.44,0,0,0,.08.15.3.3,0,0,0,.15.09,1.1,1.1,0,0,0,.24.08v.16h-1.16v-.16l.22-.06a.33.33,0,0,0,.13-.09.22.22,0,0,0,.06-.15.71.71,0,0,0,0-.21V64.08a.58.58,0,0,0,0-.19l-.06-.13a.27.27,0,0,0-.13-.09,1.32,1.32,0,0,0-.22-.08v-.15h.84l1.95,2.67v-2a.68.68,0,0,0,0-.21.41.41,0,0,0-.07-.15.43.43,0,0,0-.15-.09.65.65,0,0,0-.25-.06v-.17Z"/><path d="M140,65.36l-.17,0-.09.06a.15.15,0,0,0,0,.09v1a1.77,1.77,0,0,1-.2.17,1.06,1.06,0,0,1-.28.15l-.36.11a2.89,2.89,0,0,1-.45,0,2.47,2.47,0,0,1-.75-.11,1.23,1.23,0,0,1-.55-.36,1.37,1.37,0,0,1-.33-.56,2.23,2.23,0,0,1-.12-.75,1.89,1.89,0,0,1,.14-.77,1.34,1.34,0,0,1,.35-.56,1.59,1.59,0,0,1,.55-.36,2.17,2.17,0,0,1,.69-.11,1.67,1.67,0,0,1,.34,0,.84.84,0,0,1,.28.09,1.27,1.27,0,0,1,.22.13,1.55,1.55,0,0,0,.17.13l.21-.39h.15l-.06,1.35h-.18a1.45,1.45,0,0,0-.4-.81,1,1,0,0,0-.73-.28,1.6,1.6,0,0,0-.51.09,1,1,0,0,0-.37.3,1.51,1.51,0,0,0-.25.47,2.51,2.51,0,0,0-.07.64,2.56,2.56,0,0,0,.07.64,1.64,1.64,0,0,0,.23.5,1.1,1.1,0,0,0,.37.34,1.18,1.18,0,0,0,.55.11.91.91,0,0,0,.56-.13.4.4,0,0,0,.21-.37v-.51a.36.36,0,0,0,0-.15.18.18,0,0,0-.08-.09.23.23,0,0,0-.15-.06,2.46,2.46,0,0,0-.26,0v-.15h1.31l0,.12Z"/><path d="M85.87,70.7a1,1,0,0,1,.5.34.85.85,0,0,1,.17.54,1.14,1.14,0,0,1-.07.43.78.78,0,0,1-.25.34.78.78,0,0,1-.35.21,1.66,1.66,0,0,1-.47.07c-.13,0-.24,0-.36,0a.68.68,0,0,1-.26-.12.66.66,0,0,1-.19-.15.81.81,0,0,1-.13-.15l-.17.42h-.15l.06-1.32h.17a1.67,1.67,0,0,0,.13.45,1.55,1.55,0,0,0,.21.36.76.76,0,0,0,.3.22.8.8,0,0,0,.39.08.73.73,0,0,0,.51-.17.58.58,0,0,0,.16-.45.49.49,0,0,0-.13-.39.69.69,0,0,0-.41-.25L84.91,71a1,1,0,0,1-.54-.36A1,1,0,0,1,84.2,70a1.1,1.1,0,0,1,.07-.41.89.89,0,0,1,.23-.3,1,1,0,0,1,.36-.19,1.51,1.51,0,0,1,.45-.08,1.46,1.46,0,0,1,.31,0c.1,0,.17.06.25.08a.56.56,0,0,1,.17.11l.13.13.15-.38h.15l-.06,1.24h-.17a3,3,0,0,0-.11-.41,2.32,2.32,0,0,0-.17-.32.88.88,0,0,0-.24-.19.83.83,0,0,0-.36-.07,1.17,1.17,0,0,0-.26,0,.36.36,0,0,0-.21.11.52.52,0,0,0-.13.17.44.44,0,0,0-.05.22.59.59,0,0,0,.15.43.82.82,0,0,0,.43.25Z"/><path d="M89.9,72.41a1.94,1.94,0,0,0,.24,0c.06,0,.12,0,.13-.06a.09.09,0,0,0,.06-.09s0-.09,0-.15V69.35H89.9a.64.64,0,0,0-.28.06.47.47,0,0,0-.21.19,1,1,0,0,0-.15.33c0,.15-.07.3-.11.51H89l.07-1.29h3.06l.08,1.29h-.15a4.94,4.94,0,0,0-.12-.51,1,1,0,0,0-.15-.33.6.6,0,0,0-.2-.19.61.61,0,0,0-.28-.06h-.45v2.72a.66.66,0,0,0,0,.15s0,.08.06.09.08.06.13.06a2.19,2.19,0,0,0,.25,0v.17H89.88l0-.17Z"/><path d="M94.59,72.56v-.15l.2,0,.12-.06s0,0,0-.09,0-.09,0-.15V69.65a.36.36,0,0,0,0-.15.11.11,0,0,0,0-.09.17.17,0,0,0-.12-.06l-.2,0v-.2h2.55l.07,1.09h-.13a2.1,2.1,0,0,0-.13-.44.71.71,0,0,0-.15-.26.54.54,0,0,0-.22-.13,1.51,1.51,0,0,0-.34,0h-.73V70.7h1.2v.23h-1.2v1.12a.33.33,0,0,0,.07.23.36.36,0,0,0,.25.07h.54a1.16,1.16,0,0,0,.34,0,.38.38,0,0,0,.22-.15,1.85,1.85,0,0,0,.17-.29,2.46,2.46,0,0,0,.11-.45h.15l-.07,1.17h-2.7Z"/><path d="M102.84,72a.87.87,0,0,1,.07.17,1,1,0,0,1,.08.11l.11.07.19.08v.15H102v-.15c.07,0,.15,0,.2,0s.1,0,.12,0l0,0s0,0,0-.06a.12.12,0,0,0,0-.08l0-.09-.23-.56h-1.46l-.19.52a.18.18,0,0,0,0,.1s0,.05,0,.07,0,.06,0,.06l.06,0s.07,0,.13,0a1.15,1.15,0,0,1,.21.06v.15H99.67v-.15a.9.9,0,0,0,.19-.08l.13-.07.09-.11c0-.06.06-.12.08-.17l1.14-2.85h.34Zm-2.1-.7H102l-.63-1.67Z"/><path d="M108.39,72.05a1.06,1.06,0,0,1,.09.13.53.53,0,0,0,.12.1l.15.07.22.06v.17h-.86l-1.22-1.71h-.39v1.2a.34.34,0,0,0,0,.15s0,.08,0,.09a.17.17,0,0,0,.11.06l.21,0v.17h-1.27v-.17c.07,0,.15,0,.2,0s.1,0,.11-.06a.23.23,0,0,0,.06-.09s0-.09,0-.15V69.65a.36.36,0,0,0,0-.15.1.1,0,0,0-.06-.09.13.13,0,0,0-.11-.06,1.73,1.73,0,0,0-.2,0v-.2h1.27v.17l-.21,0-.11.06a.26.26,0,0,0,0,.09s0,.1,0,.15v1h.41l.88-1a.28.28,0,0,0,.08-.11.31.31,0,0,0,0-.09.13.13,0,0,0,0-.06l-.06,0s-.08,0-.13,0l-.21,0v-.17h1.26v.17l-.23,0-.17.08a.6.6,0,0,0-.13.09l-.13.13-.79.9Z"/><path d="M117.94,69.26l-.21,0a.19.19,0,0,0-.11,0,.44.44,0,0,0-.06.1s0,.09,0,.15V72a.32.32,0,0,0,0,.15.11.11,0,0,0,.06.1.19.19,0,0,0,.11,0l.21,0v.17h-1.28v-.17l.21,0a.23.23,0,0,0,.11,0,.44.44,0,0,0,.06-.1s0-.09,0-.15V70.87h-1.7V72a.32.32,0,0,0,0,.15.12.12,0,0,0,0,.1.23.23,0,0,0,.12,0,1.73,1.73,0,0,0,.2,0v.17h-1.27v-.17c.07,0,.15,0,.2,0a.23.23,0,0,0,.12,0l0-.1s0-.09,0-.15V69.6a.32.32,0,0,0,0-.15.12.12,0,0,0,0-.1.17.17,0,0,0-.12,0,1.73,1.73,0,0,0-.2,0v-.15h1.27v.15l-.2,0a.23.23,0,0,0-.12,0,.46.46,0,0,0,0,.1s0,.09,0,.15v1.06h1.7V69.6a.62.62,0,0,0,0-.15.11.11,0,0,0-.06-.1.16.16,0,0,0-.11,0l-.21,0v-.15h1.28Z"/><path d="M122.17,72.63a1.55,1.55,0,0,1-.69-.13,1.3,1.3,0,0,1-.54-.35,1.36,1.36,0,0,1-.34-.57,2.19,2.19,0,0,1-.11-.75,1.92,1.92,0,0,1,.13-.77,1.67,1.67,0,0,1,.35-.56,1.44,1.44,0,0,1,.55-.35,1.81,1.81,0,0,1,.67-.12,1.9,1.9,0,0,1,.7.12,1.26,1.26,0,0,1,.54.35,1.5,1.5,0,0,1,.34.56,2.51,2.51,0,0,1,.11.75,2,2,0,0,1-.13.77,1.64,1.64,0,0,1-.36.57,1.4,1.4,0,0,1-.54.35,1.53,1.53,0,0,1-.68.13m0-.26a1.38,1.38,0,0,0,.49-.09A1.28,1.28,0,0,0,123,72a1.46,1.46,0,0,0,.22-.47,2.6,2.6,0,0,0,0-1.28,2.05,2.05,0,0,0-.22-.5,1.21,1.21,0,0,0-.36-.32,1,1,0,0,0-.5-.11,1.19,1.19,0,0,0-.49.09,1.13,1.13,0,0,0-.36.3,1.46,1.46,0,0,0-.22.47,2.08,2.08,0,0,0-.08.64,2,2,0,0,0,.08.63,2,2,0,0,0,.22.51,1.36,1.36,0,0,0,.36.32,1.25,1.25,0,0,0,.5.11"/><path d="M128.06,72.63a1.4,1.4,0,0,1-1-.33,1.37,1.37,0,0,1-.34-1V69.61a.36.36,0,0,0,0-.15.1.1,0,0,0,0-.09.17.17,0,0,0-.11-.06l-.21,0v-.17h1.27v.15c-.07,0-.15,0-.2,0s-.1,0-.11,0a.17.17,0,0,0-.06.1s0,.09,0,.15v1.63a1.23,1.23,0,0,0,.23.8,1,1,0,0,0,1.42,0,1.23,1.23,0,0,0,.23-.8V70a1.47,1.47,0,0,0,0-.32.6.6,0,0,0-.08-.2.34.34,0,0,0-.15-.14c-.05,0-.13,0-.24-.07v-.15h1.18v.15l-.23.07a.36.36,0,0,0-.13.14.48.48,0,0,0,0,.2c0,.1,0,.19,0,.32v1.31a1.45,1.45,0,0,1-.32,1,1.15,1.15,0,0,1-1,.35"/><path d="M134,70.7a1.07,1.07,0,0,1,.51.34.91.91,0,0,1,.17.54,1,1,0,0,1-.08.43.84.84,0,0,1-.24.34.88.88,0,0,1-.36.21,1.37,1.37,0,0,1-.47.07c-.13,0-.24,0-.35,0a.66.66,0,0,1-.27-.12.52.52,0,0,1-.18-.15.62.62,0,0,1-.14-.15l-.16.42h-.15l.05-1.32h.17a1.8,1.8,0,0,0,.34.81.84.84,0,0,0,.3.22.8.8,0,0,0,.39.08.7.7,0,0,0,.51-.17.58.58,0,0,0,.17-.45.53.53,0,0,0-.13-.39.77.77,0,0,0-.4-.25L133,71a1,1,0,0,1-.54-.36,1,1,0,0,1-.17-.58.94.94,0,0,1,.08-.41.64.64,0,0,1,.24-.3,1,1,0,0,1,.36-.19,1.51,1.51,0,0,1,.45-.08,1.65,1.65,0,0,1,.32,0l.24.08a.56.56,0,0,1,.17.11l.13.13.15-.38h.17l-.06,1.24h-.17a3,3,0,0,0-.11-.41,2.32,2.32,0,0,0-.17-.32.88.88,0,0,0-.24-.19.83.83,0,0,0-.36-.07,1.17,1.17,0,0,0-.26,0,.36.36,0,0,0-.21.11.52.52,0,0,0-.13.17.44.44,0,0,0-.05.22.59.59,0,0,0,.15.43.82.82,0,0,0,.43.25Z"/><path d="M137.16,72.56v-.15l.2,0a.33.33,0,0,0,.12-.06s0,0,.05-.09,0-.09,0-.15V69.65a.36.36,0,0,0,0-.15.11.11,0,0,0-.05-.09.17.17,0,0,0-.12-.06l-.2,0v-.2h2.55l.07,1.09h-.15a1.64,1.64,0,0,0-.13-.44.62.62,0,0,0-.17-.26.48.48,0,0,0-.22-.13,1.44,1.44,0,0,0-.34,0H138V70.7h1.2v.23H138v1.12a.33.33,0,0,0,.07.23.37.37,0,0,0,.25.07h.54a1.11,1.11,0,0,0,.34,0,.44.44,0,0,0,.23-.15,1.88,1.88,0,0,0,.16-.29,3.46,3.46,0,0,0,.12-.45h.15l-.08,1.17h-2.66Z"/><rect class="cls-2" x="147.06" y="61.7" width="0.98" height="21.87"/></svg>